<?xml version="1.0" encoding="UTF-8"?>
<svg version="1.1" xmlns="http://www.w3.org/2000/svg" width="512" height="512">
<path d="M0 0 C3.49347541 2.53389697 6.90721738 5.16170041 10.3125 7.8125 C16.24863565 12.38609776 22.18562152 16.93419441 28.3125 21.25 C34.21485992 25.41137606 40.00003331 29.71258258 45.76098633 34.06738281 C46.40060303 34.55045898 47.04021973 35.03353516 47.69921875 35.53125 C48.26471436 35.95986328 48.83020996 36.38847656 49.4128418 36.83007812 C50.90894305 37.93288034 52.45352945 38.96901963 54 40 C54.01458252 38.72358643 54.02916504 37.44717285 54.04418945 36.13208008 C54.1022354 31.38879621 54.17946828 26.64598393 54.26245117 21.90307617 C54.29567083 19.85172184 54.32371197 17.80027675 54.34643555 15.7487793 C54.3800357 12.79697051 54.43235476 9.84599114 54.48828125 6.89453125 C54.49467117 5.97976517 54.5010611 5.06499908 54.50764465 4.12251282 C54.61800981 -0.67540944 54.73684695 -4.20797722 58 -8 C62.15205499 -11.13748493 65.77615658 -11.4355356 70.81616211 -11.40405273 C71.58754013 -11.41091599 72.35891815 -11.41777924 73.15367126 -11.42485046 C75.69508445 -11.44310175 78.2358793 -11.43928343 80.77734375 -11.43359375 C82.5494456 -11.43815644 84.32154568 -11.44346227 86.09364319 -11.44947815 C89.80493363 -11.45840601 93.51600884 -11.45598994 97.22729492 -11.44604492 C101.97652984 -11.43455689 106.72502106 -11.45476559 111.47415829 -11.48396206 C115.1331095 -11.50233393 118.79188283 -11.50202962 122.45086861 -11.49632454 C124.20151373 -11.49617144 125.95217099 -11.50220653 127.70277214 -11.51461601 C130.15379975 -11.5295429 132.60345776 -11.51883758 135.05444336 -11.50170898 C135.77307556 -11.51137695 136.49170776 -11.52104492 137.2321167 -11.53100586 C142.28230995 -11.45733685 145.2003616 -10.30929714 149 -7 C152.87394378 -1.67587438 152.40523087 3.92110129 152.34057617 10.23779297 C152.34101425 11.36032974 152.34145233 12.48286652 152.34190369 13.63941956 C152.33981786 17.34052066 152.31649566 21.04116577 152.29296875 24.7421875 C152.28737209 27.31193799 152.28310232 29.88169169 152.28010559 32.45144653 C152.26983131 38.51808792 152.2462001 44.58454183 152.21605712 50.65111268 C152.18247524 57.56040806 152.16601762 64.4697114 152.15097082 71.37906814 C152.11964927 85.58613281 152.0669125 99.79306061 152 114 C152.78379532 114.30208374 153.56759064 114.60416748 154.37513733 114.91540527 C156.97159351 115.98826242 158.75260512 117.15683801 160.93359375 118.90625 C161.65756348 119.48004395 162.3815332 120.05383789 163.12744141 120.64501953 C163.88976074 121.25716309 164.65208008 121.86930664 165.4375 122.5 C170.91731058 126.83408227 176.40876834 131.10663417 182.125 135.125 C189.28060397 140.1635552 196.28183031 145.39555851 203.25537109 150.68261719 C204.76339143 151.82133503 206.2812082 152.94705767 207.80078125 154.0703125 C215.68104455 159.97719894 221.71513263 166.1288595 224 176 C225.02059624 186.25803363 224.66011541 195.66135961 218.3515625 204.2421875 C216.6512684 206.26917566 214.88504337 208.14515183 213 210 C212.2575 210.7425 211.515 211.485 210.75 212.25 C202.10227229 217.75309945 193.12622009 219.26293307 183 218 C174.19370612 215.79288101 167.51840474 210.74324073 160.6171875 205.109375 C158.210925 203.01668047 158.210925 203.01668047 156 202 C155.99668985 203.06368018 155.99337971 204.12736036 155.98996925 205.22327328 C155.90895004 231.11329187 155.81662678 257.00325138 155.71247292 282.89318752 C155.66236605 295.41339841 155.61592285 307.93360282 155.578125 320.45385742 C155.54516843 331.36739007 155.50531686 342.28087211 155.45720994 353.19434887 C155.4319815 358.97212283 155.41018936 364.74986337 155.39665604 370.52767754 C155.38380262 375.96868795 155.36171271 381.40958357 155.33261681 386.85053062 C155.32356669 388.84469612 155.3178568 390.83888008 155.31578636 392.83306503 C155.31244567 395.56258103 155.29691958 398.2917751 155.2784729 401.02122498 C155.28040763 401.80432665 155.28234237 402.58742832 155.28433573 403.39426035 C155.18914347 412.86141804 153.45813256 419.93291202 147 427 C141.97691445 431.77193127 136.89595252 433.24686255 130.04220963 433.26006222 C128.86600941 433.26712781 127.68980919 433.2741934 126.47796655 433.2814731 C125.19490617 433.27905802 123.91184578 433.27664293 122.58990479 433.27415466 C121.20591752 433.27860919 119.8219328 433.28392395 118.4379518 433.29002339 C114.63986551 433.30418798 110.84186111 433.30586697 107.04375219 433.30542648 C102.94545141 433.30707604 98.84718423 433.32014511 94.74890137 433.33161926 C85.79019373 433.35445714 76.83150979 433.36238848 67.87277699 433.36744571 C62.27750356 433.37070396 56.68223701 433.37722719 51.08696747 433.3844471 C35.59079841 433.40401098 20.09463573 433.42041658 4.59845352 433.42332363 C3.11136697 433.42360499 3.11136697 433.42360499 1.59423827 433.42389202 C-0.41548936 433.42425827 -2.42521698 433.42462197 -4.4349446 433.42498314 C-5.43255546 433.42516595 -6.43016632 433.42534876 -7.45800781 433.42553711 C-8.45683826 433.42571766 -9.45566871 433.42589821 -10.48476675 433.42608423 C-26.66987162 433.42962598 -42.85484345 433.45664939 -59.03990218 433.494035 C-75.66262996 433.5321239 -92.28529174 433.55148115 -108.90806413 433.55178314 C-118.23886293 433.55236756 -127.569503 433.56084954 -136.90026093 433.58978081 C-144.84527538 433.6143024 -152.79007319 433.6215723 -160.73511526 433.60653328 C-164.78708754 433.59936769 -168.8386321 433.60020635 -172.89055634 433.62294388 C-176.60427651 433.64358351 -180.31724148 433.64088799 -184.03095391 433.62006903 C-186.00166078 433.61493986 -187.97238513 433.63431539 -189.94299293 433.65473074 C-198.47345171 433.5742978 -205.52910209 432.16904394 -211.93513465 426.19551653 C-218.6235864 418.94864352 -219.14643738 410.91946982 -219.15821838 401.38198853 C-219.16315636 400.52748309 -219.16809434 399.67297765 -219.17318195 398.7925781 C-219.18850816 395.93675318 -219.19690433 393.08095066 -219.20532227 390.22509766 C-219.21490462 388.17497563 -219.22491492 386.12485556 -219.23532104 384.07473755 C-219.26233739 378.5132993 -219.28336467 372.9518526 -219.30332303 367.39038515 C-219.32520274 361.57675927 -219.35258172 355.76315936 -219.37937927 349.94955444 C-219.42927929 338.94248584 -219.47422812 327.9354028 -219.51740164 316.92830598 C-219.56679699 304.39634458 -219.62170661 291.86440923 -219.67708123 279.33247304 C-219.79085998 253.55500635 -219.89770797 227.77751465 -220 202 C-220.94464111 202.68634521 -221.88928223 203.37269043 -222.86254883 204.07983398 C-224.12308084 204.98959906 -225.38374888 205.89917566 -226.64453125 206.80859375 C-227.57465027 207.48553284 -227.57465027 207.48553284 -228.52355957 208.17614746 C-239.10296965 215.78845862 -247.86078196 218.96815291 -261 218 C-271.72857228 215.74564177 -279.19945212 209.30083323 -285.125 200.2890625 C-289.61116046 192.15789666 -289.17908215 181.9344532 -287.41015625 173.03125 C-283.33042722 161.14927422 -272.81365663 154.10682439 -262.90332031 147.32714844 C-259.64249292 145.05343657 -256.4815131 142.64919323 -253.3125 140.25 C-247.46324125 135.83955064 -241.58780546 131.46693918 -235.6875 127.125 C-234.89472656 126.54153809 -234.10195312 125.95807617 -233.28515625 125.35693359 C-230.04522037 122.97343472 -226.8043283 120.59123772 -223.56347656 118.20898438 C-215.3514643 112.17122526 -207.14566232 106.12710556 -199 100 C-190.8501105 93.86971479 -182.6397739 87.82289741 -174.42333984 81.78222656 C-170.44677489 78.8576926 -166.47349592 75.92870168 -162.5 73 C-157.71651327 69.47428716 -152.93228049 65.94961075 -148.14453125 62.4296875 C-140.73980537 56.98363105 -133.34575634 51.52542234 -126 46 C-116.24330499 38.66108784 -106.40038207 31.43979989 -96.56347656 24.20898438 C-94.14603639 22.43159767 -91.72917865 20.65342195 -89.3125 18.875 C-88.52705811 18.29758057 -87.74161621 17.72016113 -86.93237305 17.12524414 C-82.44274213 13.81923048 -77.98141347 10.47938418 -73.54077148 7.10791016 C-48.95609829 -11.5092667 -27.08066781 -18.32081926 0 0 Z " fill="#D7CDEA" transform="translate(288,45)"/>
<path d="M0 0 C3.49347541 2.53389697 6.90721738 5.16170041 10.3125 7.8125 C16.24863565 12.38609776 22.18562152 16.93419441 28.3125 21.25 C34.21485992 25.41137606 40.00003331 29.71258258 45.76098633 34.06738281 C46.40060303 34.55045898 47.04021973 35.03353516 47.69921875 35.53125 C48.26471436 35.95986328 48.83020996 36.38847656 49.4128418 36.83007812 C50.90894305 37.93288034 52.45352945 38.96901963 54 40 C54.01458252 38.72358643 54.02916504 37.44717285 54.04418945 36.13208008 C54.1022354 31.38879621 54.17946828 26.64598393 54.26245117 21.90307617 C54.29567083 19.85172184 54.32371197 17.80027675 54.34643555 15.7487793 C54.3800357 12.79697051 54.43235476 9.84599114 54.48828125 6.89453125 C54.49467117 5.97976517 54.5010611 5.06499908 54.50764465 4.12251282 C54.61800981 -0.67540944 54.73684695 -4.20797722 58 -8 C62.15205499 -11.13748493 65.77615658 -11.4355356 70.81616211 -11.40405273 C71.58754013 -11.41091599 72.35891815 -11.41777924 73.15367126 -11.42485046 C75.69508445 -11.44310175 78.2358793 -11.43928343 80.77734375 -11.43359375 C82.5494456 -11.43815644 84.32154568 -11.44346227 86.09364319 -11.44947815 C89.80493363 -11.45840601 93.51600884 -11.45598994 97.22729492 -11.44604492 C101.97652984 -11.43455689 106.72502106 -11.45476559 111.47415829 -11.48396206 C115.1331095 -11.50233393 118.79188283 -11.50202962 122.45086861 -11.49632454 C124.20151373 -11.49617144 125.95217099 -11.50220653 127.70277214 -11.51461601 C130.15379975 -11.5295429 132.60345776 -11.51883758 135.05444336 -11.50170898 C135.77307556 -11.51137695 136.49170776 -11.52104492 137.2321167 -11.53100586 C142.28230995 -11.45733685 145.2003616 -10.30929714 149 -7 C152.87394378 -1.67587438 152.40523087 3.92110129 152.34057617 10.23779297 C152.34101425 11.36032974 152.34145233 12.48286652 152.34190369 13.63941956 C152.33981786 17.34052066 152.31649566 21.04116577 152.29296875 24.7421875 C152.28737209 27.31193799 152.28310232 29.88169169 152.28010559 32.45144653 C152.26983131 38.51808792 152.2462001 44.58454183 152.21605712 50.65111268 C152.18247524 57.56040806 152.16601762 64.4697114 152.15097082 71.37906814 C152.11964927 85.58613281 152.0669125 99.79306061 152 114 C152.78379532 114.30208374 153.56759064 114.60416748 154.37513733 114.91540527 C156.97159351 115.98826242 158.75260512 117.15683801 160.93359375 118.90625 C161.65756348 119.48004395 162.3815332 120.05383789 163.12744141 120.64501953 C163.88976074 121.25716309 164.65208008 121.86930664 165.4375 122.5 C170.91731058 126.83408227 176.40876834 131.10663417 182.125 135.125 C189.28060397 140.1635552 196.28183031 145.39555851 203.25537109 150.68261719 C204.76339143 151.82133503 206.2812082 152.94705767 207.80078125 154.0703125 C215.68104455 159.97719894 221.71513263 166.1288595 224 176 C225.02059624 186.25803363 224.66011541 195.66135961 218.3515625 204.2421875 C216.6512684 206.26917566 214.88504337 208.14515183 213 210 C212.2575 210.7425 211.515 211.485 210.75 212.25 C202.10227229 217.75309945 193.12622009 219.26293307 183 218 C174.62725499 215.90154124 168.27143735 211.27027322 161.65234375 205.91796875 C157.53911248 202.59342023 153.27226599 199.49077759 149 196.375 C142.08338264 191.30866132 135.2420394 186.15325101 128.4375 180.9375 C121.28497295 175.45937253 114.06043429 170.10615266 106.73583984 164.86083984 C101.12276909 160.83345229 95.581557 156.71764293 90.0625 152.5625 C77.4065917 143.03663954 64.67031249 133.626707 51.8125 124.375 C45.52364128 119.84971607 39.29497997 115.25365134 33.10864258 110.58935547 C27.13023216 106.08472017 21.10357868 101.64735718 15.07104492 97.21557617 C10.6389778 93.9559232 6.22633879 90.67319712 1.83666992 87.35668945 C-4.48228541 82.58385313 -10.85750996 77.90006046 -17.3125 73.3125 C-18.03646973 72.79478027 -18.76043945 72.27706055 -19.50634766 71.74365234 C-20.18101074 71.26750488 -20.85567383 70.79135742 -21.55078125 70.30078125 C-22.14544189 69.87966064 -22.74010254 69.45854004 -23.3527832 69.0246582 C-27.29257246 66.57389557 -31.51057012 66.42227312 -36 67 C-42.08919732 69.22894741 -47.09897664 73.13246883 -52.125 77.125 C-53.63140867 78.29997912 -55.13923879 79.47313796 -56.6484375 80.64453125 C-57.38803711 81.21896973 -58.12763672 81.7934082 -58.88964844 82.38525391 C-61.79050427 84.60485831 -64.75915724 86.71662903 -67.75 88.8125 C-73.67354271 92.98210588 -79.43689862 97.34558344 -85.1875 101.75 C-94.26663693 108.70251429 -103.43244587 115.52458321 -112.65722656 122.28222656 C-116.61030083 125.18070828 -120.55466707 128.09099503 -124.5 131 C-126.08329243 132.16672217 -127.66662575 133.33338887 -129.25 134.5 C-130.03375 135.0775 -130.8175 135.655 -131.625 136.25 C-157.75 155.5 -157.75 155.5 -160.12573242 157.25048828 C-161.70668983 158.41543849 -163.28758192 159.58047734 -164.8684082 160.74560547 C-168.86255828 163.6892698 -172.8578843 166.63131346 -176.85546875 169.5703125 C-185.09969978 175.63390788 -193.32139291 181.72443552 -201.49804688 187.87890625 C-206.05715652 191.30632201 -210.66180452 194.66503929 -215.2890625 198 C-217.8566913 199.8942737 -220.37122626 201.84162909 -222.88183594 203.81005859 C-235.19783756 213.44602384 -244.89643264 219.37831183 -261 218 C-271.73211074 215.72266519 -279.1912029 209.31337893 -285.125 200.2890625 C-289.61116046 192.15789666 -289.17908215 181.9344532 -287.41015625 173.03125 C-283.33042722 161.14927422 -272.81365663 154.10682439 -262.90332031 147.32714844 C-259.64249292 145.05343657 -256.4815131 142.64919323 -253.3125 140.25 C-247.46324125 135.83955064 -241.58780546 131.46693918 -235.6875 127.125 C-234.89472656 126.54153809 -234.10195312 125.95807617 -233.28515625 125.35693359 C-230.04522037 122.97343472 -226.8043283 120.59123772 -223.56347656 118.20898438 C-215.3514643 112.17122526 -207.14566232 106.12710556 -199 100 C-190.8501105 93.86971479 -182.6397739 87.82289741 -174.42333984 81.78222656 C-170.44677489 78.8576926 -166.47349592 75.92870168 -162.5 73 C-157.71651327 69.47428716 -152.93228049 65.94961075 -148.14453125 62.4296875 C-140.73980537 56.98363105 -133.34575634 51.52542234 -126 46 C-116.24330499 38.66108784 -106.40038207 31.43979989 -96.56347656 24.20898438 C-94.14603639 22.43159767 -91.72917865 20.65342195 -89.3125 18.875 C-88.52705811 18.29758057 -87.74161621 17.72016113 -86.93237305 17.12524414 C-82.44274213 13.81923048 -77.98141347 10.47938418 -73.54077148 7.10791016 C-48.95609829 -11.5092667 -27.08066781 -18.32081926 0 0 Z " fill="#579CEF" transform="translate(288,45)"/>
<path d="M0 0 C0.77137802 -0.00686325 1.54275604 -0.0137265 2.33750916 -0.02079773 C4.87892234 -0.03904902 7.41971719 -0.0352307 9.96118164 -0.02954102 C11.73328349 -0.0341037 13.50538357 -0.03940954 15.27748108 -0.04542542 C18.98877152 -0.05435328 22.69984673 -0.0519372 26.41113281 -0.04199219 C31.16036773 -0.03050415 35.90885895 -0.05071286 40.65799618 -0.07990932 C44.31694739 -0.0982812 47.97572072 -0.09797689 51.6347065 -0.0922718 C53.38535162 -0.0921187 55.13600889 -0.09815379 56.88661003 -0.11056328 C59.33763764 -0.12549017 61.78729565 -0.11478485 64.23828125 -0.09765625 C64.95691345 -0.10732422 65.67554565 -0.11699219 66.41595459 -0.12695312 C71.46614784 -0.05328412 74.38419949 1.09475559 78.18383789 4.40405273 C82.03805685 9.71299864 81.58942559 15.25485679 81.52441406 21.55004883 C81.52507118 23.21922363 81.52507118 23.21922363 81.52574158 24.92211914 C81.52365589 28.59075624 81.50033436 32.25893321 81.47680664 35.92749023 C81.47120993 38.47482046 81.46694019 41.02215392 81.46394348 43.56948853 C81.45366952 49.58301178 81.43003874 55.5963383 81.39989501 61.60978281 C81.36631212 68.45861965 81.34985525 75.30746452 81.33480871 82.15636325 C81.30348789 96.23901732 81.25075177 110.32152601 81.18383789 124.40405273 C77.59037843 122.66635018 74.41302486 120.54892488 71.18383789 118.21655273 C70.5820874 117.78439453 69.98033691 117.35223633 69.36035156 116.90698242 C63.15426379 112.42545674 57.04010446 107.8215486 50.92431641 103.21801758 C42.83931418 97.13351463 34.69705389 91.1290477 26.54272461 85.13793945 C21.80688291 81.65688504 17.07654608 78.1683502 12.34594727 74.68017578 C8.17984762 71.60893476 4.01038206 68.54240211 -0.16381836 65.48217773 C-1.03651367 64.84151367 -1.90920898 64.20084961 -2.80834961 63.54077148 C-4.48831559 62.30760497 -6.16926466 61.0757763 -7.85131836 59.84545898 C-8.60413086 59.29245117 -9.35694336 58.73944336 -10.13256836 58.16967773 C-10.79716064 57.68273437 -11.46175293 57.19579102 -12.14648438 56.6940918 C-15.74698879 53.91224279 -15.74698879 53.91224279 -16.07685852 51.48881531 C-16.08146591 50.70891739 -16.0860733 49.92901947 -16.09082031 49.12548828 C-16.10035233 48.24084396 -16.10988434 47.35619965 -16.1197052 46.44474792 C-16.11879379 45.4864357 -16.11788239 44.52812347 -16.11694336 43.54077148 C-16.12122849 42.55663773 -16.12551361 41.57250397 -16.12992859 40.55854797 C-16.13567953 38.47295909 -16.13616655 36.38735013 -16.13183594 34.30175781 C-16.1286851 31.11480245 -16.15209414 27.92878323 -16.17749023 24.74194336 C-16.1797641 22.71655391 -16.18046632 20.69116196 -16.17944336 18.66577148 C-16.18865311 17.71353195 -16.19786285 16.76129242 -16.20735168 15.78019714 C-16.14766599 7.21271923 -16.14766599 7.21271923 -12.81616211 3.40405273 C-8.66209617 0.2687115 -5.04088287 -0.03148835 0 0 Z " fill="#EF4173" transform="translate(358.816162109375,33.595947265625)"/>
<path d="M0 0 C1.80239639 -0.0238678 1.80239639 -0.0238678 3.64120483 -0.04821777 C5.58345444 -0.0485199 5.58345444 -0.0485199 7.56494141 -0.04882812 C8.91248897 -0.05593315 10.26003352 -0.06363265 11.60757446 -0.07189941 C14.43036304 -0.08533566 17.25287201 -0.08691746 20.07568359 -0.08105469 C23.68290129 -0.07516469 27.28877016 -0.10572191 30.89572716 -0.14617157 C33.67885492 -0.17209862 36.46166025 -0.17492148 39.24489212 -0.17127991 C41.21797328 -0.17378437 43.19098631 -0.1984511 45.16390991 -0.22351074 C55.146792 -0.14660474 55.146792 -0.14660474 58.84082031 2.83203125 C61.98539846 6.52989328 62.17342353 8.28144282 62.21850586 13.05957031 C62.23775871 14.83216217 62.23775871 14.83216217 62.25740051 16.64056396 C62.26478745 17.92384583 62.27217438 19.20712769 62.27978516 20.52929688 C62.2878569 21.84399963 62.29592865 23.15870239 62.304245 24.51324463 C62.31927424 27.30082064 62.32911036 30.08837114 62.33666992 32.87597656 C62.34771686 36.43815815 62.3820952 39.99971203 62.42184162 43.56167221 C62.45435732 46.96752156 62.45879138 50.37330431 62.46728516 53.77929688 C62.48479324 55.05448181 62.50230133 56.32966675 62.52033997 57.64349365 C62.49613409 67.52532232 62.49613409 67.52532232 60.32739258 71.14746094 C56.4434528 75.00858573 52.69325853 75.66892336 47.33666992 75.71044922 C46.21523087 75.72320892 45.09379181 75.73596863 43.93836975 75.74911499 C42.73619308 75.75134064 41.53401642 75.75356628 40.29541016 75.75585938 C39.05154037 75.76251617 37.80767059 75.76917297 36.52610779 75.77603149 C33.89770994 75.78614868 31.26928644 75.7908488 28.64086914 75.79052734 C25.95114342 75.79036448 23.2620964 75.80429963 20.57250977 75.83154297 C16.688265 75.86818005 12.80481044 75.87799967 8.92041016 75.88085938 C7.72025772 75.89523041 6.52010529 75.90960144 5.28358459 75.92440796 C-5.44377474 75.86571266 -5.44377474 75.86571266 -9.95849609 71.41992188 C-14.11246382 65.89445411 -13.39109998 59.4065432 -13.35693359 52.79492188 C-13.35980377 51.57466309 -13.36267395 50.3544043 -13.3656311 49.09716797 C-13.3676691 46.52180516 -13.36215785 43.94642679 -13.34960938 41.37109375 C-13.33355307 37.43389198 -13.34946823 33.4977168 -13.36865234 29.56054688 C-13.36666987 27.05533628 -13.3628261 24.55012632 -13.35693359 22.04492188 C-13.36300629 20.86978027 -13.36907898 19.69463867 -13.37533569 18.48388672 C-13.28571106 8.04581487 -13.28571106 8.04581487 -9.95849609 3.41992188 C-6.70048001 0.37171227 -4.40645526 0.03510885 0 0 Z " fill="#5AA3F4" transform="translate(280.95849609375,325.580078125)"/>
<path d="M0 0 C1.18150131 -0.01591187 2.36300262 -0.03182373 3.58030701 -0.04821777 C4.84810501 -0.04841919 6.11590302 -0.04862061 7.42211914 -0.04882812 C8.73257706 -0.05644165 10.04303497 -0.06405518 11.39320374 -0.07189941 C14.16293917 -0.08532064 16.93238966 -0.08692373 19.70214844 -0.08105469 C23.24096558 -0.0751592 26.77841043 -0.1057515 30.31696224 -0.14617157 C33.70622395 -0.17832896 37.09520547 -0.17393224 40.48461914 -0.17382812 C42.3832798 -0.19842102 42.3832798 -0.19842102 44.32029724 -0.22351074 C54.10965957 -0.14661557 54.10965957 -0.14661557 57.80322266 2.83203125 C60.96784995 6.52682686 61.15161363 8.27281742 61.19677734 13.05957031 C61.2160302 14.83216217 61.2160302 14.83216217 61.235672 16.64056396 C61.24305893 17.92384583 61.25044586 19.20712769 61.25805664 20.52929688 C61.26612839 21.84399963 61.27420013 23.15870239 61.28251648 24.51324463 C61.29754573 27.30082064 61.30738184 30.08837114 61.31494141 32.87597656 C61.32598834 36.43815815 61.36036669 39.99971203 61.40011311 43.56167221 C61.43262881 46.96752156 61.43706286 50.37330431 61.44555664 53.77929688 C61.46306473 55.05448181 61.48057281 56.32966675 61.49861145 57.64349365 C61.47440558 67.52532232 61.47440558 67.52532232 59.30566406 71.14746094 C55.42172429 75.00858573 51.67153001 75.66892336 46.31494141 75.71044922 C45.19350235 75.72320892 44.07206329 75.73596863 42.91664124 75.74911499 C41.71446457 75.75134064 40.5122879 75.75356628 39.27368164 75.75585938 C38.02981186 75.76251617 36.78594208 75.76917297 35.50437927 75.77603149 C32.87598142 75.78614868 30.24755793 75.7908488 27.61914062 75.79052734 C24.9294149 75.79036448 22.24036788 75.80429963 19.55078125 75.83154297 C15.66653648 75.86818005 11.78308193 75.87799967 7.89868164 75.88085938 C6.69852921 75.89523041 5.49837677 75.90960144 4.26185608 75.92440796 C-6.46550325 75.86571266 -6.46550325 75.86571266 -10.98022461 71.41992188 C-15.13419234 65.89445411 -14.4128285 59.4065432 -14.37866211 52.79492188 C-14.38153229 51.57466309 -14.38440247 50.3544043 -14.38735962 49.09716797 C-14.38939761 46.52180516 -14.38388636 43.94642679 -14.37133789 41.37109375 C-14.35528158 37.43389198 -14.37119675 33.4977168 -14.39038086 29.56054688 C-14.38839838 27.05533628 -14.38455462 24.55012632 -14.37866211 22.04492188 C-14.3847348 20.86978027 -14.3908075 19.69463867 -14.39706421 18.48388672 C-14.30603468 7.88219422 -14.30603468 7.88219422 -10.98022461 3.41992188 C-7.234463 0.70234395 -4.59575202 0.037323 0 0 Z " fill="#5AA3F4" transform="translate(281.980224609375,227.580078125)"/>
<path d="M0 0 C1.1849556 -0.00960754 2.36991119 -0.01921509 3.59077454 -0.02911377 C4.87719345 -0.03336365 6.16361237 -0.03761353 7.48901367 -0.04199219 C8.8060881 -0.04769226 10.12316254 -0.05339233 11.48014832 -0.05926514 C14.27192572 -0.06977544 17.06367434 -0.07561757 19.85546875 -0.07910156 C23.42660135 -0.08457954 26.99735135 -0.10859195 30.56836414 -0.13707352 C33.97940662 -0.16022251 37.3903967 -0.16215138 40.80151367 -0.16699219 C42.08185989 -0.17933899 43.36220612 -0.19168579 44.68135071 -0.20440674 C45.87576279 -0.20140564 47.07017487 -0.19840454 48.30078125 -0.1953125 C49.34953934 -0.19895813 50.39829742 -0.20260376 51.47883606 -0.20635986 C54.7996203 0.21950004 56.65319464 1.20124557 59.34448242 3.16113281 C63.52200126 8.74105952 62.7944159 15.34230791 62.77807617 22.00488281 C62.78331802 23.24733765 62.78855988 24.48979248 62.79396057 25.76989746 C62.80201175 29.06222093 62.79493174 32.35412578 62.78363037 35.64642334 C62.78198374 37.65951527 62.79397415 39.67204358 62.81103516 41.68505859 C62.84172001 45.56276818 62.84511808 49.43957124 62.84057617 53.31738281 C62.85181015 54.51439819 62.86304413 55.71141357 62.87461853 56.94470215 C62.78616252 67.51840075 62.78616252 67.51840075 58.34448242 72.16113281 C54.65537713 74.78313624 52.14579181 75.53837967 47.63964844 75.54931641 C45.95748985 75.56350113 45.95748985 75.56350113 44.24134827 75.57797241 C43.0391716 75.57189972 41.83699493 75.56582703 40.59838867 75.55957031 C39.35451889 75.56244049 38.11064911 75.56531067 36.8290863 75.56826782 C33.52851574 75.57082942 30.22837054 75.55877954 26.92785645 75.54199219 C24.91026253 75.53614232 22.8930606 75.54196672 20.87548828 75.55224609 C16.99127107 75.57080241 13.10763022 75.56852615 9.22338867 75.55957031 C8.02323624 75.56564301 6.8230838 75.5717157 5.58656311 75.57797241 C-5.22258654 75.48708025 -5.22258654 75.48708025 -9.65551758 72.16113281 C-12.37205439 68.41451756 -13.03811376 65.77699118 -13.07543945 61.1809082 C-13.09135132 59.99940689 -13.10726318 58.81790558 -13.12365723 57.6006012 C-13.12385864 56.33280319 -13.12406006 55.06500519 -13.12426758 53.75878906 C-13.1318811 52.44833115 -13.13949463 51.13787323 -13.14733887 49.78770447 C-13.16076009 47.01796904 -13.16236318 44.24851854 -13.15649414 41.47875977 C-13.15059865 37.93994262 -13.18119096 34.40249777 -13.22161102 30.86394596 C-13.25376841 27.47468425 -13.24937169 24.08570274 -13.24926758 20.69628906 C-13.26566284 19.43051529 -13.28205811 18.16474152 -13.2989502 16.86061096 C-13.22205503 7.07124864 -13.22205503 7.07124864 -10.2434082 3.37768555 C-6.5399319 0.20562316 -4.79846499 0.03131196 0 0 Z " fill="#5AA3F3" transform="translate(181.655517578125,227.8388671875)"/>
<path d="M0 0 C1.1849556 -0.00960754 2.36991119 -0.01921509 3.59077454 -0.02911377 C4.87719345 -0.03336365 6.16361237 -0.03761353 7.48901367 -0.04199219 C8.8060881 -0.04769226 10.12316254 -0.05339233 11.48014832 -0.05926514 C14.27192572 -0.06977544 17.06367434 -0.07561757 19.85546875 -0.07910156 C23.42660135 -0.08457954 26.99735135 -0.10859195 30.56836414 -0.13707352 C33.97940662 -0.16022251 37.3903967 -0.16215138 40.80151367 -0.16699219 C42.08185989 -0.17933899 43.36220612 -0.19168579 44.68135071 -0.20440674 C45.87576279 -0.20140564 47.07017487 -0.19840454 48.30078125 -0.1953125 C49.34953934 -0.19895813 50.39829742 -0.20260376 51.47883606 -0.20635986 C54.79992707 0.21953938 56.65331792 1.20042646 59.34448242 3.16113281 C63.48264408 8.71334535 62.77713126 15.16581356 62.74291992 21.78613281 C62.7457901 23.0063916 62.74866028 24.22665039 62.75161743 25.48388672 C62.75365542 28.05924952 62.74814418 30.6346279 62.7355957 33.20996094 C62.71953939 37.14716271 62.73545456 41.08333789 62.75463867 45.02050781 C62.75265619 47.52571841 62.74881243 50.03092836 62.74291992 52.53613281 C62.74899261 53.71127441 62.75506531 54.88641602 62.76132202 56.09716797 C62.67349761 66.32557825 62.67349761 66.32557825 59.34448242 71.16113281 C55.47486757 74.66797127 52.08565836 75.28610418 46.97436523 75.33813477 C45.32685272 75.35738762 45.32685272 75.35738762 43.64605713 75.37702942 C41.86482452 75.38810982 41.86482452 75.38810982 40.04760742 75.39941406 C38.82547546 75.40748581 37.60334351 75.41555756 36.34417725 75.4238739 C33.7551007 75.4377141 31.1660059 75.44843653 28.5769043 75.45629883 C24.62407709 75.473504 20.67208777 75.51739193 16.71948242 75.56152344 C14.20386357 75.57165107 11.68823761 75.58016695 9.17260742 75.58691406 C7.4035202 75.61317619 7.4035202 75.61317619 5.59869385 75.63996887 C-1.00937685 75.62256723 -5.38345491 75.31304173 -10.65551758 71.16113281 C-12.79141988 67.89021296 -12.92239378 65.1533567 -12.96191406 61.29443359 C-12.97790146 60.11285675 -12.99388885 58.93127991 -13.01036072 57.71389771 C-13.01572342 56.44093842 -13.02108612 55.16797913 -13.02661133 53.85644531 C-13.0356398 52.54457245 -13.04466827 51.23269958 -13.05397034 49.881073 C-13.0704409 47.10542341 -13.07815687 44.32989417 -13.08105469 41.55419922 C-13.08643668 38.00756496 -13.12411456 34.46207069 -13.16979885 30.91575813 C-13.20679918 27.52099293 -13.20808677 24.12640524 -13.21411133 20.73144531 C-13.23364365 19.46253448 -13.25317596 18.19362366 -13.27330017 16.88626099 C-13.22306263 7.06742306 -13.22306263 7.06742306 -10.24560547 3.37548828 C-6.53986215 0.20732051 -4.79804893 0.03130924 0 0 Z " fill="#5AA2F3" transform="translate(181.655517578125,325.8388671875)"/>
<path d="M0 0 C1.77709351 -0.0238678 1.77709351 -0.0238678 3.59008789 -0.04821777 C4.86102295 -0.04841919 6.13195801 -0.04862061 7.44140625 -0.04882812 C9.41065063 -0.06024841 9.41065063 -0.06024841 11.41967773 -0.07189941 C14.19360921 -0.08531915 16.96725616 -0.08692396 19.74121094 -0.08105469 C23.28909224 -0.07515342 26.83560749 -0.10577608 30.38322449 -0.14617157 C33.77766181 -0.17828962 37.17181746 -0.17393229 40.56640625 -0.17382812 C42.47280884 -0.19842102 42.47280884 -0.19842102 44.41772461 -0.22351074 C54.20669905 -0.14662352 54.20669905 -0.14662352 57.34375 2.95703125 C58.16552734 4.17616211 58.16552734 4.17616211 59.00390625 5.41992188 C50.491298 7.26048582 42.30075428 6.92463071 34.00390625 4.41992188 C33.67390625 5.07992187 33.34390625 5.73992187 33.00390625 6.41992188 C31.02390625 6.08992187 29.04390625 5.75992188 27.00390625 5.41992188 C27.00390625 6.40992188 27.00390625 7.39992187 27.00390625 8.41992188 C26.01390625 8.41992188 25.02390625 8.41992188 24.00390625 8.41992188 C24.00390625 7.75992188 24.00390625 7.09992188 24.00390625 6.41992188 C18.55890625 5.92492187 18.55890625 5.92492187 13.00390625 5.41992188 C13.33390625 6.40992188 13.66390625 7.39992187 14.00390625 8.41992188 C13.43542969 8.68804687 12.86695313 8.95617187 12.28125 9.23242188 C6.1568387 12.34063729 2.18589052 16.00082329 -1.99609375 21.41992188 C-3.31609375 21.08992188 -4.63609375 20.75992188 -5.99609375 20.41992188 C-7.40436202 29.87543743 -8.13591592 38.93906442 -8.00390625 48.50976562 C-7.98858106 56.18002232 -8.33900398 63.91427996 -9.99609375 71.41992188 C-12.83928192 68.82396746 -13.91021126 66.91591381 -14.13653564 62.97355652 C-14.14336365 62.0034816 -14.15019165 61.03340668 -14.15722656 60.03393555 C-14.16683411 58.93236618 -14.17644165 57.83079681 -14.18634033 56.69584656 C-14.19271515 54.90990837 -14.19271515 54.90990837 -14.19921875 53.08789062 C-14.20491882 51.86338699 -14.2106189 50.63888336 -14.2164917 49.37727356 C-14.22594488 46.78399521 -14.23247694 44.19070483 -14.23632812 41.59741211 C-14.24602934 37.63373808 -14.27704897 33.67058345 -14.30859375 29.70703125 C-14.31512424 27.18815412 -14.32037453 24.66927328 -14.32421875 22.15039062 C-14.33656555 20.96583786 -14.34891235 19.7812851 -14.3616333 18.56083679 C-14.33276475 7.87351394 -14.33276475 7.87351394 -10.99609375 3.41992188 C-7.24504166 0.69832405 -4.60226616 0.03726748 0 0 Z " fill="#4865C4" transform="translate(281.99609375,227.580078125)"/>
<path d="M0 0 C1.21450836 -0.0030011 2.42901672 -0.0060022 3.68032837 -0.00909424 C5.6414003 0.00942596 5.6414003 0.00942596 7.64208984 0.02832031 C8.99921459 0.03137938 10.35634247 0.03325438 11.71347046 0.03399658 C14.55308102 0.03859287 17.39240691 0.05299471 20.23193359 0.07519531 C23.87492236 0.10353114 27.51768763 0.11441299 31.16077614 0.11887741 C33.9608484 0.12302956 36.76087536 0.13284444 39.56092453 0.1447525 C41.55848428 0.15323073 43.55605213 0.15972532 45.55361938 0.16619873 C46.76182343 0.17580627 47.97002747 0.18541382 49.21484375 0.1953125 C50.28199615 0.2021405 51.34914856 0.20896851 52.44863892 0.21600342 C54.97802734 0.35644531 54.97802734 0.35644531 56.97802734 1.35644531 C56.97802734 2.01644531 56.97802734 2.67644531 56.97802734 3.35644531 C49.59146322 4.35124239 42.3624709 4.47480813 34.91552734 4.41894531 C33.76375 4.41443359 32.61197266 4.40992188 31.42529297 4.40527344 C28.60948216 4.39358958 25.79378336 4.37720812 22.97802734 4.35644531 C22.64802734 5.34644531 22.31802734 6.33644531 21.97802734 7.35644531 C20.98802734 7.02644531 19.99802734 6.69644531 18.97802734 6.35644531 C14.87673309 5.64458359 11.43432122 5.48163063 7.78662109 7.67285156 C3.38729341 11.40434962 0.24745696 15.64462028 -3.02197266 20.35644531 C-3.68197266 20.35644531 -4.34197266 20.35644531 -5.02197266 20.35644531 C-6.43024093 29.81196087 -7.16179483 38.87558786 -7.02978516 48.44628906 C-7.01445997 56.11654576 -7.36488288 63.8508034 -9.02197266 71.35644531 C-11.86516083 68.76049089 -12.93609017 66.85243725 -13.16241455 62.91007996 C-13.16924255 61.94000504 -13.17607056 60.96993011 -13.18310547 59.97045898 C-13.19271301 58.86888962 -13.20232056 57.76732025 -13.21221924 56.63237 C-13.21859406 54.84643181 -13.21859406 54.84643181 -13.22509766 53.02441406 C-13.23079773 51.79991043 -13.2364978 50.5754068 -13.24237061 49.313797 C-13.25182379 46.72051865 -13.25835584 44.12722827 -13.26220703 41.53393555 C-13.27190825 37.57026152 -13.30292788 33.60710689 -13.33447266 29.64355469 C-13.34100315 27.12467756 -13.34625344 24.60579672 -13.35009766 22.08691406 C-13.36244446 20.9023613 -13.37479126 19.71780853 -13.38751221 18.49736023 C-13.35908002 7.97158377 -13.35908002 7.97158377 -10.02197266 3.35644531 C-6.74085385 0.27333851 -4.44314529 -0.01515617 0 0 Z " fill="#4A67C5" transform="translate(281.02197265625,325.6435546875)"/>
<path d="M0 0 C1.19463867 -0.00315216 2.38927734 -0.00630432 3.62011719 -0.009552 C4.91594727 -0.00752777 6.21177734 -0.00550354 7.546875 -0.00341797 C8.88444028 -0.00409136 10.22200545 -0.00506168 11.55957031 -0.00631714 C14.36394413 -0.00779245 17.16828612 -0.0056449 19.97265625 -0.00097656 C23.5708469 0.00472064 27.16896297 0.00144075 30.76715088 -0.00454903 C33.52946537 -0.00815913 36.29176213 -0.00701398 39.05407715 -0.00442123 C41.02726286 -0.00342784 43.00044926 -0.00646967 44.97363281 -0.009552 C46.16827148 -0.00639984 47.36291016 -0.00324768 48.59375 0 C49.64916992 0.00079559 50.70458984 0.00159119 51.79199219 0.00241089 C54.296875 0.12939453 54.296875 0.12939453 56.296875 1.12939453 C56.296875 1.78939453 56.296875 2.44939453 56.296875 3.12939453 C53.986875 3.12939453 51.676875 3.12939453 49.296875 3.12939453 C49.296875 3.78939453 49.296875 4.44939453 49.296875 5.12939453 C43.89326959 6.23217115 40.51200864 5.77627884 35.296875 4.12939453 C32.63322986 3.69795905 29.98212964 3.41205291 27.296875 3.12939453 C27.296875 3.78939453 27.296875 4.44939453 27.296875 5.12939453 C25.976875 4.79939453 24.656875 4.46939453 23.296875 4.12939453 C23.296875 4.78939453 23.296875 5.44939453 23.296875 6.12939453 C22.39066406 6.04818359 21.48445313 5.96697266 20.55078125 5.88330078 C11.85119244 5.41404499 11.85119244 5.41404499 4.234375 9.12939453 C2.12554256 11.05536705 2.12554256 11.05536705 0.296875 13.12939453 C-0.50556641 13.98017578 -0.50556641 13.98017578 -1.32421875 14.84814453 C-6.10358648 21.02205865 -5.60712075 28.64106271 -5.703125 36.12939453 C-5.72632813 37.59892578 -5.72632813 37.59892578 -5.75 39.09814453 C-5.76272429 41.10858165 -5.73839111 43.11922647 -5.703125 45.12939453 C-6.693125 43.80939453 -7.683125 42.48939453 -8.703125 41.12939453 C-9.59215412 47.17759265 -9.82660883 53.02162939 -9.765625 59.12939453 C-9.76111328 59.99951172 -9.75660156 60.86962891 -9.75195312 61.76611328 C-9.7402986 63.88723746 -9.72236857 66.00832563 -9.703125 68.12939453 C-10.693125 68.62439453 -10.693125 68.62439453 -11.703125 69.12939453 C-13.0260674 66.48350972 -12.85947296 64.45283922 -12.89599609 61.48974609 C-12.91205902 60.30801819 -12.92812195 59.12629028 -12.94467163 57.90875244 C-12.98905301 52.49694281 -13.0306336 47.0852793 -13.05322266 41.67333984 C-13.06654775 38.8175442 -13.09437182 35.96246555 -13.13525391 33.10693359 C-13.19412828 28.99450651 -13.21189246 24.8828462 -13.2265625 20.77001953 C-13.24923187 19.49483459 -13.27190125 18.21964966 -13.29525757 16.90582275 C-13.27169003 7.0296091 -13.27169003 7.0296091 -10.29541016 3.33935547 C-6.56502683 0.15914922 -4.82637069 0.0036382 0 0 Z " fill="#4969C5" transform="translate(181.703125,227.87060546875)"/>
<path d="M0 0 C1.19463867 -0.00315216 2.38927734 -0.00630432 3.62011719 -0.009552 C4.91594727 -0.00752777 6.21177734 -0.00550354 7.546875 -0.00341797 C8.88444028 -0.00409136 10.22200545 -0.00506168 11.55957031 -0.00631714 C14.36394413 -0.00779245 17.16828612 -0.0056449 19.97265625 -0.00097656 C23.5708469 0.00472064 27.16896297 0.00144075 30.76715088 -0.00454903 C33.52946537 -0.00815913 36.29176213 -0.00701398 39.05407715 -0.00442123 C41.02726286 -0.00342784 43.00044926 -0.00646967 44.97363281 -0.009552 C46.16827148 -0.00639984 47.36291016 -0.00324768 48.59375 0 C49.64916992 0.00079559 50.70458984 0.00159119 51.79199219 0.00241089 C54.296875 0.12939453 54.296875 0.12939453 56.296875 1.12939453 C56.296875 1.78939453 56.296875 2.44939453 56.296875 3.12939453 C51.3598084 4.00064158 47.10358305 4.08813469 42.109375 3.56689453 C36.19454379 3.00292225 31.06327858 3.61419579 25.26953125 4.85205078 C21.7854188 5.17711252 19.51376812 4.42861664 16.296875 3.12939453 C16.296875 3.78939453 16.296875 4.44939453 16.296875 5.12939453 C15.74 5.19255859 15.183125 5.25572266 14.609375 5.32080078 C6.36654174 6.64355274 2.00534914 10.79588789 -3.140625 17.12939453 C-7.22149743 25.07541045 -5.8564712 36.38866138 -5.703125 45.12939453 C-6.693125 43.80939453 -7.683125 42.48939453 -8.703125 41.12939453 C-9.59215412 47.17759265 -9.82660883 53.02162939 -9.765625 59.12939453 C-9.76111328 59.99951172 -9.75660156 60.86962891 -9.75195312 61.76611328 C-9.7402986 63.88723746 -9.72236857 66.00832563 -9.703125 68.12939453 C-10.693125 68.62439453 -10.693125 68.62439453 -11.703125 69.12939453 C-13.0260674 66.48350972 -12.85947296 64.45283922 -12.89599609 61.48974609 C-12.91205902 60.30801819 -12.92812195 59.12629028 -12.94467163 57.90875244 C-12.98905301 52.49694281 -13.0306336 47.0852793 -13.05322266 41.67333984 C-13.06654775 38.8175442 -13.09437182 35.96246555 -13.13525391 33.10693359 C-13.19412828 28.99450651 -13.21189246 24.8828462 -13.2265625 20.77001953 C-13.24923187 19.49483459 -13.27190125 18.21964966 -13.29525757 16.90582275 C-13.27169003 7.0296091 -13.27169003 7.0296091 -10.29541016 3.33935547 C-6.56502683 0.15914922 -4.82637069 0.0036382 0 0 Z " fill="#435EBE" transform="translate(181.703125,325.87060546875)"/>
<path d="M0 0 C1.28132812 0.00902344 2.56265625 0.01804688 3.8828125 0.02734375 C4.87023437 0.03894531 5.85765625 0.05054688 6.875 0.0625 C6.14667969 0.63097656 5.41835937 1.19945312 4.66796875 1.78515625 C2.04483731 3.92401727 -0.3955994 6.13234016 -2.8125 8.5 C-3.57949219 9.24121094 -4.34648437 9.98242188 -5.13671875 10.74609375 C-10.35157572 16.8215558 -9.2647879 23.39586513 -9.046875 30.96289062 C-8.95212214 36.43091998 -9.47754724 41.24880376 -10.67089844 46.57836914 C-11.43821781 50.77593614 -11.33664975 54.93499688 -11.25 59.1875 C-11.24097656 60.04859375 -11.23195312 60.9096875 -11.22265625 61.796875 C-11.19944885 63.8855414 -11.16359538 65.97406127 -11.125 68.0625 C-12.115 68.5575 -12.115 68.5575 -13.125 69.0625 C-14.4479424 66.41661519 -14.28134796 64.38594469 -14.31787109 61.42285156 C-14.33393402 60.24112366 -14.34999695 59.05939575 -14.36654663 57.84185791 C-14.41092801 52.43004828 -14.4525086 47.01838477 -14.47509766 41.60644531 C-14.48842275 38.75064967 -14.51624682 35.89557102 -14.55712891 33.04003906 C-14.61600328 28.92761197 -14.63376746 24.81595167 -14.6484375 20.703125 C-14.67110687 19.42794006 -14.69377625 18.15275513 -14.71713257 16.83892822 C-14.69356503 6.96271457 -14.69356503 6.96271457 -11.71728516 3.27246094 C-7.60987289 -0.22916798 -5.36112787 -0.04873753 0 0 Z " fill="#435EBE" transform="translate(183.125,227.9375)"/>
<path d="M0 0 C6.79930835 -0.02529479 13.59860463 -0.04284349 20.39794922 -0.05493164 C22.71240696 -0.05996943 25.0268615 -0.06679981 27.34130859 -0.07543945 C30.6624429 -0.08752924 33.98353525 -0.09323375 37.3046875 -0.09765625 C38.86411575 -0.10539818 38.86411575 -0.10539818 40.45504761 -0.11329651 C41.41589264 -0.11337204 42.37673767 -0.11344757 43.36669922 -0.11352539 C44.21497284 -0.115746 45.06324646 -0.11796661 45.93722534 -0.12025452 C48 0 48 0 50 1 C50 1.66 50 2.32 50 3 C45.0629334 3.87124705 40.80670805 3.95874016 35.8125 3.4375 C29.89766879 2.87352772 24.76640358 3.48480126 18.97265625 4.72265625 C15.4885438 5.04771799 13.21689312 4.29922211 10 3 C10 3.66 10 4.32 10 5 C9.443125 5.06316406 8.88625 5.12632812 8.3125 5.19140625 C0.06966674 6.51415821 -4.29152586 10.66649336 -9.4375 17 C-13.51837243 24.94601592 -12.1533462 36.25926685 -12 45 C-15.74604498 41.25395502 -14.74401362 35.07173017 -15 30 C-15.12375 28.80503906 -15.2475 27.61007812 -15.375 26.37890625 C-15.73635234 21.2239893 -15.93998254 17.52120841 -13.16796875 13.03515625 C-10.11367459 9.58577926 -6.88301157 6.69280509 -3.26171875 3.8515625 C-0.9294938 2.19965299 -0.9294938 2.19965299 0 0 Z " fill="#5270CA" transform="translate(188,326)"/>
<path d="M0 0 C4.875 2.75 4.875 2.75 6 5 C-2.51260825 6.84056395 -10.70315197 6.50470884 -19 4 C-19.33 4.66 -19.66 5.32 -20 6 C-21.98 5.67 -23.96 5.34 -26 5 C-26 5.99 -26 6.98 -26 8 C-26.99 8 -27.98 8 -29 8 C-29 7.34 -29 6.68 -29 6 C-34.445 5.505 -34.445 5.505 -40 5 C-39.67 5.99 -39.34 6.98 -39 8 C-39.56847656 8.268125 -40.13695312 8.53625 -40.72265625 8.8125 C-46.84706755 11.92071542 -50.81801573 15.58090141 -55 21 C-55.99 20.67 -56.98 20.34 -58 20 C-58 16.62812648 -57.48480165 14.55763059 -55.2578125 11.99609375 C-53.86316806 10.64998089 -52.44696295 9.32576546 -51.0078125 8.02734375 C-48.86996787 6.08568708 -48.86996787 6.08568708 -47.73510742 3.40600586 C-46 1 -46 1 -43.36791992 0.41650391 C-41.81488159 0.44623291 -41.81488159 0.44623291 -40.23046875 0.4765625 C-38.52600586 0.49396484 -38.52600586 0.49396484 -36.78710938 0.51171875 C-35.00530273 0.56779297 -35.00530273 0.56779297 -33.1875 0.625 C-32.01123047 0.63917969 -30.83496094 0.65335938 -29.62304688 0.66796875 C-24.29109116 0.75839197 -19.25752277 1.09552365 -14 2 C-11.54245859 2.06578002 -9.08331222 2.08569162 -6.625 2.0625 C-5.37976563 2.05347656 -4.13453125 2.04445312 -2.8515625 2.03515625 C-1.91054688 2.02355469 -0.96953125 2.01195312 0 2 C0 1.34 0 0.68 0 0 Z " fill="#4E73CE" transform="translate(335,228)"/>
<path d="M0 0 C6.79930835 -0.02529479 13.59860463 -0.04284349 20.39794922 -0.05493164 C22.71240696 -0.05996943 25.0268615 -0.06679981 27.34130859 -0.07543945 C30.6624429 -0.08752924 33.98353525 -0.09323375 37.3046875 -0.09765625 C38.86411575 -0.10539818 38.86411575 -0.10539818 40.45504761 -0.11329651 C41.41589264 -0.11337204 42.37673767 -0.11344757 43.36669922 -0.11352539 C44.21497284 -0.115746 45.06324646 -0.11796661 45.93722534 -0.12025452 C48 0 48 0 50 1 C50 1.66 50 2.32 50 3 C45.0629334 3.87124705 40.80670805 3.95874016 35.8125 3.4375 C29.80356211 2.86889723 24.49046307 3.48189348 18.58203125 4.625 C16 5 16 5 14 4 C11.45384991 3.76827173 8.92603775 3.58105471 6.375 3.4375 C5.66859375 3.39431641 4.9621875 3.35113281 4.234375 3.30664062 C2.48981463 3.20055249 0.74493303 3.09977111 -1 3 C-0.67 2.01 -0.34 1.02 0 0 Z " fill="#4E6BC4" transform="translate(188,326)"/>
<path d="M0 0 C0.99373123 -0.00143509 0.99373123 -0.00143509 2.00753784 -0.00289917 C3.41127619 -0.00357935 4.8150177 -0.00173637 6.21875 0.00244141 C8.33861629 0.00774107 10.45826574 0.00251757 12.578125 -0.00390625 C19.5372161 -0.00698304 26.34418736 0.16494166 33.2421875 1.1328125 C33.2421875 1.7928125 33.2421875 2.4528125 33.2421875 3.1328125 C27.83858209 4.23558911 24.45732114 3.77969681 19.2421875 2.1328125 C16.57854236 1.70137702 13.92744214 1.41547088 11.2421875 1.1328125 C11.2421875 1.7928125 11.2421875 2.4528125 11.2421875 3.1328125 C9.9221875 2.8028125 8.6021875 2.4728125 7.2421875 2.1328125 C7.2421875 2.7928125 7.2421875 3.4528125 7.2421875 4.1328125 C6.33597656 4.05160156 5.42976563 3.97039062 4.49609375 3.88671875 C-4.20349506 3.41746296 -4.20349506 3.41746296 -11.8203125 7.1328125 C-15.64150054 10.61893368 -18.39036593 14.55257667 -20.7578125 19.1328125 C-21.4178125 18.1428125 -22.0778125 17.1528125 -22.7578125 16.1328125 C-11.32557186 0.01042185 -11.32557186 0.01042185 0 0 Z " fill="#5F7ED4" transform="translate(197.7578125,229.8671875)"/>
<path d="M0 0 C0.99 0.33 1.98 0.66 3 1 C3 1.66 3 2.32 3 3 C-4.38656413 3.99479708 -11.61555645 4.11836282 -19.0625 4.0625 C-20.21427734 4.05798828 -21.36605469 4.05347656 -22.55273438 4.04882812 C-25.36854518 4.03714426 -28.18424398 4.02076281 -31 4 C-31.33 4.99 -31.66 5.98 -32 7 C-32.99 6.67 -33.98 6.34 -35 6 C-36.49774018 5.90774789 -37.99942974 5.8699981 -39.5 5.875 C-40.2734375 5.87242187 -41.046875 5.86984375 -41.84375 5.8671875 C-44.18447017 5.91854187 -44.18447017 5.91854187 -47 7 C-47 5.35 -47 3.7 -47 2 C-40.94954802 1.83226997 -34.89896413 1.67172208 -28.84814453 1.51782227 C-26.78982416 1.4644584 -24.73155365 1.4091335 -22.67333984 1.35180664 C-19.7146276 1.26973913 -16.75580762 1.19472943 -13.796875 1.12109375 C-12.87694763 1.09405869 -11.95702026 1.06702362 -11.00921631 1.03916931 C-9.71833099 1.00902489 -9.71833099 1.00902489 -8.40136719 0.97827148 C-7.64635925 0.95828598 -6.89135132 0.93830048 -6.11346436 0.91770935 C-3.94552797 1.00212094 -2.07931242 1.39890794 0 2 C0 1.34 0 0.68 0 0 Z M-50 8 C-49.34 8.33 -48.68 8.66 -48 9 C-51.20760251 12.80635497 -54.40746109 16.54563567 -58 20 C-58.33 19.01 -58.66 18.02 -59 17 C-56 14 -53 11 -50 8 Z " fill="#5474CD" transform="translate(335,326)"/>
<path d="M0 0 C1.18599833 2.37199666 1.10084264 3.76069536 1.0625 6.40234375 C1.05005249 7.72890991 1.05005249 7.72890991 1.03735352 9.08227539 C1.02502686 10.02449951 1.0127002 10.96672363 1 11.9375 C0.90658236 20.26708962 0.90658236 20.26708962 1.5625 28.5625 C2.16954232 33.85488302 1.88946082 39.06827902 1.625 44.375 C1.58189697 45.24455322 1.53879395 46.11410645 1.49438477 47.01000977 C1.26258512 51.08928735 0.96763859 55.01464106 0 59 C-1.5625 57.9375 -1.5625 57.9375 -3 56 C-2.7761682 54.38006247 -2.54434954 52.76088107 -2.27536011 51.14782715 C-1.7314985 46.90567042 -1.92183917 42.62836749 -1.97265625 38.359375 C-1.98529117 36.29948078 -1.99765294 34.23958486 -2.00976562 32.1796875 C-2.03467035 28.95144313 -2.0627745 25.72328759 -2.09594727 22.49511719 C-2.12605719 19.36653053 -2.14388497 16.23805981 -2.16015625 13.109375 C-2.17361588 12.14062439 -2.1870755 11.17187378 -2.20094299 10.17376709 C-2.20432175 9.27563293 -2.2077005 8.37749878 -2.21118164 7.45214844 C-2.21863907 6.66273865 -2.2260965 5.87332886 -2.23377991 5.05999756 C-2 3 -2 3 0 0 Z " fill="#3E5BBA" transform="translate(272,338)"/>
<path d="M0 0 C0.33 0 0.66 0 1 0 C4.43793479 37.24920287 4.43793479 37.24920287 1 52 C-0.5625 50.9375 -0.5625 50.9375 -2 49 C-1.77924 47.35889355 -1.55011281 45.7184522 -1.27758789 44.08514404 C-0.76025524 40.19912046 -0.89963255 36.29607383 -0.9375 32.3828125 C-0.94128662 31.48505096 -0.94507324 30.58728943 -0.94897461 29.662323 C-0.9611205 26.81649815 -0.97976935 23.97077814 -1 21.125 C-1.02649238 17.35677392 -1.04650367 13.58859602 -1.0625 9.8203125 C-1.07079834 8.95060822 -1.07909668 8.08090393 -1.08764648 7.18484497 C-1.09617913 5.12304064 -1.05344559 3.06112918 -1 1 C-0.67 0.67 -0.34 0.34 0 0 Z " fill="#3E5BBA" transform="translate(271,247)"/>
<path d="M0 0 C0.33 0 0.66 0 1 0 C2.36877587 3.30116533 3.07608527 5.46808588 2.56469727 9.04321289 C1.86080949 13.97529642 1.87587843 18.77192968 1.90234375 23.74609375 C1.9037587 24.75720718 1.90517365 25.76832062 1.90663147 26.81007385 C1.91220039 30.01924681 1.92474713 33.22834836 1.9375 36.4375 C1.94251902 38.62174378 1.94708122 40.80598866 1.95117188 42.99023438 C1.96215963 48.32684702 1.97886664 53.6634184 2 59 C1.01 59.495 1.01 59.495 0 60 C-1.29146455 57.41707089 -1.12705706 55.55613757 -1.12939453 52.6640625 C-1.13254669 51.54950684 -1.13569885 50.43495117 -1.13894653 49.28662109 C-1.1369223 48.07828613 -1.13489807 46.86995117 -1.1328125 45.625 C-1.13376923 44.38959473 -1.13472595 43.15418945 -1.13571167 41.88134766 C-1.13656804 38.59413916 -1.13253344 35.30697764 -1.12695312 32.01977539 C-1.12500203 30.00210059 -1.12694592 27.98446928 -1.13037109 25.96679688 C-1.13652992 22.10284387 -1.13580484 18.23895565 -1.1328125 14.375 C-1.13483673 13.16666504 -1.13686096 11.95833008 -1.13894653 10.71337891 C-1.13579437 9.59882324 -1.13264221 8.48426758 -1.12939453 7.3359375 C-1.12859894 6.35157715 -1.12780334 5.3672168 -1.12698364 4.35302734 C-1 2 -1 2 0 0 Z " fill="#536BBD" transform="translate(269,235)"/>
<path d="M0 0 C1.32 0.33 2.64 0.66 4 1 C3.83734146 1.71484055 3.67468292 2.42968109 3.50709534 3.16618347 C3.00622979 5.96518588 2.8795647 8.50109312 2.88647461 11.34106445 C2.88655014 12.3817659 2.88662567 13.42246735 2.88670349 14.4947052 C2.89186478 15.6063353 2.89702606 16.71796539 2.90234375 17.86328125 C2.9037587 19.01040085 2.90517365 20.15752045 2.90663147 21.33940125 C2.91222139 24.99712754 2.92477211 28.65479225 2.9375 32.3125 C2.9425163 34.79492099 2.94707898 37.27734294 2.95117188 39.75976562 C2.96218753 45.8398647 2.9789157 51.91992795 3 58 C2.01 58.495 2.01 58.495 1 59 C-0.30760893 56.38478215 -0.11997548 54.46886599 -0.11352539 51.54052734 C-0.11344986 50.39949554 -0.11337433 49.25846375 -0.11329651 48.08285522 C-0.10813522 46.84637238 -0.10297394 45.60988953 -0.09765625 44.3359375 C-0.0962413 43.07359283 -0.09482635 41.81124817 -0.09336853 40.51065063 C-0.08871078 37.15361701 -0.07972408 33.796651 -0.06866455 30.43963623 C-0.0584377 27.01445094 -0.05386818 23.58925866 -0.04882812 20.1640625 C-0.03778238 13.44268957 -0.02103194 6.72134869 0 0 Z " fill="#3550AF" transform="translate(169,336)"/>
<path d="M0 0 C1.32 0.33 2.64 0.66 4 1 C3.83734146 1.5502887 3.67468292 2.10057739 3.50709534 2.6675415 C2.93774921 5.28633154 2.88009307 7.63908956 2.88647461 10.31933594 C2.88655014 11.38013367 2.88662567 12.4409314 2.88670349 13.53387451 C2.89186478 14.67253967 2.89702606 15.81120483 2.90234375 16.984375 C2.9037587 18.15510559 2.90517365 19.32583618 2.90663147 20.53204346 C2.9122291 24.27138829 2.9247812 28.01067326 2.9375 31.75 C2.9425153 34.28515539 2.94707816 36.82031171 2.95117188 39.35546875 C2.96219776 45.57033293 2.97893356 51.78516219 3 58 C2.01 58.495 2.01 58.495 1 59 C-0.30760893 56.38478215 -0.11997548 54.46886599 -0.11352539 51.54052734 C-0.11344986 50.39949554 -0.11337433 49.25846375 -0.11329651 48.08285522 C-0.10813522 46.84637238 -0.10297394 45.60988953 -0.09765625 44.3359375 C-0.0962413 43.07359283 -0.09482635 41.81124817 -0.09336853 40.51065063 C-0.08871078 37.15361701 -0.07972408 33.796651 -0.06866455 30.43963623 C-0.0584377 27.01445094 -0.05386818 23.58925866 -0.04882812 20.1640625 C-0.03778238 13.44268957 -0.02103194 6.72134869 0 0 Z " fill="#354FAF" transform="translate(169,238)"/>
<path d="M0 0 C0.33 0 0.66 0 1 0 C2.01355864 6.67756279 2.13007172 13.19052882 2.09765625 19.9375 C2.0962413 21.05817871 2.09482635 22.17885742 2.09336853 23.33349609 C2.08780139 26.88902533 2.07525498 30.44449002 2.0625 34 C2.05748075 36.420572 2.05291859 38.841145 2.04882812 41.26171875 C2.03784272 47.17450094 2.02113752 53.08724585 2 59 C1.01 59.495 1.01 59.495 0 60 C-1.29146455 57.41707089 -1.12705706 55.55613757 -1.12939453 52.6640625 C-1.13254669 51.54950684 -1.13569885 50.43495117 -1.13894653 49.28662109 C-1.1369223 48.07828613 -1.13489807 46.86995117 -1.1328125 45.625 C-1.13376923 44.38959473 -1.13472595 43.15418945 -1.13571167 41.88134766 C-1.13656804 38.59413916 -1.13253344 35.30697764 -1.12695312 32.01977539 C-1.12500203 30.00210059 -1.12694592 27.98446928 -1.13037109 25.96679688 C-1.13652992 22.10284387 -1.13580484 18.23895565 -1.1328125 14.375 C-1.13483673 13.16666504 -1.13686096 11.95833008 -1.13894653 10.71337891 C-1.13579437 9.59882324 -1.13264221 8.48426758 -1.12939453 7.3359375 C-1.12859894 6.35157715 -1.12780334 5.3672168 -1.12698364 4.35302734 C-1 2 -1 2 0 0 Z " fill="#546CBD" transform="translate(269,333)"/>
<path d="M0 0 C0 0.99 0 1.98 0 3 C-1.98 3 -3.96 3 -6 3 C-6.226875 3.53625 -6.45375 4.0725 -6.6875 4.625 C-9.22076078 9.20899569 -12.09727158 12.97128479 -17 15 C-17.66 15.66 -18.32 16.32 -19 17 C-19.66 15.68 -20.32 14.36 -21 13 C-16.3308945 4.67681193 -9.87375007 -1.2566591 0 0 Z " fill="#6C8CDC" transform="translate(199,233)"/>
<path d="M0 0 C0.33 0.99 0.66 1.98 1 3 C0.43152344 3.268125 -0.13695312 3.53625 -0.72265625 3.8125 C-6.84706755 6.92071542 -10.81801573 10.58090141 -15 16 C-15.99 15.67 -16.98 15.34 -18 15 C-17.42534928 8.70620637 -14.94361526 6.04431219 -10.5 1.79296875 C-6.73261387 -0.90895349 -4.48713411 -0.73425831 0 0 Z " fill="#6484D8" transform="translate(295,233)"/>
<path d="M0 0 C0.99 0.33 1.98 0.66 3 1 C2.38511719 1.58007812 1.77023438 2.16015625 1.13671875 2.7578125 C0.32847656 3.53898438 -0.47976562 4.32015625 -1.3125 5.125 C-2.11300781 5.89070312 -2.91351563 6.65640625 -3.73828125 7.4453125 C-9.81614845 14.3104682 -9.37317325 20.58646616 -9.1875 29.375 C-9.17396484 30.58800781 -9.16042969 31.80101562 -9.14648438 33.05078125 C-9.11124582 36.03431206 -9.06197525 39.01692458 -9 42 C-12.74604498 38.25395502 -11.74401362 32.07173017 -12 27 C-12.12375 25.80503906 -12.2475 24.61007813 -12.375 23.37890625 C-12.74017892 18.16940073 -12.95413625 14.50467483 -10.09765625 10 C-7.84499464 7.488118 -5.53230865 5.22615734 -3 3 C-1.99344284 2.00660045 -0.99033884 1.00956872 0 0 Z " fill="#5271C9" transform="translate(185,231)"/>
<path d="M0 0 C0 0.66 0 1.32 0 2 C-0.58910156 2.08636719 -1.17820312 2.17273438 -1.78515625 2.26171875 C-4.61065052 3.20355017 -5.58427717 4.50560137 -7.4375 6.8125 C-10.06525052 9.95339493 -12.59617489 12.6659485 -16 15 C-16.66 15 -17.32 15 -18 15 C-17.47462592 10.93190071 -16.38599539 8.82396544 -13.625 5.8125 C-13.01914062 5.13832031 -12.41328125 4.46414063 -11.7890625 3.76953125 C-7.88484949 -0.09205934 -5.3314089 -0.20118524 0 0 Z " fill="#6F90DE" transform="translate(298,331)"/>
<path d="M0 0 C0 0.99 0 1.98 0 3 C-1.10794922 3.37125 -1.10794922 3.37125 -2.23828125 3.75 C-5.26228221 5.11871331 -6.91219751 6.60587126 -9.1875 9 C-9.86167969 9.70125 -10.53585938 10.4025 -11.23046875 11.125 C-11.81441406 11.74375 -12.39835938 12.3625 -13 13 C-13.66 13.66 -14.32 14.32 -15 15 C-15.66 14.34 -16.32 13.68 -17 13 C-16.42150331 7.47592376 -11.73223079 3.73223079 -8 0 C-5.10876612 -1.44561694 -3.05498509 -0.76374627 0 0 Z " fill="#6C8CDC" transform="translate(195,333)"/>
<path d="M0 0 C0 0.99 0 1.98 0 3 C-2.97 2.505 -2.97 2.505 -6 2 C-6 2.99 -6 3.98 -6 5 C-6.99 5 -7.98 5 -9 5 C-9 4.34 -9 3.68 -9 3 C-14.94 3 -20.88 3 -27 3 C-27 2.01 -27 1.02 -27 0 C-18.61544714 -2.60852756 -8.57125613 -1.18224222 0 0 Z " fill="#6081D4" transform="translate(315,231)"/>
<path d="M0 0 C4.5206665 -0.02468857 9.0412939 -0.04285449 13.56201172 -0.05493164 C15.10043013 -0.05996552 16.63884375 -0.06679308 18.17724609 -0.07543945 C20.38640526 -0.08754639 22.59550126 -0.09323769 24.8046875 -0.09765625 C25.49432587 -0.10281754 26.18396423 -0.10797882 26.89450073 -0.11329651 C31.77225659 -0.11387171 31.77225659 -0.11387171 34 1 C34 1.66 34 2.32 34 3 C26.63732264 4.37594589 19.88637182 3.51623482 12.5 2.5625 C10.69402344 2.34110352 10.69402344 2.34110352 8.8515625 2.11523438 C5.89985439 1.75212742 2.94955114 1.38016579 0 1 C0 0.67 0 0.34 0 0 Z " fill="#4669C6" transform="translate(204,326)"/>
<path d="M0 0 C2.29160319 -0.02692484 4.58329546 -0.04636124 6.875 -0.0625 C8.15117187 -0.07410156 9.42734375 -0.08570313 10.7421875 -0.09765625 C14 0 14 0 16 1 C15.67 1.99 15.34 2.98 15 4 C14.01 3.67 13.02 3.34 12 3 C10.50225982 2.90774789 9.00057026 2.8699981 7.5 2.875 C6.7265625 2.87242187 5.953125 2.86984375 5.15625 2.8671875 C2.81552983 2.91854187 2.81552983 2.91854187 0 4 C0 2.68 0 1.36 0 0 Z M-3 5 C-2.34 5.33 -1.68 5.66 -1 6 C-4.20760251 9.80635497 -7.40746109 13.54563567 -11 17 C-11.33 16.01 -11.66 15.02 -12 14 C-9 11 -6 8 -3 5 Z " fill="#6282D5" transform="translate(288,329)"/>
<path d="M0 0 C0 0.66 0 1.32 0 2 C-0.8353125 2.09474609 -0.8353125 2.09474609 -1.6875 2.19140625 C-8.41921692 3.27166488 -12.49426161 5.91451649 -17 11 C-18.57419085 13.28811965 -19.77341703 15.49572645 -21 18 C-21.75 16.375 -21.75 16.375 -22 14 C-20.78249739 11.67086456 -19.64806305 10.00673242 -18 8 C-17.43925781 7.28585937 -16.87851563 6.57171875 -16.30078125 5.8359375 C-11.25065951 0.03802897 -7.57707962 -1.11792978 0 0 Z " fill="#5F7FD4" transform="translate(198,329)"/>
<path d="M0 0 C4.25007753 -0.02495303 8.50011481 -0.0429783 12.75024414 -0.05493164 C14.192309 -0.05992148 15.63436891 -0.06671573 17.07641602 -0.07543945 C24.78215673 -0.1208459 32.35149621 -0.08531842 40 1 C40 1.66 40 2.32 40 3 C34.59639459 4.10277661 31.21513364 3.64688431 26 2 C23.33635486 1.56856452 20.68525464 1.28265838 18 1 C18 1.66 18 2.32 18 3 C12.06 2.34 6.12 1.68 0 1 C0 0.67 0 0.34 0 0 Z " fill="#5276CF" transform="translate(191,230)"/>
<path d="M0 0 C-2.22553518 5.26035588 -5.65461054 9.78811471 -11 12 C-11.66 12.66 -12.32 13.32 -13 14 C-12.74417372 10.2478813 -12.53620985 8.50642042 -9.75 5.875 C-8.8425 5.25625 -7.935 4.6375 -7 4 C-5.6696875 2.88625 -5.6696875 2.88625 -4.3125 1.75 C-2 0 -2 0 0 0 Z " fill="#799BE3" transform="translate(193,236)"/>
<path d="M0 0 C0 0.99 0 1.98 0 3 C-0.73863281 3.2475 -1.47726563 3.495 -2.23828125 3.75 C-5.26228221 5.11871331 -6.91219751 6.60587126 -9.1875 9 C-9.86167969 9.70125 -10.53585938 10.4025 -11.23046875 11.125 C-11.81441406 11.74375 -12.39835938 12.3625 -13 13 C-13.66 13.66 -14.32 14.32 -15 15 C-14.42235003 11.6496302 -13.41423154 10.31766228 -11 8 C-10.731875 7.360625 -10.46375 6.72125 -10.1875 6.0625 C-7.94389534 2.16571295 -4.45016075 0 0 0 Z " fill="#789AE2" transform="translate(195,333)"/>
<path d="M0 0 C0.66 0.33 1.32 0.66 2 1 C0.76110404 2.48847937 -0.4915672 3.96550105 -1.75 5.4375 C-2.79414063 6.67306641 -2.79414063 6.67306641 -3.859375 7.93359375 C-6.01343015 10.01296451 -7.08310781 10.63867326 -10 11 C-8.13277847 6.79875157 -5.78155862 3.15277323 -1.875 0.625 C-1.25625 0.41875 -0.6375 0.2125 0 0 Z " fill="#81A4E8" transform="translate(292,237)"/>
<path d="M0 0 C7.75493514 -0.09928082 15.31068715 -0.06059488 23 1 C23 1.99 23 2.98 23 4 C15.41 3.01 7.82 2.02 0 1 C0 0.67 0 0.34 0 0 Z " fill="#5879D0" transform="translate(292,230)"/>
<path d="M0 0 C12.87 0.495 12.87 0.495 26 1 C26 1.33 26 1.66 26 2 C23.87630763 2.36192504 21.7509887 2.71431747 19.625 3.0625 C17.84996094 3.35833984 17.84996094 3.35833984 16.0390625 3.66015625 C13 4 13 4 11 3 C8.9625237 2.77141886 6.91959697 2.58975722 4.875 2.4375 C3.23144531 2.31181641 3.23144531 2.31181641 1.5546875 2.18359375 C0.71164063 2.12300781 -0.13140625 2.06242187 -1 2 C-0.67 1.34 -0.34 0.68 0 0 Z " fill="#5575CD" transform="translate(191,327)"/>
<path d="M0 0 C-1.546875 1.0209375 -1.546875 1.0209375 -3.125 2.0625 C-7.07973183 4.86544639 -10.01668903 8.20802599 -13 12 C-13 7.84767044 -11.20340349 5.47690428 -8.625 2.3125 C-5.91489249 0.12356701 -3.28228572 -1.64114286 0 0 Z " fill="#7495E1" transform="translate(293,237)"/>
<path d="M0 0 C0.99 0.33 1.98 0.66 3 1 C2.38511719 1.60328125 1.77023438 2.2065625 1.13671875 2.828125 C0.32847656 3.62734375 -0.47976562 4.4265625 -1.3125 5.25 C-2.11300781 6.03890625 -2.91351563 6.8278125 -3.73828125 7.640625 C-5.68743651 9.67394067 -7.37421406 11.70601078 -9 14 C-9.28125 11.80078125 -9.28125 11.80078125 -9 9 C-7.03125 6.54296875 -7.03125 6.54296875 -4.5 4.1875 C-3.6646875 3.39730469 -2.829375 2.60710937 -1.96875 1.79296875 C-1.3190625 1.20128906 -0.669375 0.60960937 0 0 Z " fill="#5674CF" transform="translate(185,231)"/>
<path d="M0 0 C0 3 0 3 -1.96875 5.26171875 C-2.8040625 6.06222656 -3.639375 6.86273438 -4.5 7.6875 C-5.3353125 8.49574219 -6.170625 9.30398438 -7.03125 10.13671875 C-7.6809375 10.75160156 -8.330625 11.36648438 -9 12 C-9.33 11.01 -9.66 10.02 -10 9 C-6.7 6.03 -3.4 3.06 0 0 Z " fill="#7DA0E5" transform="translate(292,334)"/>
<path d="M0 0 C0.99 0.33 1.98 0.66 3 1 C3 1.66 3 2.32 3 3 C-2.93609666 3.89316269 -8.06975197 3.97040422 -14 3 C-14 2.67 -14 2.34 -14 2 C-12.41773035 1.80372609 -10.83410729 1.61834462 -9.25 1.4375 C-8.36828125 1.33308594 -7.4865625 1.22867187 -6.578125 1.12109375 C-4.11567549 1.00543324 -2.33461936 1.26361305 0 2 C0 1.34 0 0.68 0 0 Z " fill="#496FCB" transform="translate(335,326)"/>
<path d="M0 0 C1.125 1.75 1.125 1.75 2 4 C1.7009375 4.5878125 1.401875 5.175625 1.09375 5.78125 C-0.24482989 8.49665491 -0.40999539 10.73993549 -0.625 13.75 C-0.69976562 14.73484375 -0.77453125 15.7196875 -0.8515625 16.734375 C-0.92503906 17.85585938 -0.92503906 17.85585938 -1 19 C-1.33 19 -1.66 19 -2 19 C-2.05451714 16.95863605 -2.09302485 14.91684144 -2.125 12.875 C-2.14820313 11.73804688 -2.17140625 10.60109375 -2.1953125 9.4296875 C-1.99672109 5.94242233 -1.2524801 3.2446138 0 0 Z " fill="#5573CA" transform="translate(276,240)"/>
<path d="M0 0 C1.11375 0.1546875 1.11375 0.1546875 2.25 0.3125 C2.58 1.3025 2.91 2.2925 3.25 3.3125 C-0.08333333 3.97916667 -3.41666667 4.64583333 -6.75 5.3125 C-3.42692308 0.38942308 -3.42692308 0.38942308 0 0 Z " fill="#6C8DDC" transform="translate(292.75,232.6875)"/>
<path d="M0 0 C0.33 0 0.66 0 1 0 C1.042721 1.66611905 1.04063832 3.33382885 1 5 C0.67 5.33 0.34 5.66 0 6 C-0.23287008 7.68183948 -0.41264166 9.3712416 -0.5625 11.0625 C-0.64628906 11.98160156 -0.73007813 12.90070313 -0.81640625 13.84765625 C-0.87699219 14.55792969 -0.93757812 15.26820313 -1 16 C-1.33 16 -1.66 16 -2 16 C-2.05402274 13.89611431 -2.09280256 11.79183286 -2.125 9.6875 C-2.14820313 8.51574219 -2.17140625 7.34398437 -2.1953125 6.13671875 C-2 3 -2 3 0 0 Z " fill="#4D6AC4" transform="translate(175,241)"/>
<path d="M0 0 C0.33 0 0.66 0 1 0 C1 3.3 1 6.6 1 10 C0.01 10.495 0.01 10.495 -1 11 C-2.60080151 6.99799622 -1.29279692 3.95443764 0 0 Z " fill="#3958B8" transform="translate(171,384)"/>
<path d="M0 0 C0.33 0 0.66 0 1 0 C1 3.3 1 6.6 1 10 C0.01 10.495 0.01 10.495 -1 11 C-2.60080151 6.99799622 -1.29279692 3.95443764 0 0 Z " fill="#3958B8" transform="translate(171,286)"/>
</svg>
