<?xml version="1.0" encoding="UTF-8"?>
<svg version="1.1" xmlns="http://www.w3.org/2000/svg" width="512" height="512">
<path d="M0 0 C10.27493082 6.98115259 17.94781061 17.0305402 25.6875 26.59765625 C27.87251569 29.23788354 30.12921391 31.78370345 32.4375 34.31640625 C36.35641252 38.61632416 40.02920869 43.07560172 43.6875 47.59765625 C45.87251569 50.23788354 48.12921391 52.78370345 50.4375 55.31640625 C54.35641252 59.61632416 58.02920869 64.07560172 61.6875 68.59765625 C63.87251569 71.23788354 66.12921391 73.78370345 68.4375 76.31640625 C72.35641252 80.61632416 76.02920869 85.07560172 79.6875 89.59765625 C81.87251569 92.23788354 84.12921391 94.78370345 86.4375 97.31640625 C90.35641252 101.61632416 94.02920869 106.07560172 97.6875 110.59765625 C99.87251569 113.23788354 102.12921391 115.78370345 104.4375 118.31640625 C108.35641252 122.61632416 112.02920869 127.07560172 115.6875 131.59765625 C117.87251569 134.23788354 120.12921391 136.78370345 122.4375 139.31640625 C126.35641252 143.61632416 130.02920869 148.07560172 133.6875 152.59765625 C135.87251569 155.23788354 138.12921391 157.78370345 140.4375 160.31640625 C144.35641252 164.61632416 148.02920869 169.07560172 151.6875 173.59765625 C153.87251569 176.23788354 156.12921391 178.78370345 158.4375 181.31640625 C162.35641252 185.61632416 166.02920869 190.07560172 169.6875 194.59765625 C171.87251569 197.23788354 174.12921391 199.78370345 176.4375 202.31640625 C180.35641252 206.61632416 184.02920869 211.07560172 187.6875 215.59765625 C189.87251569 218.23788354 192.12921391 220.78370345 194.4375 223.31640625 C198.35641252 227.61632416 202.02920869 232.07560172 205.6875 236.59765625 C207.87251569 239.23788354 210.12921391 241.78370345 212.4375 244.31640625 C216.35641252 248.61632416 220.02920869 253.07560172 223.6875 257.59765625 C225.87251569 260.23788354 228.12921391 262.78370345 230.4375 265.31640625 C234.35641252 269.61632416 238.02920869 274.07560172 241.6875 278.59765625 C243.87251569 281.23788354 246.12921391 283.78370345 248.4375 286.31640625 C252.35641252 290.61632416 256.02920869 295.07560172 259.6875 299.59765625 C261.87251569 302.23788354 264.12921391 304.78370345 266.4375 307.31640625 C270.35641252 311.61632416 274.02920869 316.07560172 277.6875 320.59765625 C279.87251569 323.23788354 282.12921391 325.78370345 284.4375 328.31640625 C288.35641252 332.61632416 292.02920869 337.07560172 295.6875 341.59765625 C297.87251569 344.23788354 300.12921391 346.78370345 302.4375 349.31640625 C306.35641252 353.61632416 310.02920869 358.07560172 313.6875 362.59765625 C315.87251569 365.23788354 318.12921391 367.78370345 320.4375 370.31640625 C324.35641252 374.61632416 328.02920869 379.07560172 331.6875 383.59765625 C333.87251569 386.23788354 336.12921391 388.78370345 338.4375 391.31640625 C342.35641252 395.61632416 346.02920869 400.07560172 349.6875 404.59765625 C351.87251569 407.23788354 354.12921391 409.78370345 356.4375 412.31640625 C360.35641252 416.61632416 364.02920869 421.07560172 367.6875 425.59765625 C369.87251569 428.23788354 372.12921391 430.78370345 374.4375 433.31640625 C379.14466963 438.48522474 383.55999338 443.86754046 387.9375 449.31640625 C388.61941406 450.15558594 389.30132812 450.99476563 390.00390625 451.859375 C391.78882804 454.12748774 393.45223813 456.42209017 395.0625 458.81640625 C395.56007813 459.54859375 396.05765625 460.28078125 396.5703125 461.03515625 C400.86664003 468.20388561 401.81949024 476.74137075 400.375 484.94140625 C397.50543643 495.3624529 391.16034091 501.91031594 382.14453125 507.41015625 C374.62943245 510.99351462 364.28743257 510.70248646 356.48046875 508.21484375 C346.63398958 503.58266361 340.95166515 496.45688601 334.2578125 488.140625 C332.05421594 485.45846959 329.77706175 482.88014204 327.4375 480.31640625 C323.51858748 476.01648834 319.84579131 471.55721078 316.1875 467.03515625 C314.00248431 464.39492896 311.74578609 461.84910905 309.4375 459.31640625 C305.51858748 455.01648834 301.84579131 450.55721078 298.1875 446.03515625 C296.00248431 443.39492896 293.74578609 440.84910905 291.4375 438.31640625 C287.61276357 434.11982045 284.00853365 429.78643257 280.46875 425.34765625 C279.21578125 423.8471875 279.21578125 423.8471875 277.9375 422.31640625 C277.26320167 421.10786484 277.26320167 421.10786484 276.57528114 419.87490845 C273.87922132 415.82192213 271.42697503 412.94785636 266.65576124 411.73764801 C259.36275446 410.77275597 251.99277958 411.0249924 244.65380859 411.12109375 C242.15467321 411.11732408 239.65554116 411.10912833 237.15643311 411.09684753 C231.78183172 411.08015775 226.40862579 411.09380244 221.03425217 411.13504028 C213.24785122 411.19454778 205.46224433 411.19653208 197.67566366 411.18450367 C185.01941946 411.16631503 172.36365031 411.19115846 159.70751953 411.24462891 C147.45490272 411.29627474 135.20243058 411.33282026 122.94970703 411.34521484 C121.81896907 411.34637141 121.81896907 411.34637141 120.66538791 411.34755135 C112.42053513 411.35559857 104.17568229 411.35994208 95.93082619 411.36260986 C93.73758631 411.36337892 91.54434644 411.36416314 89.35110657 411.36496735 C87.90435524 411.36546966 86.45760389 411.36590993 85.01085253 411.36628723 C75.84567816 411.36894717 66.68073218 411.38757025 57.51562953 411.42375851 C52.2465162 411.44425657 46.97738564 411.45538 41.70824432 411.46608925 C39.27633765 411.4729532 36.84443778 411.4833325 34.41256332 411.49761009 C1.06187486 411.69037452 1.06187486 411.69037452 -13.0625 405.31640625 C-14.39861328 404.71892578 -14.39861328 404.71892578 -15.76171875 404.109375 C-31.51311167 396.31232315 -42.15944307 382.72115623 -48.0625 366.31640625 C-49.73003267 360.23475707 -50.35574676 354.50648669 -50.33665466 348.21751404 C-50.34189134 347.34723306 -50.34712802 346.47695209 -50.35252339 345.58029896 C-50.36742579 342.68816928 -50.36822638 339.79621805 -50.36889648 336.90405273 C-50.37652466 334.82033493 -50.38495329 332.73661993 -50.39411926 330.65290833 C-50.41600915 325.00791341 -50.42485604 319.36297265 -50.42994571 313.71794009 C-50.43359653 310.18481292 -50.43984043 306.65169977 -50.4469471 303.11857796 C-50.47142477 290.7742768 -50.48448936 278.43001754 -50.48803711 266.08569336 C-50.49166858 254.6096511 -50.52154063 243.13387689 -50.56344169 231.65791649 C-50.598228 221.78154895 -50.61358701 211.90526988 -50.61428314 202.02884156 C-50.61507326 196.14075784 -50.6236895 190.25294728 -50.65228081 184.36492729 C-50.67860372 178.82026324 -50.68058757 173.27609605 -50.66462517 167.73139763 C-50.66282182 165.7078899 -50.6693994 163.68435266 -50.68544388 161.66090775 C-50.83214347 141.94171186 -46.99684638 124.17752618 -33.06640625 109.1875 C-25.3093403 101.94454759 -15.7020677 95.10219942 -5.0625 93.31640625 C-9.24809778 87.503076 -13.78405346 82.08032188 -18.46362305 76.66577148 C-22.31239996 72.20807474 -26.06662375 67.68481405 -29.765625 63.1015625 C-31.45499215 61.05306118 -33.16426202 59.05061003 -34.921875 57.0625 C-43.513696 47.30479793 -48.18795185 39.68598948 -48.0625 26.31640625 C-47.42783851 17.97128283 -43.67798025 10.53434484 -37.43359375 4.9765625 C-26.93203256 -2.92461211 -12.29633516 -6.68380339 0 0 Z " fill="#B377DA" transform="translate(50.0625,2.68359375)"/>
<path d="M0 0 C19.88910433 -0.07019585 39.77818338 -0.1230399 59.66738605 -0.15543652 C68.90305545 -0.17088111 78.13864771 -0.19192444 87.37426758 -0.22631836 C95.42749609 -0.2562946 103.48066871 -0.27559249 111.53395146 -0.28226548 C115.79497048 -0.28616385 120.05582965 -0.29527496 124.31679726 -0.31719017 C128.33458826 -0.33768553 132.3521549 -0.34380769 136.36999321 -0.33932304 C137.83765002 -0.34014245 139.30531502 -0.34602998 140.77292633 -0.35761642 C152.51351722 -0.44569051 162.50359069 1.24625932 173 6.5625 C173.67861084 6.90619629 174.35722168 7.24989258 175.05639648 7.60400391 C189.79881606 15.42409309 199.22090024 28.55924738 205 44 C207.68495273 52.98412874 207.26647961 62.08857046 207.22705078 71.37133789 C207.22648605 73.23471063 207.22680444 75.09808382 207.22793579 76.9614563 C207.22850787 82.0000582 207.21677704 87.03856422 207.20278788 92.07714391 C207.19025633 97.35020663 207.18910811 102.62327173 207.18673706 107.89634705 C207.18052941 117.87274643 207.16412827 127.8491018 207.14403808 137.82548183 C207.12165682 149.18701597 207.11068005 160.54855225 207.10064721 171.91010296 C207.07976141 195.27342634 207.04459935 218.6367107 207 242 C199.25614478 234.28668303 192.0780014 226.18715464 185.21484375 217.68359375 C183.04367173 215.05291443 180.79758643 212.52057576 178.5 210 C174.58108748 205.70008209 170.90829131 201.24080453 167.25 196.71875 C165.06498431 194.07852271 162.80828609 191.5327028 160.5 189 C156.58108748 184.70008209 152.90829131 180.24080453 149.25 175.71875 C147.06498431 173.07852271 144.80828609 170.5327028 142.5 168 C138.58108748 163.70008209 134.90829131 159.24080453 131.25 154.71875 C129.06498431 152.07852271 126.80828609 149.5327028 124.5 147 C120.58108748 142.70008209 116.90829131 138.24080453 113.25 133.71875 C111.06498431 131.07852271 108.80828609 128.5327028 106.5 126 C102.58108748 121.70008209 98.90829131 117.24080453 95.25 112.71875 C93.06498431 110.07852271 90.80828609 107.5327028 88.5 105 C84.58108748 100.70008209 80.90829131 96.24080453 77.25 91.71875 C75.06498431 89.07852271 72.80828609 86.5327028 70.5 84 C66.58108748 79.70008209 62.90829131 75.24080453 59.25 70.71875 C57.06498431 68.07852271 54.80828609 65.5327028 52.5 63 C48.58108748 58.70008209 44.90829131 54.24080453 41.25 49.71875 C39.06498431 47.07852271 36.80828609 44.5327028 34.5 42 C30.58108748 37.70008209 26.90829131 33.24080453 23.25 28.71875 C20.36404853 25.23155864 17.32299889 21.90241106 14.2734375 18.55859375 C11.0406763 14.92034876 7.99186896 11.14220237 4.9453125 7.34765625 C3.10675749 5.03927203 3.10675749 5.03927203 1.2421875 3.30859375 C0 2 0 2 0 0 Z " fill="#B377DA" transform="translate(177,93)"/>
<path d="M0 0 C3.57169149 3.00346785 6.33359883 5.78281691 7.11999249 10.56024528 C7.27224846 13.33093507 7.29260644 16.07594174 7.27139282 18.85079956 C7.28286946 20.44260801 7.28286946 20.44260801 7.29457796 22.06657422 C7.31521586 25.62254659 7.3072583 29.17787176 7.29931641 32.73388672 C7.30801064 35.28334145 7.31837693 37.83279095 7.33029175 40.38223267 C7.35431092 46.58852602 7.35937448 52.79458078 7.35469122 59.00091158 C7.35112325 64.04648633 7.35462761 69.09200858 7.36314011 74.13757706 C7.36492567 75.21528386 7.36492567 75.21528386 7.36674731 76.31476251 C7.36917085 77.77440746 7.37159912 79.23405241 7.37403207 80.69369735 C7.3957793 94.37891892 7.39146 108.0640419 7.37926237 121.74926902 C7.36892535 134.26280262 7.39143172 146.77602477 7.42945881 159.28949676 C7.46822449 172.1447759 7.48472603 184.99990774 7.47721231 197.85524571 C7.47338938 205.06997179 7.47835197 212.28443283 7.50664139 219.49911118 C7.53297664 226.28397901 7.52793768 233.06812283 7.50181961 239.85302353 C7.49708265 242.34268402 7.50257701 244.83238821 7.51906586 247.3219986 C7.5399608 250.72213561 7.52383663 254.12017179 7.4984436 257.52023315 C7.51319217 258.50448426 7.52794074 259.48873537 7.54313624 260.50281227 C7.4361416 267.31686709 5.63351793 271.49424525 0.75 276.3125 C-2.62218486 278.26018281 -5.69283984 278.67809791 -9.5625 278.8125 C-10.88701172 278.88984375 -10.88701172 278.88984375 -12.23828125 278.96875 C-19.72994191 277.33632589 -25.62186471 270.27901852 -31 265.125 C-32.40964543 263.78852351 -33.8198054 262.45258952 -35.23046875 261.1171875 C-35.91544434 260.46717773 -36.60041992 259.81716797 -37.30615234 259.14746094 C-39.9491683 256.65249637 -42.62703667 254.19925884 -45.3125 251.75 C-49.82001344 247.63391242 -54.29217331 243.48232577 -58.75 239.3125 C-64.16687513 234.24736109 -69.60721877 229.20983313 -75.078125 224.203125 C-75.53904856 223.76567081 -75.99997211 223.32821663 -76.47486305 222.87750626 C-78.34577272 221.18174793 -78.34577272 221.18174793 -80.91373253 219.3524437 C-88.60863853 213.2981419 -88.60863853 213.2981419 -90.29509354 208.07691193 C-90.70446635 204.3021563 -90.78560521 200.60241244 -90.73681641 196.81347656 C-90.75831533 195.37653358 -90.78440665 193.93965319 -90.81469727 192.50286865 C-90.88153284 188.62573679 -90.87902194 184.75164421 -90.85930681 180.87409687 C-90.84890988 177.62388292 -90.87218742 174.3742458 -90.89502847 171.12412238 C-90.94814174 163.44717115 -90.94411313 155.77171373 -90.90380859 148.09472656 C-90.86336998 140.20750946 -90.91778117 132.32501594 -91.01956809 124.43845773 C-91.10401441 117.63861416 -91.12949512 110.84024721 -91.10870111 104.03991294 C-91.09684608 99.99078258 -91.10614055 95.94474039 -91.17216873 91.89606476 C-91.58408401 64.10444431 -91.58408401 64.10444431 -83.95879173 56.22723007 C-81.41766468 54.04534565 -78.81618096 52.14060783 -75.96496201 50.38523102 C-73.78135797 49.01935832 -71.93862165 47.38253245 -70.0625 45.625 C-69.17498047 44.86123047 -69.17498047 44.86123047 -68.26953125 44.08203125 C-65.55513764 41.70365541 -62.90429243 39.25739371 -60.25 36.8125 C-56.3172247 33.19152107 -52.34785777 29.62290892 -48.30859375 26.12109375 C-45.7604335 23.8823875 -43.25589407 21.59839788 -40.75 19.3125 C-36.29599364 15.25671979 -31.83946593 11.21486738 -27.25 7.3125 C-26.42371094 6.60738281 -25.59742188 5.90226562 -24.74609375 5.17578125 C-23.44865234 4.09876953 -23.44865234 4.09876953 -22.125 3 C-21.33867187 2.34386719 -20.55234375 1.68773438 -19.7421875 1.01171875 C-13.10309226 -3.5149371 -6.96198549 -3.61487708 0 0 Z " fill="#B277DA" transform="translate(505.25,116.6875)"/>
</svg>
