<?xml version="1.0" encoding="UTF-8"?>
<svg version="1.1" xmlns="http://www.w3.org/2000/svg" width="512" height="512">
<path d="M0 0 C0.79736069 -0.0071553 1.59472137 -0.01431061 2.41624451 -0.02168274 C3.28225281 -0.02437164 4.14826111 -0.02706055 5.04051208 -0.02983093 C5.95976974 -0.03640213 6.8790274 -0.04297333 7.82614136 -0.04974365 C10.86822089 -0.06945112 13.91025103 -0.08113573 16.95237732 -0.09111023 C17.99410536 -0.09518576 19.0358334 -0.09926128 20.10912895 -0.10346031 C25.62661922 -0.1243136 31.1440847 -0.13861662 36.66160583 -0.147995 C42.34182737 -0.15903714 48.02165478 -0.19341407 53.7017374 -0.23316669 C58.08486627 -0.2594019 62.46790237 -0.26769313 66.85110283 -0.27127647 C68.94372649 -0.27612726 71.03634643 -0.28769786 73.1288929 -0.30631447 C87.15473725 -0.4233069 98.1975017 -0.05289374 109.68284607 8.87763977 C115.08189487 14.28599728 119.03895187 20.13559574 122.58518982 26.89717102 C129.14549103 39.97224575 129.14549103 39.97224575 140.34104919 48.42012024 C146.46073296 49.37766105 152.24122017 49.06849953 158.38206482 48.48701477 C167.04435182 47.66760924 173.70465175 50.35603312 180.69847107 55.33467102 C189.33204047 62.60910964 195.13431076 71.2856096 196.31640625 82.69996643 C196.46696685 86.83623936 196.49012833 90.95442663 196.46604919 95.09248352 C196.47148028 96.67230369 196.47860843 98.25211878 196.48728943 99.83192444 C196.5054087 104.09233449 196.49850282 108.35235385 196.48577309 112.61277008 C196.47558592 117.08925361 196.48505454 121.56570559 196.49131775 126.04219055 C196.49857761 133.55706231 196.48905024 141.07177638 196.46995544 148.58662415 C196.44818988 157.25217133 196.45524243 165.91734195 196.47726107 174.58288002 C196.4954626 182.04736344 196.49795024 189.51173406 196.48750639 196.97623253 C196.4812975 201.42375732 196.48036358 205.8711056 196.49365234 210.31861877 C196.50527974 214.50165015 196.49706069 218.68420004 196.47407532 222.86717987 C196.46882475 224.39449009 196.47023874 225.92184144 196.47912598 227.44913483 C196.54944643 240.77074048 194.37189009 251.27590634 184.94847107 261.14717102 C172.22089296 273.29731647 158.24694079 272.72852803 141.65940857 272.66474915 C139.29142324 272.67017464 136.9234413 272.67729969 134.5554657 272.68598938 C128.14640728 272.70417458 121.73760736 272.69717486 115.32854462 272.68447304 C111.32072479 272.67734316 107.31292247 272.67871001 103.30509949 272.68243408 C102.30464287 272.68335348 102.30464287 272.68335348 101.28397501 272.68429145 C99.92870091 272.68557046 98.57342683 272.68686731 97.21815276 272.68818182 C84.53332574 272.6995664 71.84861467 272.68650735 59.16380668 272.66498035 C48.29835033 272.64711126 37.43306496 272.65021597 26.56761169 272.6686554 C13.92572786 272.69009974 1.28394546 272.69846796 -11.35795403 272.68620634 C-12.70802178 272.68493225 -14.05808956 272.68367477 -15.40815735 272.68243408 C-16.40434033 272.68150843 -16.40434033 272.68150843 -17.42064822 272.68056408 C-22.0829041 272.67712183 -26.7450598 272.68311241 -31.40730286 272.69235229 C-37.69146147 272.70393743 -43.97529832 272.69583593 -50.2594223 272.67277527 C-52.5607627 272.66750247 -54.86213035 272.66897734 -57.16345978 272.67782593 C-72.69729137 272.73203037 -85.23036339 272.43202659 -97.05152893 261.14717102 C-107.13571614 250.58373531 -108.65104655 239.28335619 -108.56910706 225.20185852 C-108.57453814 223.62203835 -108.5816663 222.04222326 -108.59034729 220.4624176 C-108.60846656 216.20200755 -108.60156069 211.94198819 -108.58883095 207.68157196 C-108.57864378 203.20508843 -108.5881124 198.72863646 -108.59437561 194.25215149 C-108.60163547 186.73727974 -108.5921081 179.22256566 -108.57301331 171.7077179 C-108.55124774 163.04217071 -108.55830029 154.37700009 -108.58031893 145.71146202 C-108.59852046 138.2469786 -108.6010081 130.78260798 -108.59056425 123.31810951 C-108.58435536 118.87058472 -108.58342144 114.42323644 -108.59671021 109.97572327 C-108.60833761 105.79269189 -108.60011855 101.610142 -108.57713318 97.42716217 C-108.57188261 95.89985195 -108.5732966 94.3725006 -108.58218384 92.84520721 C-108.65250429 79.52360156 -106.47494795 69.0184357 -97.05152893 59.14717102 C-91.24171139 53.60093689 -84.94178036 49.87029372 -77.05152893 48.14717102 C-73.90797424 48.28364563 -73.90797424 48.28364563 -70.66090393 48.73310852 C-63.03971073 49.71809302 -56.22933398 50.34160366 -49.05152893 47.14717102 C-40.46367695 39.8343819 -35.09305744 28.67955099 -29.62001038 19.00691223 C-25.43930081 11.7577078 -20.44816266 6.84882228 -12.80152893 3.27217102 C-11.99199768 2.88287415 -11.18246643 2.49357727 -10.34840393 2.09248352 C-6.86367289 0.6582915 -3.76414122 0.02331428 0 0 Z M-13.23902893 25.33467102 C-22.64946138 35.93036394 -22.64946138 35.93036394 -28.05152893 48.14717102 C19.46847107 48.14717102 66.98847107 48.14717102 115.94847107 48.14717102 C106.46346187 30.5015086 106.46346187 30.5015086 91.38597107 17.83467102 C86.02591518 16.32286038 80.79131455 15.99828698 75.24998474 16.00190735 C74.1291877 15.99686943 74.1291877 15.99686943 72.98574829 15.99172974 C70.52929496 15.98227457 68.07291019 15.98027932 65.61643982 15.97920227 C63.89779635 15.97598573 62.17915316 15.97262136 60.46051025 15.96911621 C56.86200832 15.96313839 53.26353035 15.96127491 49.6650238 15.96186829 C45.07214928 15.96196979 40.47942976 15.94832383 35.88659191 15.93109608 C32.33736476 15.91993318 28.78817456 15.9179504 25.23893166 15.91847801 C23.54659301 15.91730412 21.85425321 15.91291579 20.16193199 15.90514565 C1.78454228 15.62988111 1.78454228 15.62988111 -13.23902893 25.33467102 Z M-86.30152893 73.58467102 C-91.74275001 80.26188748 -92.18283399 87.32090587 -92.14918518 95.73310852 C-92.14777023 96.43489227 -92.14635529 97.13667603 -92.14489746 97.85972595 C-92.13934183 100.08058606 -92.12679786 102.30134186 -92.11402893 104.52217102 C-92.10900819 106.03649247 -92.10444629 107.55081552 -92.10035706 109.06513977 C-92.089387 112.75918354 -92.07215342 116.45316708 -92.05152893 120.14717102 C-83.6021447 120.42621758 -75.15470836 120.63890898 -66.70184422 120.76891708 C-62.77580729 120.83134487 -58.85293891 120.91586451 -54.9287262 121.05244446 C-51.13531823 121.18363312 -47.34493891 121.25473254 -43.54943657 121.28569794 C-42.10781591 121.30773564 -40.66634671 121.35078127 -39.22603035 121.4159317 C-34.63234282 121.61529944 -30.4882739 121.54843527 -26.05152893 120.14717102 C-22.15989003 116.54890816 -19.73816764 112.72196408 -17.05152893 108.14717102 C-5.22690925 93.29154751 12.57636007 84.64891215 30.94847107 81.14717102 C35.22989981 80.73637859 39.46192703 80.66864838 43.76097107 80.70967102 C44.90098572 80.71869446 46.04100037 80.7277179 47.21556091 80.73701477 C70.26062664 81.20912879 88.23602552 91.42506518 104.39378357 107.22920227 C106.94847107 110.14717102 106.94847107 110.14717102 108.19760132 112.58529663 C109.85728678 115.62411036 111.38273224 117.80705275 113.94847107 120.14717102 C118.98872283 121.54685641 123.89804996 121.31721265 129.06956482 121.12373352 C130.53924732 121.10505887 132.0089925 121.09083527 133.47875977 121.08085632 C137.3290242 121.04285068 141.17545588 120.94480095 145.0242157 120.83381653 C148.95872644 120.73111965 152.89386294 120.68576406 156.82933044 120.63545227 C164.53744959 120.52852038 172.24242139 120.35809125 179.94847107 120.14717102 C179.99835511 115.75468922 180.03441688 111.36236278 180.05833435 106.96968079 C180.06831777 105.47909162 180.08190929 103.98852166 180.09934998 102.4980011 C180.58163686 86.86956432 180.58163686 86.86956432 173.94847107 73.14717102 C165.83112165 65.08780267 157.8806883 63.99319191 146.78359985 64.01345825 C145.41336158 64.01005992 145.41336158 64.01005992 144.01544172 64.00659293 C140.95949522 64.00027113 137.90359329 64.00108113 134.84764099 64.00190735 C132.65448957 63.99891472 130.46133868 63.99551195 128.26818848 63.99172974 C122.31358111 63.98289605 116.35898812 63.98055189 110.40437484 63.97991395 C106.68320997 63.97920309 102.96204875 63.97706808 99.24088478 63.97441673 C86.92631672 63.96564279 74.61175634 63.96099676 62.29718526 63.96174721 C61.63385519 63.96178716 60.97052511 63.96182712 60.28709412 63.96186829 C59.29087826 63.96192961 59.29087826 63.96192961 58.27453683 63.96199217 C47.51421677 63.96239851 36.75393172 63.95283096 25.99362179 63.93872992 C14.9339542 63.92435142 3.87430451 63.91764351 -7.18537253 63.9183237 C-13.39008539 63.91857854 -19.59475862 63.91573465 -25.79946327 63.90514565 C-31.63613267 63.89545666 -37.4727246 63.89539104 -43.30939674 63.90266228 C-45.44871128 63.90370712 -47.58803065 63.90135121 -49.72733688 63.89530182 C-52.65355083 63.88756474 -55.57949843 63.89223814 -58.50570679 63.89993286 C-59.34697091 63.8947893 -60.18823504 63.88964574 -61.05499202 63.88434631 C-71.30176433 63.9436576 -79.21425494 65.72889744 -86.30152893 73.58467102 Z M-1.80152893 115.33467102 C-16.14316598 130.74924849 -19.92479624 148.04106258 -19.23512268 168.4967804 C-18.84750118 174.09255031 -17.28350638 179.00264595 -15.05152893 184.14717102 C-14.68930237 185.02244446 -14.32707581 185.8977179 -13.95387268 186.79951477 C-6.91838301 202.27759205 6.4300534 213.98565876 22.01097107 220.39717102 C39.03515373 226.11191781 57.06230676 224.95216925 73.18919373 217.08613586 C88.71007944 208.80229928 100.24292654 194.56695827 105.45481873 177.87519836 C109.78564413 161.82784446 107.9076052 144.78448755 100.37425232 130.07295227 C91.18019966 114.70666846 77.4159728 102.81554565 59.94847107 98.14717102 C36.79030592 93.1806388 15.60029557 99.49660494 -1.80152893 115.33467102 Z M-92.05152893 136.14717102 C-92.05152893 151.98717102 -92.05152893 167.82717102 -92.05152893 184.14717102 C-72.58152893 184.14717102 -53.11152893 184.14717102 -33.05152893 184.14717102 C-33.71152893 180.51717102 -34.37152893 176.88717102 -35.05152893 173.14717102 C-35.21011938 171.02624818 -35.3121647 168.89900899 -35.31715393 166.77217102 C-35.31973206 165.68420227 -35.32231018 164.59623352 -35.32496643 163.47529602 C-35.31723206 162.37701477 -35.30949768 161.27873352 -35.30152893 160.14717102 C-35.31313049 158.49974915 -35.31313049 158.49974915 -35.32496643 156.81904602 C-35.32238831 155.73107727 -35.31981018 154.64310852 -35.31715393 153.52217102 C-35.31489807 152.5605304 -35.31264221 151.59888977 -35.31031799 150.60810852 C-34.94652776 145.74292894 -33.92426835 140.94723785 -33.05152893 136.14717102 C-52.52152893 136.14717102 -71.99152893 136.14717102 -92.05152893 136.14717102 Z M120.94847107 136.14717102 C121.60847107 139.77717102 122.26847107 143.40717102 122.94847107 147.14717102 C123.10706152 149.26809386 123.20910684 151.39533305 123.21409607 153.52217102 C123.21796326 155.15412415 123.21796326 155.15412415 123.22190857 156.81904602 C123.21417419 157.91732727 123.20643982 159.01560852 123.19847107 160.14717102 C123.20620544 161.24545227 123.21393982 162.34373352 123.22190857 163.47529602 C123.21933044 164.56326477 123.21675232 165.65123352 123.21409607 166.77217102 C123.21184021 167.73381165 123.20958435 168.69545227 123.20726013 169.68623352 C122.8434699 174.5514131 121.82121049 179.34710419 120.94847107 184.14717102 C140.41847107 184.14717102 159.88847107 184.14717102 179.94847107 184.14717102 C179.94847107 168.30717102 179.94847107 152.46717102 179.94847107 136.14717102 C160.47847107 136.14717102 141.00847107 136.14717102 120.94847107 136.14717102 Z M-92.05152893 200.14717102 C-92.10141297 204.53965283 -92.13747474 208.93197926 -92.16139221 213.32466125 C-92.17137563 214.81525042 -92.18496715 216.30582038 -92.20240784 217.79634094 C-92.68469473 233.42477772 -92.68469473 233.42477772 -86.05152893 247.14717102 C-77.93417951 255.20653937 -69.98374616 256.30115013 -58.88665771 256.28088379 C-57.51641944 256.28428212 -57.51641944 256.28428212 -56.11849958 256.28774911 C-53.06255309 256.29407091 -50.00665115 256.29326091 -46.95069885 256.29243469 C-44.75754743 256.29542732 -42.56439654 256.29883009 -40.37124634 256.3026123 C-34.41663897 256.31144599 -28.46204598 256.31379016 -22.5074327 256.31442809 C-18.78626783 256.31513895 -15.06510661 256.31727396 -11.34394264 256.31992531 C0.97062542 256.32869925 13.2851858 256.33334528 25.59975687 256.33259483 C26.26308695 256.33255488 26.92641703 256.33251492 27.60984802 256.33247375 C28.27399193 256.33243287 28.93813583 256.33239199 29.62240531 256.33234987 C40.38272537 256.33194353 51.14301042 256.34151108 61.90332035 256.35561212 C72.96298794 256.36999062 84.02263763 256.37669853 95.08231467 256.37601835 C101.28702753 256.3757635 107.49170076 256.37860739 113.69640541 256.3891964 C119.5330748 256.39888539 125.36966674 256.398951 131.20633888 256.39167976 C133.34565341 256.39063492 135.48497279 256.39299083 137.62427902 256.39904022 C140.55049296 256.40677731 143.47644057 256.40210391 146.40264893 256.39440918 C147.24391305 256.39955274 148.08517718 256.40469631 148.95193416 256.40999573 C158.01095655 256.35755948 165.94690976 255.18471478 172.57737732 248.50654602 C179.13068825 241.24263511 180.08470991 234.20688173 180.04612732 224.56123352 C180.04471237 223.85944977 180.04329742 223.15766602 180.0418396 222.43461609 C180.03628397 220.21375598 180.02373999 217.99300018 180.01097107 215.77217102 C180.00595032 214.25784957 180.00138843 212.74352652 179.99729919 211.22920227 C179.98632914 207.5351585 179.96909555 203.84117496 179.94847107 200.14717102 C171.49908684 199.86812446 163.05165049 199.65543306 154.59878635 199.52542496 C150.67274943 199.46299717 146.74988104 199.37847753 142.82566833 199.24189758 C139.03226037 199.11070892 135.24188104 199.0396095 131.44637871 199.0086441 C130.00475804 198.9866064 128.56328885 198.94356077 127.12297249 198.87841034 C122.52928496 198.6790426 118.38521604 198.74590677 113.94847107 200.14717102 C110.05683216 203.74543388 107.63510978 207.57237796 104.94847107 212.14717102 C93.12385139 227.00279453 75.32058207 235.64542989 56.94847107 239.14717102 C52.66704233 239.55796345 48.43501511 239.62569366 44.13597107 239.58467102 C42.99595642 239.57564758 41.85594177 239.56662415 40.68138123 239.55732727 C17.6363155 239.08521325 -0.33908338 228.86927686 -16.49684143 213.06513977 C-19.05152893 210.14717102 -19.05152893 210.14717102 -20.30065918 207.70904541 C-21.96034464 204.67023168 -23.48579011 202.4872893 -26.05152893 200.14717102 C-31.09178069 198.74748563 -36.00110783 198.97712939 -41.17262268 199.17060852 C-42.64230518 199.18928318 -44.11205036 199.20350677 -45.58181763 199.21348572 C-49.43208206 199.25149136 -53.27851374 199.34954109 -57.12727356 199.46052551 C-61.0617843 199.56322239 -64.99692081 199.60857798 -68.93238831 199.65888977 C-76.64050745 199.76582166 -84.34547926 199.93625079 -92.05152893 200.14717102 Z " fill="#F29C00" transform="translate(212.05152893066406,55.85282897949219)"/>
<path d="M0 0 C2.85817286 1.64344939 3.69074902 2.86388647 4.55078125 6.0234375 C4.85179071 8.65614713 4.77667605 10.45854337 4 13 C1.38500479 15.90888228 -1.74157493 17.86892078 -5 20 C-6.55338809 21.17212534 -8.09546897 22.35940932 -9.625 23.5625 C-10.74068359 24.43841797 -10.74068359 24.43841797 -11.87890625 25.33203125 C-12.57886719 25.88246094 -13.27882812 26.43289063 -14 27 C-14.60714844 27.45761719 -15.21429688 27.91523438 -15.83984375 28.38671875 C-24.06129963 34.89304097 -32.01373934 45.52201947 -34 56 C-35.137732 70.4329431 -32.20088414 80.75052579 -23.2109375 92.4140625 C-11.65792073 105.92660155 4.07789134 114.63040893 20 122 C21.08152344 122.51046875 22.16304688 123.0209375 23.27734375 123.546875 C60.92190701 140.5211508 107.52485876 151.16057096 149 150 C148.43410156 149.44570313 147.86820313 148.89140625 147.28515625 148.3203125 C146.55167969 147.59585938 145.81820312 146.87140625 145.0625 146.125 C144.33160156 145.40570313 143.60070312 144.68640625 142.84765625 143.9453125 C139.84108424 140.77983076 139.64328103 138.33594873 139.73046875 133.9765625 C140 132 140 132 141.5 129.5 C144.32363618 127.80581829 146.57870292 127.24783785 149.8815918 127.43017578 C152.45711401 128.12295771 153.68243674 129.13129731 155.64453125 130.9296875 C156.33724121 131.56334229 157.02995117 132.19699707 157.74365234 132.84985352 C161.86745836 136.77956133 165.91897234 140.77535368 169.9375 144.8125 C170.79923828 145.67037109 171.66097656 146.52824219 172.54882812 147.41210938 C173.36673828 148.23130859 174.18464844 149.05050781 175.02734375 149.89453125 C175.76718506 150.63550049 176.50702637 151.37646973 177.26928711 152.13989258 C180.06355746 155.14307297 180.5321053 157.69588103 180.46362305 161.81079102 C179.89299646 164.50526632 178.94276368 165.63504309 177.08203125 167.65234375 C176.12901123 168.6897168 176.12901123 168.6897168 175.15673828 169.74804688 C171.21653436 173.86220138 167.22490028 177.91871955 163.1875 181.9375 C162.32962891 182.79923828 161.47175781 183.66097656 160.58789062 184.54882812 C159.76869141 185.36673828 158.94949219 186.18464844 158.10546875 187.02734375 C157.36449951 187.76718506 156.62353027 188.50702637 155.86010742 189.26928711 C152.73366355 192.17824637 150.23330867 192.35466617 145.9765625 192.26953125 C144 192 144 192 141.5 190.5 C139.81724261 187.69540435 139.25901444 185.44228228 139.40625 182.16015625 C140.58538985 177.87025931 143.87680265 175.01619273 147 172 C148.00121084 171.0012123 149.0014082 170.00140622 150 169 C148.91509277 168.90501221 147.83018555 168.81002441 146.71240234 168.7121582 C82.69196617 163.04746294 6.09223609 153.16500704 -38.8984375 101.65625 C-50.26324491 87.2918094 -53.72921417 71.95052956 -52 54 C-48.19071847 32.36147772 -31.04798032 15.74085228 -13.875 3.4375 C-8.87413751 0.21715024 -5.87716314 -1.2593921 0 0 Z " fill="#EBB100" transform="translate(84,264)"/>
<path d="M0 0 C10.23906578 7.73254248 18.72711365 17.59665562 20.6875 30.6875 C22.11678455 48.13329299 19.50517553 61.04058775 8.03125 74.65234375 C0.02533375 83.28136197 -10.26078398 88.35475631 -21.96875 89.00390625 C-38.65548452 89.56319388 -50.64291019 85.89777041 -63.0625 74.375 C-73.05541038 63.81645319 -75.82689781 52.26922077 -75.73217773 38.15722656 C-75.32139743 24.03483761 -69.475381 12.95884274 -59.25 3.28125 C-42.59283172 -10.42061423 -18.05009418 -11.9794347 0 0 Z M-52.3125 20.6875 C-58.26934175 29.45976447 -59.12110965 37.15279681 -58.3125 47.6875 C-56.12872185 56.93424063 -51.15351899 63.11888233 -43.1875 68.0625 C-35.32708088 72.64162267 -26.26387226 73.09301976 -17.41796875 71.00390625 C-7.53444214 67.34502774 -1.9168373 61.05068257 2.6875 51.6875 C5.46216577 43.5484804 4.55686703 33.54186893 0.9375 25.86328125 C-3.398493 18.31594344 -9.86752726 12.8846498 -18.203125 10.04296875 C-31.49468706 7.8030944 -43.27510706 10.40495515 -52.3125 20.6875 Z " fill="#F29C00" transform="translate(283.3125,175.3125)"/>
<path d="M0 0 C2.60607969 1.39632234 4.59537372 2.64283797 6.875 4.4375 C7.47723389 4.89125 8.07946777 5.345 8.69995117 5.8125 C24.82816473 18.13662647 40.33716081 33.19333951 44 54 C45.65483017 71.17836835 42.77917255 86.74891299 31.76757812 100.54394531 C13.4699877 122.22645403 -10.66651622 135.40977911 -36.75 145.6875 C-38.37373535 146.33900024 -38.37373535 146.33900024 -40.03027344 147.00366211 C-46.30894896 149.39305238 -51.27767741 150.62705717 -58 150 C-60.5625 148.5 -60.5625 148.5 -62 146 C-62.54153233 143.21823392 -62.73026776 140.74924335 -62 138 C-59.15089097 134.65654007 -56.59100021 133.17789504 -52.484375 131.703125 C-51.40583252 131.30601318 -50.32729004 130.90890137 -49.21606445 130.49975586 C-48.07226318 130.08733643 -46.92846191 129.67491699 -45.75 129.25 C-35.45899537 125.41057937 -25.60616332 121.32286186 -16 116 C-15.37625488 115.66178223 -14.75250977 115.32356445 -14.10986328 114.97509766 C2.66232647 105.80140568 18.12772277 93.71224742 25.1484375 75.30078125 C27.98320546 64.31280452 26.62490632 53.87680402 21 44 C19.17512904 41.15750663 17.17767686 38.57823401 15 36 C14.58492188 35.44183594 14.16984375 34.88367188 13.7421875 34.30859375 C10.55703226 30.19840839 6.7372575 27.08357547 2.625 23.9375 C2.0587793 23.50397217 1.49255859 23.07044434 0.90917969 22.6237793 C-1.54853264 20.76703784 -4.01663107 18.98949095 -6.62109375 17.34375 C-11.69626344 14.08695662 -11.69626344 14.08695662 -12.62109375 10.77734375 C-12.8215755 7.04109302 -12.39759789 4.67922973 -10.5 1.4375 C-7.03693441 -0.55376272 -3.86435674 -0.58907877 0 0 Z " fill="#FC7900" transform="translate(436,264)"/>
</svg>
