<?xml version="1.0" encoding="UTF-8"?>
<svg version="1.1" xmlns="http://www.w3.org/2000/svg" width="512" height="512">
<path d="M0 0 C1.79063144 -0.0071165 3.58126065 -0.01481763 5.37188721 -0.02307129 C9.11387477 -0.03646533 12.85565154 -0.03810841 16.59765625 -0.03222656 C21.35617505 -0.02634308 26.11366914 -0.05688971 30.8719902 -0.09734344 C34.5681488 -0.12339442 38.26406654 -0.12608208 41.96030426 -0.12245178 C43.71272602 -0.1241276 45.4651608 -0.13361911 47.21749115 -0.15159607 C62.14595823 -0.2878855 75.32414048 1.6125641 86.578125 12.46875 C93.28354342 19.35918702 98.3766598 26.97439476 103.46484375 35.09179688 C108.58089181 43.05492318 108.58089181 43.05492318 116.91235352 47.046875 C119.68284958 47.48532332 122.3092863 47.61129553 125.11328125 47.64453125 C143.62936358 48.0106805 156.28570592 49.75283492 170.328125 62.78125 C181.28616083 74.35955201 183.03189196 87.14817734 182.98217773 102.46826172 C182.98788977 104.06601435 182.99485724 105.66376291 183.00297546 107.26150513 C183.02083093 111.57569016 183.0197528 115.88967094 183.01403308 120.20388174 C183.01092986 123.81693439 183.0170463 127.42994844 183.02307183 131.04299557 C183.03709074 139.57280482 183.03557802 148.10251386 183.02416992 156.63232422 C183.01269392 165.40631258 183.02676165 174.17999507 183.0535664 182.95394313 C183.07578153 190.51097944 183.08234764 198.06792015 183.07648998 205.62498677 C183.07313276 210.1279026 183.0754527 214.63062249 183.09274101 219.13351059 C183.10830092 223.37068114 183.10415535 227.60740155 183.08543587 231.8445549 C183.08177472 233.3908022 183.08478542 234.93708352 183.09532166 236.48329926 C183.1966693 252.59886264 179.30248969 264.32288405 168.265625 276.21875 C158.59915223 285.36737601 147.28128963 288.94267309 134.19314575 288.85643005 C133.19668152 288.86181559 132.20021728 288.86720113 131.17355716 288.87274987 C127.8605307 288.88696826 124.54790725 288.87994076 121.23486328 288.87280273 C118.84894491 288.8785095 116.46302928 288.88547495 114.07711792 288.89360046 C108.28448828 288.90965568 102.49198335 288.91163928 96.69933619 288.90638756 C91.98761469 288.90233477 87.27592515 288.90380254 82.56420517 288.90913582 C81.8918366 288.90988424 81.21946803 288.91063266 80.52672466 288.91140376 C79.16050077 288.91293535 77.79427688 288.9144737 76.42805301 288.91601873 C63.63544638 288.92972514 50.84290102 288.92431929 38.05029581 288.91283352 C26.36749755 288.90290407 14.68485774 288.91584008 3.00208391 288.93976771 C-9.01711896 288.96419739 -21.03624816 288.97375704 -33.05547535 288.96711498 C-39.7940177 288.96363121 -46.53243829 288.96579886 -53.27096176 288.98336601 C-59.60926719 288.99886504 -65.94727079 288.99484636 -72.28556442 288.97606087 C-74.60583947 288.97238318 -76.92613703 288.97545939 -79.2463913 288.98594666 C-97.90380467 289.06380902 -110.95997642 287.34190645 -125.171875 274.15625 C-136.12991083 262.57794799 -137.87564196 249.78932266 -137.82592773 234.46923828 C-137.83163977 232.87148565 -137.83860724 231.27373709 -137.84672546 229.67599487 C-137.86458093 225.36180984 -137.8635028 221.04782906 -137.85778308 216.73361826 C-137.85467986 213.12056561 -137.8607963 209.50755156 -137.86682183 205.89450443 C-137.88084074 197.36469518 -137.87932802 188.83498614 -137.86791992 180.30517578 C-137.85644392 171.53118742 -137.87051165 162.75750493 -137.8973164 153.98355687 C-137.91953153 146.42652056 -137.92609764 138.86957985 -137.92023998 131.31251323 C-137.91688276 126.8095974 -137.9192027 122.30687751 -137.93649101 117.80398941 C-137.95205092 113.56681886 -137.94790535 109.33009845 -137.92918587 105.0929451 C-137.92552472 103.5466978 -137.92853542 102.00041648 -137.93907166 100.45420074 C-138.0404193 84.33863736 -134.14623969 72.61461595 -123.109375 60.71875 C-111.56530703 49.79311424 -98.88024015 48.0699479 -83.61132812 47.94140625 C-76.45946773 47.79268255 -69.19454429 47.55952228 -63.43359375 42.83984375 C-62.99660156 42.20175781 -62.55960937 41.56367187 -62.109375 40.90625 C-61.55507812 40.1225 -61.00078125 39.33875 -60.4296875 38.53125 C-59.31261455 36.82738775 -58.19597675 35.12323921 -57.08105469 33.41796875 C-47.58749106 18.90503584 -39.18674845 6.25049495 -21.68319702 1.12117004 C-14.56860042 -0.3020888 -7.22940476 -0.00351282 0 0 Z M-20.55078125 38.5 C-24.7454946 43.9986122 -28.4034735 49.90602053 -32.12304688 55.73046875 C-39.51112244 67.07030566 -48.64042383 75.96583952 -62.22851562 79.12255859 C-68.19121908 80.06368877 -74.32454329 80.01194441 -80.34936523 80.05371094 C-87.13497097 80.14847461 -94.47307369 80.29206408 -100.00634766 84.7434082 C-106.63203734 91.96806406 -105.71387184 101.19068929 -105.6965332 110.33935547 C-105.70088541 111.74448923 -105.70607026 113.14962063 -105.71202087 114.55474854 C-105.72536799 118.35649689 -105.7259943 122.15814557 -105.72345757 125.95991278 C-105.72238486 129.14064392 -105.72727895 132.32135514 -105.732063 135.50208199 C-105.74314354 143.01002957 -105.7436039 150.51792711 -105.73754883 158.02587891 C-105.73151078 165.75519956 -105.74381902 173.4843381 -105.7651189 181.2136277 C-105.78276853 187.864397 -105.78873093 194.51510851 -105.78548115 201.16590035 C-105.78367337 205.13162512 -105.78625375 209.09722 -105.80019569 213.06292343 C-105.81282418 216.79438674 -105.8107829 220.52556741 -105.79778481 224.25702667 C-105.79431359 226.26745855 -105.80556013 228.27789927 -105.81735229 230.28829956 C-105.82049164 241.31982381 -105.82049164 241.31982381 -101.14696217 251.04612541 C-95.15666047 256.56956621 -87.81221947 256.76377374 -80.13674927 256.72944641 C-78.76522935 256.73518473 -78.76522935 256.73518473 -77.36600196 256.74103898 C-74.3131154 256.75132827 -71.26041834 256.74738455 -68.20751953 256.7434082 C-66.01421943 256.74775693 -63.82092084 256.75294062 -61.62762451 256.75889587 C-55.67719414 256.77227992 -49.72682732 256.77286518 -43.77638483 256.77033257 C-38.80622022 256.76926244 -33.83606845 256.77414734 -28.8659066 256.778938 C-16.46866624 256.79066524 -4.07145719 256.78980928 8.32578506 256.78338119 C19.07959615 256.77821326 29.83331662 256.78946565 40.58710979 256.80847941 C51.64229552 256.82787545 62.69743633 256.83581953 73.75263894 256.83235615 C79.95399967 256.83054403 86.15527742 256.83317257 92.3566246 256.84707069 C98.1892398 256.85965344 104.02167375 256.85770053 109.85428619 256.84465981 C111.99198849 256.84229545 114.12970356 256.84502363 116.2673912 256.85328293 C119.19148082 256.86376388 122.11496382 256.85563868 125.03903198 256.8429718 C125.87961399 256.85034609 126.720196 256.85772037 127.58625019 256.86531812 C133.65265842 256.81024977 140.27663766 256.10716749 145.17343128 252.19384462 C151.77440205 244.9392611 150.87015224 235.76285443 150.8527832 226.59814453 C150.85713541 225.19301077 150.86232026 223.78787937 150.86827087 222.38275146 C150.88161799 218.58100311 150.8822443 214.77935443 150.87970757 210.97758722 C150.87863486 207.79685608 150.88352895 204.61614486 150.888313 201.43541801 C150.89939354 193.92747043 150.8998539 186.41957289 150.89379883 178.91162109 C150.88776078 171.18230044 150.90006902 163.4531619 150.9213689 155.7238723 C150.93901853 149.073103 150.94498093 142.42239149 150.94173115 135.77159965 C150.93992337 131.80587488 150.94250375 127.84028 150.95644569 123.87457657 C150.96907418 120.14311326 150.9670329 116.41193259 150.95403481 112.68047333 C150.95056359 110.67004145 150.96181013 108.65960073 150.97360229 106.64920044 C150.97674164 95.61767619 150.97674164 95.61767619 146.30321217 85.89137459 C139.5091676 79.62683153 131.14564509 80.25297019 122.515625 80.15625 C107.59309596 79.75229619 95.66683053 77.00448773 85.01953125 65.83349609 C79.43606647 59.69698165 75.10117748 52.87176939 70.65234375 45.89453125 C66.60470776 39.66671164 63.39445393 34.91970097 55.90737915 32.88180542 C50.55480701 31.93261362 45.06709966 32.16414574 39.6484375 32.16796875 C38.2899462 32.16407429 36.93145609 32.1597381 35.57296753 32.15498352 C32.73366336 32.14754924 29.8944836 32.14779195 27.05517578 32.15307617 C23.43858811 32.15886385 19.82251374 32.14194372 16.20601082 32.1187315 C13.40222253 32.1039111 10.59855548 32.10313371 7.79473495 32.10624123 C5.82017506 32.10548661 3.84563381 32.0916816 1.87112427 32.07756042 C-10.49040897 32.11319704 -10.49040897 32.11319704 -20.55078125 38.5 Z " fill="#7090EA" transform="translate(233.421875,47.53125)"/>
<path d="M0 0 C3.95311802 2.27245108 6.39054034 5.03594315 7.6875 9.4375 C8.42904955 14.68241819 8.51390271 19.60371527 6 24.375 C3.6875 27.4375 3.6875 27.4375 1.25 29.25 C-3.16513595 33.0190185 -5.55416376 38.10421609 -6.8359375 43.73828125 C-7.33375921 50.41146276 -4.31871107 55.30921736 -0.3125 60.4375 C31.46234938 95.21118055 96.28167655 103.44616695 140.6875 106.4375 C139.7284375 105.2928125 139.7284375 105.2928125 138.75 104.125 C135.02483444 99.27099639 135.05950491 94.34065385 135.6875 88.4375 C137.01389447 84.2026261 139.30827313 81.73329696 142.8125 79 C147.21298396 76.80448972 151.88876055 76.61422322 156.6875 77.4375 C162.63669597 79.77262663 166.4536791 83.78468854 170.859375 88.24609375 C172.00481781 89.3907888 172.00481781 89.3907888 173.17340088 90.55860901 C174.78050427 92.16804621 176.3839319 93.78116124 177.98388672 95.39770508 C180.43426191 97.87173065 182.89774369 100.33210981 185.36328125 102.79101562 C186.92527388 104.35858351 188.48649855 105.92691709 190.046875 107.49609375 C190.78331238 108.23161972 191.51974976 108.96714569 192.27850342 109.72496033 C192.95971252 110.41570145 193.64092163 111.10644257 194.34277344 111.81811523 C194.94200623 112.42195541 195.54123901 113.02579559 196.15863037 113.64793396 C199.34882897 117.38211178 200.00059433 120.44671396 200.0625 125.3125 C200.09085938 126.32054687 200.11921875 127.32859375 200.1484375 128.3671875 C199.07531286 135.5152889 192.93331487 140.49877731 188.03515625 145.390625 C187.29800888 146.1320575 186.56086151 146.87348999 185.80137634 147.63739014 C184.24814082 149.1963473 182.69230679 150.75271931 181.1340332 152.30664062 C178.75257193 154.68493149 176.38477108 157.07626705 174.01757812 159.46875 C172.50341511 160.98518516 170.98846756 162.50083745 169.47265625 164.015625 C168.7673024 164.7301886 168.06194855 165.4447522 167.33522034 166.18096924 C162.51228246 170.95889618 158.80780469 173.70075392 151.8125 173.8125 C146.58209419 173.68018319 143.82422451 172.66414512 139.6875 169.4375 C135.92088895 164.60851148 135.0901885 160.890853 135.3671875 154.796875 C136.18938106 148.74071754 139.4759162 145.5525827 143.6875 141.4375 C143.12804687 141.37280518 142.56859375 141.30811035 141.9921875 141.24145508 C10.40385957 125.83747577 10.40385957 125.83747577 -28.5625 79.625 C-38.78245524 66.34319582 -41.68771065 52.79906875 -40.3125 36.4375 C-37.71026531 22.13999466 -29.23479477 8.74360487 -17.3125 0.3125 C-11.56863374 -2.88993337 -5.947791 -2.53801842 0 0 Z " fill="#5252CD" transform="translate(72.3125,290.5625)"/>
<path d="M0 0 C14.01721588 9.33350638 23.97085468 24.20156056 27.42163086 40.69335938 C29.40151238 53.31219606 29.11121157 67.50101921 23.81640625 79.20947266 C23.34203125 80.28068359 22.86765625 81.35189453 22.37890625 82.45556641 C14.34856639 98.84440906 0.98598798 110.03119998 -16.18359375 116.20947266 C-33.59943151 121.26512343 -52.7835668 119.25338352 -68.60351562 110.66748047 C-85.19708297 101.05483203 -94.47531122 86.44871721 -99.7277832 68.33251953 C-103.45073409 50.99198344 -99.54025124 32.85989541 -90.38867188 18.02148438 C-70.47395029 -11.92322057 -29.89818376 -18.43669317 0 0 Z M-61.18359375 34.20947266 C-67.14403168 42.98703299 -67.98204195 50.66995638 -67.18359375 61.20947266 C-65.2744705 69.62801612 -60.64238645 76.39436145 -53.34375 81.00244141 C-43.68543371 86.12999646 -35.78902356 87.39996407 -25.18359375 84.20947266 C-16.43310738 80.43375259 -10.29445784 74.20598877 -6.24609375 65.58447266 C-3.57374326 57.09384008 -3.97342503 47.75659609 -7.68359375 39.70947266 C-11.87357471 32.40889694 -17.63396299 27.01488304 -25.50390625 23.86962891 C-39.00349546 20.54392836 -51.9816727 23.73973137 -61.18359375 34.20947266 Z " fill="#6F90E9" transform="translate(292.18359375,153.79052734375)"/>
<path d="M0 0 C11.03950557 6.23128342 18.27986814 17.96019892 22.5 29.625 C26.13088121 43.09019625 25.26614743 57.01529614 19 69.5 C16.93073003 73.08913079 14.62105842 76.29530509 12 79.5 C11.34257812 80.31984375 10.68515625 81.1396875 10.0078125 81.984375 C0.0291217 93.75411287 -12.46368018 101.46540268 -26 108.5 C-26.62229492 108.83209473 -27.24458984 109.16418945 -27.88574219 109.50634766 C-46.12684638 119.15465395 -66.65936273 125.17018012 -86.625 130.125 C-87.60017578 130.37266113 -88.57535156 130.62032227 -89.58007812 130.87548828 C-97.34087729 132.69267058 -106.07265783 134.32340886 -113.5 130.875 C-117.94809958 126.64930539 -120.61288249 122.86937393 -121.09375 116.58203125 C-120.8607051 111.40649247 -118.99300385 107.71367137 -115.75 103.75 C-111.02797974 100.31373466 -105.04154681 99.45320963 -99.46289062 98.10839844 C-49.31066183 86.02756987 -49.31066183 86.02756987 -11.125 53.625 C-8.83718476 47.26995766 -9.33706073 42.29301503 -12.1875 36.1875 C-14.29897534 32.31049725 -16.44708994 30.14190748 -20 27.5 C-24.066243 22.22487394 -24.63971429 17.93472327 -24.375 11.30859375 C-23.84577124 7.34489087 -22.83150791 5.33150791 -20 2.5 C-13.61028651 -1.9954179 -7.23320729 -3.16452819 0 0 Z " fill="#687FE2" transform="translate(456,290.5)"/>
</svg>
