<svg data-v-423bf9ae="" xmlns="http://www.w3.org/2000/svg" viewBox="0 0 246.67299306863737 163" class="iconAbove"><!----><!----><!----><g data-v-423bf9ae="" id="b878a909-9cbb-4ce7-81ba-d3469f6199c4" fill="white" transform="matrix(5.703421805055199,0,0,5.703421805055199,-4.7908728996485195,53.55133251503487)"><path d="M7.45 16.38Q7.60 16.77 7.60 17.28L7.60 17.28Q7.60 18.19 7.06 18.68Q6.51 19.18 5.50 19.18L5.50 19.18Q4.59 19.18 3.75 18.93L3.75 18.93Q3.21 19.19 2.55 19.19L2.55 19.19Q1.65 19.19 1.25 18.75Q0.84 18.30 0.84 17.30L0.84 17.30Q0.84 16.67 1.02 15.43Q1.20 14.18 1.72 11.19L1.72 11.19L0.98 9.69Q2.56 8.67 3.86 8.67L3.86 8.67Q4.94 8.67 4.94 9.98L4.94 9.98Q4.94 10.29 4.78 11.24Q4.62 12.18 4.42 13.22L4.42 13.22Q3.86 16.21 3.86 16.81L3.86 16.81L3.86 16.93L5.38 16.93Q6.45 16.77 7.45 16.38L7.45 16.38ZM16.84 17.22Q16.84 18.13 17.28 18.49L17.28 18.49Q16.48 19.18 15.61 19.18L15.61 19.18Q14.85 19.18 14.46 18.84Q14.06 18.51 13.97 17.81L13.97 17.81L13.83 17.74Q13.26 18.42 12.49 18.80Q11.72 19.18 10.79 19.18L10.79 19.18Q9.67 19.18 9.13 18.62Q8.58 18.06 8.58 16.91L8.58 16.91Q8.58 16.39 8.67 15.81Q8.75 15.23 8.92 14.42L8.92 14.42Q9.03 13.86 9.11 13.31Q9.20 12.75 9.20 12.39L9.20 12.39Q9.20 11.98 9.12 11.65Q9.04 11.31 8.90 11.12L8.90 11.12Q9.48 10.82 10.10 10.63Q10.72 10.43 11.10 10.43L11.10 10.43Q11.68 10.43 11.94 10.66Q12.19 10.89 12.19 11.42L12.19 11.42Q12.19 11.76 12.05 12.50Q11.91 13.24 11.76 14.00L11.76 14.00Q11.61 14.73 11.47 15.43Q11.34 16.13 11.34 16.42L11.34 16.42Q11.34 16.97 11.56 17.22Q11.79 17.47 12.28 17.47L12.28 17.47Q12.74 17.47 13.22 17.19Q13.71 16.90 14.07 16.41L14.07 16.41Q14.27 15.19 14.85 12.66L14.85 12.66L14.07 11.48Q15.04 10.91 15.66 10.67Q16.28 10.43 16.83 10.43L16.83 10.43Q17.39 10.43 17.63 10.67Q17.88 10.91 17.88 11.47L17.88 11.47Q17.88 11.65 17.77 12.13Q17.67 12.61 17.54 13.19L17.54 13.19Q17.22 14.52 17.03 15.51Q16.84 16.49 16.84 17.22L16.84 17.22ZM20.85 19.18Q19.99 19.18 19.60 18.75Q19.21 18.31 19.21 17.44L19.21 17.44Q19.21 16.88 19.49 15.27Q19.78 13.66 20.09 12.33L20.09 12.33L19.36 11.21Q20.75 10.43 21.95 10.43L21.95 10.43Q22.53 10.43 22.81 10.71Q23.10 10.99 23.10 11.49L23.10 11.49Q23.10 11.84 23.01 12.23Q22.92 12.61 22.78 12.92L22.78 12.92L22.92 12.99Q23.72 11.63 24.61 11.03Q25.51 10.43 26.59 10.43L26.59 10.43Q27.37 10.43 27.82 10.82Q28.28 11.21 28.28 12.00L28.28 12.00Q28.28 12.42 28.14 12.92L28.14 12.92L28.28 12.99Q29.08 11.63 29.97 11.03Q30.87 10.43 31.95 10.43L31.95 10.43Q32.80 10.43 33.22 10.84Q33.64 11.26 33.64 12.12L33.64 12.12Q33.64 12.60 33.54 13.12Q33.45 13.64 33.25 14.50L33.25 14.50Q33.03 15.44 32.92 16.04Q32.82 16.63 32.82 17.22L32.82 17.22Q32.82 18.09 33.11 18.49L33.11 18.49Q32.37 19.18 31.57 19.18L31.57 19.18Q30.70 19.18 30.32 18.78Q29.93 18.38 29.93 17.58L29.93 17.58Q29.93 16.94 30.06 16.32Q30.20 15.71 30.44 14.88L30.44 14.88Q30.60 14.29 30.69 13.93Q30.77 13.57 30.77 13.26L30.77 13.26Q30.77 12.63 30.30 12.63L30.30 12.63Q29.76 12.63 29.09 13.24Q28.41 13.85 27.93 14.90Q27.45 15.95 27.45 17.22L27.45 17.22Q27.45 18.09 27.75 18.49L27.75 18.49Q27.01 19.18 26.21 19.18L26.21 19.18Q25.34 19.18 24.95 18.78Q24.57 18.38 24.57 17.58L24.57 17.58Q24.57 16.94 24.70 16.32Q24.84 15.71 25.07 14.88L25.07 14.88Q25.24 14.29 25.33 13.93Q25.41 13.57 25.41 13.26L25.41 13.26Q25.41 12.63 24.93 12.63L24.93 12.63Q24.40 12.63 23.72 13.24Q23.04 13.85 22.57 14.90Q22.09 15.95 22.09 17.22L22.09 17.22Q22.09 18.09 22.39 18.49L22.39 18.49Q21.64 19.18 20.85 19.18L20.85 19.18ZM43.20 17.22Q43.20 18.13 43.64 18.49L43.64 18.49Q42.78 19.18 41.83 19.18L41.83 19.18Q41.12 19.18 40.73 18.77Q40.35 18.35 40.35 17.61L40.35 17.61Q40.35 17.37 40.39 17.11L40.39 17.11L40.25 17.04Q39.86 18.05 39.11 18.61Q38.36 19.18 37.45 19.18L37.45 19.18Q36.67 19.18 36.07 18.77Q35.48 18.37 35.15 17.62Q34.83 16.87 34.83 15.89L34.83 15.89Q34.83 14.28 35.54 13.04Q36.25 11.80 37.51 11.12Q38.78 10.43 40.42 10.43L40.42 10.43Q41.01 10.43 41.52 10.54L41.52 10.54Q41.64 10.81 41.68 11.26L41.68 11.26Q42.25 10.78 43.06 10.78L43.06 10.78Q43.55 10.78 43.82 11.07Q44.09 11.35 44.09 11.89L44.09 11.89Q44.09 12.17 43.99 12.70Q43.89 13.23 43.75 13.82L43.75 13.82Q43.48 14.95 43.34 15.74Q43.20 16.53 43.20 17.22L43.20 17.22ZM38.70 16.77Q39.73 16.77 40.35 15.55Q40.96 14.32 41.23 11.73L41.23 11.73Q40.22 11.83 39.40 12.34Q38.57 12.85 38.09 13.64Q37.60 14.43 37.60 15.34L37.60 15.34Q37.60 16.03 37.89 16.40Q38.18 16.77 38.70 16.77L38.70 16.77Z"></path></g><!----><g data-v-423bf9ae="" id="63249dfe-ed1a-4eb0-a9fc-73b0ded9157e" transform="matrix(2.8125,0,0,2.8125,79,0)" stroke="none" fill="white"><path d="M16 32c8.837 0 16-7.163 16-16S24.837 0 16 0 0 7.163 0 16s7.163 16 16 16zM14.817 6.421h2v8.886h8.887v2H14.817V6.421zm-5.959.437h2v14.283h14.283v2H8.858V6.858z"></path></g><!----></svg>