<?xml version="1.0" encoding="UTF-8"?>
<svg version="1.1" xmlns="http://www.w3.org/2000/svg" width="512" height="512">
<path d="M0 0 C74.87550174 -1.76190688 159.16552971 19.38937353 217.06884766 69.08251953 C222.3708448 74.15268029 224.78930122 78.61614378 225.38134766 85.95751953 C225.11797177 94.30452795 220.57724695 100.78614619 215.99462891 107.42626953 C215.39784836 108.30552597 214.80106781 109.18478241 214.186203 110.09068298 C212.25899327 112.92665777 210.32047122 115.75468086 208.38134766 118.58251953 C206.39562359 121.4951896 204.41230356 124.40948695 202.42904663 127.32383728 C201.12280512 129.24272108 199.81554007 131.16090854 198.50723267 133.0783844 C194.88321405 138.39386912 191.29318084 143.72828145 187.76806641 149.10986328 C187.39386063 149.67971954 187.01965485 150.24957581 186.6341095 150.83670044 C184.98850368 153.3448302 183.35120188 155.85777855 181.72631836 158.37939453 C177.0400101 165.52301667 172.45923801 169.9147421 164.06884766 172.08251953 C153.59292681 173.24651074 145.64359853 167.43180238 137.23291016 161.80517578 C136.31408051 161.19798203 135.39525085 160.59078827 134.44857788 159.9651947 C131.52610525 158.03143151 128.61002931 156.08825298 125.69384766 154.14501953 C123.77626803 152.87555134 121.85830204 151.60666656 119.93994141 150.33837891 C114.30296008 146.6061472 108.68315836 142.84874378 103.06884766 139.08251953 C101.70173645 138.16802032 101.70173645 138.16802032 100.30700684 137.23504639 C97.68933813 135.48103749 95.077406 133.71882895 92.46728516 131.95361328 C91.69027252 131.43364273 90.91325989 130.91367218 90.11270142 130.37794495 C83.8979253 126.1504333 77.52393625 121.44778531 75.06884766 114.08251953 C73.80065563 101.3932757 76.91323863 89.16323715 79.50634766 76.83251953 C79.9326659 74.74552228 80.35780508 72.65828381 80.78173828 70.57080078 C82.33585072 62.98672901 82.33585072 62.98672901 83.12915039 59.21826172 C83.28681381 58.46550964 83.44447723 57.71275757 83.60691833 56.93719482 C84.06884766 55.08251953 84.06884766 55.08251953 85.06884766 53.08251953 C84.01181641 52.96779297 82.95478516 52.85306641 81.86572266 52.73486328 C77.12879905 52.14326769 72.47006845 51.23189851 67.78637695 50.31762695 C26.25953167 42.26253586 -15.46067573 43.00977875 -56.70239258 52.67114258 C-58.93115234 53.08251953 -58.93115234 53.08251953 -62.93115234 53.08251953 C-62.75737061 53.74719238 -62.58358887 54.41186523 -62.40454102 55.09667969 C-60.27478803 63.40992518 -58.43090778 71.76591852 -56.71411133 80.17236328 C-56.4009585 81.69343775 -56.08196146 83.21332096 -55.75708008 84.73193359 C-50.28049125 110.35010706 -50.28049125 110.35010706 -55.93115234 120.08251953 C-65.62498087 131.5939409 -81.4214686 139.42227815 -93.86865234 147.58251953 C-96.80369148 149.51018842 -99.73823595 151.4386073 -102.67251587 153.36743164 C-104.55451426 154.60382952 -106.43729276 155.83904087 -108.32089233 157.07299805 C-112.15696691 159.58796698 -115.98794583 162.10618427 -119.77148438 164.69970703 C-121.33745361 165.77091797 -121.33745361 165.77091797 -122.93505859 166.86376953 C-123.78011963 167.45222656 -124.62518066 168.04068359 -125.49584961 168.64697266 C-130.68489695 171.70577951 -135.95398423 172.91678858 -141.93115234 172.08251953 C-153.43528446 169.10854111 -158.16709395 161.05020651 -164.36865234 151.51220703 C-164.97064453 150.59529083 -165.57263672 149.67837463 -166.19287109 148.7336731 C-168.11024501 145.81128104 -170.02093012 142.88459009 -171.93115234 139.95751953 C-173.80621698 137.09363419 -175.68268395 134.23067267 -177.55957031 131.36798096 C-178.80583788 129.46634994 -180.05095821 127.56396657 -181.29492188 125.66082764 C-184.47399674 120.80251022 -187.6757083 115.96143356 -190.91943359 111.14599609 C-191.56138672 110.19153595 -192.20333984 109.23707581 -192.86474609 108.25369263 C-194.08592284 106.44142492 -195.31097428 104.63175998 -196.54052734 102.82516479 C-197.08837891 102.01177643 -197.63623047 101.19838806 -198.20068359 100.36035156 C-198.68126221 99.65234406 -199.16184082 98.94433655 -199.65698242 98.21487427 C-203.04088985 92.55182187 -203.68673434 87.56461767 -202.93115234 81.08251953 C-198.69602345 64.74702236 -174.54540116 54.32367764 -161.30615234 46.50488281 C-117.20240463 20.94857626 -68.6262764 5.91888446 -17.93115234 1.08251953 C-16.65498047 0.95103516 -15.37880859 0.81955078 -14.06396484 0.68408203 C-9.37579947 0.28347668 -4.70096838 0.13234444 0 0 Z " fill="#4294FF" transform="translate(244.93115234375,169.91748046875)"/>
</svg>
