<?xml version="1.0" encoding="UTF-8"?>
<svg version="1.1" xmlns="http://www.w3.org/2000/svg" width="480" height="480">
<path d="M0 0 C0.8850119 0.00215515 1.7700238 0.0043103 2.68185425 0.00653076 C15.45622997 0.05647521 27.82313258 0.40645297 40.3125 3.3125 C41.6123584 3.59456299 41.6123584 3.59456299 42.93847656 3.88232422 C95.4646954 15.44545155 140.80130549 47.17200297 169.84375 92.359375 C183.18237354 113.55296573 191.92229786 135.85894962 197.3125 160.3125 C197.49039062 161.07369141 197.66828125 161.83488281 197.8515625 162.61914062 C203.70282119 188.5086384 202.44477331 219.66524638 196.3125 245.3125 C196.07644043 246.30024414 195.84038086 247.28798828 195.59716797 248.30566406 C182.12924612 302.47258639 147.51044365 346.16707747 100.171875 374.84375 C81.54618075 385.82054882 61.35830385 392.67345433 40.3125 397.3125 C39.55130859 397.49039062 38.79011719 397.66828125 38.00585938 397.8515625 C12.1163616 403.70282119 -19.04024638 402.44477331 -44.6875 396.3125 C-45.67524414 396.07644043 -46.66298828 395.84038086 -47.68066406 395.59716797 C-99.92283174 382.60781207 -143.27154064 349.68448448 -171.6875 304.3125 C-172.06616211 303.71308594 -172.44482422 303.11367188 -172.83496094 302.49609375 C-184.6628301 283.49764302 -191.96278323 262.08587343 -196.6875 240.3125 C-196.86394043 239.55420898 -197.04038086 238.79591797 -197.22216797 238.01464844 C-203.07730667 212.1220529 -201.82076383 180.96389632 -195.6875 155.3125 C-195.45144043 154.32475586 -195.21538086 153.33701172 -194.97216797 152.31933594 C-182.33763724 101.50424716 -150.23035741 57.01197626 -105.625 29.5 C-73.11944743 10.0029242 -37.95493467 -0.16636171 0 0 Z " fill="#29B6F6" transform="translate(239.6875,39.6875)"/>
<path d="M0 0 C2.61913557 3.49218075 1.77713247 8.04928094 1.18652344 12.20654297 C0.70859168 14.79379767 0.17428499 17.36442862 -0.375 19.9375 C-0.58842041 20.97181152 -0.80184082 22.00612305 -1.02172852 23.07177734 C-1.53217288 25.54537663 -2.04590664 28.01829825 -2.56201172 30.49072266 C-4.32634624 38.95287411 -6.04788834 47.4239173 -7.77749634 55.89321899 C-8.2191532 58.0558407 -8.66102901 60.2184177 -9.1031189 62.38095093 C-13.59980902 84.38166288 -17.88145322 106.41726482 -22.04882812 128.48266602 C-23.52948614 136.32235948 -25.01278387 144.16154789 -26.5 152 C-26.65251221 152.80441528 -26.80502441 153.60883057 -26.9621582 154.43762207 C-27.88332755 159.29296221 -28.81005388 164.14719247 -29.74368286 169.00015259 C-30.0330833 170.50796806 -30.32097739 172.01607367 -30.60714722 173.52450562 C-31.5252305 178.35979917 -32.490453 183.18299421 -33.5 188 C-33.64939026 188.72975037 -33.79878052 189.45950073 -33.95269775 190.21136475 C-34.4112635 192.41072097 -34.89854936 194.60178037 -35.39453125 196.79296875 C-35.81955933 198.72499146 -35.81955933 198.72499146 -36.25317383 200.69604492 C-37.92089524 205.11532706 -40.3566224 206.9283112 -44.5 209 C-46.453125 209.23828125 -46.453125 209.23828125 -48.75 209.3125 C-49.87148438 209.36857422 -49.87148438 209.36857422 -51.015625 209.42578125 C-56.86930835 208.42255564 -61.38102985 203.53573384 -65.75 199.75 C-69.61881791 196.43512648 -73.50314618 193.16091054 -77.5 190 C-81.37760972 186.92682147 -85.16789374 183.76603145 -88.9375 180.5625 C-89.48398193 180.10069336 -90.03046387 179.63888672 -90.59350586 179.16308594 C-93.29148224 176.88261071 -95.97451602 174.5883579 -98.6328125 172.26171875 C-99.59960938 171.43285156 -100.56640625 170.60398437 -101.5625 169.75 C-102.41972656 169.00234375 -103.27695313 168.2546875 -104.16015625 167.484375 C-106.31964453 165.82143695 -106.31964453 165.82143695 -108.5 166 C-111.25723649 167.37861825 -113.17938957 169.14110391 -115.4375 171.25 C-115.93258057 171.70802002 -116.42766113 172.16604004 -116.93774414 172.63793945 C-120.65619602 176.12614664 -124.22498509 179.74946866 -127.78125 183.40234375 C-128.72129068 184.36244655 -129.6614773 185.32240648 -130.60180664 186.28222656 C-132.48360432 188.20357766 -134.34635614 190.14126324 -136.20092773 192.08886719 C-137.07177002 192.9812207 -137.9426123 193.87357422 -138.83984375 194.79296875 C-139.61706787 195.6027417 -140.39429199 196.41251465 -141.19506836 197.24682617 C-143.5 199 -143.5 199 -146.04125977 199.57543945 C-148.5 199 -148.5 199 -150.57543945 197.14550781 C-153.19913791 192.85732681 -154.70631731 188.42643095 -156.29296875 183.671875 C-156.640215 182.65765976 -156.98746124 181.64344452 -157.3452301 180.59849548 C-158.08498475 178.43496583 -158.82041495 176.26995353 -159.55187988 174.10360718 C-160.69060198 170.74083954 -161.84789821 167.3850135 -163.01074219 164.03051758 C-169.22918682 146.05290101 -169.22918682 146.05290101 -171.5827179 138.25296021 C-172.13075082 136.43726717 -172.70016131 134.62806688 -173.27075195 132.81933594 C-173.89862008 130.81128499 -174.48578867 128.78978415 -175.02026367 126.75488281 C-175.89760332 124.01744016 -176.63654418 122.19253663 -178.5 120 C-182.67101141 117.90007486 -186.95294818 116.97405892 -191.5 116 C-193.74146399 115.41338963 -195.98108806 114.81970057 -198.21875 114.21875 C-200.47838656 113.64276421 -202.73880865 113.06985145 -205 112.5 C-232.92719533 105.46196113 -232.92719533 105.46196113 -237.5 100 C-238.625 96.5 -238.625 96.5 -238.5 93 C-235.33919825 87.55927568 -230.84445669 86.06052436 -225.25 83.875 C-223.71194702 83.25383301 -223.71194702 83.25383301 -222.14282227 82.62011719 C-219.00976848 81.3608065 -215.87120654 80.11712372 -212.72955322 78.8795166 C-210.33707746 77.93573014 -207.94644128 76.98739691 -205.55615234 76.03808594 C-197.7918778 72.95457269 -190.02582527 69.87562746 -182.25463867 66.80957031 C-166.17088456 60.46358771 -150.11250374 54.05581745 -134.0625 47.625 C-118.58117922 41.42399217 -103.09634895 35.23454437 -87.57128906 29.14379883 C-78.97388178 25.76960536 -70.38661837 22.37025537 -61.80351067 18.95985603 C-59.8196347 18.17160569 -57.83567794 17.38355902 -55.85169983 16.5955658 C-49.86578685 14.21795602 -43.88014086 11.83968724 -37.89584351 9.45801353 C-36.00269192 8.70486211 -34.10924402 7.95246134 -32.21566772 7.20037842 C-29.87003347 6.268706 -27.52489409 5.33578636 -25.18032837 4.40142822 C-24.12477753 3.98254333 -23.06922668 3.56365845 -21.98168945 3.13208008 C-21.06418411 2.76713943 -20.14667877 2.40219879 -19.20137024 2.02619934 C-6.75492403 -2.70196961 -6.75492403 -2.70196961 0 0 Z " fill="#FEFEFE" transform="translate(338.5,141)"/>
<path d="M0 0 C0.93359375 2.53515625 0.93359375 2.53515625 1 6 C-0.92128267 8.87603532 -3.40291842 11.10245437 -5.9375 13.4375 C-6.59041016 14.06720703 -7.24332031 14.69691406 -7.91601562 15.34570312 C-11.84540473 19.10508916 -15.91413412 22.69166724 -20.01977539 26.25610352 C-23.33596285 29.17652356 -26.53937381 32.21457851 -29.75 35.25 C-35.44106904 40.60874384 -41.16903448 45.92029879 -46.94140625 51.19140625 C-50.48462865 54.43556339 -53.99163806 57.71824097 -57.5 61 C-62.97864397 66.12370715 -68.48587658 71.21350987 -74.0234375 76.2734375 C-76.71191471 78.73173071 -79.38519339 81.20614621 -82.05737305 83.68212891 C-87.30059895 88.53890039 -92.57500519 93.34532167 -98 98 C-90.67243454 105.57181764 -82.66515396 112.37876163 -74.4453125 118.95703125 C-72.15916748 120.86702142 -70.09035377 122.88118913 -68 125 C-68.5674292 125.42087891 -69.1348584 125.84175781 -69.71948242 126.27539062 C-75.03196289 130.35629096 -79.81786215 134.67710243 -84.48828125 139.46875 C-85.04474335 140.03859619 -85.60120544 140.60844238 -86.17453003 141.19555664 C-88.48015937 143.56528979 -90.77848493 145.94164045 -93.0637207 148.33105469 C-94.75671264 150.09637643 -96.46486398 151.84582091 -98.17578125 153.59375 C-98.68732254 154.13737183 -99.19886383 154.68099365 -99.72590637 155.24108887 C-101.92619686 157.47219536 -103.54161077 158.88594855 -106.61401367 159.65039062 C-110.22223924 158.66683256 -111.04586308 157.19384753 -113 154 C-114.4538961 150.61833484 -115.62802528 147.16210642 -116.79296875 143.671875 C-117.31472183 142.15028023 -117.31472183 142.15028023 -117.84701538 140.59794617 C-118.96965414 137.31833806 -120.07850193 134.03424269 -121.1875 130.75 C-122.33101781 127.40005796 -123.47805748 124.05133473 -124.62516785 120.70262146 C-125.3776851 118.50476096 -126.12900587 116.30649042 -126.87910461 114.10780334 C-129.69593111 105.85531946 -132.58649046 97.63392889 -135.5625 89.4375 C-135.92561279 88.4362207 -136.28872559 87.43494141 -136.6628418 86.40332031 C-137.43919844 84.26789809 -138.2190371 82.13374194 -139 80 C-136.03581182 76.78306185 -133.03722408 74.66215028 -129.25 72.48828125 C-128.68844208 72.16304474 -128.12688416 71.83780823 -127.54830933 71.50271606 C-126.33610139 70.80119256 -125.12233056 70.10236407 -123.90716553 69.40597534 C-120.62022754 67.52140602 -117.34574091 65.61541815 -114.0703125 63.7109375 C-113.39638458 63.31964157 -112.72245667 62.92834564 -112.02810669 62.52519226 C-105.25594539 58.58474094 -98.56076934 54.52226333 -91.875 50.4375 C-81.7325219 44.24820786 -71.54160499 38.14805612 -61.31103516 32.10498047 C-50.79056171 25.88715219 -40.30778712 19.60737389 -29.83547974 13.30882263 C-28.67112999 12.60987916 -27.50551289 11.91304227 -26.33859253 11.21839905 C-23.18704048 9.33819892 -20.07291212 7.41453083 -16.98632812 5.42919922 C-16.31784851 5.00734848 -15.6493689 4.58549774 -14.96063232 4.15086365 C-13.67681457 3.33979922 -12.40115796 2.51561661 -11.13555908 1.67640686 C-7.04179815 -0.88334112 -4.64386275 -1.34760474 0 0 Z " fill="#CFD8DC" transform="translate(299,181)"/>
<path d="M0 0 C3.85971379 1.81581872 6.86284356 4.27946796 10.0625 7.0625 C11.21803763 8.05551706 12.37430027 9.04769101 13.53125 10.0390625 C14.11003906 10.53567383 14.68882812 11.03228516 15.28515625 11.54394531 C18.69105828 14.43585871 22.17903202 17.22674004 25.66015625 20.02734375 C27.90168235 21.91711116 29.94108281 23.91559378 32 26 C31.1488562 26.63131836 31.1488562 26.63131836 30.28051758 27.27539062 C24.96803711 31.35629096 20.18213785 35.67710243 15.51171875 40.46875 C14.6770256 41.32351929 14.6770256 41.32351929 13.82546997 42.19555664 C11.51984063 44.56528979 9.22151507 46.94164045 6.9362793 49.33105469 C5.24328736 51.09637643 3.53513602 52.84582091 1.82421875 54.59375 C1.31267746 55.13737183 0.80113617 55.68099365 0.27409363 56.24108887 C-3.40174581 59.96841001 -3.40174581 59.96841001 -6.67472839 60.14123535 C-7.44206802 60.09462769 -8.20940765 60.04802002 -9 60 C-8.44596561 52.02177287 -7.50683203 44.20806849 -6.15234375 36.328125 C-5.97619034 35.27969421 -5.80003693 34.23126343 -5.61854553 33.15106201 C-5.06282006 29.84990751 -4.50028895 26.54995682 -3.9375 23.25 C-3.556187 20.99226407 -3.17532364 18.73445214 -2.79492188 16.4765625 C-1.8684693 10.98348718 -0.93644834 5.49137961 0 0 Z " fill="#AEBEC6" transform="translate(199,280)"/>
</svg>
