<?xml version="1.0" encoding="UTF-8"?>
<svg version="1.1" xmlns="http://www.w3.org/2000/svg" width="480" height="480">
<path d="M0 0 C0.89315918 0.19867676 1.78631836 0.39735352 2.70654297 0.60205078 C38.49256626 8.69254038 69.57990667 25.84420349 97 50 C91.50280742 56.69529866 85.39046848 62.73696491 79.2578125 68.83984375 C78.12273594 69.97305199 76.98788237 71.10648362 75.85324097 72.24012756 C72.88649256 75.20308335 69.91675198 78.16302193 66.9463501 81.12231445 C63.9077114 84.15066856 60.87195091 87.18190499 57.8359375 90.21289062 C51.8934174 96.14473089 45.947729 102.07338261 40 108 C37.00821825 106.0165269 34.03955114 104.0286665 31.1328125 101.921875 C4.87906058 82.96462037 -26.32427307 74.96890485 -58.46533203 79.58154297 C-84.14791348 83.82156845 -106.78182712 95.47056824 -125 114 C-125.80953125 114.81082031 -126.6190625 115.62164062 -127.453125 116.45703125 C-151.65054768 141.96585271 -159.01947021 174.13952382 -158.17041016 208.34033203 C-156.92912305 234.99777286 -143.66658829 259.6382668 -126 279 C-125.35675781 279.72574219 -124.71351563 280.45148438 -124.05078125 281.19921875 C-103.66153727 303.00376817 -72.7549882 314.97490985 -43.2890625 315.99609375 C-9.11842419 316.43377077 20.897458 303.12766801 45.5 279.875 C57.61665137 267.36818812 65.20532707 252.85423685 72 237 C35.04 237 -1.92 237 -40 237 C-40 210.6 -40 184.2 -40 157 C25.01 157 90.02 157 157 157 C159.05464275 170.69761836 160.50509387 183.25291072 160.375 196.9375 C160.36851944 198.24187515 160.36851944 198.24187515 160.36190796 199.57260132 C160.28643311 212.56037921 159.8643945 225.28197762 157 238 C156.82307617 238.79519043 156.64615234 239.59038086 156.46386719 240.40966797 C155.17888203 246.00345914 153.66951112 251.50948396 152 257 C151.79036621 257.69480469 151.58073242 258.38960938 151.36474609 259.10546875 C145.68578151 277.46701706 137.13438052 295.33161948 126 311 C125.29488281 311.99644531 124.58976562 312.99289062 123.86328125 314.01953125 C93.60149601 355.47328734 50.04546273 382.96867096 0 394 C-0.76119141 394.17789062 -1.52238281 394.35578125 -2.30664062 394.5390625 C-26.27701836 399.95658285 -56.10820251 399.59704706 -80 394 C-81.33973877 393.70198486 -81.33973877 393.70198486 -82.70654297 393.39794922 C-120.47475735 384.85932666 -153.09621883 366.61950673 -181 340 C-181.85207031 339.20078125 -182.70414063 338.4015625 -183.58203125 337.578125 C-211.46123815 310.70871615 -228.75554495 274.40234441 -237 237 C-237.17789063 236.23880859 -237.35578125 235.47761719 -237.5390625 234.69335938 C-243.39032119 208.8038616 -242.13227331 177.64725362 -236 152 C-235.76394043 151.01225586 -235.52788086 150.02451172 -235.28466797 149.00683594 C-221.80957142 94.81105756 -187.22410604 51.16127114 -139.859375 22.46875 C-121.23368075 11.49195118 -101.04580385 4.63904567 -80 0 C-79.23880859 -0.17789063 -78.47761719 -0.35578125 -77.69335938 -0.5390625 C-53.72298164 -5.95658285 -23.89179749 -5.59704706 0 0 Z " fill="#4DAF4F" transform="translate(280,43)"/>
<path d="M0 0 C0.89315918 0.19867676 1.78631836 0.39735352 2.70654297 0.60205078 C38.49256626 8.69254038 69.57990667 25.84420349 97 50 C91.50280742 56.69529866 85.39046848 62.73696491 79.2578125 68.83984375 C78.12273594 69.97305199 76.98788237 71.10648362 75.85324097 72.24012756 C72.88649256 75.20308335 69.91675198 78.16302193 66.9463501 81.12231445 C63.9077114 84.15066856 60.87195091 87.18190499 57.8359375 90.21289062 C51.8934174 96.14473089 45.947729 102.07338261 40 108 C37.00821825 106.0165269 34.03955114 104.0286665 31.1328125 101.921875 C4.87906058 82.96462037 -26.32427307 74.96890485 -58.46533203 79.58154297 C-84.14791348 83.82156845 -106.78182712 95.47056824 -125 114 C-125.80953125 114.81082031 -126.6190625 115.62164062 -127.453125 116.45703125 C-147.95691283 138.07203835 -158.15406415 166.68383182 -158.3125 196.1875 C-158.31611542 196.85451935 -158.31973083 197.5215387 -158.32345581 198.20877075 C-158.34519796 208.20101182 -157.49683356 217.53825834 -154.97265625 227.21484375 C-154.65167969 228.46394531 -154.33070313 229.71304688 -154 231 C-153.49146484 232.80791016 -153.49146484 232.80791016 -152.97265625 234.65234375 C-153 238 -153 238 -155.5859375 240.8515625 C-156.83038807 241.8008918 -158.09522326 242.72385914 -159.375 243.625 C-160.04966309 244.1307959 -160.72432617 244.6365918 -161.41943359 245.15771484 C-162.8602095 246.23606468 -164.30857764 247.30433161 -165.76367188 248.36328125 C-168.70663225 250.5171684 -171.59055684 252.7435356 -174.47802734 254.97094727 C-176.62240601 256.62300156 -178.77461903 258.26426533 -180.9296875 259.90234375 C-184.54575442 262.65207894 -188.15107976 265.41537361 -191.75 268.1875 C-195.00379816 270.6932516 -198.25783529 273.19865952 -201.515625 275.69921875 C-202.09860352 276.14692627 -202.68158203 276.59463379 -203.28222656 277.0559082 C-204.89627915 278.29535194 -206.51062937 279.53440804 -208.125 280.7734375 C-210.02599672 282.24567681 -211.90200638 283.75081781 -213.75 285.2890625 C-216 287 -216 287 -218 287 C-218.33 287.66 -218.66 288.32 -219 289 C-226.13628132 273.69532163 -232.07001269 258.44424726 -236 242 C-236.22445801 241.06124023 -236.44891602 240.12248047 -236.68017578 239.15527344 C-242.91616444 211.52165983 -242.57975348 179.51876796 -236 152 C-235.76394043 151.01225586 -235.52788086 150.02451172 -235.28466797 149.00683594 C-221.80957142 94.81105756 -187.22410604 51.16127114 -139.859375 22.46875 C-121.23368075 11.49195118 -101.04580385 4.63904567 -80 0 C-79.23880859 -0.17789063 -78.47761719 -0.35578125 -77.69335938 -0.5390625 C-53.72298164 -5.95658285 -23.89179749 -5.59704706 0 0 Z " fill="#FF3E00" transform="translate(280,43)"/>
<path d="M0 0 C65.01 0 130.02 0 197 0 C199.05464275 13.69761836 200.50509387 26.25291072 200.375 39.9375 C200.37067963 40.80708344 200.36635925 41.67666687 200.36190796 42.57260132 C200.28643311 55.56037921 199.8643945 68.28197762 197 81 C196.82307617 81.79519043 196.64615234 82.59038086 196.46386719 83.40966797 C195.17888203 89.00345914 193.66951112 94.50948396 192 100 C191.79036621 100.69480469 191.58073242 101.38960938 191.36474609 102.10546875 C185.68578151 120.46701706 177.13438052 138.33161948 166 154 C165.29488281 154.99644531 164.58976563 155.99289062 163.86328125 157.01953125 C155.66091898 168.25544223 146.8292294 179.19441448 136 188 C131.70554982 186.59160505 129.12953521 184.54145224 125.875 181.4375 C121.37965011 177.22296678 116.73645956 173.28048937 111.94140625 169.40625 C108.01991944 166.19823423 104.18294575 162.89693191 100.34375 159.59130859 C96.31140222 156.12035715 92.25677629 152.67754812 88.1875 149.25 C83.04880848 144.91740819 77.99152712 140.50140301 73 136 C74.49825676 132.34851085 76.57431133 130.40958256 79.5625 127.875 C94.54402808 114.63701183 104.61594753 98.46013118 112 80 C75.04 80 38.08 80 0 80 C0 53.6 0 27.2 0 0 Z " fill="#1976D1" transform="translate(240,200)"/>
<path d="M0 0 C5.99482037 3.74035801 11.59912557 7.93809443 17.1875 12.25 C22.8952744 16.65216373 28.64965699 20.95212907 34.53637695 25.11132812 C39.6949882 28.76255774 44.78908061 32.4983101 49.875 36.25 C50.65987793 36.8287085 51.44475586 37.40741699 52.25341797 38.00366211 C57.18609677 41.64639255 62.09987507 45.31360605 67 49 C66.81058838 49.64775391 66.62117676 50.29550781 66.42602539 50.96289062 C65.56317543 53.96183177 64.78463592 56.97964417 64 60 C63.82355957 60.62777344 63.64711914 61.25554687 63.46533203 61.90234375 C57.90963105 81.95563912 57.76206004 104.08848754 63.02734375 124.21484375 C63.34832031 125.46394531 63.66929688 126.71304688 64 128 C64.50853516 129.80791016 64.50853516 129.80791016 65.02734375 131.65234375 C65 135 65 135 62.4140625 137.8515625 C61.16961193 138.8008918 59.90477674 139.72385914 58.625 140.625 C57.95033691 141.1307959 57.27567383 141.6365918 56.58056641 142.15771484 C55.1397905 143.23606468 53.69142236 144.30433161 52.23632812 145.36328125 C49.29336775 147.5171684 46.40944316 149.7435356 43.52197266 151.97094727 C41.37759399 153.62300156 39.22538097 155.26426533 37.0703125 156.90234375 C33.45424558 159.65207894 29.84892024 162.41537361 26.25 165.1875 C22.99620184 167.6932516 19.74216471 170.19865952 16.484375 172.69921875 C15.90139648 173.14692627 15.31841797 173.59463379 14.71777344 174.0559082 C13.10372085 175.29535194 11.48937063 176.53440804 9.875 177.7734375 C7.97400328 179.24567681 6.09799362 180.75081781 4.25 182.2890625 C2 184 2 184 0 184 C-0.33 184.66 -0.66 185.32 -1 186 C-8.13628132 170.69532163 -14.07001269 155.44424726 -18 139 C-18.22445801 138.06124023 -18.44891602 137.12248047 -18.68017578 136.15527344 C-24.91616444 108.52165983 -24.57975348 76.51876796 -18 49 C-17.76394043 48.01225586 -17.52788086 47.02451172 -17.28466797 46.00683594 C-13.30459617 29.99930025 -7.37562449 14.75124899 0 0 Z " fill="#FEC007" transform="translate(62,146)"/>
</svg>
