<?xml version="1.0" encoding="UTF-8"?>
<svg version="1.1" xmlns="http://www.w3.org/2000/svg" width="512" height="512">
<path d="M0 0 C34.32 0 68.64 0 104 0 C104 11.88 104 23.76 104 36 C107.2390918 35.97381592 110.47818359 35.94763184 113.81542969 35.9206543 C124.5481225 35.83760038 135.28082995 35.78249449 146.01375961 35.74093914 C152.51764758 35.71490723 159.02120473 35.67962549 165.52490234 35.62280273 C171.80784584 35.56825568 178.09047223 35.53853134 184.37363434 35.52561378 C186.76410154 35.51641467 189.15455246 35.49845128 191.54488373 35.47134972 C219.91907463 35.16259891 219.91907463 35.16259891 231.24609375 45.8984375 C236.13740152 51.75929179 240.19467727 58.90524538 240 66.640625 C239.51048886 76.62840506 239.51048886 76.62840506 242.85546875 85.625 C245.15749818 87.28790257 245.15749818 87.28790257 247.64453125 88.61328125 C253.97884223 92.34243614 256.87521162 100.29014197 259 107 C259.82708996 110.49851588 260.11866057 113.70904266 260.09765625 117.30078125 C260.09443359 118.27724609 260.09121094 119.25371094 260.08789062 120.25976562 C260.07951172 121.26716797 260.07113281 122.27457031 260.0625 123.3125 C260.05798828 124.33923828 260.05347656 125.36597656 260.04882812 126.42382812 C260.03708184 128.94927882 260.02065565 131.47460905 260 134 C260.74378906 134.268125 261.48757813 134.53625 262.25390625 134.8125 C271.71563541 138.90405855 277.05321333 147.92559175 280.8125 157.125 C283.24427074 163.52129396 283.14642672 170.68192695 283.11352539 177.43554688 C283.11367142 178.23650787 283.11381744 179.03746887 283.1139679 179.86270142 C283.1132773 182.48141289 283.10552529 185.10005112 283.09765625 187.71875 C283.09578903 189.54577597 283.09436656 191.37280245 283.09336853 193.1998291 C283.08956726 197.98703415 283.07975758 202.77420841 283.06866455 207.56140137 C283.05839884 212.45499251 283.05385989 217.34858867 283.04882812 222.2421875 C283.03813299 231.82813846 283.02108553 241.41406666 283 251 C283.61615173 251.1944017 284.23230347 251.38880341 284.86712646 251.58909607 C285.67635559 251.85029739 286.48558472 252.11149872 287.31933594 252.38061523 C288.12111267 252.63689194 288.9228894 252.89316864 289.7489624 253.1572113 C296.67300292 255.74957275 301.79614348 261.94583141 305.0625 268.375 C307.26655608 273.31647805 308.12891108 277.17862195 308.15390015 282.61325073 C308.1582824 283.2885949 308.16266465 283.96393906 308.1671797 284.6597482 C308.18055827 286.92795345 308.1867446 289.19611985 308.19287109 291.46435547 C308.20077323 293.0890063 308.20904225 294.71365538 308.21765137 296.33830261 C308.24387343 301.68124719 308.25918597 307.02419958 308.2734375 312.3671875 C308.27879839 314.20906708 308.2841759 316.0509466 308.28956985 317.89282608 C308.31120489 325.56025196 308.32993755 333.22767575 308.34119225 340.89512444 C308.35740243 351.86538844 308.39050158 362.8352966 308.44759309 373.80542648 C308.48639941 381.52706994 308.50583795 389.24861869 308.51111281 396.97035706 C308.5147536 401.57689522 308.5266374 406.18305387 308.55921555 410.78948593 C308.58948238 415.1316444 308.5955424 419.47319752 308.58383179 423.81543922 C308.58361255 425.3999858 308.59179179 426.98456198 308.60948563 428.56900978 C308.73857124 440.80533618 306.86265891 452.11551451 299 462 C298.45859375 462.69480469 297.9171875 463.38960938 297.359375 464.10546875 C288.75587615 474.54508016 277.49875513 480.71857263 263.97971916 482.22514117 C258.71113581 482.58592297 253.44006243 482.53824508 248.16210938 482.50793457 C246.39458454 482.51255233 244.62706355 482.51891109 242.85955048 482.52684355 C238.0382302 482.54343983 233.21722932 482.53533494 228.39590836 482.52289867 C223.18245604 482.51381054 217.96905684 482.52783651 212.75561523 482.53881836 C202.55657229 482.55656811 192.35764735 482.5527794 182.15859985 482.5411678 C173.86670975 482.53211978 165.57485262 482.53091539 157.28295898 482.53526306 C156.10104335 482.53587599 154.91912772 482.53648893 153.70139647 482.53712043 C151.30006217 482.53839938 148.89872788 482.53969624 146.49739361 482.5410108 C124.00088543 482.55240622 101.50444253 482.53931917 79.00794506 482.51780933 C59.72140986 482.49993931 40.43497097 482.50304371 21.1484375 482.52148438 C-1.2697381 482.54290942 -23.68785654 482.55130768 -46.10604095 482.53903532 C-48.49834696 482.53776118 -50.89065297 482.53650369 -53.28295898 482.53526306 C-55.04836808 482.53433741 -55.04836808 482.53433741 -56.84944201 482.53339306 C-65.12758797 482.52994506 -73.40569756 482.53575662 -81.68383789 482.54518127 C-91.77755015 482.55642078 -101.87113804 482.55332016 -111.96483612 482.5320583 C-117.11091452 482.5215742 -122.25678586 482.51738095 -127.40286255 482.53065491 C-132.12052577 482.5426394 -136.83779143 482.53591705 -141.55541897 482.5147447 C-143.25509979 482.51030419 -144.95481471 482.51248696 -146.6544733 482.52224785 C-163.02131341 482.60897492 -177.22988128 480.00026696 -189.7265625 468.48828125 C-195.44192437 462.57903542 -199.22073068 456.72405264 -202 449 C-202.34382029 448.10051762 -202.68764057 447.20103523 -203.04187965 446.27429581 C-204.09008161 442.69215365 -204.25712209 439.73467798 -204.26742554 436.00579834 C-204.27195665 435.3257742 -204.27648776 434.64575007 -204.28115618 433.94511914 C-204.29375985 431.67916289 -204.29218245 429.41344824 -204.29052734 427.14746094 C-204.29651519 425.51749871 -204.30332133 423.88753931 -204.31088257 422.25758362 C-204.32852543 417.83797172 -204.33323728 413.41843731 -204.33451414 408.9987936 C-204.33593747 406.23442979 -204.34021056 403.47008556 -204.34550858 400.70572662 C-204.36400444 391.05266574 -204.3721799 381.39966004 -204.37060547 371.74658203 C-204.36940476 362.76361457 -204.39049427 353.78088764 -204.4220928 344.79798102 C-204.44829062 337.07376473 -204.45897127 329.34962681 -204.45769465 321.62536645 C-204.45718597 317.0173676 -204.46281676 312.40958251 -204.48405075 307.80162811 C-204.50349189 303.46440421 -204.50351772 299.12759664 -204.48901749 294.79035759 C-204.48693543 293.20456518 -204.49159413 291.61874631 -204.5037384 290.03299904 C-204.59750574 276.93376179 -202.71240249 267.88774972 -193.51953125 258.20703125 C-189.63637712 254.80550864 -184.37049857 251 -179 251 C-179.00444122 249.99712448 -179.00888245 248.99424896 -179.01345825 247.96098328 C-179.05414389 238.47251105 -179.08405108 228.98405671 -179.10362434 219.49551678 C-179.11402568 214.61831186 -179.12811764 209.74117781 -179.15087891 204.86401367 C-179.17273817 200.15019352 -179.18459602 195.4364412 -179.18975449 190.72257423 C-179.19342689 188.93140407 -179.20059765 187.14023729 -179.21146011 185.3490963 C-179.31670673 167.26213269 -177.76597815 152.82889625 -165.02734375 138.83984375 C-162.38376519 136.44075801 -159.69147652 134 -156 134 C-156.02356567 133.0867395 -156.02356567 133.0867395 -156.04760742 132.1550293 C-156.65949683 104.86269628 -156.65949683 104.86269628 -148 93 C-147.38125 92.113125 -146.7625 91.22625 -146.125 90.3125 C-144.15764396 88.17155373 -142.87318166 87.36821792 -140.41015625 85.99609375 C-138.08645232 84.35943202 -137.14664824 83.54562475 -136.40136719 80.77270508 C-136.22830998 78.07917838 -136.22736892 75.44770934 -136.3125 72.75 C-136.52505626 61.71281938 -133.73491833 53.12938201 -126 45 C-117.33054669 37.8907266 -109.10075434 35.53947661 -98.0859375 35.65942383 C-97.0216301 35.65898575 -95.95732269 35.65854767 -94.86076355 35.65809631 C-91.36531825 35.66017563 -87.87036085 35.68346676 -84.375 35.70703125 C-81.94262962 35.71263024 -79.51025584 35.7168989 -77.07788086 35.71989441 C-70.69263277 35.73131927 -64.30759114 35.76076639 -57.92242432 35.79400635 C-51.4001342 35.82475798 -44.87781055 35.83841064 -38.35546875 35.85351562 C-25.57020745 35.88563818 -12.78515324 35.93838709 0 36 C0 24.12 0 12.24 0 0 Z " fill="#E3F4F6" transform="translate(204,15)"/>
<path d="M0 0 C1.37707375 -0.00856522 1.37707375 -0.00856522 2.78196716 -0.01730347 C3.78202789 -0.01842133 4.78208862 -0.01953918 5.81245422 -0.02069092 C7.40098457 -0.02813828 7.40098457 -0.02813828 9.02160645 -0.03573608 C12.52782337 -0.05034955 16.03399503 -0.05715897 19.54023743 -0.06268311 C21.97918702 -0.06843596 24.41813661 -0.07419368 26.85708618 -0.07995605 C31.97404694 -0.09046423 37.090992 -0.09630786 42.20796204 -0.09979248 C48.75370859 -0.10527171 55.29924656 -0.12928854 61.84492779 -0.15776443 C66.88507689 -0.17642182 71.92517611 -0.18159811 76.96535683 -0.18312836 C79.37780203 -0.18614923 81.79024647 -0.19415861 84.2026577 -0.20731354 C87.58446819 -0.22443571 90.9657738 -0.22247827 94.34761047 -0.21600342 C95.33755005 -0.2252182 96.32748962 -0.23443298 97.34742737 -0.243927 C105.58823411 -0.19469201 113.00035287 1.12451814 119.21601868 6.89044189 C120.27756165 7.84177002 120.27756165 7.84177002 121.36054993 8.81231689 C126.51372426 14.68476795 128.16580251 20.2392735 129.46601868 27.76544189 C129.8024045 29.54555136 130.13964478 31.32549957 130.47773743 33.10528564 C131.0264815 36.07584249 131.56885255 39.04749456 132.11054993 42.01934814 C133.75795058 50.17928002 135.99895192 56.89533274 142.91133118 61.98809814 C148.37577673 65.35757405 152.57590406 67.26059563 159.04989624 67.28761292 C160.81399841 67.29834587 160.81399841 67.29834587 162.61373901 67.30929565 C163.90569687 67.31198456 165.19765472 67.31467346 166.52876282 67.31744385 C167.90212679 67.32371001 169.27548906 67.33035694 170.64884949 67.33735657 C175.16211265 67.3583895 179.6753761 67.36876143 184.18867493 67.37872314 C185.74459285 67.38277164 187.30051059 67.38688859 188.85642815 67.39107323 C196.17029019 67.4101269 203.48414215 67.42435493 210.79802424 67.4326852 C219.22667847 67.44244456 227.65506918 67.4687291 236.08363062 67.50918609 C242.60608863 67.53941333 249.1284714 67.5541605 255.65099806 67.55746621 C259.54254727 67.5598101 263.43381503 67.56868301 267.32528877 67.59392738 C270.99190161 67.61732784 274.65805012 67.62139387 278.32471848 67.611166 C280.29805244 67.61043999 282.27136345 67.62944892 284.24459839 67.64923096 C293.0632409 67.59802282 300.60853308 66.23494102 307.77851868 60.82794189 C313.05784383 55.42291852 315.04383841 49.86841774 316.46601868 42.64044189 C316.63246887 41.85870605 316.79891907 41.07697021 316.97041321 40.27154541 C317.76298119 36.50894526 318.48385931 32.74273588 319.11054993 28.94903564 C320.94379749 18.32477639 324.18748476 11.54527164 332.30195618 4.42950439 C339.1772181 0.2123363 345.45873805 -0.2993189 353.32661438 -0.26361084 C354.92583237 -0.27390572 354.92583237 -0.27390572 356.55735779 -0.28440857 C360.0648092 -0.30263688 363.57181152 -0.29884392 367.07929993 -0.29315186 C369.53016301 -0.29771613 371.98102481 -0.30302243 374.43188477 -0.30903625 C379.56367701 -0.31796005 384.69531358 -0.3155531 389.82710266 -0.30560303 C396.38385932 -0.29412525 402.94007647 -0.31431106 409.49676228 -0.34352016 C414.55760072 -0.36192213 419.6183109 -0.3615815 424.67917442 -0.35588264 C427.09554487 -0.35572986 429.51192426 -0.3617383 431.92826271 -0.37417412 C435.31659262 -0.38915414 438.70393894 -0.37835398 442.09223938 -0.36126709 C443.07805496 -0.37093506 444.06387054 -0.38060303 445.07955933 -0.39056396 C455.94307802 -0.2766122 464.41073111 3.11100042 472.23554993 10.62481689 C477.83593498 17.12328172 480.51834137 24.25511728 480.55741882 32.75369263 C480.56180108 33.42903679 480.56618333 34.10438095 480.57069838 34.80019009 C480.58407694 37.06839535 480.59026327 39.33656175 480.59638977 41.60479736 C480.60429191 43.22944819 480.61256093 44.85409727 480.62117004 46.47874451 C480.6473921 51.82168909 480.66270465 57.16464148 480.67695618 62.50762939 C480.68231706 64.34950897 480.68769458 66.1913885 480.69308853 68.03326797 C480.71472357 75.70069386 480.73345623 83.36811764 480.74471092 91.03556633 C480.76092111 102.00583033 480.79402025 112.97573849 480.85111177 123.94586837 C480.88991809 131.66751184 480.90935662 139.38906059 480.91463149 147.11079895 C480.91827228 151.71733711 480.93015608 156.32349576 480.96273422 160.92992783 C480.99300105 165.2720863 480.99906107 169.61363941 480.98735046 173.95588112 C480.98713123 175.5404277 480.99531046 177.12500387 481.0130043 178.70945168 C481.14208992 190.94577808 479.26617759 202.25595641 471.40351868 212.14044189 C470.86211243 212.83524658 470.32070618 213.53005127 469.76289368 214.24591064 C461.15939483 224.68552205 449.90227381 230.85901453 436.38323784 232.36558306 C431.11465449 232.72636487 425.84358111 232.67868698 420.56562805 232.64837646 C418.79810321 232.65299423 417.03058222 232.65935298 415.26306915 232.66728544 C410.44174888 232.68388173 405.62074799 232.67577684 400.79942703 232.66334057 C395.58597471 232.65425243 390.37257551 232.6682784 385.15913391 232.67926025 C374.96009096 232.69701 364.76116603 232.69322129 354.56211853 232.68160969 C346.27022842 232.67256168 337.97837129 232.67135729 329.68647766 232.67570496 C328.50456203 232.67631789 327.3226464 232.67693082 326.10491514 232.67756233 C323.70358085 232.67884128 321.30224656 232.68013813 318.90091228 232.68145269 C296.4044041 232.69284811 273.90796121 232.67976107 251.41146374 232.65825123 C232.12492853 232.64038121 212.83848964 232.64348561 193.55195618 232.66192627 C171.13378057 232.68335131 148.71566213 232.69174957 126.29747772 232.67947721 C123.90517172 232.67820307 121.51286571 232.67694559 119.12055969 232.67570496 C117.3551506 232.6747793 117.3551506 232.6747793 115.55407667 232.67383495 C107.2759307 232.67038696 98.99782112 232.67619852 90.71968079 232.68562317 C80.62596853 232.69686267 70.53238064 232.69376206 60.43868256 232.67250019 C55.29260415 232.6620161 50.14673282 232.65782285 45.00065613 232.6710968 C40.28299291 232.6830813 35.56572724 232.67635894 30.84809971 232.65518659 C29.14841889 232.65074608 27.44870396 232.65292886 25.74904537 232.66268975 C9.38220526 232.74941681 -4.8263626 230.14070886 -17.32304382 218.62872314 C-23.0384057 212.71947731 -26.81721201 206.86449453 -29.59648132 199.14044189 C-29.94030161 198.24095951 -30.28412189 197.34147713 -30.63836098 196.4147377 C-31.68656294 192.83259554 -31.85360342 189.87511987 -31.86390686 186.14624023 C-31.87070353 185.12620403 -31.87070353 185.12620403 -31.87763751 184.08556104 C-31.89024117 181.81960479 -31.88866377 179.55389013 -31.88700867 177.28790283 C-31.89299652 175.6579406 -31.89980266 174.0279812 -31.90736389 172.39802551 C-31.92500675 167.97841362 -31.9297186 163.55887921 -31.93099546 159.1392355 C-31.9324188 156.37487168 -31.93669188 153.61052746 -31.9419899 150.84616852 C-31.96048576 141.19310764 -31.96866122 131.54010194 -31.96708679 121.88702393 C-31.96588609 112.90405646 -31.9869756 103.92132954 -32.01857412 94.93842292 C-32.04477195 87.21420662 -32.05545259 79.4900687 -32.05417597 71.76580834 C-32.05366729 67.1578095 -32.05929808 62.55002441 -32.08053207 57.94207001 C-32.09997321 53.6048461 -32.09999904 49.26803854 -32.08549881 44.93079948 C-32.08341675 43.34500708 -32.08807546 41.75918821 -32.10021973 40.17344093 C-32.19398813 27.07405477 -30.31138024 18.01831497 -21.10820007 8.34356689 C-15.08202631 3.0577784 -8.01408348 0.02995622 0 0 Z " fill="#FED87B" transform="translate(31.596481323242188,264.85955810546875)"/>
<path d="M0 0 C34.32 0 68.64 0 104 0 C104 21.99819525 103.97705266 43.98836349 103.78125 65.984375 C103.75869723 68.64577128 103.73626534 71.30716831 103.71398926 73.96856689 C103.66207688 80.14038189 103.60865611 86.31218276 103.5546174 92.48397946 C103.48681211 100.23800548 103.42115587 107.99204955 103.35546875 115.74609375 C103.23896769 129.49741355 103.11935409 143.24870401 103 157 C125.44 157 147.88 157 171 157 C169.06065991 160.87868018 167.38364955 162.86339937 164.35568237 165.88482666 C163.88028145 166.36193643 163.40488053 166.83904621 162.91507351 167.33061385 C161.32293269 168.92604554 159.72375541 170.51422968 158.12451172 172.10253906 C156.98094453 173.24554205 155.83781767 174.38898573 154.69509888 175.53283691 C151.59234093 178.63616903 148.48345212 181.73329308 145.3734374 184.82935047 C142.12405936 188.06623189 138.88033856 191.30877229 135.63601685 194.55072021 C129.49187053 200.68864863 123.34264344 206.82146068 117.19158089 212.95245719 C110.18893648 219.93275227 103.19196555 226.91872253 96.19546866 233.90517855 C81.8032892 248.27644899 67.40398925 262.6405669 53 277 C49.29833769 275.44792733 46.94016959 273.19163588 44.11517334 270.36914062 C43.63806357 269.89515083 43.16095379 269.42116104 42.66938615 268.93280792 C41.07395601 267.34534707 39.4857605 265.75084281 37.89746094 264.15625 C36.75444264 263.01594196 35.61099935 261.8760598 34.46716309 260.73657227 C31.36362797 257.64215716 28.26645521 254.54144625 25.17064953 251.43930054 C21.93318384 248.19677534 18.69084596 244.95912806 15.44927979 241.72070312 C10.00848019 236.28354226 4.57191198 230.84217717 -0.86230469 225.3984375 C-7.15246743 219.09737947 -13.44981771 212.80357369 -19.75092912 206.51346588 C-25.1559192 201.11753825 -30.55701887 195.71773973 -35.95485854 190.31465912 C-39.18101491 187.08537871 -42.40852161 183.8574791 -45.639534 180.63305664 C-48.67441731 177.6039314 -51.70440306 174.56999248 -54.73060608 171.53219604 C-55.84475034 170.41539741 -56.96061831 169.30031548 -58.07828522 168.18704224 C-59.59788086 166.67287261 -61.11124288 165.15274202 -62.62310791 163.63085938 C-63.47333652 162.77987671 -64.32356514 161.92889404 -65.19955826 161.05212402 C-67 159 -67 159 -67 157 C-44.56 157 -22.12 157 1 157 C0.9278125 148.68296875 0.855625 140.3659375 0.78125 131.796875 C0.72966475 125.76312627 0.67827497 119.72937611 0.62716103 113.6956234 C0.56138952 105.93460708 0.49519945 98.17359521 0.42724609 90.41259766 C0.37333439 84.25513259 0.32057151 78.09765878 0.26903296 71.94017339 C0.24186338 68.6984377 0.21405286 65.45670987 0.18519592 62.21498871 C0.00113244 41.47515327 0 20.74212182 0 0 Z " fill="#6CE7F3" transform="translate(204,15)"/>
<path d="M0 0 C26.97094601 -0.20054405 26.97094601 -0.20054405 38.515625 -0.24414062 C46.37647491 -0.27396707 54.23703211 -0.30915637 62.09765625 -0.37719727 C68.43895414 -0.43174012 74.77993787 -0.4614678 81.12145233 -0.47438622 C83.53424775 -0.48358607 85.94702703 -0.50155093 88.35968781 -0.52865028 C116.91999582 -0.83652797 116.91999582 -0.83652797 128.24609375 9.8984375 C133.13740152 15.75929179 137.19467727 22.90524538 137 30.640625 C136.51048886 40.62840506 136.51048886 40.62840506 139.85546875 49.625 C142.15749818 51.28790257 142.15749818 51.28790257 144.64453125 52.61328125 C150.97884223 56.34243614 153.87521162 64.29014197 156 71 C156.80516897 74.42516874 157.11922289 77.56666835 157.09765625 81.08203125 C157.09443359 82.01337891 157.09121094 82.94472656 157.08789062 83.90429688 C157.07951172 84.86400391 157.07113281 85.82371094 157.0625 86.8125 C157.05798828 87.79154297 157.05347656 88.77058594 157.04882812 89.77929688 C157.03708684 92.18626111 157.02066419 94.59309857 157 97 C155.54096742 96.69078116 154.08279278 96.37751201 152.625 96.0625 C151.81289063 95.88847656 151.00078125 95.71445313 150.1640625 95.53515625 C148 95 148 95 146 94 C144.07443278 93.89430536 142.14519745 93.85335882 140.21676636 93.84178162 C138.98555054 93.8319928 137.75433472 93.82220398 136.48580933 93.81211853 C135.1140751 93.80621397 133.74234046 93.80040355 132.37060547 93.79467773 C130.93190223 93.78510169 129.49320182 93.77509177 128.05450439 93.76467896 C124.14154255 93.73759412 120.2285686 93.71660397 116.31556463 93.69667697 C112.22891873 93.67483945 108.14231028 93.64743985 104.05569458 93.62062073 C96.31385121 93.57066357 88.57198708 93.52573598 80.83010304 93.48259836 C70.37079 93.42403014 59.91152622 93.35772706 49.45225716 93.29184818 C32.9682046 93.18822622 16.48410994 93.09496852 0 93 C0 62.31 0 31.62 0 0 Z " fill="#BFDADD" transform="translate(307,51)"/>
<path d="M0 0 C1.07406097 -0.00043808 2.14812195 -0.00087616 3.25473022 -0.00132751 C6.78263932 0.00075201 10.31006518 0.02404413 13.83789062 0.04760742 C16.29268128 0.05320633 18.7474753 0.05747504 21.20227051 0.06047058 C27.64670146 0.07189601 34.09092788 0.10134364 40.53527832 0.13458252 C48.27631402 0.17074443 56.01741831 0.18445549 63.7585144 0.20194244 C75.50386516 0.23098205 87.24876761 0.28848598 98.99414062 0.34057617 C98.99414062 31.03057617 98.99414062 61.72057617 98.99414062 93.34057617 C83.32429688 93.39665039 83.32429688 93.39665039 67.33789062 93.45385742 C60.72068984 93.4841325 54.10350659 93.51515567 47.48632812 93.54956055 C36.98276356 93.60403277 26.47924766 93.65544636 15.97558594 93.68701172 C8.32553417 93.71001554 0.67561031 93.74344018 -6.97433996 93.78927773 C-11.02338388 93.81317786 -15.07230138 93.83192763 -19.12141418 93.83819008 C-22.93655293 93.84425552 -26.75136833 93.86430766 -30.56638718 93.89485168 C-31.96270372 93.90360861 -33.35906255 93.90735937 -34.75540543 93.90558434 C-42.25477781 93.89906407 -48.14073019 94.2698515 -55.00585938 97.34057617 C-55.99585938 97.34057617 -56.98585937 97.34057617 -58.00585938 97.34057617 C-58.76617713 69.34138764 -58.76617713 69.34138764 -50.00585938 57.34057617 C-49.38710938 56.45370117 -48.76835938 55.56682617 -48.13085938 54.65307617 C-46.16350334 52.5121299 -44.87904103 51.70879409 -42.41601562 50.33666992 C-40.0923117 48.70000819 -39.15250762 47.88620092 -38.40722656 45.11328125 C-38.23416935 42.41975456 -38.23322829 39.78828551 -38.31835938 37.09057617 C-38.53091564 26.05339555 -35.7407777 17.46995818 -28.00585938 9.34057617 C-19.30114913 2.20239078 -11.05624517 -0.11927234 0 0 Z " fill="#BFDADD" transform="translate(106.005859375,50.659423828125)"/>
<path d="M0 0 C1.37501175 -0.01073296 1.37501175 -0.01073296 2.77780151 -0.02168274 C3.78145752 -0.02437164 4.78511353 -0.02706055 5.81918335 -0.02983093 C6.87805756 -0.03640213 7.93693176 -0.04297333 9.02789307 -0.04974365 C12.53954131 -0.06948735 16.05114673 -0.08114286 19.56283569 -0.09111023 C20.76243298 -0.09518576 21.96203026 -0.09926128 23.19797897 -0.10346031 C29.5495766 -0.1243275 35.9011526 -0.13862537 42.2527771 -0.147995 C48.80646167 -0.15904931 55.35980577 -0.19343656 61.91337013 -0.23316669 C66.95781068 -0.25934361 72.00217033 -0.26768792 77.04667282 -0.27127647 C79.46192087 -0.27614108 81.87716534 -0.28775141 84.29234695 -0.30631447 C87.6791687 -0.33072347 91.06511264 -0.32973695 94.45199585 -0.32279968 C95.44350647 -0.33560974 96.43501709 -0.3484198 97.45657349 -0.36161804 C105.6635768 -0.30057656 112.63574788 1.8964588 118.83627319 7.45967102 C119.75859741 8.25824524 119.75859741 8.25824524 120.69955444 9.07295227 C125.79812157 14.87025237 127.35984698 20.59123121 128.64877319 28.02217102 C128.96294965 29.7280713 129.27804842 31.43380199 129.59408569 33.13935852 C129.82140381 34.38640564 129.82140381 34.38640564 130.05331421 35.65864563 C132.42689859 49.80928786 132.42689859 49.80928786 140.52377319 61.14717102 C149.15975256 66.72396276 156.53367527 68.01483119 166.67074585 67.89179993 C168.04544675 67.89666944 169.4201405 67.90412128 170.79481506 67.91392517 C174.49132592 67.93256187 178.1867608 67.9140516 181.88318682 67.88726091 C185.77155003 67.86443773 189.65986774 67.87286154 193.54827881 67.87675476 C200.07283876 67.87851424 206.59698056 67.8564921 213.12142944 67.8195343 C220.64246576 67.77717271 228.16289105 67.77019046 235.68402255 67.78265822 C242.95096298 67.79408332 250.21769037 67.78271227 257.48460007 67.76031113 C260.5633174 67.75107254 263.6419033 67.74924799 266.72063065 67.75348282 C270.35054283 67.75727579 273.9798412 67.74083624 277.60961342 67.70936203 C279.5613125 67.69695944 281.51310501 67.70384926 283.46482849 67.71150208 C292.19228606 67.60694959 298.90671355 66.02000813 306.33627319 61.39717102 C313.27494371 54.26025277 315.51943686 46.05237891 316.96127319 36.45967102 C319.23325428 22.3890571 321.5066353 12.33854123 333.30111694 3.37373352 C339.75671107 -0.18875603 346.19300088 -0.13614985 353.3843689 -0.0957489 C354.99042244 -0.09859642 354.99042244 -0.09859642 356.62892151 -0.10150146 C360.15254132 -0.1051933 363.67595309 -0.09453032 367.19955444 -0.08329773 C369.65098547 -0.08210526 372.10241696 -0.08165291 374.55384827 -0.08190918 C379.68228022 -0.08034724 384.81064207 -0.07207727 389.9390564 -0.05863953 C396.5245695 -0.0416053 403.11000596 -0.03782662 409.69553852 -0.03858471 C414.75255571 -0.03831338 419.80955602 -0.03283896 424.86656761 -0.02558327 C427.29594991 -0.02239415 429.72533412 -0.02042863 432.1547184 -0.01968956 C435.53989581 -0.01753112 438.92499041 -0.00879893 442.31015015 0.00190735 C443.32054352 0.00145416 444.33093689 0.00100098 445.37194824 0.00053406 C446.2901384 0.00479904 447.20832855 0.00906403 448.15434265 0.01345825 C448.95458516 0.0151341 449.75482767 0.01680994 450.57931995 0.01853657 C452.52377319 0.14717102 452.52377319 0.14717102 454.52377319 1.14717102 C454.52377319 8.73717102 454.52377319 16.32717102 454.52377319 24.14717102 C449.45195679 24.12360535 449.45195679 24.12360535 444.27767944 24.0995636 C433.09786943 24.04982246 421.91805074 24.01655093 410.73815918 23.9917345 C403.96074773 23.9762894 397.18344138 23.95524526 390.40609741 23.92085266 C383.86385494 23.88766905 377.32168058 23.87031015 370.77935791 23.86253929 C368.28513878 23.85700238 365.79092553 23.84619015 363.29675293 23.82998085 C359.79937909 23.80815875 356.30245432 23.80520617 352.80502319 23.80659485 C351.77715195 23.79580902 350.7492807 23.78502319 349.69026184 23.77391052 C341.89586486 23.80733135 335.27860615 24.99786744 329.27377319 30.39717102 C328.33791382 31.2092804 328.33791382 31.2092804 327.38314819 32.03779602 C322.31710516 37.7849877 320.73459881 43.40165586 319.46127319 50.77217102 C319.12488737 52.55228048 318.78764709 54.33222869 318.44955444 56.11201477 C317.90081037 59.08257162 317.35843932 62.05422368 316.81674194 65.02607727 C314.94053595 74.3193315 311.94473468 81.03733099 304.02377319 86.58467102 C298.77470611 89.92239302 293.7440711 91.39176323 287.53009033 91.42805481 C286.35278854 91.4394751 285.17548676 91.45089539 283.96250916 91.46266174 C282.68447922 91.46489746 281.40644928 91.46713318 280.08969116 91.46943665 C278.7191261 91.47870378 277.34856614 91.48875454 275.97801208 91.49952698 C272.26487199 91.52568004 268.55180407 91.53864676 264.83858633 91.54754829 C262.51375085 91.55342661 260.18893472 91.56163944 257.86410904 91.57055664 C250.57587973 91.59788477 243.28769511 91.61722733 235.99941814 91.62496042 C227.61309896 91.6339097 219.22743371 91.66895757 210.84131324 91.72696161 C204.34168213 91.77034164 197.84223399 91.7903768 191.3424598 91.79304266 C187.46863927 91.79512886 183.59543429 91.80672799 179.72176743 91.84268188 C176.07215734 91.87589861 172.42361698 91.87983472 168.77390862 91.86240387 C166.81526204 91.86015471 164.85664895 91.88739657 162.89820862 91.91590881 C152.95556956 91.82317541 144.19073571 89.17332863 137.02377319 81.95967102 C131.00921645 73.78198422 129.66924309 63.61332981 128.00570679 53.84785461 C126.15043528 43.17655612 123.77881697 34.48811814 114.68783569 27.79560852 C109.80451725 24.8314982 105.29162771 24.02060777 99.67054749 24.0269165 C98.72128891 24.02554184 97.77203033 24.02416718 96.79400635 24.02275085 C95.76470001 24.02634613 94.73539368 24.02994141 93.67489624 24.03364563 C92.03520119 24.03342659 92.03520119 24.03342659 90.36238098 24.03320312 C86.7533977 24.03389914 83.14446619 24.04167706 79.53549194 24.04951477 C77.03157072 24.05138005 74.52764913 24.05280344 72.02372742 24.05380249 C66.10941903 24.05722901 60.19512722 24.06510855 54.28082734 24.07515198 C46.88459905 24.08743856 39.48836845 24.09279963 32.09213257 24.0983429 C18.90266819 24.10906491 5.71322598 24.12665473 -7.47622681 24.14717102 C-7.47622681 16.55717102 -7.47622681 8.96717102 -7.47622681 1.14717102 C-4.65769227 0.20765951 -2.91857224 0.0156547 0 0 Z " fill="#BFDADC" transform="translate(32.476226806640625,241.8528289794922)"/>
<path d="M0 0 C1.1707608 0.0001133 1.1707608 0.0001133 2.36517334 0.00022888 C3.19760559 0.00539017 4.03003784 0.01055145 4.88769531 0.01586914 C5.74768127 0.01728409 6.60766724 0.01869904 7.49371338 0.02015686 C10.2344514 0.02574442 12.97510707 0.03829465 15.71582031 0.05102539 C17.57649621 0.056042 19.4371734 0.06060462 21.29785156 0.06469727 C25.85387277 0.07570978 30.40983259 0.09296588 34.96582031 0.11352539 C32.26403138 1.91471801 29.61340803 3.28973153 26.71582031 4.73852539 C17.46083093 9.78781286 12.52657035 16.86961229 9.42918777 26.84112549 C8.83024573 29.77839655 8.83311366 32.55117229 8.82537842 35.55004883 C8.8224073 36.19428456 8.81943617 36.8385203 8.81637502 37.50227833 C8.80770971 39.65916556 8.80618158 41.81599714 8.8046875 43.97290039 C8.80005758 45.52050393 8.79503268 47.06810632 8.78964233 48.6157074 C8.77652812 52.82068718 8.77007461 57.025651 8.76563168 61.23064804 C8.76269775 63.86133792 8.75859221 66.49202348 8.7541275 69.12271118 C8.74045158 77.3634899 8.7307869 85.60425868 8.72692561 93.84504795 C8.72245254 103.33823573 8.70494001 112.83127898 8.67592502 122.32442284 C8.65424903 129.67325315 8.64421809 137.022043 8.64288449 144.37090492 C8.64184016 148.75428452 8.63601272 153.13752827 8.61806488 157.52087402 C8.6014829 161.65118004 8.59947735 165.78124961 8.60820389 169.91157722 C8.60896903 171.41912536 8.60470136 172.92668674 8.59474564 174.43420219 C8.49296515 190.82084552 11.60559888 205.0305072 23.05566406 217.33618164 C31.91520505 225.57972183 42.1579698 229.4361485 53.96582031 231.11352539 C53.96582031 231.44352539 53.96582031 231.77352539 53.96582031 232.11352539 C48.09835601 232.2135084 42.23140362 232.28551259 36.36328125 232.33325195 C34.37328436 232.35318407 32.3833446 232.38033991 30.39355469 232.4152832 C12.4045827 232.72294168 -2.88115416 231.38773086 -16.76074219 218.60180664 C-22.47610406 212.69256081 -26.25491037 206.83757803 -29.03417969 199.11352539 C-29.37799997 198.21404301 -29.72182026 197.31456062 -30.07605934 196.3878212 C-31.1242613 192.80567904 -31.29130178 189.84820337 -31.30160522 186.11932373 C-31.30840189 185.09928753 -31.30840189 185.09928753 -31.31533587 184.05864453 C-31.32793954 181.79268828 -31.32636214 179.52697363 -31.32470703 177.26098633 C-31.33069488 175.6310241 -31.33750102 174.0010647 -31.34506226 172.37110901 C-31.36270512 167.95149711 -31.36741696 163.5319627 -31.36869383 159.11231899 C-31.37011716 156.34795518 -31.37439025 153.58361095 -31.37968826 150.81925201 C-31.39818412 141.16619114 -31.40635959 131.51318543 -31.40478516 121.86010742 C-31.40358445 112.87713996 -31.42467396 103.89441303 -31.45627248 94.91150641 C-31.48247031 87.18729012 -31.49315096 79.4631522 -31.49187434 71.73889184 C-31.49136566 67.13089299 -31.49699644 62.5231079 -31.51823044 57.9151535 C-31.53767158 53.5779296 -31.5376974 49.24112204 -31.52319717 44.90388298 C-31.52111512 43.31809057 -31.52577382 41.7322717 -31.53791809 40.14652443 C-31.63168649 27.04713827 -29.7490786 17.99139846 -20.54589844 8.31665039 C-14.77170358 3.25188228 -7.74077303 -0.02513238 0 0 Z " fill="#EDC56B" transform="translate(31.0341796875,264.886474609375)"/>
<path d="M0 0 C14.13495436 -0.11320503 28.26960494 -0.20483443 42.40491104 -0.25906086 C48.96933153 -0.28509393 55.53342432 -0.32037783 62.09765625 -0.37719727 C68.43895414 -0.43174012 74.77993787 -0.4614678 81.12145233 -0.47438622 C83.53424775 -0.48358607 85.94702703 -0.50155093 88.35968781 -0.52865028 C116.91999582 -0.83652797 116.91999582 -0.83652797 128.24609375 9.8984375 C133.3179643 15.97564543 137.14376126 23.12930191 137.09765625 31.10546875 C137.09443359 32.08837891 137.09121094 33.07128906 137.08789062 34.08398438 C137.07951172 35.10814453 137.07113281 36.13230469 137.0625 37.1875 C137.05798828 38.22326172 137.05347656 39.25902344 137.04882812 40.32617188 C137.03704009 42.88417558 137.01973083 45.44204889 137 48 C136.21074285 47.71758327 135.42148569 47.43516655 134.60831165 47.14419174 C126.59293986 44.45172568 119.56493708 43.41602152 111.14135742 43.45410156 C109.93001633 43.44376389 108.71867523 43.43342621 107.47062683 43.42277527 C104.19448642 43.39858058 100.91888254 43.39150297 97.64267135 43.39249516 C94.20198963 43.3893366 90.76147194 43.36365822 87.32087708 43.34051514 C80.82602361 43.30017439 74.33126998 43.27966648 67.83631068 43.26654124 C60.43340103 43.25059624 53.03065949 43.21214973 45.62784803 43.17194796 C30.41859735 43.08984956 15.20943516 43.03853938 0 43 C0 28.81 0 14.62 0 0 Z " fill="#A4B9BC" transform="translate(307,51)"/>
<path d="M0 0 C1.07406097 -0.00043808 2.14812195 -0.00087616 3.25473022 -0.00132751 C6.78263932 0.00075201 10.31006518 0.02404413 13.83789062 0.04760742 C16.29268128 0.05320633 18.7474753 0.05747504 21.20227051 0.06047058 C27.64670146 0.07189601 34.09092788 0.10134364 40.53527832 0.13458252 C47.11789178 0.16533291 53.70053846 0.17898655 60.28320312 0.1940918 C73.18695303 0.22621537 86.09049778 0.27896475 98.99414062 0.34057617 C98.99414062 14.53057617 98.99414062 28.72057617 98.99414062 43.34057617 C93.30188232 43.35459473 93.30188232 43.35459473 87.49462891 43.36889648 C74.94166099 43.40269803 62.38886537 43.45806502 49.83603096 43.52447891 C42.22694694 43.56421233 34.61796549 43.59663362 27.00878906 43.61157227 C20.37314511 43.62461848 13.73772739 43.65165832 7.10221088 43.69518924 C3.59184856 43.71773785 0.08176456 43.73349086 -3.42867661 43.73246002 C-7.35681662 43.73156963 -11.28439207 43.76193488 -15.21240234 43.79467773 C-16.36399338 43.78964737 -17.51558441 43.784617 -18.70207214 43.7794342 C-25.92372937 43.87226378 -31.51650868 45.14465976 -38.00585938 48.34057617 C-38.11841172 44.8615175 -38.1935913 41.38341685 -38.25585938 37.90307617 C-38.289375 36.92918945 -38.32289062 35.95530273 -38.35742188 34.9519043 C-38.49278134 24.83378396 -34.99609836 16.68730185 -28.00585938 9.34057617 C-19.30114913 2.20239078 -11.05624517 -0.11927234 0 0 Z " fill="#A4B9BC" transform="translate(106.005859375,50.659423828125)"/>
</svg>
