<?xml version="1.0" encoding="UTF-8"?>
<svg version="1.1" xmlns="http://www.w3.org/2000/svg" width="512" height="512">
<path d="M0 0 C3.72979655 2.21048043 6.71452362 4.83334189 9.62792969 8.03027344 C11.3823698 9.87939461 13.20036607 11.52779288 15.13671875 13.18359375 C19.40924129 16.88579333 23.52460831 20.73411389 27.625 24.625 C34.07364534 30.72116307 40.56131045 36.77114913 47.09375 42.77734375 C49.4375 44.9375 49.4375 44.9375 50.4375 45.9375 C53.24506542 46.05212632 56.02902582 46.10235592 58.83764648 46.11108398 C59.71905807 46.117771 60.60046967 46.12445801 61.5085907 46.13134766 C63.43091362 46.14543729 65.35325367 46.15731874 67.27560234 46.16729546 C70.32393883 46.18367621 73.3721505 46.2069178 76.42042542 46.23219299 C85.09068584 46.30301434 93.76100013 46.3628426 102.43139648 46.41430664 C107.7299885 46.44624051 113.02844218 46.48756427 118.32692146 46.53450203 C120.34216868 46.55045079 122.35744783 46.56280497 124.37273979 46.57140923 C127.20623527 46.58367102 130.03941099 46.60786923 132.87280273 46.63452148 C133.69554687 46.63511063 134.51829102 46.63569977 135.3659668 46.63630676 C145.99218457 46.76762484 155.54869519 48.64489745 163.63671875 55.9140625 C172.72207118 65.41925561 173.91252451 74.45241394 173.63275146 87.10270691 C173.60761223 88.00388937 173.58247299 88.90507183 173.55657196 89.83356285 C173.4829774 92.69098275 173.44569301 95.54675515 173.41949463 98.40498352 C173.34423527 106.52413266 173.24971628 114.64105554 173.02294922 122.75756836 C172.88629956 127.74312123 172.82974657 132.72436194 172.82303619 137.71170998 C172.80582468 139.59496104 172.75988443 141.47820559 172.68288422 143.35996056 C172.35373926 151.64267661 172.14405644 158.82051744 177.86877441 165.31192017 C181.17496381 168.59665975 184.71003407 171.51509839 188.40885162 174.34461403 C191.55327628 176.81360273 194.41934957 179.55823747 197.3125 182.3125 C202.00277012 186.66137849 206.77422749 190.90979462 211.609375 195.09765625 C214.53961328 198.0466781 214.56318327 200.77001775 214.56892776 204.72966099 C214.57276891 205.72223488 214.57661005 206.71480878 214.5805676 207.73746067 C214.57970112 208.83082122 214.57883463 209.92418176 214.57794189 211.05067444 C214.58239858 212.7896545 214.58239858 212.7896545 214.5869453 214.56376547 C214.59413268 217.78713834 214.59680517 221.01047878 214.59754276 224.23385847 C214.59939246 227.70847317 214.60693953 231.1830763 214.61367798 234.65768433 C214.62726716 242.25917376 214.63328735 249.86065793 214.63768864 257.46215749 C214.64045091 262.20964561 214.64468832 266.9571317 214.64919281 271.70461845 C214.66138783 284.85105416 214.67168565 297.99748824 214.6750679 311.14392948 C214.67528747 311.9855777 214.67550703 312.82722593 214.67573325 313.69437864 C214.67595153 314.53803992 214.67616981 315.38170121 214.6763947 316.25092798 C214.67683817 317.96049821 214.67728473 319.67006844 214.67773438 321.37963867 C214.6779558 322.22764427 214.67817723 323.07564987 214.67840537 323.94935261 C214.68235075 337.68056625 214.69979575 351.41172673 214.7230939 365.14291985 C214.74682515 379.24335996 214.75927061 393.34377343 214.76043582 407.44423383 C214.76135175 415.35987105 214.76708317 423.27543908 214.78525543 431.19105721 C214.80068059 437.933869 214.80576279 444.67659023 214.79751733 451.41941632 C214.79361891 454.85762169 214.79450047 458.29564481 214.80857468 461.73382759 C214.82128252 465.46785469 214.81542295 469.20141608 214.80499268 472.93544006 C214.81707728 474.5520583 214.81707728 474.5520583 214.82940602 476.20133549 C214.7628289 486.41372133 212.84088521 495.50227227 205.4375 502.9375 C199.19972766 507.83175214 194.63598946 510.05960122 186.6306982 510.07451439 C185.93124593 510.07716622 185.23179366 510.07981804 184.51114586 510.08255023 C182.14974609 510.09025549 179.78839821 510.09080287 177.42698669 510.09140015 C175.72385608 510.09541397 174.02072643 510.09985206 172.31759793 510.1046797 C167.62343124 510.11666014 162.92927484 510.12229706 158.23509586 510.12686086 C153.17764349 510.13281143 148.12020346 510.14442268 143.0627594 510.15515137 C130.84138982 510.17968853 118.62001615 510.19430479 106.39862952 510.20721143 C102.94752855 510.21092252 99.49642799 510.21489582 96.04532743 510.2189641 C74.62106778 510.24420059 53.19680751 510.26625687 31.77253628 510.27869225 C26.80856257 510.28162202 21.84458889 510.28458367 16.88061523 510.28759766 C15.64682033 510.28834371 14.41302542 510.28908976 13.14184279 510.28985842 C-6.84575414 510.30251253 -26.83326213 510.33573552 -46.82081748 510.37739949 C-67.33520646 510.41981155 -87.8495499 510.44338648 -108.36398262 510.44861281 C-119.8846435 510.45202783 -131.4051654 510.46379376 -142.92578316 510.49671555 C-152.73733878 510.5247072 -162.54872693 510.53571924 -172.36031938 510.52452008 C-177.36614661 510.51933115 -182.3716231 510.5222357 -187.37739944 510.54698563 C-191.96273166 510.56946741 -196.54746097 510.56874652 -201.13280367 510.54978175 C-202.78901305 510.54698025 -204.44526323 510.55258872 -206.101407 510.56759469 C-216.2185854 510.65363756 -224.89022116 510.20977303 -232.68935782 502.96062696 C-238.99214242 496.35331079 -241.68074249 488.99443471 -241.69392776 479.88527679 C-241.69776891 478.88563731 -241.70161005 477.88599782 -241.7055676 476.85606623 C-241.70470112 475.76512077 -241.70383463 474.67417531 -241.70294189 473.5501709 C-241.70591302 472.38561418 -241.70888414 471.22105746 -241.7119453 470.02121115 C-241.71911647 466.79270388 -241.7218039 463.56422907 -241.72254276 460.33571506 C-241.72439623 456.85236947 -241.73194485 453.36903535 -241.73867798 449.88569641 C-241.75224768 442.27226481 -241.75828336 434.65883848 -241.76268864 427.0453968 C-241.76545231 422.29224155 -241.76968979 417.53908833 -241.77419281 412.78593445 C-241.7863817 399.62653989 -241.79668306 386.46714696 -241.8000679 373.30774689 C-241.80028747 372.46591109 -241.80050703 371.6240753 -241.80073325 370.75672933 C-241.80095153 369.91288695 -241.80116981 369.06904458 -241.8013947 368.19963121 C-241.80183817 366.48969555 -241.80228473 364.77975988 -241.80273438 363.06982422 C-241.80306652 361.79754499 -241.80306652 361.79754499 -241.80340537 360.49956316 C-241.80735624 346.74569938 -241.82482072 332.99188849 -241.8480939 319.23804516 C-241.8717935 305.11835566 -241.88426905 290.99869273 -241.88543582 276.87898302 C-241.88635315 268.95068002 -241.89212041 261.02244601 -241.91025543 253.09416199 C-241.92563738 246.34576608 -241.93078805 239.5974605 -241.92251733 232.8490504 C-241.91860456 229.40537501 -241.91957082 225.96188165 -241.93357468 222.51822853 C-241.94620411 218.78693698 -241.94046617 215.05611675 -241.92999268 211.3248291 C-241.93804908 210.23388364 -241.94610548 209.14293818 -241.95440602 208.01893377 C-241.9089935 201.13012836 -241.14095833 197.52859784 -236.171875 192.53515625 C-234.75648438 191.28025391 -234.75648438 191.28025391 -233.3125 190 C-232.23619058 189.03603602 -231.16070971 188.07114635 -230.0859375 187.10546875 C-229.51584961 186.5954834 -228.94576172 186.08549805 -228.35839844 185.56005859 C-224.57760817 182.14418963 -220.87994967 178.63789913 -217.16699219 175.14868164 C-216.58336914 174.60203857 -215.99974609 174.05539551 -215.3984375 173.4921875 C-214.83574158 172.94339935 -214.27304565 172.39461121 -213.69329834 171.82919312 C-211.5625 169.9375 -211.5625 169.9375 -209.03747559 168.31690979 C-205.44171615 165.78449607 -202.25941464 163.36587001 -200.99931717 158.97511292 C-200.1117866 153.07113448 -200.37020856 147.10992297 -200.5078125 141.16015625 C-200.51419229 139.2240039 -200.51556272 137.28782921 -200.51217651 135.35166931 C-200.51402191 130.26979206 -200.57194404 125.19023675 -200.64544678 120.10894775 C-200.75537271 111.98224616 -200.78747002 103.85518914 -200.80480576 95.72784233 C-200.82001211 92.90345062 -200.86388684 90.08061175 -200.91165161 87.25660706 C-201.05448347 74.06994531 -199.5620508 65.02444697 -190.12890625 55.140625 C-181.44423192 47.68528813 -171.45743552 46.76274487 -160.46533203 46.875 C-158.63469565 46.8844381 -156.80405795 46.89362244 -154.97341919 46.90258789 C-154.01181004 46.90888214 -153.05020088 46.91517639 -152.05945206 46.92166138 C-146.93417409 46.94881881 -141.80892358 46.93875039 -136.68359375 46.93359375 C-130.17656252 46.92738746 -123.67040129 46.93279394 -117.16357422 46.98876953 C-111.89007142 47.03314442 -106.61816103 47.03353044 -101.34457016 47.00463867 C-99.34238632 47.00156768 -97.34010984 47.01436402 -95.33813858 47.04370117 C-84.4234675 47.51759534 -84.4234675 47.51759534 -74.42150879 43.98858643 C-72.17896258 41.75498124 -70.40135785 39.50398225 -68.5625 36.9375 C-67.24587513 35.70919193 -65.90066379 34.50998758 -64.515625 33.359375 C-60.32702547 29.7590852 -56.31891768 25.98824657 -52.3125 22.1875 C-50.81662112 20.77971956 -49.32052633 19.37216852 -47.82421875 17.96484375 C-45.24713571 15.53662576 -42.68601257 13.09431809 -40.14453125 10.62890625 C-28.84877036 -0.23611439 -15.56268377 -7.15170659 0 0 Z M-30.5 20.3125 C-31.04922119 20.82562744 -31.59844238 21.33875488 -32.16430664 21.86743164 C-33.96754697 23.55340448 -35.76518332 25.24521519 -37.5625 26.9375 C-39.55211986 28.80499359 -41.5429829 30.67113592 -43.53540039 32.53564453 C-44.81245561 33.73128688 -46.08778265 34.9287787 -47.36108398 36.12841797 C-50.17785208 38.77050575 -53.01297374 41.34073674 -56.00390625 43.78515625 C-56.84824219 44.49542969 -57.69257813 45.20570312 -58.5625 45.9375 C-58.5625 46.2675 -58.5625 46.5975 -58.5625 46.9375 C-28.8625 46.9375 0.8375 46.9375 31.4375 46.9375 C29.7875 45.2875 28.1375 43.6375 26.4375 41.9375 C25.57511719 41.06351563 24.71273437 40.18953125 23.82421875 39.2890625 C19.21999048 34.63819226 14.60061382 30.07591052 9.61328125 25.83203125 C7.84844923 24.29532832 6.12843173 22.73269149 4.41796875 21.13671875 C3.88486084 20.64042969 3.35175293 20.14414062 2.80249023 19.6328125 C1.74783321 18.64814707 0.69640616 17.66000745 -0.35131836 16.66796875 C-4.63305136 12.68140564 -7.54385768 10.65430128 -13.4375 10.5625 C-14.25992188 10.53414062 -15.08234375 10.50578125 -15.9296875 10.4765625 C-21.90665079 11.52297447 -26.2310422 16.26960521 -30.5 20.3125 Z M-75.5625 131.9375 C-76.449375 132.783125 -77.33625 133.62875 -78.25 134.5 C-79.013125 135.304375 -79.77625 136.10875 -80.5625 136.9375 C-81.06910156 137.43765625 -81.57570312 137.9378125 -82.09765625 138.453125 C-98.05177003 155.17041962 -104.33570933 178.77387244 -103.80859375 201.34765625 C-102.81329583 224.9228473 -92.10476928 247.29280858 -74.95605469 263.45117188 C-57.98426923 278.56619784 -36.53329734 286.86757288 -13.83984375 287.30078125 C-11.08587274 286.86146855 -10.20795042 286.15436086 -8.5625 283.9375 C-8.15619496 281.22879971 -8.09559086 279.67662257 -9.57421875 277.3359375 C-12.66983761 275.1586653 -16.08233314 275.3062701 -19.75 275.0625 C-41.47147947 273.10793935 -60.24652688 263.55292995 -74.5625 246.9375 C-88.45303667 228.50892731 -94.0675133 207.03822643 -91.0625 184.125 C-86.81088118 162.48039509 -75.31644099 143.5857842 -56.88671875 131.12890625 C-37.80495023 119.37655875 -16.05054605 115.96269143 5.71484375 120.90625 C26.36630813 126.62711736 43.26615628 138.51738769 54.39453125 157.15234375 C64.56387462 175.27286919 67.41580451 196.47052694 62.41015625 216.6328125 C55.52066832 240.0404703 55.52066832 240.0404703 47.4375 245.21875 C43.29732856 246.70662411 39.63394111 246.44266402 35.625 244.75 C32.54496193 242.19796846 31.60358074 239.5093032 31.1859436 235.55674744 C31.18468475 234.73356522 31.1834259 233.910383 31.18212891 233.06225586 C31.17516998 232.12034897 31.16821106 231.17844208 31.16104126 230.20799255 C31.16203827 229.19962845 31.16303528 228.19126434 31.1640625 227.15234375 C31.14375921 224.99022933 31.12290817 222.82812 31.1015625 220.66601562 C31.07906127 217.27835804 31.06252763 213.89090246 31.05664062 210.50317383 C31.00417916 192.57578053 30.44626278 178.65576724 17.55859375 164.9375 C7.63687755 155.6371438 -4.0845182 152.28297293 -17.48828125 152.62890625 C-29.37827409 153.29763163 -39.34382685 159.1822614 -47.375 167.75 C-56.29888427 178.61019878 -58.8613976 191.16646519 -57.5625 204.9375 C-55.27908809 217.22167801 -48.01170045 226.85924411 -38.15625 234.28125 C-34.17946241 236.82064449 -30.05862445 238.54133504 -25.5625 239.9375 C-24.96179688 240.12828125 -24.36109375 240.3190625 -23.7421875 240.515625 C-12.28120531 242.73387962 -0.27831018 241.22861941 9.5859375 234.92578125 C14.2063393 231.6700543 14.2063393 231.6700543 18.4375 227.9375 C18.52386719 228.9275 18.61023438 229.9175 18.69921875 230.9375 C19.64646269 240.33615912 21.20116627 247.26002195 28.375 253.8125 C34.09395491 257.78075443 39.60129489 258.81886198 46.4375 257.9375 C54.39202386 255.83228263 59.35998835 251.22001759 63.45019531 244.19921875 C75.8196845 221.76738426 80.18578322 197.88982141 73.4375 172.9375 C68.73734835 156.75402329 61.11684215 144.75840994 49.4375 132.9375 C48.85484375 132.28265625 48.2721875 131.6278125 47.671875 130.953125 C34.52459048 116.47783194 12.55955329 108.01715624 -6.56420898 106.8112793 C-32.5198703 105.8571384 -56.92138619 113.43922997 -75.5625 131.9375 Z M-202.91015625 180.22265625 C-203.47605469 180.80917969 -204.04195312 181.39570313 -204.625 182 C-208.43185402 185.86123764 -212.45381172 189.40356207 -216.5625 192.9375 C-218.06361215 194.24872788 -219.56364686 195.56119046 -221.0625 196.875 C-222.22916667 197.89583333 -223.39583333 198.91666667 -224.5625 199.9375 C-223.13283611 203.24620306 -221.39307934 205.28594539 -218.75390625 207.72265625 C-218.00689453 208.41810547 -217.25988281 209.11355469 -216.49023438 209.83007812 C-215.70970703 210.54615234 -214.92917969 211.26222656 -214.125 212 C-212.58438003 213.42810996 -211.04400581 214.85648508 -209.50390625 216.28515625 C-208.47825562 217.22887085 -208.47825562 217.22887085 -207.43188477 218.19165039 C-206.23210869 219.31214128 -205.06434255 220.46851289 -203.94116211 221.66577148 C-202.63009301 223.16350866 -202.63009301 223.16350866 -200.5625 222.9375 C-200.5625 208.4175 -200.5625 193.8975 -200.5625 178.9375 C-201.75225254 178.82247893 -201.75225254 178.82247893 -202.91015625 180.22265625 Z M173.4375 178.9375 C173.4375 193.4575 173.4375 207.9775 173.4375 222.9375 C177.32885165 220.99182417 179.21987226 219.33576579 182.1875 216.25 C185.91215231 212.4316804 189.7113055 208.87812584 193.84375 205.5078125 C195.58846542 203.78875466 196.46978451 202.17292277 197.4375 199.9375 C197.03402344 199.59460938 196.63054687 199.25171875 196.21484375 198.8984375 C190.47365143 193.9495541 184.95576379 188.77466312 179.45483398 183.56201172 C178.82134033 182.96533691 178.18784668 182.36866211 177.53515625 181.75390625 C176.96289307 181.21193604 176.39062988 180.66996582 175.80102539 180.11157227 C174.61109284 178.82875011 174.61109284 178.82875011 173.4375 178.9375 Z M-228.5625 216.9375 C-228.5625 305.0475 -228.5625 393.1575 -228.5625 483.9375 C-224.71477551 483.9375 -224.14775412 482.96640359 -221.375 480.375 C-220.49070312 479.55515625 -219.60640625 478.7353125 -218.6953125 477.890625 C-217.65071646 476.90659511 -216.60647253 475.92219136 -215.5625 474.9375 C-214.31029703 473.76519631 -213.05766909 472.59334644 -211.8046875 471.421875 C-209.05915386 468.85250026 -206.31763547 466.27891971 -203.578125 463.703125 C-200.06960448 460.40784789 -196.54148111 457.13479115 -193 453.875 C-188.33612498 449.58162987 -183.6934489 445.26636637 -179.0625 440.9375 C-173.88477508 436.09786909 -168.6892974 431.27844145 -163.4765625 426.4765625 C-159.32278843 422.64698543 -155.18995863 418.79541031 -151.0625 414.9375 C-145.88475349 410.09789204 -140.68929757 405.27844161 -135.4765625 400.4765625 C-131.32278843 396.64698543 -127.18995863 392.79541031 -123.0625 388.9375 C-118.40989472 384.58873833 -113.74642309 380.25251361 -109.0625 375.9375 C-104.21698085 371.4713856 -99.38422788 366.99179537 -94.5625 362.5 C-93.62760742 361.63084961 -93.62760742 361.63084961 -92.67382812 360.74414062 C-89.23591303 357.53765955 -85.86481094 354.28359157 -82.5625 350.9375 C-83.32691406 350.23367188 -84.09132812 349.52984375 -84.87890625 348.8046875 C-90.95869405 343.2020476 -97.0225843 337.58311621 -103.0625 331.9375 C-107.71509804 327.58873296 -112.37844459 323.25236877 -117.0625 318.9375 C-122.3889067 314.03090861 -127.68593075 309.09355861 -132.9765625 304.1484375 C-136.99219951 300.39720457 -141.02080753 296.66063543 -145.0625 292.9375 C-150.3889067 288.03090861 -155.68593075 283.09355861 -160.9765625 278.1484375 C-164.99219951 274.39720457 -169.02080753 270.66063543 -173.0625 266.9375 C-178.3889067 262.03090861 -183.68593075 257.09355861 -188.9765625 252.1484375 C-193.51140725 247.91218335 -198.06458404 243.6964787 -202.63085938 239.49414062 C-205.61043905 236.74911581 -208.57690718 233.99093681 -211.53125 231.21875 C-212.20220703 230.5896875 -212.87316406 229.960625 -213.56445312 229.3125 C-214.86150556 228.09532469 -216.15716256 226.87666003 -217.45117188 225.65625 C-222.51557123 220.05466023 -222.51557123 220.05466023 -228.5625 216.9375 Z M184.25 231.625 C179.12898278 236.46492457 173.99850543 241.29221945 168.8125 246.0625 C164.1688222 250.33439312 159.54679858 254.62852732 154.9375 258.9375 C149.75979666 263.77715385 144.56429723 268.59655871 139.3515625 273.3984375 C135.19778843 277.22801457 131.06495863 281.07958969 126.9375 284.9375 C121.75975349 289.77710796 116.56429757 294.59655839 111.3515625 299.3984375 C107.19778843 303.22801457 103.06495863 307.07958969 98.9375 310.9375 C93.76353854 315.7735701 88.57290575 320.59062746 83.36254883 325.38745117 C79.75707212 328.71001538 76.17220566 332.05386292 72.59399414 335.40576172 C66.95974697 340.68302187 61.32162189 345.93693635 55.4375 350.9375 C56.54361998 352.04361998 57.6501291 353.1493519 58.7578125 354.25390625 C60.00767734 355.50667776 61.25152751 356.76545574 62.4921875 358.02734375 C63.23726563 358.78144531 63.98234375 359.53554688 64.75 360.3125 C65.44738281 361.02148438 66.14476562 361.73046875 66.86328125 362.4609375 C68.93973584 364.45861916 71.04430154 366.35873107 73.21875 368.24609375 C77.46108947 371.92974883 81.54986991 375.75821957 85.625 379.625 C90.74601722 384.46492457 95.87649457 389.29221945 101.0625 394.0625 C105.7061778 398.33439312 110.32820142 402.62852732 114.9375 406.9375 C119.59006524 411.28630174 124.2534449 415.62263151 128.9375 419.9375 C134.2639067 424.84409139 139.56093075 429.78144139 144.8515625 434.7265625 C148.86719951 438.47779543 152.89580753 442.21436457 156.9375 445.9375 C161.62155655 450.25236983 166.2847599 454.58888386 170.9375 458.9375 C185.00532575 472.13902149 185.00532575 472.13902149 199.4375 484.9375 C200.0975 484.6075 200.7575 484.2775 201.4375 483.9375 C201.4375 395.8275 201.4375 307.7175 201.4375 216.9375 C196.53342614 216.9375 187.81209891 228.24502095 184.25 231.625 Z M-32.125 321.9375 C-33.5516715 323.29079888 -34.97876005 324.64365822 -36.40625 325.99609375 C-37.11007813 326.66495605 -37.81390625 327.33381836 -38.5390625 328.02294922 C-41.37707534 330.70824081 -44.24772693 333.35691835 -47.125 336 C-51.78934847 340.29285169 -56.43155561 344.60863785 -61.0625 348.9375 C-66.24022492 353.77713091 -71.4357026 358.59655855 -76.6484375 363.3984375 C-80.80221157 367.22801457 -84.93504137 371.07958969 -89.0625 374.9375 C-94.24024651 379.77710796 -99.43570243 384.59655839 -104.6484375 389.3984375 C-108.80221157 393.22801457 -112.93504137 397.07958969 -117.0625 400.9375 C-122.24024651 405.77710796 -127.43570243 410.59655839 -132.6484375 415.3984375 C-136.80221157 419.22801457 -140.93504137 423.07958969 -145.0625 426.9375 C-150.24024651 431.77710796 -155.43570243 436.59655839 -160.6484375 441.3984375 C-164.80221157 445.22801457 -168.93504137 449.07958969 -173.0625 452.9375 C-178.2379756 457.77498535 -183.4305396 462.59299728 -188.6418457 467.3918457 C-192.86341261 471.28286631 -197.05818241 475.20197634 -201.25 479.125 C-206.95945677 484.4663172 -212.72020293 489.74129225 -218.5625 494.9375 C-218.2325 495.5975 -217.9025 496.2575 -217.5625 496.9375 C-213.63946573 498.07030067 -209.81011585 498.06375777 -205.74830723 498.06613445 C-205.07236286 498.06788749 -204.39641849 498.06964053 -203.69999096 498.07144669 C-201.43063451 498.07610574 -199.16134216 498.07364143 -196.89198303 498.07121277 C-195.25027283 498.07308078 -193.60856308 498.07538145 -191.96685404 498.07807809 C-187.45190302 498.08420357 -182.93697049 498.08406162 -178.42201626 498.08288372 C-173.55418367 498.0826799 -168.68635704 498.08819659 -163.81852722 498.09294128 C-154.28071215 498.10125221 -144.74290326 498.10399631 -135.20508487 498.10455366 C-127.45449108 498.10502856 -119.70389934 498.10708198 -111.9533062 498.11025429 C-89.98890358 498.11906162 -68.02450585 498.12367347 -46.06010146 498.12292381 C-44.87568057 498.12288386 -43.69125969 498.1228439 -42.47094727 498.12280273 C-41.28508396 498.12276185 -40.09922065 498.12272097 -38.87742209 498.12267885 C-19.65033526 498.12227223 -0.42326801 498.13184563 18.80381315 498.1459411 C38.53627835 498.16029319 58.268734 498.16721195 78.00120455 498.16634732 C89.08346766 498.16601498 100.16571025 498.16877857 111.24796867 498.17952538 C120.68186644 498.18861497 130.11573438 498.19081829 139.54963463 498.18401595 C144.36449212 498.18074311 149.17929234 498.18072158 153.99414444 498.1893692 C158.40015104 498.1972013 162.80605463 498.19583662 167.21205861 498.18708507 C168.80756435 498.18554281 170.40307766 498.18739339 171.99857449 498.19294515 C174.16499696 498.19998536 176.33105608 498.19472742 178.49746609 498.18638897 C180.30352736 498.18671502 180.30352736 498.18671502 182.14607471 498.18704766 C185.540915 497.92965933 188.26931759 497.15285397 191.4375 495.9375 C188.7614734 492.50884092 186.07329456 489.52682534 182.76171875 486.703125 C178.4787039 482.99935834 174.35693416 479.14695844 170.25 475.25 C165.12898278 470.41007543 159.99850543 465.58278055 154.8125 460.8125 C150.1688222 456.54060688 145.54679858 452.24647268 140.9375 447.9375 C136.28493476 443.58869826 131.6215551 439.25236849 126.9375 434.9375 C121.6110933 430.03090861 116.31406925 425.09355861 111.0234375 420.1484375 C107.00780049 416.39720457 102.97919247 412.66063543 98.9375 408.9375 C93.6110933 404.03090861 88.31406925 399.09355861 83.0234375 394.1484375 C79.00780049 390.39720457 74.97919247 386.66063543 70.9375 382.9375 C65.6110933 378.03090861 60.31406925 373.09355861 55.0234375 368.1484375 C51.00780049 364.39720457 46.97919247 360.66063543 42.9375 356.9375 C38.25344425 352.62263091 33.59014291 348.28621931 28.9375 343.9375 C23.71821735 339.05985283 18.4890797 334.19343253 13.23071289 329.35791016 C10.43267677 326.78449596 7.64735833 324.19899803 4.87890625 321.59375 C4.29254395 321.04477051 3.70618164 320.49579102 3.10205078 319.93017578 C1.98105377 318.88017207 0.86333345 317.82665501 -0.25048828 316.76904297 C-4.57062996 312.73480312 -7.48218373 310.65526194 -13.4375 310.5625 C-14.67113281 310.51996094 -14.67113281 310.51996094 -15.9296875 310.4765625 C-22.56455834 311.6381571 -27.43554263 317.43965854 -32.125 321.9375 Z " fill="#2E89BD" transform="translate(269.5625,2.0625)"/>
<path d="M0 0 C6.22423938 5.09140236 10.11674146 11.2486818 11.625 19.1875 C12.63797263 31.16277916 11.2514352 39.88086024 3.5078125 49.1796875 C-3.44052263 56.58932289 -11.24818742 59.29752779 -21.3125 59.625 C-31.09041683 59.38292025 -39.3230369 56.04273451 -46.375 49.1875 C-53.93772813 39.82652318 -55.36337045 31.08500929 -54.375 19.1875 C-52.24901216 10.16413116 -47.27875582 2.73856967 -39.4375 -2.1875 C-26.35627641 -9.34038303 -12.26484265 -8.56701556 0 0 Z " fill="#298DBF" transform="translate(277.375,172.8125)"/>
</svg>
