<?xml version="1.0" encoding="UTF-8"?>
<svg version="1.1" xmlns="http://www.w3.org/2000/svg" width="512" height="512">
<path d="M0 0 C3.34691609 2.3952351 6.19128005 5.18459146 9.07880637 8.10617332 C9.73686261 8.75986924 10.39491884 9.41356515 11.07291618 10.08707003 C13.27046369 12.27369178 15.4572003 14.47080793 17.6441178 16.66805725 C19.2355856 18.25606746 20.82770663 19.84342325 22.42042324 21.43018095 C26.79100402 25.78823633 31.15217643 30.15560169 35.51184914 34.5245655 C39.73341032 38.7522135 43.96200198 42.97281465 48.19037389 47.19364816 C57.37063561 56.35812159 66.54230921 65.53115179 75.71034406 74.70785507 C83.73286097 82.73792003 91.75816213 90.76518926 99.78624579 98.78968887 C100.31885889 99.32207281 100.85147198 99.85445675 101.40022487 100.40297353 C103.56229122 102.56410587 105.72436817 104.72522761 107.88646254 106.88633192 C128.16544337 127.15613717 148.43566796 147.4346787 168.7019848 167.71714486 C186.7075982 185.73699698 204.72095389 203.749075 222.74085853 221.75463562 C242.98782253 241.98553667 263.22993206 262.22127456 283.46423027 282.46484415 C285.62108926 284.6226653 287.77796007 286.78047463 289.93483588 288.93827896 C290.46590712 289.46958743 290.99697836 290.0008959 291.54414267 290.54830463 C299.56439193 298.5719665 307.58833678 306.59192003 315.61408088 314.61008529 C324.73878091 323.72621167 333.85811014 332.84767261 342.97037899 341.97622564 C347.62115803 346.63504146 352.27447068 351.29127236 356.93421981 355.941119 C361.19778954 360.19576493 365.45439909 364.45724634 369.70550895 368.7243408 C371.24645507 370.26864448 372.78994801 371.81041183 374.33619922 373.34940371 C376.43457705 375.43868235 378.52353523 377.53695139 380.61037681 379.63774376 C381.51769405 380.53452575 381.51769405 380.53452575 382.44334093 381.44942455 C388.21930804 387.30302289 392.16122466 393.32974434 392.34290931 401.74779968 C392.22919434 407.52831067 391.25396707 412.12157166 387.28822181 416.48217468 C381.98660082 421.32365498 377.5882479 423.77702198 370.28040931 423.87279968 C369.30458899 423.90115905 368.32876868 423.92951843 367.32337806 423.95873718 C359.29885046 422.81376226 353.97596019 417.95575682 348.48353431 412.34252624 C347.77035544 411.62993149 347.05717658 410.91733673 346.32238623 410.18314819 C343.9862766 407.84426974 341.66462701 405.49158259 339.34290931 403.13842468 C337.71854176 401.50659053 336.09328413 399.87564195 334.46717688 398.24554138 C330.20371827 393.96685976 325.95241264 389.67630013 321.70356604 385.38311462 C317.36018509 380.99870951 313.00536282 376.625701 308.65150306 372.25170593 C300.12076561 363.67815635 291.60282961 355.09200879 283.09290931 346.49779968 C280.31304856 347.86578194 277.72832356 349.32626418 275.14369056 351.03686218 C253.68580602 365.04970831 227.41581994 378.49779968 201.09290931 378.49779968 C201.09290931 393.01779968 201.09290931 407.53779968 201.09290931 422.49779968 C204.53728431 422.43979187 207.98165931 422.38178405 211.53040931 422.32201843 C214.88308773 422.28297417 218.23574039 422.25264287 221.58851478 422.22314148 C223.91057106 422.19806702 226.23254895 422.16399876 228.55433509 422.12060241 C231.90072372 422.05964163 235.24606483 422.03151819 238.59290931 422.00951843 C240.13869666 421.97080879 240.13869666 421.97080879 241.71571204 421.93131714 C249.29732149 421.9283967 254.10310649 423.71217006 259.6139054 428.94096069 C263.9753801 433.75447833 265.61222931 438.81632653 265.40150306 445.28686218 C264.40532728 452.42402029 261.5897585 457.85762306 255.97181556 462.34154968 C251.7550493 464.93648276 248.15914765 465.74898868 243.23052832 465.76522522 C241.47058791 465.77802017 241.47058791 465.77802017 239.67509314 465.79107361 C237.75725516 465.78971405 237.75725516 465.78971405 235.80067298 465.78832702 C234.43361908 465.7943148 233.06656856 465.80112092 231.69952247 465.80868225 C227.9927699 465.8263254 224.28610971 465.83103694 220.57931921 465.83231382 C218.26105319 465.83373707 215.94281052 465.83800999 213.62455031 465.84330826 C205.52992243 465.86180381 197.43536035 465.86997957 189.34071204 465.86840515 C181.80676934 465.86720426 174.27311335 465.88829729 166.73924318 465.91989248 C160.26177491 465.94608497 153.78440011 465.95677118 147.30687931 465.95549433 C143.44226783 465.95498551 139.57791117 465.96062365 135.71335265 465.98185043 C132.07624423 466.00128293 128.43963237 466.00132363 124.80250594 465.98681717 C122.84074975 465.9837451 120.87899325 466.00037092 118.91731116 466.01769714 C110.28431789 465.95641363 104.65125692 464.9770729 98.28040931 458.74779968 C94.28369732 452.80982758 91.88505058 446.78612903 93.09290931 439.49779968 C95.23329857 432.01917766 99.24651052 427.3496413 105.89472815 423.43752746 C108.45142531 422.34453322 110.27057062 422.25644742 113.04505774 422.2707489 C114.02577247 422.27089996 115.00648719 422.27105102 116.01692054 422.27120666 C117.5936756 422.28669052 117.5936756 422.28669052 119.20228431 422.30248718 C120.82520392 422.30673202 120.82520392 422.30673202 122.48090979 422.31106262 C125.93502234 422.32225359 129.38887518 422.34735648 132.84290931 422.37279968 C135.18535348 422.38283087 137.52780171 422.39195648 139.87025306 422.40014343 C145.61131892 422.42048739 151.35182355 422.45963884 157.09290931 422.49779968 C157.09290931 407.97779968 157.09290931 393.45779968 157.09290931 378.49779968 C153.46290931 378.16779968 149.83290931 377.83779968 146.09290931 377.49779968 C142.89610224 376.88474944 139.80082914 376.23547018 136.65540931 375.43529968 C135.80486976 375.21905945 134.9543302 375.00281921 134.07801673 374.78002624 C112.57817673 369.05095007 92.68800886 359.03801601 75.09290931 345.49779968 C74.17380774 344.80299499 73.25470618 344.1081903 72.30775306 343.39233093 C59.65677584 333.46159329 48.2144392 321.75543875 39.09290931 308.49779968 C38.68766028 307.90982605 38.28241126 307.32185241 37.86488196 306.7160614 C19.30703046 279.34594358 8.14076037 247.11162093 7.78040931 213.93529968 C7.7514054 213.04133484 7.72240149 212.14736999 7.69251868 211.2263153 C7.62476365 204.10161323 9.14454379 198.91447381 13.83900306 193.47436218 C14.39716712 193.02834655 14.95533118 192.58233093 15.53040931 192.12279968 C16.36378821 191.43057312 16.36378821 191.43057312 17.21400306 190.72436218 C22.88493581 187.02233955 28.50069223 186.65060712 35.09290931 187.49779968 C40.98276027 189.36389107 45.9445483 192.14504281 49.20228431 197.51342468 C51.98691011 203.71776638 52.15947894 210.23029166 52.46790931 216.93529968 C54.12964294 249.70967992 69.34408579 281.62977065 93.57728431 303.76733093 C119.98485782 326.07313637 152.93979105 338.56360903 187.78822181 336.25170593 C209.62583572 334.3324857 232.43960164 327.99925222 250.09290931 314.49779968 C250.31843977 312.11010024 250.31843977 312.11010024 247.52259681 309.7004364 C246.34281988 308.52097739 245.15750952 307.34703773 243.96790931 306.17748718 C243.34642005 305.55882782 242.72493079 304.94016845 242.08460853 304.30276184 C240.09200408 302.32138236 238.09256897 300.34705619 236.09290931 298.37279968 C234.74349649 297.03341366 233.39453213 295.69357567 232.04603431 294.35326843 C228.73351336 291.06283858 225.41484863 287.77871962 222.09290931 284.49779968 C220.36633094 285.22205139 220.36633094 285.22205139 218.6048722 285.96093445 C217.07101015 286.59970147 215.53707047 287.23828208 214.00306556 287.87670593 C213.24723182 288.19433899 212.49139808 288.51197204 211.71266028 288.83923034 C192.1151388 296.9735513 167.7829151 297.80630851 147.96790931 289.61986999 C124.87297476 279.35894119 107.61892508 263.1888318 98.09290931 239.49779968 C94.31773369 228.69502908 92.87691501 218.29464002 93.43972632 206.90449218 C96.55896087 173.87087644 96.55896087 173.87087644 85.38519141 144.65224914 C81.12056089 140.34315605 76.27292034 136.7483822 71.0748429 133.64111023 C68.51050351 131.79795192 66.96664681 130.3090576 64.97433326 127.93575744 C60.87233429 123.17584629 56.47210167 118.76581535 52.00819251 114.34716491 C51.12602057 113.46966583 50.24384864 112.59216675 49.33494422 111.68807678 C47.43175685 109.79533893 45.5277073 107.90351589 43.62223098 106.01308708 C40.60504989 103.01917226 37.59292395 100.02020541 34.58172461 97.02027588 C26.02396008 88.49578232 17.46193273 79.97560215 8.88954017 71.46581726 C4.14296396 66.75382281 -0.59818711 62.0364395 -5.33343014 57.31305538 C-8.32112381 54.33342658 -11.31524495 51.36046517 -14.31435767 48.39233272 C-16.6191883 46.10734757 -18.91410135 43.81243675 -21.21055749 41.51903991 C-22.03609628 40.705858 -22.86163507 39.89267608 -23.71219018 39.05485229 C-30.01614303 32.72871065 -34.44327495 27.23447659 -35.00084069 18.04858093 C-34.75206284 11.27975029 -32.20356884 5.81752494 -27.55162194 0.93920593 C-19.65892389 -5.97862206 -8.41341106 -5.43704192 0 0 Z M137.09290931 200.49779968 C136.46401921 214.26350505 137.48931327 225.76288998 147.09290931 236.49779968 C147.85603431 237.36404968 148.61915931 238.23029968 149.40540931 239.12279968 C158.7912106 247.41722873 169.38297858 252.04447627 182.06947181 251.83373718 C184.40127883 251.58900683 184.40127883 251.58900683 187.09290931 249.49779968 C180.72430014 243.10606931 174.35303032 236.71700675 167.9783015 230.3313797 C165.01867648 227.36652536 162.0599932 224.40074356 159.10340735 221.43285827 C156.25267976 218.57130352 153.3995504 215.71216431 150.54470488 212.85471801 C149.45333382 211.76149239 148.36284648 210.66738385 147.27323958 209.5723999 C145.75261667 208.04456883 144.22894493 206.51984427 142.70448157 204.99584655 C141.83622245 204.12536682 140.96796332 203.25488708 140.07339332 202.35802917 C138.42428198 200.38369444 138.42428198 200.38369444 137.09290931 200.49779968 Z " fill="#F37715" transform="translate(76.90709069371223,25.502200320363045)"/>
<path d="M0 0 C25.02144258 -0.87594091 47.05921902 9.52702574 65.12890625 26.34765625 C80.53015028 42.36640299 88.66167297 64.25864811 88.7434082 86.32348633 C88.7499794 87.10823837 88.7565506 87.89299042 88.76332092 88.70152283 C88.78290065 91.27757895 88.79468053 93.85357728 88.8046875 96.4296875 C88.80876303 97.3154566 88.81283855 98.2012257 88.81703758 99.11383629 C88.83783059 103.80025366 88.85216278 108.48664231 88.86157227 113.1730957 C88.87263742 117.99130888 88.90705806 122.8090604 88.94674397 127.62711048 C88.9729834 131.35309156 88.98127046 135.07896359 88.98485374 138.80502892 C88.98969879 140.58030003 89.00125278 142.35556696 89.01989174 144.13074684 C89.22594324 165.05078 89.22594324 165.05078 82.81611633 172.079422 C77.00047293 177.52805393 71.39878217 178.62645602 63.57421875 178.47265625 C57.59887898 177.85184173 53.99046724 175.55257144 49.75390625 171.41015625 C45.49546888 165.08333501 44.11850313 159.28330484 44.19750977 151.73144531 C44.19186005 150.52965637 44.19186005 150.52965637 44.18609619 149.30358887 C44.17969979 147.5772849 44.17995959 145.85094566 44.1862812 144.12464142 C44.19546012 141.38166602 44.18508931 138.63936435 44.16966248 135.89642334 C44.12975896 128.10250804 44.12835179 120.30864899 44.13061523 112.51464844 C44.13066665 107.73309901 44.11134241 102.95191308 44.08128166 98.17046356 C44.07055826 95.48727372 44.08252673 92.80480856 44.09510803 90.12164307 C44.06692911 76.3356496 41.9514322 64.88590019 32.56640625 54.16015625 C23.12884001 45.22335883 12.29987372 42.65220917 -0.31640625 42.8828125 C-9.73189242 43.31667603 -19.22406199 47.752004 -25.77832031 54.55615234 C-27.68242705 56.64909067 -29.56580206 58.74952942 -31.36523438 60.93359375 C-35.3333926 65.59004488 -39.41955567 67.72846822 -45.4609375 68.59375 C-51.93101442 68.60243467 -57.23978602 68.29897179 -62.43359375 64.16015625 C-67.29715837 59.15546141 -70.30896539 53.90382324 -70.49609375 46.78125 C-69.98441128 36.30774947 -64.03274267 29.9458369 -56.6484375 22.96875 C-40.69975274 8.61046073 -21.2460037 1.39821212 0 0 Z " fill="#F13B12" transform="translate(253.43359375,22.83984375)"/>
<path d="M0 0 C5.77640743 3.34486015 9.55512356 8.15945144 11.6875 14.4375 C11.94628906 17.36914062 11.94628906 17.36914062 11.953125 20.59375 C11.95699219 22.37652344 11.95699219 22.37652344 11.9609375 24.1953125 C11.95320313 25.43023437 11.94546875 26.66515625 11.9375 27.9375 C11.94910156 29.74347656 11.94910156 29.74347656 11.9609375 31.5859375 C11.91080514 54.89748722 11.91080514 54.89748722 4.15234375 63.05078125 C-1.0221706 67.98955463 -5.75296131 69.0419957 -12.6875 69.8125 C-19.3657492 69.12164663 -25.26117225 67.09659685 -29.8125 62 C-37.56650096 52.2849581 -34.22684685 38.50086319 -33 27.0625 C-32.88205078 25.83144531 -32.76410156 24.60039062 -32.64257812 23.33203125 C-32.51689453 22.14222656 -32.39121094 20.95242187 -32.26171875 19.7265625 C-32.09675903 18.12868896 -32.09675903 18.12868896 -31.9284668 16.49853516 C-30.57633665 9.77915036 -27.17854906 5.1410924 -21.59765625 1.23828125 C-14.88848055 -2.67197453 -7.14546827 -3.15602901 0 0 Z " fill="#F36814" transform="translate(415.3125,214.5625)"/>
</svg>
