<?xml version="1.0" encoding="UTF-8"?>
<svg version="1.1" xmlns="http://www.w3.org/2000/svg" width="512" height="512">
<path d="M0 0 C3.2159958 0.41773526 4.84314268 1.46105785 7.13208008 3.7121582 C7.71560745 4.27977371 8.29913483 4.84738922 8.90034485 5.4322052 C9.51717636 6.0488353 10.13400787 6.66546539 10.76953125 7.30078125 C11.40992844 7.93356491 12.05032562 8.56634857 12.71012878 9.2183075 C14.05955656 10.5569396 15.40503779 11.8995602 16.74682617 13.24584961 C18.80845858 15.30845666 20.89049643 17.34881283 22.97460938 19.38867188 C24.2825485 20.69140595 25.58923342 21.9954007 26.89453125 23.30078125 C27.52148392 23.91133865 28.14843658 24.52189606 28.79438782 25.1509552 C30.51489258 26.8996582 30.51489258 26.8996582 33 30 C32.5710166 34.68962805 29.09425117 37.31600188 25.9111166 40.45802689 C25.26500401 41.10760101 24.61889142 41.75717514 23.95319965 42.42643332 C21.76840015 44.61922567 19.57298977 46.8010816 17.37754822 48.98321533 C15.80037006 50.56170072 14.22385088 52.14084477 12.64793783 53.72059321 C8.30153094 58.0737333 3.94578252 62.41742183 -0.4114877 66.75968456 C-4.62195927 70.95856598 -8.82539736 75.16447314 -13.02899309 79.37023548 C-21.63021257 87.97539978 -30.23840678 96.57355482 -38.85057259 105.16776276 C-47.3799607 113.67941107 -55.90624961 122.19414422 -64.42840385 130.71303558 C-64.95791958 131.24234509 -65.48743531 131.77165461 -66.03299698 132.3170038 C-68.72202922 135.00502107 -71.41100606 137.69309375 -74.09996157 140.38118777 C-93.15512923 159.43005108 -112.2172457 178.4719468 -131.28344727 197.50976562 C-149.80812412 216.00689765 -168.32965348 234.50717202 -186.84692383 253.01171875 C-187.41752166 253.581922 -187.98811949 254.15212526 -188.57600817 254.7396074 C-194.30608562 260.46572935 -200.03609907 266.19191535 -205.76606562 271.91814827 C-217.43908606 283.5835597 -229.11253371 295.24854358 -240.78623962 306.91326904 C-241.59137884 307.71779046 -241.59137884 307.71779046 -242.4127835 308.53856483 C-278.26803475 344.36620543 -314.13327466 380.18384642 -350 416 C-352.83374242 414.63441112 -354.89648438 413.35003769 -357.11621094 411.11083984 C-357.69651062 410.5303891 -358.2768103 409.94993835 -358.87469482 409.35189819 C-359.48838928 408.72788116 -360.10208374 408.10386414 -360.734375 407.4609375 C-361.37240051 406.82008209 -362.01042603 406.17922668 -362.66778564 405.51895142 C-364.69994069 403.47562179 -366.72502218 401.42544018 -368.75 399.375 C-370.1284453 397.9865214 -371.50734636 396.5984951 -372.88671875 395.2109375 C-376.26311894 391.81251303 -379.63319288 388.40792746 -383 385 C-381.39140496 380.98428745 -378.56359635 378.29520386 -375.54052734 375.31347656 C-374.98428177 374.75693893 -374.42803619 374.20040131 -373.85493469 373.6269989 C-372.01997095 371.79342558 -370.17803069 369.96703328 -368.3359375 368.140625 C-367.06040611 366.86882475 -365.78531633 365.59658147 -364.51065063 364.32391357 C-361.15804605 360.97893742 -357.79947827 357.64001149 -354.43963623 354.30230713 C-351.01082544 350.89397169 -347.58768427 347.47995255 -344.1640625 344.06640625 C-337.44824728 337.37202703 -330.72611906 330.68402534 -324 324 C-324.22957901 323.30453568 -324.45915802 322.60907135 -324.69569397 321.89253235 C-325.75305439 318.67661025 -326.80038737 315.45750315 -327.84765625 312.23828125 C-328.20879517 311.14487427 -328.56993408 310.05146729 -328.9420166 308.92492676 C-335.40181375 288.98541601 -337.18410342 269.10552377 -337.0625 248.25 C-337.041875 243.2175 -337.02125 238.185 -337 233 C-321.82 233 -306.64 233 -291 233 C-290.896875 238.053125 -290.79375 243.10625 -290.6875 248.3125 C-290.3714599 260.75076038 -289.53200664 272.78585475 -287 285 C-278.53768251 285 -267.65220324 272.89685653 -261.95739746 267.48394775 C-245.95947721 250.7500549 -245.42026149 232.65308713 -245.40625 210.609375 C-245.40553371 209.7346863 -245.40481743 208.8599976 -245.40407944 207.95880318 C-245.42442115 197.01693123 -245.75214594 186.09209796 -246.1878252 175.15980768 C-246.6288171 163.93395678 -246.80753596 152.70429945 -246.99542904 141.47188234 C-247.04115743 138.74900088 -247.08779595 136.02613767 -247.13513184 133.30328369 C-247.15035244 132.41932553 -247.16557303 131.53536736 -247.18125486 130.62462258 C-247.27628265 125.43876999 -247.41453965 120.25643708 -247.5959816 115.07289648 C-247.70808358 111.84496735 -247.80461681 108.61664804 -247.90027046 105.38819504 C-247.9486026 103.91104348 -248.00465698 102.43411737 -248.06970024 100.95760727 C-249.05078208 78.60011092 -241.34535929 58.63948314 -226.625 41.8125 C-225.10038868 40.19211513 -223.55875245 38.58756972 -222 37 C-221.26394531 36.23945312 -220.52789062 35.47890625 -219.76953125 34.6953125 C-203.9173579 19.34764718 -182.28351862 12.29061287 -160.5 11.75 C-135.7171713 12.39933176 -113.6432278 21.67161254 -96.42529297 39.46923828 C-87.07980458 49.5062736 -80.04167013 61.8798045 -76 75 C-71.06235378 70.86612514 -66.44430322 66.56261474 -61.93481445 61.96899414 C-61.26722107 61.29351532 -60.59962769 60.6180365 -59.9118042 59.92208862 C-58.47472125 58.4679171 -57.03869427 57.01270138 -55.60363197 55.55653572 C-52.55291897 52.46357049 -49.49271953 49.38006446 -46.43307018 46.29594326 C-40.7463731 40.56356055 -35.06368007 34.82734252 -29.3972168 29.07495117 C-25.44471339 25.0632408 -21.48026384 21.06369141 -17.50749779 17.07205009 C-15.99624818 15.54902778 -14.48955324 14.02147229 -12.98748207 12.48939705 C-10.89529285 10.3564385 -8.78826486 8.2392999 -6.67700195 6.12524414 C-6.05717941 5.48587418 -5.43735687 4.84650421 -4.79875183 4.1877594 C-3.05342102 2.45887756 -3.05342102 2.45887756 0 0 Z " fill="#006185" transform="translate(431,0)"/>
<path d="M0 0 C15.18 0 30.36 0 46 0 C46 35.99667197 43.66134528 67.43625192 28 100 C27.52336914 101.00812744 27.52336914 101.00812744 27.03710938 102.03662109 C16.05696658 124.97688985 -0.68124615 145.67864216 -21 161 C-21.90621094 161.721875 -22.81242188 162.44375 -23.74609375 163.1875 C-43.95437393 178.98121694 -67.56255216 189.59299541 -92.5 195.3125 C-93.24185547 195.48426758 -93.98371094 195.65603516 -94.74804688 195.83300781 C-95.46025391 195.98737305 -96.17246094 196.14173828 -96.90625 196.30078125 C-97.52822266 196.43653564 -98.15019531 196.57229004 -98.79101562 196.7121582 C-101.83643038 197.10899109 -104.92883941 197 -108 197 C-108 224.06 -108 251.12 -108 279 C-123.18 279 -138.36 279 -154 279 C-154 251.94 -154 224.88 -154 197 C-157.63 196.67 -161.26 196.34 -165 196 C-168.72324512 195.34587624 -172.3468643 194.40707359 -176 193.4375 C-176.99257812 193.17501465 -177.98515625 192.9125293 -179.0078125 192.64208984 C-188.74041303 189.96157982 -197.89898147 186.34541882 -207 182 C-207.66435059 181.68305176 -208.32870117 181.36610352 -209.01318359 181.03955078 C-224.50686534 173.50176715 -238.13790788 163.38647539 -251 152 C-249.70280076 149.14220983 -248.3363174 147.08991464 -246.11083984 144.88378906 C-245.24016373 144.01333954 -245.24016373 144.01333954 -244.35189819 143.12530518 C-243.72788116 142.51161072 -243.10386414 141.89791626 -242.4609375 141.265625 C-241.82008209 140.62759949 -241.17922668 139.98957397 -240.51895142 139.33221436 C-238.47562179 137.30005931 -236.42544018 135.27497782 -234.375 133.25 C-232.9865214 131.8715547 -231.5984951 130.49265364 -230.2109375 129.11328125 C-226.81251303 125.73688106 -223.40792746 122.36680712 -220 119 C-215.97954839 120.51053574 -213.40072612 122.19336738 -210.1875 125.0625 C-183.88734616 147.0499942 -148.94696811 154.38007715 -115.46679688 151.80517578 C-83.71267696 148.54577934 -52.26279549 131.64283411 -32 107 C-31.24847656 106.12085938 -30.49695313 105.24171875 -29.72265625 104.3359375 C-8.37531399 78.23350004 -1.40078976 47.34291688 -0.4375 14.375 C-0.293125 9.63125 -0.14875 4.8875 0 0 Z " fill="#004365" transform="translate(401,233)"/>
<path d="M0 0 C0.09325115 11.44086982 0.16404197 22.88164716 0.20724869 34.32282162 C0.22800028 39.63714595 0.25608697 44.95120763 0.30175781 50.26538086 C0.34566372 55.40718173 0.36923018 60.54873219 0.37950897 65.69070625 C0.38682094 67.63882952 0.40109572 69.58694125 0.42292023 71.53495598 C0.67730276 95.21236217 -4.52508312 114.91942776 -19 134 C-19.75410156 135.01513672 -19.75410156 135.01513672 -20.5234375 136.05078125 C-33.87292391 152.83409509 -56.06311223 162.99379783 -76.90429688 165.77294922 C-99.81099617 168.25468621 -122.86362419 162.3038493 -141.1875 148.125 C-142.46492463 147.09142701 -143.73842965 146.05286612 -145 145 C-141.18879996 140.44850271 -137.25221916 136.10715026 -133.04618835 131.91920471 C-132.47823715 131.34969351 -131.91028594 130.78018231 -131.32512408 130.1934132 C-129.44135568 128.30568944 -127.55407333 126.42152062 -125.66674805 124.53735352 C-124.30768999 123.17693908 -122.94884447 121.8163123 -121.5901947 120.45549011 C-117.91524687 116.77599868 -114.23716154 113.09965883 -110.55835319 109.42402768 C-106.70828589 105.57649678 -102.86066419 101.72652146 -99.01264954 97.87693787 C-92.557675 91.42014669 -86.10060032 84.96546139 -79.64233398 78.51196289 C-72.1660964 71.04118078 -64.69348678 63.56678432 -57.22272462 56.09052712 C-50.80919155 49.672465 -44.39372305 43.25634243 -37.9766143 36.84185547 C-34.14316319 33.0099665 -30.31039845 29.17739758 -26.47937584 25.34308052 C-22.88408328 21.7449118 -19.28637729 18.1491742 -15.6867466 14.55534554 C-14.36237752 13.23230484 -13.03887 11.90840111 -11.71626282 10.58359909 C-9.91943017 8.78405835 -8.11958567 6.9875872 -6.31889343 5.19190979 C-5.78894813 4.65973376 -5.25900282 4.12755774 -4.71299857 3.57925516 C-1.11415072 0 -1.11415072 0 0 0 Z " fill="#005276" transform="translate(358,176)"/>
</svg>
