<?xml version="1.0" encoding="UTF-8"?>
<svg version="1.1" xmlns="http://www.w3.org/2000/svg" width="512" height="512">
<path d="M0 0 C11.84817723 8.92134877 20.47231419 21.21226518 23 36 C23.0901106 37.87374479 23.13077205 39.75022297 23.13422108 41.6261301 C23.13867892 42.75382173 23.14313676 43.88151336 23.14772969 45.04337746 C23.14754533 46.27740411 23.14736097 47.51143077 23.14717102 48.78285217 C23.15084771 50.09764492 23.1545244 51.41243767 23.1583125 52.76707262 C23.16831299 56.41531838 23.17204614 60.0635477 23.17470181 63.71180522 C23.17861066 67.6472327 23.18818859 71.58264722 23.19691467 75.51806641 C23.21666262 85.02149604 23.22674315 94.52492671 23.23564246 104.02837172 C23.24002807 108.50621924 23.24539417 112.98406557 23.25063133 117.46191216 C23.2676419 132.35154633 23.28213546 147.24117978 23.28938007 162.13082218 C23.29128989 165.99338342 23.29321024 169.85594465 23.29516602 173.71850586 C23.29564976 174.6784992 23.2961335 175.63849254 23.2966319 176.62757658 C23.30492996 192.17441818 23.33026388 207.72118279 23.36274669 223.26799078 C23.39584016 239.2375438 23.4138309 255.20705773 23.41702431 271.17664522 C23.41918728 280.13973958 23.42790475 289.10272165 23.45348549 298.06578255 C23.47522374 305.70002308 23.48322756 313.33412405 23.47351871 320.96839202 C23.46898304 324.86055968 23.47081713 328.75243956 23.49028015 332.64456749 C23.50797773 336.21462526 23.50686149 339.78418672 23.49138286 343.35425024 C23.48790423 345.24299564 23.50398379 347.13174664 23.52098733 349.0204187 C23.40743234 364.18525906 17.75317395 376.68721632 7.44140625 387.64453125 C-5.18155951 399.82316862 -19.88545833 403.52481607 -36.86328125 403.27734375 C-59.22415007 402.45431965 -77.76249427 383.88881942 -94.89233398 371.23242188 C-100.23681258 367.28673834 -105.60831569 363.3808796 -111 359.5 C-117.99703598 354.46360458 -124.94634715 349.36582468 -131.87915039 344.24145508 C-137.37215886 340.18621772 -142.89557688 336.17557456 -148.4375 332.1875 C-167.62618748 318.37381252 -167.62618748 318.37381252 -170 316 C-170.1202618 312.95911481 -170.17458961 309.94026502 -170.18754578 306.8981781 C-170.19545586 305.93108274 -170.20336594 304.96398738 -170.21151572 303.9675861 C-170.23674202 300.70032996 -170.25454539 297.43307664 -170.2722168 294.16577148 C-170.28829237 291.83380429 -170.30467208 289.50183917 -170.32133484 287.1698761 C-170.46611944 265.85969242 -170.54131958 244.54891379 -170.60025311 223.23832607 C-170.60828201 220.38536476 -170.61645028 217.53240388 -170.62475586 214.67944336 C-170.62681346 213.97034103 -170.62887106 213.2612387 -170.63099102 212.53064842 C-170.66538885 201.05128023 -170.7380193 189.57247155 -170.82566347 178.09339976 C-170.9148894 166.30957381 -170.96618902 154.52603769 -170.98155528 142.74188095 C-170.99120796 136.12482029 -171.01911482 129.50865528 -171.08786583 122.89190483 C-171.15185932 116.66418553 -171.16867757 110.43811261 -171.14937019 104.21011162 C-171.15052438 101.92517593 -171.16879765 99.64017458 -171.205513 97.3555336 C-171.46886982 80.07507783 -171.46886982 80.07507783 -167.8149662 74.91319466 C-165.28404763 72.85187562 -162.93078326 71.41127848 -160 70 C-158.85898486 69.19858494 -157.73245602 68.37570481 -156.62890625 67.5234375 C-155.61699219 66.81445312 -154.60507813 66.10546875 -153.5625 65.375 C-147.9057069 61.38220208 -142.31648925 57.30517698 -136.75 53.1875 C-130.52686173 48.58694958 -124.28146939 44.02058715 -118 39.5 C-111.80341557 35.03984347 -105.64033128 30.53728009 -99.5 26 C-91.04857325 19.75890641 -82.56427902 13.56671222 -74.01904297 7.45458984 C-72.1477011 6.10640909 -70.29296176 4.73843767 -68.44140625 3.36328125 C-47.61392264 -11.89363313 -22.16794122 -13.73543025 0 0 Z " fill="#3582BA" transform="translate(304,59)"/>
<path d="M0 0 C0 73.26 0 146.52 0 222 C-75.35902918 222 -75.35902918 222 -93.1875 205.25 C-101.62356148 196.42819415 -108.09179765 183.95171662 -108.14717102 171.58850098 C-108.15432632 170.4896759 -108.16148163 169.39085083 -108.16885376 168.25872803 C-108.17288712 166.45713226 -108.17288712 166.45713226 -108.17700195 164.61914062 C-108.18357315 163.35036072 -108.19014435 162.08158081 -108.19691467 160.77435303 C-108.21791799 156.56833146 -108.22831772 152.36230971 -108.23828125 148.15625 C-108.24233105 146.70407594 -108.24644803 145.25190207 -108.25063133 143.79972839 C-108.2696796 136.97174763 -108.28390798 130.14377761 -108.2922433 123.31577539 C-108.30199643 115.45765754 -108.32826676 107.59982281 -108.36874419 99.7418046 C-108.39901576 93.654111 -108.41372282 87.56649801 -108.41702431 81.47873068 C-108.41936343 77.84981296 -108.42817284 74.22119779 -108.45348549 70.59236145 C-108.48134027 66.53340197 -108.4769016 62.47506495 -108.4699707 58.41601562 C-108.48278076 57.23114563 -108.49559082 56.04627563 -108.50878906 54.82550049 C-108.40655359 38.31510242 -101.56499115 25.42847354 -90 14 C-66.2554634 -7.53464904 -27.88486224 0 0 0 Z " fill="#3582BA" transform="translate(108,145)"/>
<path d="M0 0 C4.07632227 2.48494421 7.45203176 5.20599804 10.81201172 8.58496094 C11.71249237 9.48559265 12.61297302 10.38622437 13.54074097 11.31414795 C14.50383213 12.28744914 15.46681175 13.2608607 16.4296875 14.234375 C17.429584 15.23800692 18.4299269 16.24119429 19.43069458 17.24395752 C22.0490191 19.86987681 24.66127845 22.5017485 27.27227783 25.13494873 C29.94347372 27.82669306 32.6204208 30.51270462 35.296875 33.19921875 C40.53686336 38.4605836 45.77045111 43.7282565 51 49 C56.84771534 44.15515727 62.18038463 38.91884035 67.51171875 33.515625 C69.33905966 31.67564911 71.16653765 29.83580934 72.99414062 27.99609375 C75.85381116 25.11265106 78.71091951 22.22668865 81.56567383 19.33837891 C84.33408468 16.53804691 87.11044655 13.74566365 89.88671875 10.953125 C90.74093918 10.08544495 91.59515961 9.21776489 92.4752655 8.3237915 C93.27322037 7.52245789 94.07117523 6.72112427 94.89331055 5.89550781 C95.59167526 5.18968567 96.29003998 4.48386353 97.00956726 3.75665283 C101.0742745 0.16935277 104.46118937 -0.44209432 109.75 -0.3203125 C114.05262918 0.29221457 116.79660472 2.67310592 119.63671875 5.8046875 C121.31246086 8.50316047 121.43307433 10.2150744 121.4375 13.375 C121.45683594 14.29023438 121.47617187 15.20546875 121.49609375 16.1484375 C120.10705746 24.13266186 112.47532392 29.78138785 106.984375 35.2109375 C106.00316325 36.18841364 105.02239617 37.16633634 104.04205322 38.14468384 C101.47531779 40.70382595 98.90263123 43.25690147 96.32861328 45.80871582 C93.69719062 48.41958685 91.07150336 51.03621215 88.4453125 53.65234375 C83.30243793 58.77384441 78.15325601 63.88894301 73 69 C74.500702 72.51658524 76.52319525 74.75532904 79.234375 77.4296875 C80.54583496 78.73123779 80.54583496 78.73123779 81.88378906 80.05908203 C82.58429382 80.74722992 82.58429382 80.74722992 83.2989502 81.44927979 C84.76624965 82.890966 86.22713429 84.33888381 87.68652344 85.78857422 C90.7854567 88.8646907 93.89214597 91.9329 97 95 C100.60233902 98.55510069 104.20140321 102.11338874 107.79211426 105.68023682 C109.22943869 107.10462376 110.67266726 108.52283834 112.11621094 109.94091797 C112.99051758 110.80861816 113.86482422 111.67631836 114.765625 112.5703125 C115.53680664 113.33102051 116.30798828 114.09172852 117.10253906 114.87548828 C121.17244933 119.43240531 121.4901926 123.33909564 121.38671875 129.30078125 C120.77277065 133.58601495 119.21445287 135.15082587 116 138 C113.14276596 139.69905481 110.94393515 140.31677307 107.625 140.375 C106.89539063 140.40335938 106.16578125 140.43171875 105.4140625 140.4609375 C100.01028811 139.42914886 95.95299367 135.20131567 92.18798828 131.41503906 C91.28750763 130.51440735 90.38702698 129.61377563 89.45925903 128.68585205 C88.49616787 127.71255086 87.53318825 126.7391393 86.5703125 125.765625 C85.570416 124.76199308 84.5700731 123.75880571 83.56930542 122.75604248 C80.9509809 120.13012319 78.33872155 117.4982515 75.72772217 114.86505127 C73.05652628 112.17330694 70.3795792 109.48729538 67.703125 106.80078125 C62.46313664 101.5394164 57.22954889 96.2717435 52 91 C46.24950526 95.76606766 41.00954648 100.90528307 35.77734375 106.23046875 C34.00484773 108.02046994 32.23205231 109.81017469 30.45898438 111.59960938 C27.68864464 114.40096864 24.92070365 117.20457666 22.15795898 120.01342773 C19.4753413 122.73838126 16.78336113 125.45379452 14.08984375 128.16796875 C12.85680763 129.42893623 12.85680763 129.42893623 11.59886169 130.71537781 C3.21065192 139.14084125 3.21065192 139.14084125 -3.125 140.43359375 C-9.1079693 140.44605827 -12.41745625 138.40443729 -16.8125 134.3125 C-18.64976895 130.73466046 -19.29849067 127.01015727 -19 123 C-17.08609285 118.55972779 -14.85812479 115.48942787 -11.43676758 112.09619141 C-10.51603958 111.17569 -9.59531158 110.2551886 -8.64668274 109.30679321 C-7.6461264 108.32155295 -6.64540541 107.33647989 -5.64453125 106.3515625 C-4.6168322 105.32946512 -3.58979826 104.30669858 -2.56340027 103.28329468 C0.12775578 100.60354243 2.82780071 97.93292602 5.52984619 95.26416016 C8.29033495 92.53446885 11.04225339 89.79616698 13.79492188 87.05859375 C19.18829919 81.69730172 24.59110341 76.3456394 30 71 C28.48911302 67.44153507 26.41913676 65.19275262 23.67382812 62.49438477 C22.77950073 61.60989151 21.88517334 60.72539825 20.96374512 59.81410217 C20.48594101 59.34615801 20.0081369 58.87821384 19.51585388 58.39608955 C18.01459329 56.92508523 16.52018872 55.44742252 15.02746582 53.96775818 C10.78345369 49.76342262 6.52683819 45.57192963 2.26708984 41.38354492 C-0.34158143 38.81765372 -2.94285023 36.24444029 -5.53993225 33.66682243 C-6.52898182 32.68831886 -7.52093407 31.71274001 -8.51585388 30.74020576 C-9.90863396 29.37871733 -11.29145045 28.00705899 -12.67382812 26.63500977 C-13.46277466 25.85875748 -14.25172119 25.08250519 -15.0645752 24.2827301 C-17.94791591 20.88198386 -18.88638147 18.0225668 -19.375 13.625 C-18.81755371 8.23635257 -16.95369258 4.78130794 -12.875 1.0625 C-8.62843887 -0.50688129 -4.45651599 -0.85109403 0 0 Z " fill="#3582BA" transform="translate(391,186)"/>
</svg>
