<?xml version="1.0" encoding="UTF-8"?>
<svg version="1.1" xmlns="http://www.w3.org/2000/svg" width="512" height="512">
<path d="M0 0 C2.90628689 1.10576524 4.47955325 2.76153443 6.68203288 4.95654267 C7.58932983 5.85354958 8.49662679 6.7505565 9.43141758 7.67474544 C10.43448302 8.68153359 11.43740243 9.68846724 12.44019157 10.69553059 C13.50792709 11.75694798 14.57630876 12.81771571 15.64528179 13.87788677 C18.5865997 16.79886195 21.51842656 19.72920609 24.44877952 22.66117579 C27.60837316 25.81932757 30.77651052 28.9688888 33.94348747 32.11963338 C40.86845225 39.01245098 47.78221915 45.91642921 54.6939798 52.82248348 C59.00717037 57.13192651 63.32288437 61.4388361 67.6391719 65.74517697 C79.58266171 77.66172613 91.52393087 89.58048627 103.45517284 101.50929993 C104.21892762 102.27289914 104.9826824 103.03649835 105.76958127 103.82323693 C107.31796304 105.37132764 108.86634197 106.9194212 110.41471807 108.46751758 C111.56768702 109.62027225 111.56768702 109.62027225 112.74394828 110.7963149 C113.89831665 111.95047377 113.89831665 111.95047377 115.0760056 113.12794898 C127.55616104 125.6049668 140.05296753 138.06516028 152.55725674 150.51798709 C165.3860182 163.29436931 178.20171602 176.08372948 191.00403404 188.88661003 C198.19606463 196.07838754 205.39353459 203.26452643 212.60520965 210.43660992 C218.74378013 216.54165172 224.87025426 222.65851302 230.98112694 228.79128417 C234.10130398 231.92193388 237.22694339 235.0465783 240.36794883 238.15634221 C243.24057805 241.00067613 246.09671772 243.86053157 248.94032224 246.7338746 C249.97443285 247.77304735 251.01455337 248.80627912 252.06102011 249.83300795 C253.47761948 251.22459832 254.87089497 252.63981535 256.2627061 254.05619782 C257.43563739 255.22758137 257.43563739 255.22758137 258.63226426 256.42262924 C260.15776664 258.8209731 260.15776664 258.8209731 260.03353214 261.99743366 C258.35407629 267.41213635 252.89462706 269.26390685 248.15776664 271.8209731 C247.2721807 272.29921529 246.38659477 272.77745747 245.47417289 273.27019185 C231.96914223 279.95247299 218.23157253 280.26148772 203.52300102 280.20915669 C201.58308205 280.21323045 199.64316541 280.21857681 197.70325309 280.22508687 C192.4739113 280.23867062 187.24474865 280.23349902 182.01540405 280.22394961 C176.51935594 280.21630638 171.02332225 280.22341149 165.52727348 280.22810811 C156.30104944 280.23355215 147.07489766 280.22640961 137.84868461 280.21208638 C127.21154693 280.19576252 116.57458182 280.20105198 105.93744832 280.2175656 C96.77267694 280.23121907 87.60795723 280.2330813 78.44317895 280.22524959 C72.98344471 280.22059425 67.52379133 280.21988894 62.06406242 280.22985905 C56.92897827 280.23858285 51.79411465 280.23240878 46.6590541 280.21517628 C44.78468469 280.21124018 42.91029643 280.21229556 41.03593475 280.21896428 C17.83411739 280.29384525 -0.69631109 275.43482901 -18.02973336 259.1334731 C-30.70732335 245.91255782 -36.95022387 229.05836716 -36.97594613 210.83386678 C-36.97821168 210.16665 -36.98047724 209.49943323 -36.98281145 208.81199777 C-36.98909821 206.59532633 -36.98832553 204.37871687 -36.98749703 202.16203755 C-36.99049191 200.56473146 -36.9938952 198.96742609 -36.99767464 197.37012166 C-37.00648685 193.04341827 -37.00885163 188.71673467 -37.00949043 184.39002317 C-37.01020268 181.68209522 -37.01234034 178.97417225 -37.01498765 176.26624554 C-37.02423291 166.80539954 -37.02832369 157.34456761 -37.02753609 147.88371724 C-37.02693599 139.08772775 -37.03747663 130.29179972 -37.05327976 121.49582577 C-37.06639133 113.92613004 -37.07171845 106.35645432 -37.07108068 98.78674734 C-37.0708267 94.27377899 -37.07362263 89.76086526 -37.08425874 85.24790829 C-37.09400041 80.99858757 -37.09397766 76.74937299 -37.0867421 72.50004834 C-37.08570366 70.9489635 -37.08801463 69.39787184 -37.09410256 67.8467986 C-37.17707946 45.22309496 -31.90767988 26.98329692 -16.25629586 10.12175435 C-5.11467427 -0.49704034 -5.11467427 -0.49704034 0 0 Z " fill="#FEAB00" transform="translate(52.84223335981369,120.17902690172195)"/>
<path d="M0 0 C5.91726756 4.79942646 9.66263052 11.02002167 11.6875 18.3125 C11.8748239 21.18360541 11.96630197 23.95607024 11.95492554 26.82525635 C11.95945665 27.66862258 11.96398776 28.51198881 11.96865618 29.38091159 C11.98129031 32.19963519 11.97968044 35.01816532 11.97802734 37.83691406 C11.98401325 39.86095935 11.99081894 41.88500235 11.99838257 43.90904236 C12.01604454 49.40299716 12.02073807 54.89688965 12.02201414 60.39087009 C12.02343632 63.82527119 12.02770721 67.25965648 12.03300858 70.69405365 C12.05151032 82.68129989 12.05967911 94.66850167 12.05810547 106.65576172 C12.05690441 117.81997248 12.0779995 128.98398981 12.1095928 140.14815164 C12.1357688 149.74071543 12.14647219 159.33321611 12.14519465 168.92581534 C12.14468536 174.6516244 12.15035043 180.37726157 12.17155075 186.10303497 C12.190955 191.49082601 12.19104246 196.87828161 12.17651749 202.26608467 C12.17443094 204.23888961 12.17912104 206.21171566 12.1912384 208.18448448 C12.26567316 221.14672011 11.96289849 231.64839988 2.61328125 241.55859375 C-4.20046072 247.7642127 -11.37934549 250.59149113 -20.625 250.6875 C-21.85863281 250.71585937 -23.09226562 250.74421875 -24.36328125 250.7734375 C-33.12898065 249.75033905 -39.81037366 244.87680437 -46.8125 239.8125 C-47.67979736 239.1952002 -48.54709473 238.57790039 -49.44067383 237.94189453 C-51.21737769 236.67692423 -52.99189112 235.40887152 -54.76416016 234.13769531 C-57.80347549 231.96084903 -60.85808025 229.80639768 -63.9152832 227.65478516 C-66.00520828 226.18383426 -68.09282537 224.70966753 -70.1796875 223.234375 C-71.20400879 222.51024414 -71.20400879 222.51024414 -72.24902344 221.77148438 C-73.62467448 220.79882812 -75.00032552 219.82617188 -76.37597656 218.85351562 C-78.4587251 217.38114313 -80.54180128 215.90923547 -82.625 214.4375 C-83.66019775 213.70575562 -83.66019775 213.70575562 -84.71630859 212.95922852 C-89.47071198 209.60211995 -94.24139468 206.26904252 -99.01782227 202.94335938 C-102.37874134 200.59930794 -105.73214019 198.24475037 -109.08154297 195.88427734 C-110.47457626 194.90284286 -111.86917425 193.92362109 -113.26611328 192.94775391 C-122.55024433 186.43630566 -129.12349234 180.48194813 -132.3125 169.3125 C-132.7169425 166.14382969 -132.73354652 163.01788237 -132.71655273 159.82641602 C-132.72341599 158.91311523 -132.73027924 157.99981445 -132.73735046 157.05883789 C-132.75554516 154.06119933 -132.75179147 151.0640878 -132.74609375 148.06640625 C-132.75065899 145.96947562 -132.75596558 143.87254649 -132.76197815 141.77561951 C-132.77089483 137.38868111 -132.76850243 133.00192489 -132.75854492 128.61499023 C-132.74705603 123.00861287 -132.76727326 117.40286543 -132.79646206 111.79657078 C-132.81485637 107.46839948 -132.81452515 103.14037825 -132.80882454 98.81217766 C-132.80867173 96.74582981 -132.81468271 94.67947153 -132.82711601 92.61316109 C-132.84208559 89.71770446 -132.83130517 86.82340044 -132.81420898 83.92797852 C-132.82387695 83.0845842 -132.83354492 82.24118988 -132.84350586 81.37223816 C-132.73604697 72.62883675 -129.37628573 65.65742814 -123.44921875 59.3203125 C-119.07209762 55.20725901 -114.21372068 51.76611325 -109.3125 48.3125 C-108.59368652 47.80444824 -107.87487305 47.29639648 -107.13427734 46.77294922 C-102.08813596 43.2127623 -97.02405483 39.678724 -91.95458984 36.15185547 C-87.67292694 33.17107111 -83.39892117 30.17936917 -79.125 27.1875 C-78.29363525 26.60597168 -77.46227051 26.02444336 -76.60571289 25.42529297 C-72.00496136 22.2052634 -67.41350395 18.97269355 -62.83251953 15.72460938 C-60.06759571 13.76679696 -57.29581674 11.81881773 -54.5234375 9.87158203 C-52.96550555 8.77297852 -51.41113844 7.66931107 -49.859375 6.56201172 C-47.33076841 4.7591191 -44.79140008 2.97229816 -42.25 1.1875 C-41.47648193 0.63054443 -40.70296387 0.07358887 -39.90600586 -0.50024414 C-27.2246205 -9.33503877 -12.72250204 -8.69976806 0 0 Z " fill="#FEA200" transform="translate(484.3125,133.6875)"/>
<path d="M0 0 C1.38251953 -0.05607422 1.38251953 -0.05607422 2.79296875 -0.11328125 C9.52990543 0.83668783 14.29208143 5.35214539 18.89448071 10.01695728 C19.46696441 10.58508067 20.03944812 11.15320406 20.62927982 11.7385433 C22.54176375 13.64009719 24.44340805 15.55212721 26.34526062 17.46430969 C27.72962539 18.84521703 29.11464333 20.22546983 30.50025684 21.60512418 C34.30302189 25.39536148 38.09636836 29.1949043 41.88822472 32.99605072 C45.98031687 37.09492567 50.08102552 41.18516457 54.18063354 45.27651978 C62.20922765 53.2917662 70.22968051 61.31511179 78.24725517 69.34137932 C84.76281024 75.86370644 91.28128379 82.38310328 97.8018589 88.90041161 C98.7295016 89.8275946 99.65714429 90.7547776 100.61289737 91.71005705 C102.02490858 93.12134955 103.4369198 94.53264203 104.84894326 95.94392227 C122.49250217 113.57830509 140.12730254 131.22142349 157.75819726 148.86846696 C173.42072956 164.54523597 189.09099887 180.21423139 204.76782227 195.87670898 C222.38265601 213.4754773 239.99263069 231.07908438 257.59479839 248.6905219 C259.47138876 250.56806793 261.3479854 252.44560768 263.22458839 254.3231411 C264.14793757 255.2469531 265.07128675 256.17076511 266.0226162 257.12257141 C272.53327817 263.63582488 279.04741743 270.14558809 285.56290245 276.65401649 C293.5017772 284.58448202 301.43529394 292.52026103 309.36196693 300.46292321 C313.40726159 304.51610827 317.454929 308.56684632 321.50912285 312.61113167 C325.21946311 316.31254071 328.92282038 320.02078953 332.62070236 323.73464384 C333.96046988 325.07776578 335.30277838 326.41835879 336.64785238 327.7561665 C338.47492026 329.5741186 340.2925126 331.40105506 342.10804272 333.23051929 C342.63298945 333.74844253 343.15793619 334.26636577 343.6987904 334.79998365 C347.76560334 338.92946509 351.26745578 343.35884126 352.34375 349.19140625 C352.27538652 355.06212032 351.9130088 358.76869295 347.8125 363.3125 C343.36727317 367.32404616 340.04147895 368.68496841 333.98082756 368.59216882 C327.2822486 367.72819249 322.15508632 363.24112276 317.5918541 358.59521866 C317.01652817 358.0257065 316.44120224 357.45619433 315.8484422 356.86942422 C313.92990716 354.96544545 312.02588448 353.04760082 310.121521 351.12945557 C308.73237893 349.7449241 307.3423664 348.36126556 305.95156121 346.97840476 C302.13739178 343.18092955 298.33579379 339.37108357 294.53616667 335.55906534 C290.43429644 331.44814748 286.32093694 327.34875347 282.20904541 323.24786377 C274.1577372 315.21434832 266.11728816 307.17004831 258.08067104 299.12183884 C251.54933625 292.58147302 245.01411077 286.04501882 238.47608185 279.51134491 C237.54579928 278.58167528 236.61551672 277.65200564 235.65704377 276.6941642 C234.24099717 275.27906937 232.82494404 273.86398107 231.40887785 272.44890584 C213.71654424 254.76880575 196.03589146 237.07706555 178.36044459 219.380085 C162.65991462 203.66057289 146.94907674 187.95143353 131.22949219 172.25097656 C113.56472493 154.60763204 95.90644364 136.95783752 78.25856423 119.29759955 C76.37694057 117.41469304 74.4952999 115.53180353 72.61365509 113.64891815 C71.68783679 112.72248275 70.76201849 111.79604735 69.80814509 110.84153815 C63.28136041 104.31129879 56.74994355 97.78571462 50.21672821 91.26190948 C42.25579299 83.31218896 34.30201649 75.35538867 26.35735008 67.38940838 C22.3031675 63.32470845 18.24584351 59.26328158 14.17979431 55.21044922 C10.45806693 51.50063683 6.74569377 47.78172398 3.04057816 44.05532286 C1.69834666 42.70862162 0.35273049 41.36528365 -0.99657634 40.02567151 C-2.83050809 38.20390946 -4.65167647 36.37025235 -6.47021866 34.5331459 C-6.99648389 34.01624534 -7.52274913 33.49934477 -8.06496179 32.96678054 C-12.63165626 28.30648343 -16.34275758 22.87746665 -16.625 16.1875 C-15.99202557 10.58115501 -14.38594237 7.1462832 -10.125 3.5 C-6.37455833 0.70711791 -4.60816462 0.12076569 0 0 Z " fill="#FEA300" transform="translate(80.1875,63.6875)"/>
<path d="M0 0 C0.88795258 -0.0049649 1.77590515 -0.00992981 2.69076538 -0.01504517 C5.64696008 -0.02972116 8.60310093 -0.03648156 11.55932617 -0.04199219 C13.6142324 -0.0477439 15.66913861 -0.05350163 17.7240448 -0.05926514 C22.04601288 -0.06979377 26.36796229 -0.07562267 30.68994141 -0.07910156 C36.20305304 -0.08455769 41.7159141 -0.10851564 47.22894764 -0.13707352 C51.48173208 -0.15579826 55.73445773 -0.16091094 59.98727989 -0.16243744 C62.01765993 -0.16544777 64.04803933 -0.17342098 66.07837868 -0.18662262 C88.65596313 -0.32281563 105.92665096 4.19746191 122.64916992 20.17675781 C136.56172205 34.73640538 141.72331309 52.9940157 141.66918945 72.75439453 C141.67181793 73.96345711 141.67181793 73.96345711 141.67449951 75.19694519 C141.67885695 77.82825959 141.67600346 80.45950538 141.67260742 83.09082031 C141.67328182 84.93165093 141.67425298 86.77248146 141.67550659 88.61331177 C141.67697493 92.45445613 141.67485538 96.29557712 141.67016602 100.13671875 C141.66444504 105.0629911 141.6677681 109.98920925 141.67373848 114.91547966 C141.67734687 118.70893769 141.67620464 122.5023828 141.67361069 126.29584122 C141.67294344 128.11315034 141.6737628 129.93046064 141.67609024 131.7477684 C141.67862391 134.27995688 141.67476712 136.81205644 141.66918945 139.34423828 C141.67121368 140.09542435 141.67323792 140.84661041 141.67532349 141.62055969 C141.66256002 144.74143193 141.53459131 147.17674366 140.53979492 150.16113281 C137.92935848 150.9955616 137.92935848 150.9955616 134.53979492 151.16113281 C132.12342298 149.4507111 130.34161229 147.90568838 128.30677795 145.81027222 C127.70883075 145.22253938 127.11088354 144.63480654 126.49481672 144.02926362 C124.49028375 142.05036399 122.5117786 140.04732307 120.53222656 138.04345703 C119.10262191 136.62169818 117.67152369 135.20143979 116.23904419 133.78257751 C112.34919029 129.92041256 108.4817954 126.03645439 104.61878133 122.14746618 C100.57849488 118.08577304 96.52079978 114.04153603 92.46568298 109.99465942 C85.65850437 103.19564641 78.86589306 96.38233433 72.08154297 89.56054688 C64.23020798 81.66626492 56.35588528 73.79549654 48.46893603 65.93680751 C40.89136539 58.38523995 33.33077855 50.81688458 25.77767754 43.24084854 C22.55875843 40.01281266 19.33387321 36.79091409 16.10408211 33.57375717 C12.30400417 29.78708561 8.51894645 25.98601908 4.74513626 22.1731739 C3.3550928 20.77357282 1.95987906 19.37908571 0.55927467 17.99005318 C-1.3467048 16.0981543 -3.2333521 14.188899 -5.11607361 12.27389526 C-5.67908123 11.72358985 -6.24208886 11.17328443 -6.82215732 10.6063031 C-8.33549404 9.04368401 -8.33549404 9.04368401 -10.46020508 6.16113281 C-10.19069228 -1.18151941 -6.11976568 0.00807515 0 0 Z " fill="#FD8E00" transform="translate(195.460205078125,111.8388671875)"/>
</svg>
