<?xml version="1.0" encoding="UTF-8"?>
<svg version="1.1" xmlns="http://www.w3.org/2000/svg" width="512" height="512">
<path d="M0 0 C8.98493657 6.34704708 16.55592414 14.01536739 24.31182861 21.77581787 C25.80362865 23.26050038 27.29571988 24.74489035 28.78808594 26.22900391 C31.89948895 29.32703108 35.00497455 32.43084864 38.10675049 35.53851318 C42.05929283 39.49695575 46.02980073 43.43681998 50.00542068 47.3720665 C53.08727603 50.42793411 56.1574431 53.49534438 59.22451019 56.56604767 C60.68282658 58.02268432 62.14507204 59.47539948 63.61148834 60.92388153 C76.27718222 73.45155729 86.3124544 85.32701468 86.98370361 104.04144287 C86.53473385 117.58861755 81.00405569 127.88533398 72.79620361 138.29144287 C72.24867432 138.99954102 71.70114502 139.70763916 71.13702393 140.43719482 C68.59312983 143.72701882 66.03224815 147.00313018 63.46075439 150.27142334 C61.25069001 153.08339413 59.0544938 155.9058193 56.85870361 158.72894287 C56.15511719 159.61356201 55.45153076 160.49818115 54.72662354 161.40960693 C54.07411621 162.25104248 53.42160889 163.09247803 52.74932861 163.95941162 C52.16699463 164.6995752 51.58466064 165.43973877 50.98468018 166.20233154 C49.31885851 169.03416925 48.86371872 171.27681448 48.60870361 174.54144287 C49.51967247 177.19992389 50.44151211 179.39510453 51.73370361 181.85394287 C52.0891626 182.54471924 52.44462158 183.23549561 52.81085205 183.94720459 C57.42084412 192.52766342 63.43130452 200.04873854 69.60870361 207.54144287 C70.12513428 208.16824951 70.64156494 208.79505615 71.17364502 209.44085693 C82.24967145 222.78057078 94.19048455 235.29496495 106.46466064 247.527771 C108.37453356 249.43222792 110.2789251 251.34205106 112.18292236 253.25238037 C118.15495943 259.22790914 124.13598972 265.10305829 130.60870361 270.54144287 C131.6194494 271.42891144 132.62864064 272.31815454 133.63604736 273.20941162 C153.9312721 291.52244774 153.9312721 291.52244774 178.60870361 301.54144287 C180.7646156 300.45950156 180.7646156 300.45950156 182.85479736 298.70159912 C184.09543945 297.73637329 184.09543945 297.73637329 185.36114502 296.75164795 C186.24721436 296.04290527 187.13328369 295.3341626 188.04620361 294.60394287 C188.9683667 293.88553223 189.89052979 293.16712158 190.84063721 292.42694092 C193.77224109 290.14291298 196.69131918 287.84359658 199.60870361 285.54144287 C203.30596437 282.63108844 207.01604082 279.7381673 210.73370361 276.85394287 C211.56055664 276.19595703 212.38740967 275.53797119 213.23931885 274.86004639 C223.65136336 266.7819336 236.1391721 261.089076 249.60870361 262.54144287 C267.82543067 265.18154824 278.45304642 275.63392091 290.88214111 288.18597412 C292.41923125 289.72223384 293.9571391 291.25767578 295.49581909 292.79234314 C298.70245659 295.99613679 301.90022008 299.20845231 305.09161377 302.4274292 C309.16469089 306.53462858 313.25755882 310.62141003 317.35706139 314.70221424 C320.5302571 317.86479955 323.69356853 321.03712536 326.85396194 324.21249962 C328.35893742 325.72262472 329.86670035 327.22997758 331.37739182 328.73438454 C346.45502998 343.77279234 346.45502998 343.77279234 350.60870361 352.54144287 C350.9275351 353.19212234 351.24636658 353.84280182 351.57485962 354.51319885 C356.14782393 364.45910354 356.30143627 378.0284389 352.57354736 388.31878662 C346.73538212 401.76783936 335.86979474 411.50848601 325.68096924 421.76434326 C324.46876894 422.9880744 323.26105046 424.21626186 322.05792236 425.44891357 C303.49513112 444.46414757 282.81461123 456.7761357 255.60870361 457.10394287 C202.09824273 456.67247194 147.34513466 424.9798067 106.32159424 392.87786865 C104.66223389 391.58320808 102.99022326 390.3073879 101.31182861 389.03753662 C83.14479184 375.26486194 65.80761378 360.52397058 49.14874268 344.96820068 C47.70749475 343.63296719 46.2485396 342.31691848 44.78839111 341.00238037 C36.86438613 333.83907987 29.29351419 326.33473837 21.73370361 318.79144287 C20.91440369 317.97602524 20.91440369 317.97602524 20.07855225 317.14413452 C14.6042905 311.69032981 9.19293759 306.22651933 4.16973877 300.34759521 C1.46039743 297.21282712 -1.4167298 294.23568555 -4.26629639 291.22894287 C-9.12482802 286.06214666 -13.77197572 280.80527907 -18.19989014 275.26019287 C-20.17867088 272.80523495 -22.20973772 270.40505328 -24.26702881 268.01580811 C-31.33189582 259.79375378 -37.90935532 251.22743539 -44.39129639 242.54144287 C-44.92512939 241.82859131 -45.4589624 241.11573975 -46.00897217 240.38128662 C-62.80282884 217.8600453 -77.31258722 193.90352822 -89.39129639 168.54144287 C-89.6860083 167.92688232 -89.98072021 167.31232178 -90.28436279 166.67913818 C-105.84124284 133.86668812 -116.40222599 96.23551683 -104.10614014 60.84222412 C-100.67583932 52.1565878 -96.0057276 44.94228401 -90.39129639 37.54144287 C-89.88856201 36.86468506 -89.38582764 36.18792725 -88.86785889 35.49066162 C-85.24516644 30.93612054 -80.78441053 27.47649334 -76.25067139 23.86175537 C-73.54570828 21.66674433 -70.96207609 19.39116827 -68.39129639 17.04144287 C-63.21736687 12.33637501 -57.86045609 7.89808717 -52.39129639 3.54144287 C-51.78801514 3.03484131 -51.18473389 2.52823975 -50.56317139 2.00628662 C-37.04151283 -8.72570937 -14.457273 -8.81812841 0 0 Z M-54.39129639 25.54144287 C-55.12654541 26.25236084 -55.86179443 26.96327881 -56.61932373 27.69573975 C-76.31123513 46.72805636 -76.31123513 46.72805636 -89.39129639 70.54144287 C-89.89983154 71.80794678 -89.89983154 71.80794678 -90.41864014 73.10003662 C-95.56767505 88.30985864 -92.39916212 105.46204 -88.39129639 120.54144287 C-88.18230713 121.34549561 -87.97331787 122.14954834 -87.75799561 122.97796631 C-82.68881763 142.12313136 -74.59483825 160.05514766 -65.39129639 177.54144287 C-65.05114502 178.20047607 -64.71099365 178.85950928 -64.36053467 179.53851318 C-50.69143831 205.89358971 -32.67054555 229.9071868 -13.85174561 252.76068115 C-12.54389951 254.35537012 -11.24986429 255.96136241 -9.95770264 257.56878662 C-5.23705571 263.43383281 -0.29360191 269.01569445 4.83526611 274.52191162 C6.94837317 276.80006289 9.00194736 279.12371223 11.04229736 281.46722412 C20.91073239 292.78572036 31.44431077 303.47750814 42.04620361 314.10394287 C42.56012665 314.6204541 43.07404968 315.13696533 43.60354614 315.66912842 C48.85090663 320.93733963 54.12548628 326.11804385 59.77838135 330.95623779 C62.91901132 333.67627386 65.90614087 336.55899115 68.92120361 339.41644287 C74.09145004 344.27821888 79.35126812 348.92890284 84.90167236 353.35784912 C87.30587861 355.29717277 89.64878702 357.29247589 91.98223877 359.31585693 C101.14069109 367.22477954 110.85046806 374.39519197 120.60870361 381.54144287 C121.34137451 382.07946533 122.07404541 382.61748779 122.82891846 383.17181396 C160.60839081 410.78090156 215.42490754 446.17921876 264.72247314 439.24407959 C288.01451423 435.17686771 302.96251094 420.30118607 319.10870361 404.35394287 C319.63357361 403.83897247 320.1584436 403.32400208 320.69921875 402.79342651 C333.86231352 390.1104147 333.86231352 390.1104147 338.63604736 373.10003662 C337.39108504 352.19105394 311.89568563 334.50090927 298.09967041 320.62738037 C295.22778736 317.73764536 292.36468219 314.83961818 289.5088501 311.934021 C286.03003185 308.39470564 282.53642879 304.87062685 279.03206825 301.35660553 C277.71098234 300.02702696 276.39498613 298.69236877 275.08452415 297.35231781 C266.78705537 288.87751573 258.99920414 281.18941869 246.90948486 278.81488037 C245.92335205 278.848396 244.93721924 278.88191162 243.92120361 278.91644287 C242.92733643 278.92417725 241.93346924 278.93191162 240.90948486 278.93988037 C232.85722932 280.40739203 226.49466959 284.71248098 220.04620361 289.54144287 C219.27316895 290.10959717 218.50013428 290.67775146 217.70367432 291.26312256 C213.21257197 294.57288667 208.75483457 297.92739675 204.2991333 301.28460693 C201.69090988 303.24681499 199.07327388 305.19631657 196.45635986 307.14691162 C194.65536719 308.50622321 192.88191642 309.89619379 191.10870361 311.29144287 C185.44779 315.63914323 180.76844839 318.87367612 173.40167236 318.15081787 C155.86540163 314.32472244 141.14587409 302.80248608 127.60870361 291.54144287 C127.03942139 291.06980713 126.47013916 290.59817139 125.88360596 290.11224365 C111.58015012 278.20412268 98.27833347 265.30077155 85.10870361 252.16644287 C84.54203979 251.60245789 83.97537598 251.0384729 83.39154053 250.45739746 C77.24382551 244.33173883 71.23509283 238.15565743 65.60870361 231.54144287 C64.58821535 230.39558034 63.56479941 229.25231806 62.53839111 228.11175537 C29.53923191 191.07657394 29.53923191 191.07657394 28.17120361 169.35394287 C29.01753817 161.97874171 34.08227621 156.41140362 38.54620361 150.72894287 C43.31705389 144.57247885 47.98794547 138.35711775 52.54620361 132.04144287 C53.0649707 131.32496582 53.58373779 130.60848877 54.1182251 129.87030029 C65.30992606 115.05150299 65.30992606 115.05150299 67.16729736 97.16644287 C63.33632309 79.16354277 40.02050206 62.61961209 27.5269165 50.05462646 C24.70353413 47.21339213 21.88893415 44.36386944 19.081604 41.5067749 C15.66114524 38.0258083 12.22589548 34.56009219 8.77988625 31.10442352 C7.48112757 29.79717417 6.18745711 28.48484681 4.89932823 27.16712189 C-4.03932738 18.03407062 -12.56629204 9.6801943 -26.01629639 8.85394287 C-38.44707407 9.5634284 -45.9393393 17.22833149 -54.39129639 25.54144287 Z " fill="#236CFF" transform="translate(133.39129638671875,31.45855712890625)"/>
<path d="M0 0 C7.008164 5.11440798 13.0509507 11.86475942 19.17480469 17.98950195 C20.88719442 19.69967866 22.60747044 21.40165936 24.328125 23.10351562 C25.42496709 24.19742766 26.5213386 25.29181178 27.6171875 26.38671875 C28.12861298 26.89095871 28.64003845 27.39519867 29.16696167 27.91471863 C32.83916738 31.61073238 34.94710137 33.77231186 35.07249451 39.05291748 C34.1433446 44.80397036 29.43025327 48.35134735 25.44116211 52.23999023 C24.54368759 53.13834091 23.64621307 54.03669159 22.72154236 54.96226501 C20.26798925 57.41753566 17.79641413 59.85389994 15.32112956 62.28723407 C12.73456198 64.83622733 10.16503913 67.40228685 7.59364319 69.96656799 C2.72529363 74.81628841 -2.15814373 79.65051479 -7.04721779 84.47933203 C-12.61399184 89.9789809 -18.16368518 95.49573015 -23.71202481 101.01396644 C-35.1224807 112.36175107 -46.55414552 123.68791848 -58 135 C-57.44538086 135.01981934 -56.89076172 135.03963867 -56.31933594 135.06005859 C-53.79576307 135.15557651 -51.27298776 135.26514567 -48.75 135.375 C-47.87730469 135.4059375 -47.00460937 135.436875 -46.10546875 135.46875 C-44.83896484 135.52675781 -44.83896484 135.52675781 -43.546875 135.5859375 C-42.77182617 135.6173584 -41.99677734 135.6487793 -41.19824219 135.68115234 C-38.75660844 136.03530313 -37.10319162 136.72338119 -35 138 C-33.03067576 140.91714455 -32.74465221 143.30755896 -32.7253418 146.78100586 C-32.71580978 147.72556137 -32.70627777 148.67011688 -32.69645691 149.64329529 C-32.69782402 151.16371178 -32.69782402 151.16371178 -32.69921875 152.71484375 C-32.69493362 153.76273575 -32.6906485 154.81062775 -32.68623352 155.89027405 C-32.68049372 158.10514606 -32.67998738 160.32003691 -32.68432617 162.53491211 C-32.68748497 165.92138875 -32.66402595 169.3069908 -32.63867188 172.69335938 C-32.63639872 174.84635307 -32.63569546 176.9993491 -32.63671875 179.15234375 C-32.627509 180.16393051 -32.61829926 181.17551727 -32.60881042 182.21775818 C-32.66705731 191.07999625 -32.66705731 191.07999625 -36 195 C-38.44179643 196.22089821 -40.03212692 196.13654343 -42.76252747 196.15390015 C-43.76774948 196.16250061 -44.7729715 196.17110107 -45.80865479 196.17996216 C-47.46921906 196.18635208 -47.46921906 196.18635208 -49.16333008 196.19287109 C-50.32601913 196.20104858 -51.48870819 196.20922607 -52.68663025 196.21765137 C-56.54759194 196.24253496 -60.40851683 196.25902799 -64.26953125 196.2734375 C-65.58536383 196.27876118 -66.9011964 196.28408485 -68.25690269 196.28956985 C-73.78571667 196.31119817 -79.31452772 196.32993485 -84.8433733 196.34119225 C-92.76692417 196.35743167 -100.68998468 196.39060886 -108.61335069 196.44759309 C-114.1845484 196.48629461 -119.75561497 196.50582513 -125.32694358 196.51111281 C-128.65453898 196.51476615 -131.98149123 196.52928029 -135.3089695 196.55921555 C-139.02252388 196.59072089 -142.73483422 196.5909251 -146.44848633 196.58349609 C-147.54945648 196.59990143 -148.65042664 196.61630676 -149.78475952 196.63320923 C-154.32180476 196.59597729 -157.20365439 196.45739951 -161.18252563 194.17204285 C-163.92065099 189.39318537 -163.68983679 185.08458049 -163.63110352 179.66381836 C-163.63825882 178.51859207 -163.64541412 177.37336578 -163.65278625 176.19343567 C-163.66969305 172.40849912 -163.65025835 168.62474353 -163.62890625 164.83984375 C-163.6297347 162.21098228 -163.63219316 159.58212085 -163.63621521 156.95326233 C-163.64073274 151.44453326 -163.62488644 145.93614413 -163.59692383 140.42749023 C-163.56485709 134.06128261 -163.56489462 127.69568745 -163.5821386 121.32943624 C-163.59800775 115.20029997 -163.59117132 109.071424 -163.57420158 102.94229317 C-163.56901189 100.33593817 -163.56951107 97.72956552 -163.57574654 95.12321281 C-163.58118493 91.48401569 -163.56086611 87.84586507 -163.53344727 84.20678711 C-163.53997314 83.12563629 -163.54649902 82.04448547 -163.55322266 80.93057251 C-163.45956426 73.63526174 -163.45956426 73.63526174 -161.09165955 70.36207581 C-157.9164771 68.29441656 -156.11841249 67.86401625 -152.35424805 67.80712891 C-151.38952072 67.79106598 -150.4247934 67.77500305 -149.43083191 67.75845337 C-145.01680163 67.71403487 -140.60292216 67.67294 -136.1887207 67.64990234 C-133.85984304 67.63333826 -131.53101631 67.60604258 -129.20239258 67.56787109 C-125.84689932 67.51313998 -122.49259809 67.49123353 -119.13671875 67.4765625 C-117.57711678 67.44255844 -117.57711678 67.44255844 -115.98600769 67.40786743 C-115.01182388 67.41071747 -114.03764008 67.4135675 -113.03393555 67.41650391 C-112.18059128 67.40841705 -111.32724701 67.4003302 -110.44804382 67.39199829 C-106.63397273 68.33926963 -105.28988532 69.81726425 -103 73 C-102.26781686 76.43810793 -102.20980372 79.80585919 -102.1875 83.3125 C-102.16236328 84.24384766 -102.13722656 85.17519531 -102.11132812 86.13476562 C-102.05264002 88.42360186 -102.01622832 90.71053426 -102 93 C-101.52346828 92.52162469 -101.04693655 92.04324938 -100.55596447 91.55037785 C-88.96915995 79.91943557 -77.37684922 68.29401276 -65.77835369 56.67472935 C-60.16958056 51.05563657 -54.56269834 45.43468087 -48.96020508 39.80932617 C-44.07798679 34.90719507 -39.19228208 30.00857065 -34.30233032 25.11415333 C-31.71243608 22.52164814 -29.12434094 19.92740182 -26.540411 17.32895088 C-23.65825709 14.43073127 -20.76834856 11.54036752 -17.87768555 8.65063477 C-17.01885269 7.78461136 -16.16001984 6.91858795 -15.27516174 6.02632141 C-14.48852142 5.24243042 -13.7018811 4.45853943 -12.8914032 3.65089417 C-11.8668303 2.62355588 -11.8668303 2.62355588 -10.82155895 1.57546329 C-7.23497645 -1.52656592 -4.34884902 -1.31286008 0 0 Z M-7.62931252 22.38601017 C-8.28076933 23.04060939 -8.93222614 23.69520861 -9.60342407 24.36964417 C-10.35188599 25.11680191 -11.1003479 25.86395966 -11.87149048 26.63375854 C-13.10420181 27.87961227 -13.10420181 27.87961227 -14.36181641 29.15063477 C-15.22707947 30.01721207 -16.09234253 30.88378937 -16.98382568 31.77662659 C-18.86969647 33.66677288 -20.75363117 35.55864248 -22.63457108 37.45367622 C-25.61432558 40.45567947 -28.6011354 43.45059528 -31.58895874 46.44456482 C-36.32181334 51.1888193 -41.0499797 55.93771485 -45.77613676 60.68864053 C-54.2172532 69.17393962 -62.66374921 77.65387409 -71.11566675 86.12841457 C-74.07823913 89.09934763 -77.03797761 92.07306614 -79.99540257 95.04912293 C-82.28225245 97.34923016 -84.57234034 99.64611078 -86.86181641 101.94360352 C-87.67147858 102.76000305 -88.48114075 103.57640259 -89.31533813 104.4175415 C-93.52103605 108.63156781 -97.8031655 112.67835653 -102.33322716 116.54299831 C-103.76401296 117.79371303 -105.11084608 119.13932932 -106.4375 120.5 C-110.3136186 122.76894747 -113.72678541 121.85650488 -118 121 C-119.17125374 117.2486535 -119.22059865 113.50368388 -119.31640625 109.609375 C-119.33718735 108.90476135 -119.35796844 108.20014771 -119.37937927 107.47418213 C-119.44453837 105.23288319 -119.50360248 102.99147136 -119.5625 100.75 C-119.60571726 99.22655103 -119.64933257 97.70311329 -119.69335938 96.1796875 C-119.80093115 92.45323881 -119.9002535 88.7266992 -120 85 C-128.58 85 -137.16 85 -146 85 C-146 116.35 -146 147.7 -146 180 C-114.65 180 -83.3 180 -51 180 C-51 171.42 -51 162.84 -51 154 C-54.50367188 153.96132813 -54.50367188 153.96132813 -58.078125 153.921875 C-60.34533639 153.88343979 -62.61232146 153.83828469 -64.87939453 153.79248047 C-66.45252644 153.76429046 -68.02579947 153.74306602 -69.59912109 153.72900391 C-71.86368956 153.70754558 -74.12656504 153.66088652 -76.390625 153.609375 C-77.09181458 153.60814636 -77.79300415 153.60691772 -78.51544189 153.60565186 C-81.90741787 153.5043695 -83.70882055 153.22717879 -86.41699219 151.11425781 C-88.30079069 148.59826536 -88.9232076 147.1484885 -89 144 C-87.09224632 140.3225155 -84.8029375 137.55502131 -81.8808136 134.64030457 C-81.04368835 133.80042999 -80.20656311 132.96055542 -79.34407043 132.0952301 C-77.97166451 130.73361 -77.97166451 130.73361 -76.5715332 129.34448242 C-75.59530389 128.36881767 -74.61951558 127.39271149 -73.64413452 126.41619873 C-71.00216134 123.77365278 -68.35407631 121.13730987 -65.70483804 118.50205016 C-62.93458654 115.74431859 -60.17001444 112.98090542 -57.40483093 110.21809387 C-52.17091019 104.99038418 -46.93191304 99.76779281 -41.69106597 94.54702789 C-35.72343498 88.60176754 -29.76149594 82.65081322 -23.80002463 76.69937742 C-11.53966542 64.45991172 0.727811 52.22760401 13 40 C11.52303509 36.9116098 10.01801272 34.76142384 7.59375 32.328125 C6.93246094 31.66425781 6.27117187 31.00039062 5.58984375 30.31640625 C4.90019531 29.63449219 4.21054687 28.95257813 3.5 28.25 C2.81035156 27.55261719 2.12070312 26.85523438 1.41015625 26.13671875 C0.74886719 25.47800781 0.08757812 24.81929687 -0.59375 24.140625 C-1.19896484 23.53766602 -1.80417969 22.93470703 -2.42773438 22.31347656 C-4.64602073 20.46031187 -5.4354541 20.51975673 -7.62931252 22.38601017 Z " fill="#236CFF" transform="translate(429,49)"/>
</svg>
