<?xml version="1.0" encoding="UTF-8"?>
<svg version="1.1" xmlns="http://www.w3.org/2000/svg" width="512" height="512">
<path d="M0 0 C1.89891665 -0.00461248 3.79782973 -0.01096772 5.69673538 -0.01890898 C10.89965741 -0.0355777 16.10228524 -0.02736701 21.30520821 -0.0149641 C26.92220153 -0.00590593 32.53914462 -0.01988717 38.15612793 -0.03088379 C49.15381592 -0.04866535 60.15139469 -0.0448306 71.14908695 -0.03323323 C80.0875596 -0.02419777 89.02600164 -0.0229754 97.96447754 -0.02732849 C99.23690158 -0.02794142 100.50932562 -0.02855436 101.82030797 -0.02918586 C104.40525533 -0.03046477 106.99020267 -0.03176162 109.57515001 -0.03307623 C133.12040645 -0.04415589 156.66558972 -0.03266806 180.21083385 -0.01170584 C201.69494977 0.00727594 223.17897084 0.0055774 244.66308594 -0.0135498 C268.81275109 -0.03497838 292.96234883 -0.04338234 317.11202621 -0.03110075 C319.68743641 -0.02982656 322.26284662 -0.02856908 324.83825684 -0.02732849 C326.73895742 -0.02640284 326.73895742 -0.02640284 328.678056 -0.02545848 C337.60524853 -0.02200555 346.53240741 -0.02783273 355.45959473 -0.0372467 C366.33963581 -0.04846787 377.21956147 -0.04542405 388.09958935 -0.02412373 C393.65019267 -0.01361502 399.20060357 -0.00948862 404.75120544 -0.02272034 C409.83395931 -0.03465349 414.91634268 -0.02806616 419.99906301 -0.00681013 C421.83607286 -0.00234802 423.67311411 -0.00460151 425.5101037 -0.01431328 C439.24896815 -0.08136669 448.92002097 1.26922261 459.19824219 11.06262207 C464.73746614 17.2107678 467.51741852 23.47522885 467.53838158 31.72101593 C467.54345612 32.78198219 467.54853066 33.84294845 467.55375898 34.9360652 C467.55450561 36.68293143 467.55450561 36.68293143 467.55526733 38.46508789 C467.55964959 39.70299969 467.56403184 40.94091149 467.56854689 42.21633577 C467.57960612 45.65426418 467.58615758 49.09214713 467.59072804 52.53008676 C467.59668895 56.23702173 467.60829717 59.94393997 467.61901855 63.65086365 C467.64352516 72.60145207 467.65816395 81.55204602 467.67107862 90.50265765 C467.6747908 93.02972941 467.67876398 95.55680063 467.68283129 98.08387184 C467.70805999 113.7719404 467.73011595 129.46000982 467.74255943 145.14809418 C467.74548917 148.78057356 467.74845084 152.41305291 467.75146484 156.04553223 C467.75221089 156.94837725 467.75295695 157.85122228 467.7537256 158.78142625 C467.76639178 173.4219781 467.7996336 188.06240886 467.84126668 202.70290405 C467.88364329 217.7276957 467.9072492 232.75242524 467.91248 247.77727652 C467.91589818 256.21590402 467.92770169 264.65434199 467.96058273 273.09291077 C467.98852529 280.27580946 467.99960803 287.45847975 467.98838727 294.64142859 C467.98318633 298.30786692 467.98617939 301.97382649 468.01085281 305.64019585 C468.03735012 309.61058781 468.02533427 313.58032035 468.0093689 317.55078125 C468.02325098 318.71535874 468.03713307 319.87993623 468.05143583 321.07980394 C467.97412491 328.83848132 467.97412491 328.83848132 465.05086708 332.25525665 C462.40136719 333.50793457 462.40136719 333.50793457 459.40136719 333.50793457 C459.40136719 346.37793457 459.40136719 359.24793457 459.40136719 372.50793457 C461.05136719 372.83793457 462.70136719 373.16793457 464.40136719 373.50793457 C466.99660914 375.85122785 467.3741994 377.27940954 467.78904724 380.76895142 C467.79445023 382.06227386 467.79985321 383.35559631 467.80541992 384.68811035 C467.8157148 385.76216881 467.8157148 385.76216881 467.82621765 386.85792542 C467.84450372 389.22323506 467.84064308 391.58788192 467.83496094 393.95324707 C467.83952455 395.60509455 467.84483066 397.25694013 467.85084534 398.90878296 C467.85978197 402.37387796 467.85735025 405.83874262 467.84741211 409.30383301 C467.83596941 413.72202963 467.85605806 418.13942139 467.88532925 422.55751228 C467.90377978 425.97214738 467.90338047 429.38659321 467.89769173 432.80126572 C467.89753933 434.42858884 467.9035152 436.05592547 467.9159832 437.68320084 C467.99529856 449.74106555 467.02059105 459.542223 458.39355469 468.68762207 C450.9188761 475.51742642 443.69767759 478.82343443 433.50702286 478.76520348 C432.72644386 478.76870955 431.94586487 478.77221563 431.14163196 478.77582794 C428.52226777 478.78514242 425.90312588 478.7802185 423.28375244 478.77536011 C421.38829103 478.77909634 419.49283115 478.78369776 417.59737372 478.78909075 C412.38549437 478.80133949 407.17367912 478.80105807 401.96178865 478.798702 C396.34200835 478.79829431 390.72224873 478.80932846 385.10247803 478.81881714 C374.09090483 478.83543848 363.07935305 478.8409272 352.06776837 478.84204189 C343.11776441 478.84299185 334.16776753 478.8470995 325.21776581 478.85344315 C303.97752486 478.86819177 282.73728984 478.88049254 261.49704361 478.87944603 C260.81777617 478.87941487 260.13850873 478.87938371 259.43865743 478.87935161 C255.99586935 478.8791854 252.55308126 478.87898732 249.11029318 478.8787822 C248.42654695 478.87874231 247.74280071 478.87870242 247.03833489 478.87866132 C245.65563307 478.87858044 244.27293124 478.87849685 242.89022942 478.87841053 C221.37991757 478.87718515 199.8696688 478.8921958 178.359375 478.91955566 C154.19070308 478.95028419 130.02208582 478.96746235 105.8533895 478.96562922 C93.0573641 478.96496495 80.26140981 478.97047342 67.4654007 478.99198532 C56.57063482 479.01018341 45.6759723 479.01455571 34.78119782 479.00096647 C29.22251347 478.9944299 23.66402749 478.99434468 18.10536194 479.01167297 C13.01505982 479.02737801 7.92511378 479.02456613 2.83482048 479.00710471 C0.99499401 479.00402917 -0.84485887 479.00768801 -2.68465421 479.01882486 C-16.4352806 479.09653766 -26.10785738 477.75563097 -36.39550781 467.95324707 C-42.64159256 461.02053598 -44.72008903 454.5769261 -44.73285389 445.3906765 C-44.73520612 444.6698099 -44.73755835 443.94894329 -44.73998186 443.20623225 C-44.74666664 440.77800656 -44.74621379 438.34983446 -44.74580383 435.92160034 C-44.74910278 434.16810926 -44.75282841 432.41461894 -44.75694531 430.66112959 C-44.76696989 425.83240154 -44.77068284 421.00368592 -44.77333462 416.17494893 C-44.7772363 410.97095667 -44.78681471 405.76697426 -44.79554749 400.56298828 C-44.81531543 387.99052875 -44.82537839 375.4180684 -44.83427528 362.84559721 C-44.83865751 356.92648957 -44.84402447 351.00738284 -44.84926414 345.08827591 C-44.86627652 325.4145266 -44.88077112 305.74077786 -44.88801289 286.06702232 C-44.88992281 280.96090062 -44.89184314 275.85477892 -44.89379883 270.74865723 C-44.89428257 269.47954044 -44.89476631 268.21042366 -44.89526471 266.9028488 C-44.90356663 246.33981025 -44.92890626 225.77682984 -44.96137951 205.21381669 C-44.99443967 184.10726898 -45.01246069 163.00075082 -45.01565713 141.89417708 C-45.01782315 130.04156046 -45.02658545 118.18902863 -45.0521183 106.33643723 C-45.07381099 96.24311807 -45.08188272 86.14990431 -45.07215152 76.05656449 C-45.06760274 70.90698785 -45.06952678 65.75762872 -45.08891296 60.60808182 C-45.10651588 55.89148268 -45.10557015 51.1752602 -45.09001567 46.45865722 C-45.08763525 44.75470247 -45.09198565 43.05072184 -45.10384432 41.34680669 C-45.18401699 29.06382262 -44.10241364 19.42567265 -35.30957031 10.18762207 C-24.96114006 0.02820424 -13.74480967 -0.07266586 0 0 Z " fill="#CAE2F9" transform="translate(44.5986328125,16.4920654296875)"/>
<path d="M0 0 C1.89891665 -0.00461248 3.79782973 -0.01096772 5.69673538 -0.01890898 C10.89965741 -0.0355777 16.10228524 -0.02736701 21.30520821 -0.0149641 C26.92220153 -0.00590593 32.53914462 -0.01988717 38.15612793 -0.03088379 C49.15381592 -0.04866535 60.15139469 -0.0448306 71.14908695 -0.03323323 C80.0875596 -0.02419777 89.02600164 -0.0229754 97.96447754 -0.02732849 C99.23690158 -0.02794142 100.50932562 -0.02855436 101.82030797 -0.02918586 C104.40525533 -0.03046477 106.99020267 -0.03176162 109.57515001 -0.03307623 C133.12040645 -0.04415589 156.66558972 -0.03266806 180.21083385 -0.01170584 C201.69494977 0.00727594 223.17897084 0.0055774 244.66308594 -0.0135498 C268.81275109 -0.03497838 292.96234883 -0.04338234 317.11202621 -0.03110075 C319.68743641 -0.02982656 322.26284662 -0.02856908 324.83825684 -0.02732849 C326.73895742 -0.02640284 326.73895742 -0.02640284 328.678056 -0.02545848 C337.60524853 -0.02200555 346.53240741 -0.02783273 355.45959473 -0.0372467 C366.33963581 -0.04846787 377.21956147 -0.04542405 388.09958935 -0.02412373 C393.65019267 -0.01361502 399.20060357 -0.00948862 404.75120544 -0.02272034 C409.83395931 -0.03465349 414.91634268 -0.02806616 419.99906301 -0.00681013 C421.83607286 -0.00234802 423.67311411 -0.00460151 425.5101037 -0.01431328 C439.24896815 -0.08136669 448.92002097 1.26922261 459.19824219 11.06262207 C464.73746614 17.2107678 467.51741852 23.47522885 467.53838158 31.72101593 C467.54345612 32.78198219 467.54853066 33.84294845 467.55375898 34.9360652 C467.55450561 36.68293143 467.55450561 36.68293143 467.55526733 38.46508789 C467.55964959 39.70299969 467.56403184 40.94091149 467.56854689 42.21633577 C467.57960612 45.65426418 467.58615758 49.09214713 467.59072804 52.53008676 C467.59668895 56.23702173 467.60829717 59.94393997 467.61901855 63.65086365 C467.64352516 72.60145207 467.65816395 81.55204602 467.67107862 90.50265765 C467.6747908 93.02972941 467.67876398 95.55680063 467.68283129 98.08387184 C467.70805999 113.7719404 467.73011595 129.46000982 467.74255943 145.14809418 C467.74548917 148.78057356 467.74845084 152.41305291 467.75146484 156.04553223 C467.75221089 156.94837725 467.75295695 157.85122228 467.7537256 158.78142625 C467.76639178 173.4219781 467.7996336 188.06240886 467.84126668 202.70290405 C467.88364329 217.7276957 467.9072492 232.75242524 467.91248 247.77727652 C467.91589818 256.21590402 467.92770169 264.65434199 467.96058273 273.09291077 C467.98852529 280.27580946 467.99960803 287.45847975 467.98838727 294.64142859 C467.98318633 298.30786692 467.98617939 301.97382649 468.01085281 305.64019585 C468.03735012 309.61058781 468.02533427 313.58032035 468.0093689 317.55078125 C468.02325098 318.71535874 468.03713307 319.87993623 468.05143583 321.07980394 C467.97404814 328.84618486 467.97404814 328.84618486 465.05086708 332.22400665 C461.79308284 333.80270463 459.97918563 334.10423764 456.40136719 333.50793457 C453.70146057 331.70799683 451.85948069 330.42416157 450.40136719 327.50793457 C450.30619776 325.88239269 450.2747601 324.2529475 450.27387524 322.62462234 C450.27086759 321.58628856 450.26785994 320.54795477 450.26476115 319.47815633 C450.26651152 318.32857214 450.26826189 317.17898795 450.27006531 315.99456787 C450.26689174 314.17300678 450.26689174 314.17300678 450.26365405 312.31464648 C450.2597223 309.64053953 450.25763801 306.96650323 450.25861931 304.29240036 C450.26020877 299.94198441 450.25501708 295.59159155 450.24899292 291.24118042 C450.24087155 284.92461402 450.23593319 278.60805167 450.23270226 272.29148102 C450.2272111 262.3089884 450.210319 252.32653005 450.19136047 242.34405518 C450.18500336 238.93045431 450.17869497 235.51685336 450.17238331 232.10325241 C450.17079955 231.25009206 450.16921578 230.3969317 450.16758403 229.51791801 C450.14963881 219.80105099 450.13341681 210.08418155 450.1184082 200.36730957 C450.1163444 199.03456207 450.1163444 199.03456207 450.1142389 197.67489037 C450.09231119 183.27811815 450.08155354 168.88135471 450.07403746 154.48456874 C450.06596884 139.71065481 450.04268605 124.93681635 450.00608379 110.16294551 C449.98404539 101.04668206 449.97439821 91.93057375 449.98058412 82.81428501 C449.98375666 76.56657171 449.97244224 70.31899095 449.94968971 64.07131866 C449.937011 60.46549241 449.93086494 56.8599614 449.94210625 53.25412369 C449.9541345 49.34565188 449.93537996 45.43767346 449.91362 41.52923584 C449.92206253 40.38857454 449.93050507 39.24791323 449.93920344 38.07268643 C449.866093 30.99333768 449.05912634 27.25319237 443.99216491 22.06502223 C437.16402031 16.50401997 427.62382784 17.82436201 419.32003784 17.88647461 C417.45299366 17.88214422 415.58595349 17.87562697 413.71892369 17.86711454 C408.59489937 17.85012363 403.47136375 17.86430402 398.34736514 17.88362932 C392.81903112 17.89905354 387.2907571 17.88565522 381.76242065 17.87588501 C370.93554852 17.86135498 360.10886384 17.8735957 349.28200947 17.89499825 C336.67768173 17.91900081 324.07339701 17.91729437 311.4690515 17.91469234 C288.30397772 17.91089023 265.13899892 17.93383688 241.97396081 17.96903982 C220.82588185 18.00104046 199.67788712 18.01308201 178.52978516 18.00695801 C177.17157526 18.00657116 175.81336537 18.00618471 174.45515548 18.00579864 C173.78368235 18.00560729 173.11220922 18.00541595 172.42038842 18.0052188 C169.04029352 18.00426447 165.66019861 18.0033501 162.28010368 18.00247955 C161.2798447 18.00221886 161.2798447 18.00221886 160.25937847 18.00195291 C142.58739119 17.9975984 124.91541225 18.00768753 107.24343121 18.02231741 C105.35941143 18.02387664 105.35941143 18.02387664 103.43733064 18.02546737 C100.91458898 18.02755828 98.39184734 18.02966926 95.86910572 18.03180054 C87.07932806 18.03870102 78.28956236 18.03936465 69.49978256 18.03791809 C58.79232951 18.03647971 48.08495216 18.04614528 37.37752424 18.06986445 C31.91252513 18.08173947 26.44763166 18.08883955 20.98262024 18.08302689 C15.98269557 18.07786593 10.98299434 18.08650484 5.98310794 18.10630149 C4.17168376 18.11105231 2.36023791 18.11072724 0.5488169 18.10489112 C-1.90893644 18.09773608 -4.36594402 18.10894665 -6.82364082 18.12482452 C-7.88431374 18.11514682 -7.88431374 18.11514682 -8.96641439 18.1052736 C-14.23374892 18.16936792 -18.34801342 19.40700008 -22.24316406 23.04309082 C-26.00998359 27.96893175 -26.72396933 30.08066511 -26.73006058 36.28094864 C-26.73211321 36.98888732 -26.73416584 37.69682601 -26.73628068 38.42621738 C-26.74198065 40.82247175 -26.74048976 43.21866919 -26.73907471 45.6149292 C-26.74165663 47.34067118 -26.74466931 49.06641257 -26.74807811 50.79215312 C-26.75617173 55.55331315 -26.75793899 60.31445813 -26.75867558 65.07562423 C-26.76052205 70.20322689 -26.76806733 75.33082167 -26.77481079 80.4584198 C-26.78841158 91.67941969 -26.7944216 102.90041601 -26.79882145 114.12142277 C-26.80158103 121.12372222 -26.80581787 128.12602028 -26.81032562 135.12831879 C-26.82252077 154.50346922 -26.83281947 173.87861854 -26.83620071 193.25377274 C-26.83642028 194.49462224 -26.83663985 195.73547174 -26.83686607 197.01392274 C-26.83708434 198.25779699 -26.83730262 199.50167124 -26.83752751 200.78323865 C-26.83797098 203.30393807 -26.83841755 205.82463749 -26.83886719 208.34533691 C-26.83908862 209.59569964 -26.83931005 210.84606236 -26.83953819 212.13431486 C-26.84348708 232.39947811 -26.86094278 252.66460541 -26.88422671 272.92975476 C-26.90792155 293.71981663 -26.92040172 314.50986046 -26.92156863 335.29993606 C-26.92248647 346.97917496 -26.92826595 358.65836705 -26.94638824 370.33759308 C-26.96176408 380.28211101 -26.96692462 390.22656767 -26.95865014 400.17109522 C-26.95473464 405.24721654 -26.95571698 410.32321436 -26.96970749 415.3993206 C-26.98239262 420.04418875 -26.98129651 424.68883993 -26.96911678 429.33370754 C-26.96715039 431.01611421 -26.97028138 432.69853597 -26.97896114 434.38092139 C-26.98999988 436.6647312 -26.98260407 438.94776801 -26.97056961 441.23155594 C-26.9711667 442.50101602 -26.97176379 443.7704761 -26.97237897 445.07840466 C-26.4917088 449.48907936 -25.10200701 452.859704 -22.09863281 456.15246582 C-17.01941662 460.10737635 -13.44365997 460.65542055 -7.19278431 460.64494896 C-6.04646981 460.6489267 -6.04646981 460.6489267 -4.87699744 460.6529848 C-2.29533084 460.66069397 0.28628834 460.66123759 2.8679657 460.66183472 C4.72926402 460.66584827 6.59056147 460.67028631 8.45185786 460.67511427 C13.58314564 460.68709749 18.714424 460.69273226 23.84572303 460.69729543 C29.37348861 460.70324485 34.90124289 460.71485628 40.42900085 460.72558594 C53.78644742 460.75012424 67.14389773 460.76473874 80.50135991 460.77764601 C84.27251974 460.78135675 88.04367919 460.78533008 91.81483865 460.78939867 C115.22112511 460.81463287 138.62741251 460.83670736 162.03370953 460.84912682 C167.45696198 460.85204817 172.8802144 460.85501569 178.3034668 460.85803223 C179.31412805 460.85858859 179.31412805 460.85858859 180.34520669 460.85915619 C202.19209663 460.87131255 224.03890602 460.90225806 245.88575813 460.94395375 C268.9797606 460.98794934 292.07372512 461.01366024 315.1677745 461.01904738 C327.75812695 461.02246452 340.34835233 461.03425555 352.93866539 461.06715012 C363.65936388 461.09511369 374.37990925 461.10616613 385.10064139 461.09495465 C390.57202064 461.08975869 396.04307903 461.09271594 401.51441193 461.1174202 C406.52275315 461.13984553 411.53054178 461.139225 416.53889225 461.12021632 C418.35118812 461.1174069 420.16352092 461.12306697 421.9757572 461.13802926 C433.66850028 461.63590341 433.66850028 461.63590341 443.99325401 457.01159918 C450.33089194 450.24390322 450.00196384 443.88067937 450.01074219 434.91809082 C450.02727844 433.6184288 450.0438147 432.31876678 450.06085205 430.97972107 C450.10432853 427.54551267 450.12448021 424.11155874 450.1395874 420.67712402 C450.15923033 417.1641955 450.20119185 413.65153897 450.24121094 410.13879395 C450.31629863 403.26194385 450.36671933 396.38510419 450.40136719 389.50793457 C448.99440972 389.50964331 448.99440972 389.50964331 447.55902886 389.51138657 C392.01159565 389.57858381 336.46416618 389.6299677 280.9167005 389.66113056 C274.25240964 389.66488284 267.58811886 389.66876231 260.92382812 389.67272949 C260.26064101 389.67312177 259.59745389 389.67351405 258.91417019 389.67391821 C237.40731328 389.68670877 215.90047998 389.70924754 194.39363738 389.73682623 C171.67187739 389.76591001 148.95013133 389.7839186 126.22835326 389.79020005 C112.61175842 389.79432379 98.99523131 389.80736502 85.37865731 389.83168397 C76.05109242 389.84749786 66.72356273 389.85234482 57.39598539 389.8484387 C52.00823441 389.84651037 46.62060209 389.84954073 41.23287201 389.86555099 C36.30553993 389.88008681 31.37840699 389.88092827 26.45106599 389.87063126 C24.66365407 389.86935751 22.87623001 389.87321644 21.08884218 389.88258412 C18.66820473 389.89453823 16.24829615 389.88818715 13.82767105 389.87707806 C13.12584973 389.8849591 12.42402841 389.89284014 11.70093977 389.90096 C7.66323016 389.85878361 5.28722849 389.41366437 2.40136719 386.50793457 C1.33757816 383.85954314 1.15258684 381.34403058 1.40136719 378.50793457 C3.16600779 375.64799979 4.39702416 374.01010609 7.40136719 372.50793457 C9.85662391 372.40696833 12.28372114 372.36685357 14.73939991 372.37092018 C15.50841964 372.36826835 16.27743938 372.36561653 17.06976274 372.36288434 C19.67378394 372.35516076 22.27775824 372.35463101 24.88179016 372.35403442 C26.75673791 372.35002182 28.63168478 372.34558394 30.5066306 372.34075487 C35.68017429 372.32876112 40.85370864 372.32313446 46.02726352 372.31857371 C51.59861611 372.3126283 57.16995746 372.30101591 62.74130249 372.2902832 C76.20593703 372.26573626 89.67057529 372.25112943 103.13522533 372.23822314 C106.93571491 372.23451311 110.73620412 372.23053974 114.53669333 372.22647047 C138.11794814 372.20123776 161.69920376 372.17916017 185.28046894 372.16674232 C190.74516617 372.16382089 196.20986337 372.16085339 201.67456055 372.15783691 C202.3534944 372.15746601 203.03242826 372.1570951 203.73193587 372.15671295 C225.75198329 372.14455339 247.77195086 372.113603 269.79196076 372.07191539 C293.06206622 372.02794133 316.33211743 372.00221151 339.60227078 371.99682176 C352.2914697 371.99340231 364.98054263 371.9815842 377.66970253 371.94871902 C388.47322175 371.92078414 399.27658916 371.90969031 410.0801417 371.92091449 C415.5956971 371.92611781 421.11093425 371.923106 426.62644386 371.89844894 C431.67167544 371.87608175 436.71635786 371.87659822 441.76159825 371.89565282 C443.59069413 371.89847049 445.41982627 371.89275713 447.2488635 371.87783988 C449.7285222 371.85884634 452.20619986 371.87044427 454.68581104 371.88990211 C455.40208146 371.87705289 456.11835187 371.86420367 456.85632744 371.85096508 C460.6824513 371.91729567 462.30533736 372.43199404 465.34432763 374.83523214 C468.03386771 378.32973971 468.02920572 380.41861487 468.0324707 384.80163574 C468.04320366 385.87591324 468.04320366 385.87591324 468.05415344 386.97189331 C468.07101686 389.33221894 468.0516446 391.69063743 468.03027344 394.05090332 C468.03110282 395.70132097 468.03356483 397.35173852 468.0375824 399.00215149 C468.04043937 402.4614448 468.02575793 405.92009037 467.99829102 409.37927246 C467.96434156 413.78966095 467.97018247 418.19888143 467.98895359 422.60932446 C467.99958512 426.01971463 467.99052814 429.42983871 467.97556877 432.84020424 C467.97042242 434.46471679 467.97082519 436.08925757 467.97711372 437.7137661 C468.00618535 449.74438036 466.99805081 459.5661176 458.39355469 468.68762207 C450.9188761 475.51742642 443.69767759 478.82343443 433.50702286 478.76520348 C432.72644386 478.76870955 431.94586487 478.77221563 431.14163196 478.77582794 C428.52226777 478.78514242 425.90312588 478.7802185 423.28375244 478.77536011 C421.38829103 478.77909634 419.49283115 478.78369776 417.59737372 478.78909075 C412.38549437 478.80133949 407.17367912 478.80105807 401.96178865 478.798702 C396.34200835 478.79829431 390.72224873 478.80932846 385.10247803 478.81881714 C374.09090483 478.83543848 363.07935305 478.8409272 352.06776837 478.84204189 C343.11776441 478.84299185 334.16776753 478.8470995 325.21776581 478.85344315 C303.97752486 478.86819177 282.73728984 478.88049254 261.49704361 478.87944603 C260.81777617 478.87941487 260.13850873 478.87938371 259.43865743 478.87935161 C255.99586935 478.8791854 252.55308126 478.87898732 249.11029318 478.8787822 C248.42654695 478.87874231 247.74280071 478.87870242 247.03833489 478.87866132 C245.65563307 478.87858044 244.27293124 478.87849685 242.89022942 478.87841053 C221.37991757 478.87718515 199.8696688 478.8921958 178.359375 478.91955566 C154.19070308 478.95028419 130.02208582 478.96746235 105.8533895 478.96562922 C93.0573641 478.96496495 80.26140981 478.97047342 67.4654007 478.99198532 C56.57063482 479.01018341 45.6759723 479.01455571 34.78119782 479.00096647 C29.22251347 478.9944299 23.66402749 478.99434468 18.10536194 479.01167297 C13.01505982 479.02737801 7.92511378 479.02456613 2.83482048 479.00710471 C0.99499401 479.00402917 -0.84485887 479.00768801 -2.68465421 479.01882486 C-16.4352806 479.09653766 -26.10785738 477.75563097 -36.39550781 467.95324707 C-42.64159256 461.02053598 -44.72008903 454.5769261 -44.73285389 445.3906765 C-44.73520612 444.6698099 -44.73755835 443.94894329 -44.73998186 443.20623225 C-44.74666664 440.77800656 -44.74621379 438.34983446 -44.74580383 435.92160034 C-44.74910278 434.16810926 -44.75282841 432.41461894 -44.75694531 430.66112959 C-44.76696989 425.83240154 -44.77068284 421.00368592 -44.77333462 416.17494893 C-44.7772363 410.97095667 -44.78681471 405.76697426 -44.79554749 400.56298828 C-44.81531543 387.99052875 -44.82537839 375.4180684 -44.83427528 362.84559721 C-44.83865751 356.92648957 -44.84402447 351.00738284 -44.84926414 345.08827591 C-44.86627652 325.4145266 -44.88077112 305.74077786 -44.88801289 286.06702232 C-44.88992281 280.96090062 -44.89184314 275.85477892 -44.89379883 270.74865723 C-44.89428257 269.47954044 -44.89476631 268.21042366 -44.89526471 266.9028488 C-44.90356663 246.33981025 -44.92890626 225.77682984 -44.96137951 205.21381669 C-44.99443967 184.10726898 -45.01246069 163.00075082 -45.01565713 141.89417708 C-45.01782315 130.04156046 -45.02658545 118.18902863 -45.0521183 106.33643723 C-45.07381099 96.24311807 -45.08188272 86.14990431 -45.07215152 76.05656449 C-45.06760274 70.90698785 -45.06952678 65.75762872 -45.08891296 60.60808182 C-45.10651588 55.89148268 -45.10557015 51.1752602 -45.09001567 46.45865722 C-45.08763525 44.75470247 -45.09198565 43.05072184 -45.10384432 41.34680669 C-45.18401699 29.06382262 -44.10241364 19.42567265 -35.30957031 10.18762207 C-24.96114006 0.02820424 -13.74480967 -0.07266586 0 0 Z " fill="#000001" transform="translate(44.5986328125,16.4920654296875)"/>
<path d="M0 0 C9.57 0 19.14 0 29 0 C29.99 1.98 30.98 3.96 32 6 C34.95266182 7.47633091 37.94298769 7.14334731 41.18020821 7.1386652 C42.30812661 7.14292853 42.30812661 7.14292853 43.45883125 7.14727798 C46.00472034 7.15566869 48.55056418 7.1568966 51.09646606 7.15821838 C52.92960465 7.16278076 54.76274218 7.1677803 56.59587848 7.17318195 C61.65365627 7.18680942 66.7114273 7.1941947 71.76921868 7.20060861 C77.21573193 7.20859239 82.66223103 7.22229708 88.10873413 7.23532104 C97.55196822 7.25711259 106.99520372 7.27524725 116.43844986 7.29092598 C130.09194339 7.31360028 143.74542128 7.34174645 157.39890157 7.37124526 C179.54864228 7.41895115 201.69838952 7.46221572 223.84814453 7.50268555 C245.36963397 7.54201802 266.89111774 7.58343631 288.41259766 7.62768555 C289.07569543 7.62904808 289.7387932 7.63041061 290.42198485 7.63181442 C297.74166708 7.64685741 305.0613492 7.66195759 312.38103127 7.67708123 C367.58734235 7.79109308 422.79366572 7.89789199 478 8 C478.11626916 15.55427913 478.20490421 23.10846453 478.25906086 30.66343689 C478.28506471 34.17226959 478.32028972 37.68048648 478.37719727 41.18896484 C478.4423298 45.23020054 478.46625618 49.27079771 478.48828125 53.3125 C478.51408768 54.5617627 478.5398941 55.81102539 478.56648254 57.09814453 C478.56879787 64.33629122 478.13531362 69.6241479 473 75 C472.51301829 75.51784136 472.02603657 76.03568273 471.52429783 76.56921625 C464.80672334 82.04785727 455.09112098 80.68259013 446.91867065 80.62145996 C445.05162647 80.62579035 443.1845863 80.6323076 441.3175565 80.64082003 C436.19353218 80.65781094 431.06999657 80.64363056 425.94599795 80.62430525 C420.41766394 80.60888103 414.88938991 80.62227935 409.36105347 80.63204956 C398.53418134 80.64657959 387.70749666 80.63433887 376.88064228 80.61293632 C364.27631454 80.58893376 351.67202982 80.5906402 339.06768431 80.59324223 C315.90261053 80.59704434 292.73763173 80.57409769 269.57259362 80.53889475 C248.42451466 80.50689411 227.27651993 80.49485256 206.12841797 80.50097656 C204.77020808 80.50136341 203.41199818 80.50174986 202.05378829 80.50213593 C201.38231516 80.50232728 200.71084203 80.50251862 200.01902123 80.50271577 C196.63892633 80.5036701 193.25883142 80.50458447 189.8787365 80.50545502 C189.21189718 80.50562881 188.54505785 80.5058026 187.85801128 80.50598167 C170.18602401 80.51033617 152.51404506 80.50024704 134.84206402 80.48561716 C133.58605084 80.48457768 132.33003765 80.48353819 131.03596345 80.4824672 C128.5132218 80.48037629 125.99048016 80.47826531 123.46773853 80.47613403 C114.67796087 80.46923355 105.88819518 80.46856992 97.09841537 80.47001648 C86.39096232 80.47145486 75.68358498 80.46178929 64.97615705 80.43807012 C59.51115794 80.4261951 54.04626447 80.41909502 48.58125305 80.42490768 C43.58132838 80.43006864 38.58162715 80.42142973 33.58174075 80.40163308 C31.77031658 80.39688226 29.95887072 80.39720733 28.14744972 80.40304345 C25.68969637 80.41019849 23.23268879 80.39898792 20.77499199 80.38311005 C20.06787671 80.38956185 19.36076143 80.39601365 18.63221842 80.40266097 C13.20142254 80.3365776 9.15129047 78.98441889 5.13671875 75.28125 C4.65847656 74.6934375 4.18023437 74.105625 3.6875 73.5 C3.19636719 72.9121875 2.70523437 72.324375 2.19921875 71.71875 C-0.31840883 68.11042382 -0.1215091 64.76435128 -0.11352539 60.5090332 C-0.11367142 59.8551059 -0.11381744 59.20117859 -0.1139679 58.5274353 C-0.11327188 56.36851674 -0.10549408 54.20968472 -0.09765625 52.05078125 C-0.09579096 50.55291287 -0.09436758 49.05504389 -0.09336853 47.55717468 C-0.08955207 43.61654981 -0.0797292 39.67596186 -0.06866455 35.73535156 C-0.05843172 31.71354675 -0.0538669 27.69173596 -0.04882812 23.66992188 C-0.03810616 15.7799291 -0.02051639 7.88997339 0 0 Z " fill="#7EA7FB" transform="translate(17,398)"/>
<path d="M0 0 C0.76420967 -0.00265183 1.52841933 -0.00530365 2.31578687 -0.00803584 C4.89745347 -0.01574501 7.47907264 -0.01628863 10.06075001 -0.01688576 C11.92204833 -0.02089931 13.78334578 -0.02533735 15.64464217 -0.03016531 C20.77592995 -0.04214853 25.90720831 -0.0477833 31.03850734 -0.05234647 C36.56627291 -0.05829589 42.0940272 -0.06990732 47.62178516 -0.08063698 C60.97923173 -0.10517528 74.33668204 -0.11978979 87.69414422 -0.13269705 C91.46530405 -0.13640779 95.2364635 -0.14038112 99.00762296 -0.14444971 C122.41390942 -0.16968391 145.82019682 -0.1917584 169.22649384 -0.20417786 C174.64974629 -0.20709921 180.07299871 -0.21006673 185.49625111 -0.21308327 C186.17002527 -0.21345418 186.84379944 -0.21382509 187.537991 -0.21420723 C209.38488094 -0.22636359 231.23169033 -0.2573091 253.07854244 -0.29900479 C276.17254491 -0.34300038 299.26650943 -0.36871128 322.36055881 -0.37409842 C334.95091126 -0.37751556 347.54113664 -0.38930659 360.1314497 -0.42220116 C370.85214819 -0.45016473 381.57269356 -0.46121718 392.2934257 -0.4500057 C397.76480495 -0.44480973 403.23586334 -0.44776698 408.70719624 -0.47247124 C413.71553746 -0.49489657 418.72332609 -0.49427604 423.73167656 -0.47526737 C425.54397242 -0.47245794 427.35630523 -0.47811801 429.16854151 -0.4930803 C446.7202216 -0.62913675 446.7202216 -0.62913675 452.5941515 5.13701439 C453.41399525 5.85244408 454.233839 6.56787376 455.0785265 7.30498314 C457.38637449 11.61732796 457.02068984 15.6456345 456.8441515 20.44951439 C456.82610462 21.38086205 456.80805775 22.3122097 456.789464 23.27178001 C456.74250038 25.56125636 456.67684625 27.84859623 456.5941515 30.13701439 C455.27630828 30.13734044 455.27630828 30.13734044 453.93184197 30.13767308 C401.86611974 30.15118765 349.80047238 30.19066253 297.73479808 30.26387001 C291.48381458 30.27263681 285.23283079 30.28118661 278.98184681 30.28960228 C277.11515193 30.29212087 277.11515193 30.29212087 275.21074603 30.29469035 C255.05810126 30.32136329 234.90548493 30.33045564 214.75282432 30.33305582 C194.07576933 30.3361148 173.3987966 30.35805514 152.72177875 30.39753896 C139.96197658 30.42130887 127.2023386 30.43033491 114.44251733 30.4205275 C105.69373596 30.41521356 96.94510179 30.42823272 88.19636233 30.45567729 C83.14805265 30.47097204 78.10007238 30.4781749 73.05175304 30.4636116 C68.42740308 30.45044991 63.80369121 30.46037465 59.17941307 30.48845211 C57.50899961 30.49455686 55.83852939 30.49228058 54.16814531 30.48064365 C45.20154348 30.42307809 37.08508665 30.48796176 29.5941515 36.13701439 C23.33706887 42.69737977 21.28310777 49.10808167 21.34932423 58.15192223 C21.34592737 59.33650871 21.34592737 59.33650871 21.34246188 60.54502624 C21.33717962 63.18197288 21.34598584 65.81868306 21.35464954 68.4556179 C21.3535363 70.34984474 21.35147793 72.24407123 21.34854603 74.13829613 C21.343828 78.21267748 21.3449395 82.28700119 21.35032177 86.36138153 C21.35793163 92.80282433 21.34727666 99.24415604 21.33311939 105.68558311 C21.29537757 124.00069686 21.27720545 142.31575998 21.28873158 160.63091087 C21.29494268 170.74975964 21.28339661 180.86842898 21.25228626 190.98723358 C21.23360628 197.39199178 21.23697437 203.79624273 21.25645387 210.2009927 C21.26332576 214.18269055 21.24939834 218.16411201 21.22950459 222.14575768 C21.22444906 223.9932626 21.22796343 225.84081365 21.24063778 227.68828201 C21.25670465 230.20923528 21.24214112 232.72822587 21.2199297 235.24909019 C21.23196719 235.98138629 21.24400469 236.71368239 21.25640696 237.46816927 C21.1848796 241.44473344 20.78879888 242.92431393 18.05894661 245.9073534 C17.24556422 246.64314153 16.43218184 247.37892965 15.5941515 248.13701439 C15.34576769 251.73172443 15.34576769 251.73172443 16.5941515 255.13701439 C17.26669971 255.67678917 17.93924793 256.21656395 18.6321764 256.77269554 C21.64042658 260.39784991 21.12268469 263.83201262 21.04825306 268.40361595 C21.04883717 269.34054283 21.04942127 270.27746971 21.05002308 271.24278831 C21.04723746 274.3381162 21.01612242 277.43247984 20.9847765 280.52763939 C20.97731582 282.67426083 20.97162207 284.82088908 20.96762562 286.96751976 C20.95235574 292.61641315 20.91306188 298.26489492 20.8688097 303.91362572 C20.82788642 309.67813613 20.80962087 315.44271307 20.789464 321.20732689 C20.74656926 332.51740354 20.67830124 343.82717473 20.5941515 355.13701439 C17.56375599 355.8236599 17.56375599 355.8236599 14.53336048 356.5103054 C11.83526341 357.38227005 10.87425546 358.65210669 9.5941515 361.13701439 C9.2641515 362.12701439 8.9341515 363.11701439 8.5941515 364.13701439 C-0.9758485 364.13701439 -10.5458485 364.13701439 -20.4058485 364.13701439 C-20.49623867 319.39644243 -20.56786785 274.65589235 -20.61010982 229.91524722 C-20.61511276 224.63549107 -20.62029004 219.35573511 -20.62557507 214.07597923 C-20.62662431 213.0248567 -20.62767355 211.97373416 -20.62875459 210.89075942 C-20.64616886 193.86195349 -20.67771218 176.83320148 -20.71445969 159.80442755 C-20.75184066 142.33667025 -20.77407834 124.86894123 -20.78220248 107.40114558 C-20.78769616 96.6190033 -20.80505929 85.83701339 -20.83751437 75.05491801 C-20.85862715 67.66534705 -20.86505589 60.27585508 -20.85985401 52.88625614 C-20.85728719 48.62019692 -20.86127446 44.35440431 -20.8826704 40.08839226 C-20.90211224 36.18354399 -20.90313417 32.27914203 -20.88944408 28.37427337 C-20.88775169 26.96097723 -20.89284623 25.54765342 -20.90538123 24.13441186 C-20.97717074 15.54159147 -20.8665319 10.72857358 -14.80819225 4.49248314 C-9.79044112 0.4916629 -6.22344461 -0.01042564 0 0 Z " fill="#EDF6FE" transform="translate(37.40584850311279,33.862985610961914)"/>
<path d="M0 0 C11.04694051 7.64500621 15.23214597 20.15505044 17.609375 32.80859375 C18.92455718 40.92846795 18.95012403 49.02180141 18.93359375 57.22265625 C18.93437927 58.05669983 18.93516479 58.89074341 18.93597412 59.75006104 C18.91413923 79.43630195 16.90791609 98.87030861 14.79284668 118.42169189 C13.13354008 133.83491225 12.36813157 149.10293911 12.30859375 164.59765625 C12.30055725 165.75547104 12.30055725 165.75547104 12.2923584 166.93667603 C12.24832608 175.26312153 12.49414705 183.48593175 13.421875 191.765625 C13.53260345 192.78577698 13.53260345 192.78577698 13.64556885 193.82653809 C14.68958761 202.18231057 17.46714962 209.87338747 22.55859375 216.59765625 C22.55859375 217.25765625 22.55859375 217.91765625 22.55859375 218.59765625 C30.72304926 222.99390153 40.06584405 224.43992419 49.10546875 221.875 C55.48523758 218.91296447 58.2609743 214.68750436 60.74609375 208.22265625 C66.90359645 191.19752925 63.96207689 170.19020494 61.89697266 152.51660156 C53.41033573 79.30864259 53.41033573 79.30864259 68.55859375 59.59765625 C73.88614942 52.94802903 80.53204472 49.27317259 88.55859375 46.59765625 C100.77147404 45.84055696 111.85036857 45.76999818 121.87109375 53.72265625 C132.52804344 64.074499 136.07935941 79.34952926 136.69662476 93.83738708 C136.70312042 94.94606644 136.70961609 96.05474579 136.71630859 97.19702148 C136.72657074 98.46621933 136.73683289 99.73541718 136.74740601 101.04307556 C136.75084393 101.71250624 136.75428185 102.38193691 136.75782394 103.07165337 C136.76976578 105.19800972 136.78925947 107.3241765 136.8109436 109.45045471 C136.87201711 115.49253794 136.92625599 121.53460119 136.95996094 127.5769043 C136.98120256 131.28751286 137.01673496 134.99777208 137.06071854 138.70817757 C137.07465274 140.10440961 137.08354838 141.50070341 137.08677292 142.89700127 C137.11882723 155.4587666 137.59860729 169.72267741 144.55859375 180.59765625 C147.68085568 182.6791642 149.63850718 183.21030115 153.375 183.09375 C158.72697473 181.8778273 162.21561814 177.5069096 165.25390625 173.1875 C167.66438546 169.26895717 169.75335387 165.24105125 171.74609375 161.09765625 C173.55859375 157.59765625 173.55859375 157.59765625 176.55859375 155.59765625 C180.96044373 155.02704607 182.85696583 155.09009563 186.49609375 157.72265625 C188.99883801 161.21133006 188.99730524 162.38004353 188.55859375 166.59765625 C187.64695806 169.30823852 186.42861634 171.80768268 185.12109375 174.34765625 C184.76418457 175.04995361 184.40727539 175.75225098 184.03955078 176.47583008 C180.74308678 182.70192815 176.68209045 187.75084745 171.55859375 192.59765625 C170.72134766 193.39429688 170.72134766 193.39429688 169.8671875 194.20703125 C163.03721964 200.2701881 157.08319136 201.14073034 148.1953125 200.94921875 C143.48174946 200.49355745 140.35673013 199.35745319 136.55859375 196.59765625 C135.52734375 195.89640625 134.49609375 195.19515625 133.43359375 194.47265625 C122.98970018 185.16706171 121.00610925 170.71279327 119.55859375 157.59765625 C119.28714224 152.72256203 119.2353107 147.85849633 119.21484375 142.9765625 C119.20114089 141.62001952 119.18634524 140.26348719 119.17053223 138.90696716 C119.12300827 134.6580936 119.08964996 130.40917796 119.05859375 126.16015625 C119.02250933 121.22768286 118.98009605 116.29541681 118.9226532 111.36314201 C118.90306775 109.42327255 118.89449866 107.48330145 118.88635254 105.54335022 C118.7920694 85.24322511 118.7920694 85.24322511 109.99609375 67.59765625 C104.74102477 63.28580478 98.03335035 64.0353131 91.55859375 64.59765625 C86.66229529 66.14829122 83.24920079 69.27346637 80.55859375 73.59765625 C71.60826403 94.90987634 76.59790778 121.98214114 79.05859375 144.22265625 C82.04167843 171.26911975 82.04167843 171.26911975 81.99609375 184.84765625 C81.99351562 185.88486816 81.9909375 186.92208008 81.98828125 187.99072266 C81.78471141 198.1878751 80.76854216 208.49093329 76.49609375 217.84765625 C76.19372803 218.52022461 75.8913623 219.19279297 75.57983398 219.88574219 C71.29475958 228.86069468 64.79339819 234.93628004 55.55859375 238.59765625 C54.69234375 238.98953125 53.82609375 239.38140625 52.93359375 239.78515625 C42.20519719 243.45539718 30.71464552 242.36040179 20.55859375 237.59765625 C13.01369673 233.22851981 7.58258506 228.34756545 3.55859375 220.59765625 C3.1203125 219.77265625 2.68203125 218.94765625 2.23046875 218.09765625 C-5.07009175 202.61694966 -6.16649837 184.76514511 -6.00390625 167.91015625 C-6.00164032 167.00931305 -5.99937439 166.10846985 -5.99703979 165.18032837 C-5.905713 141.62641045 -3.55308747 118.20813795 -1.30439758 94.7817688 C3.62284889 55.59879649 3.62284889 55.59879649 -6.44140625 18.59765625 C-6.93640625 17.11265625 -6.93640625 17.11265625 -7.44140625 15.59765625 C-13.89163873 12.2853747 -22.89382641 12.52492258 -29.75390625 14.59765625 C-37.74310999 18.19445544 -41.31261744 25.72124476 -44.3984375 33.47265625 C-46.64621056 40.20755681 -47.87988152 46.77538029 -48.56079102 53.8190918 C-48.68765337 55.12034894 -48.68765337 55.12034894 -48.81707859 56.4478941 C-49.59143511 65.0940889 -49.66000048 73.69147339 -49.56117058 82.36582375 C-49.53020965 85.1481805 -49.51397826 87.93031788 -49.50111389 90.71281433 C-49.46198414 98.60680726 -49.3963172 106.50052741 -49.32495117 114.39428711 C-49.28188355 119.26731517 -49.25401762 124.14025676 -49.23465157 129.01343346 C-49.22421164 130.84598805 -49.20796434 132.6785206 -49.1853466 134.51096535 C-48.9935913 150.04786718 -49.05220113 168.02610678 -60.0234375 180.37890625 C-66.00221368 185.58573918 -71.07371171 186.09338305 -78.81640625 185.98046875 C-85.45908376 185.2789791 -90.18763439 182.58936162 -95.12890625 178.22265625 C-96.97560246 174.52926383 -96.64980553 172.50718335 -95.44140625 168.59765625 C-93.31640625 166.09765625 -93.31640625 166.09765625 -90.44140625 164.59765625 C-87.02348801 164.71758321 -84.47463592 165.04875299 -81.44140625 166.66015625 C-78.46294302 168.05631089 -75.67789966 167.72213677 -72.44140625 167.59765625 C-71.79304583 165.84859094 -71.14781841 164.09836406 -70.50390625 162.34765625 C-70.14425781 161.373125 -69.78460938 160.39859375 -69.4140625 159.39453125 C-67.61453809 154.2199952 -67.31334282 149.66501305 -67.35961914 144.19921875 C-67.3626857 143.35293915 -67.36575226 142.50665955 -67.36891174 141.63473511 C-67.37606339 139.79594987 -67.38545163 137.95717229 -67.39680672 136.1184082 C-67.4142633 133.18895967 -67.42452078 130.25956634 -67.432724 127.33007812 C-67.4570927 118.99962121 -67.49220555 110.66923715 -67.53735352 102.33886719 C-67.56449024 97.23785906 -67.58130534 92.13689497 -67.59222221 87.03582764 C-67.59834512 85.10974519 -67.60823666 83.18367022 -67.6223011 81.25762939 C-67.69348401 71.40571403 -67.52373401 61.65981259 -66.57202148 51.84765625 C-66.49627175 51.05613159 -66.42052202 50.26460693 -66.34247684 49.44909668 C-64.70181515 34.29319163 -60.13508557 16.1518123 -48.44140625 5.59765625 C-33.98553487 -5.90576355 -16.46114775 -9.45528327 0 0 Z " fill="#030304" transform="translate(148.44140625,111.40234375)"/>
<path d="M0 0 C1.25671509 0.01353516 1.25671509 0.01353516 2.53881836 0.02734375 C13.82059693 0.34313267 21.55563898 4.56325307 29.625 12.4375 C36.02566565 20.15872404 39.15994589 28.19297429 39.125 38.1875 C39.15335938 38.909375 39.18171875 39.63125 39.2109375 40.375 C39.25143326 51.95678696 32.31952558 62.24468523 26.68652344 71.97607422 C25.61706618 73.82622543 24.5618598 75.68400374 23.5078125 77.54296875 C22.81853392 78.74526535 22.128458 79.94710527 21.4375 81.1484375 C20.82519531 82.21368652 20.21289062 83.27893555 19.58203125 84.37646484 C14.09005091 92.96659078 14.09005091 92.96659078 9.125 94.5625 C4.89823864 94.41154424 3.53081476 93.4287799 0.625 90.4375 C-0.79097507 87.60554985 -0.62217776 85.58628846 -0.375 82.4375 C0.90673828 79.56005859 0.90673828 79.56005859 2.6953125 76.5859375 C3.345 75.48636719 3.9946875 74.38679688 4.6640625 73.25390625 C5.35866672 72.10634182 6.05398201 70.9592075 6.75 69.8125 C18.44942894 52.41272407 18.44942894 52.41272407 20.625 32.4375 C18.22110531 26.45707906 14.19482527 22.11885115 8.3359375 19.359375 C3.04707105 17.56085557 -3.13882045 17.44404047 -8.5 19.08984375 C-17.21985335 23.62494605 -21.65556845 33.06597891 -26.125 41.3125 C-27.36970229 43.57238154 -28.61579885 45.83149568 -29.86328125 48.08984375 C-30.4660791 49.18409668 -31.06887695 50.27834961 -31.68994141 51.40576172 C-33.83582994 55.26661999 -36.05412488 59.07915027 -38.3125 62.875 C-44.44068342 73.2007788 -50.41448644 83.61516842 -56.40625 94.02050781 C-58.98957152 98.50415959 -61.57752904 102.98512182 -64.16723633 107.46508789 C-65.42319212 109.64193771 -66.67567936 111.8207927 -67.92456055 114.00170898 C-70.88926706 119.17428465 -73.89254696 124.31033577 -77.01953125 129.38671875 C-77.58647705 130.32539795 -78.15342285 131.26407715 -78.73754883 132.23120117 C-79.79081084 133.97198086 -80.8634703 135.7012475 -81.9597168 137.4152832 C-85.57254822 143.45495016 -85.82427165 147.61327307 -84.375 154.4375 C-84.23352539 155.17661621 -84.09205078 155.91573242 -83.94628906 156.67724609 C-83.51776964 158.76019409 -83.0227612 160.81388428 -82.5 162.875 C-82.33886719 163.56787109 -82.17773438 164.26074219 -82.01171875 164.97460938 C-80.80824658 169.9184598 -80.80824658 169.9184598 -77.375 173.4375 C-70.38415832 174.50132373 -63.92995139 171.62789217 -57.375 169.4375 C-56.5809375 169.23382813 -55.786875 169.03015625 -54.96875 168.8203125 C-49.78420825 167.3646527 -47.72175147 164.91237127 -45.078125 160.50390625 C-44.51609375 159.49199219 -43.9540625 158.48007813 -43.375 157.4375 C-42.55740367 155.98821806 -41.73968482 154.53900523 -40.921875 153.08984375 C-39.17853605 149.98294416 -37.4529702 146.86712253 -35.7421875 143.7421875 C-33.66420006 139.94752798 -31.53323378 136.18705822 -29.375 132.4375 C-30.15875 132.23125 -30.9425 132.025 -31.75 131.8125 C-38.32744205 129.31760819 -45.86946738 125.81119567 -49.375 119.4375 C-49.9375 116.4375 -49.9375 116.4375 -49.375 113.4375 C-47.3125 110.5625 -47.3125 110.5625 -44.375 108.4375 C-38.92582867 107.88874115 -35.75504699 108.87049796 -31.07421875 111.61328125 C-30.51176956 111.9391069 -29.94932037 112.26493256 -29.36982727 112.60063171 C-28.19181736 113.28706741 -27.01802072 113.98078091 -25.84838867 114.68139648 C-24.05889777 115.75215543 -22.25675364 116.79844659 -20.45117188 117.84179688 C-11.66145833 123.0078125 -11.66145833 123.0078125 -9.375 126.4375 C-8.49564841 133.00387311 -10.85634516 137.02894679 -14.0625 142.5 C-14.55218262 143.3569043 -15.04186523 144.21380859 -15.54638672 145.09667969 C-16.5972659 146.92852385 -17.65510764 148.75638822 -18.71923828 150.58056641 C-20.40488824 153.48907065 -22.04645515 156.41942737 -23.68359375 159.35546875 C-24.78756452 161.30033024 -25.892999 163.2443617 -27 165.1875 C-27.50104248 166.09121338 -28.00208496 166.99492676 -28.51831055 167.92602539 C-34.77273268 178.70483765 -42.2188957 184.27449079 -54.0625 187.9375 C-55.11888672 188.27426758 -56.17527344 188.61103516 -57.26367188 188.95800781 C-66.46626189 191.74248247 -75.59157155 193.83180673 -84.8125 189.875 C-95.10152546 183.55176594 -98.28688364 175.15497674 -101.07446289 163.86987305 C-104.70596255 148.23751507 -103.29246091 139.33902545 -95.375 125.4375 C-94.57835937 124.03056885 -94.57835937 124.03056885 -93.765625 122.59521484 C-90.01024102 115.98628882 -86.1948402 109.41333128 -82.36279297 102.84863281 C-79.18133648 97.38912531 -76.02922297 91.91277059 -72.875 86.4375 C-71.62515042 84.27074656 -70.37515017 82.10408002 -69.125 79.9375 C-68.50625 78.865 -67.8875 77.7925 -67.25 76.6875 C-65.375 73.4375 -63.5 70.1875 -61.625 66.9375 C-61.00568604 65.8637915 -60.38637207 64.79008301 -59.74829102 63.68383789 C-58.50479621 61.52891147 -57.26049965 59.37444748 -56.01538086 57.22045898 C-53.12322829 52.21499981 -50.23845897 47.2058037 -47.38381958 42.17886353 C-46.38421832 40.41950581 -45.38195802 38.66168931 -44.37890625 36.90429688 C-43.13015312 34.71458187 -41.88625733 32.52208587 -40.6484375 30.32617188 C-33.28603009 17.44609509 -26.05669755 6.22465496 -11.56542969 1.03076172 C-7.72352766 -0.0097891 -3.96019568 -0.05106327 0 0 Z " fill="#030303" transform="translate(423.375,65.5625)"/>
<path d="M0 0 C5.23280031 3.06336851 9.30433356 7.84303627 11.625 13.4375 C14.1170428 26.26539243 6.51258027 36.67579746 0.19921875 47.140625 C-0.39028564 48.12111816 -0.97979004 49.10161133 -1.5871582 50.11181641 C-2.76182949 52.05051328 -3.95139499 53.98027813 -5.15698242 55.89990234 C-9.26764204 62.19767983 -9.26764204 62.19767983 -9.375 69.4375 C-7.49730858 72.28670053 -7.49730858 72.28670053 -5.375 74.4375 C-5.94347656 75.38109375 -6.51195312 76.3246875 -7.09765625 77.296875 C-11.44122827 84.51632803 -15.74921711 91.75174804 -19.96484375 99.046875 C-21.04511173 100.87824344 -22.1955752 102.6683628 -23.375 104.4375 C-24.06537354 104.01339844 -24.75574707 103.58929688 -25.46704102 103.15234375 C-28.61435068 101.23128947 -31.77552883 99.33431652 -34.9375 97.4375 C-36.02353516 96.76976562 -37.10957031 96.10203125 -38.22851562 95.4140625 C-39.28876953 94.78242188 -40.34902344 94.15078125 -41.44140625 93.5 C-42.41021729 92.91347656 -43.37902832 92.32695312 -44.37719727 91.72265625 C-48.91775526 89.77612174 -52.7257385 89.88774617 -57.375 91.4375 C-57.65368395 92.82789057 -57.89668931 94.22545546 -58.125 95.625 C-58.26421875 96.40230469 -58.4034375 97.17960937 -58.546875 97.98046875 C-58.29312661 101.60791739 -56.94636522 102.89827684 -54.375 105.4375 C-51.88601239 107.07618844 -49.29033271 108.42237208 -46.625 109.75 C-45.92761719 110.10900391 -45.23023438 110.46800781 -44.51171875 110.83789062 C-42.80474748 111.71475943 -41.09057211 112.57758015 -39.375 113.4375 C-40.87141575 118.72483566 -43.30386013 123.0284789 -46.125 127.6875 C-46.57238525 128.43531738 -47.01977051 129.18313477 -47.48071289 129.95361328 C-48.36982778 131.43884477 -49.26112719 132.92277107 -50.15478516 134.40527344 C-51.20285684 136.15080139 -52.23398249 137.90648455 -53.26171875 139.6640625 C-53.77347656 140.53804687 -54.28523438 141.41203125 -54.8125 142.3125 C-55.46025391 143.42238281 -55.46025391 143.42238281 -56.12109375 144.5546875 C-59.18413854 149.15402578 -62.56029139 150.43946372 -67.75 152.0625 C-68.41 152.2790625 -69.07 152.495625 -69.75 152.71875 C-75.67869939 154.63199562 -81.11605975 156.00649457 -87.375 155.4375 C-92.37134433 152.06831762 -92.95149803 146.65087959 -94.1875 141.125 C-94.53071289 139.73764648 -94.53071289 139.73764648 -94.88085938 138.32226562 C-96.71619146 130.4252863 -96.5091761 124.70962959 -92.3046875 117.54296875 C-91.66329834 116.43614746 -91.02190918 115.32932617 -90.36108398 114.18896484 C-89.65754679 113.0008833 -88.95384785 111.81289753 -88.25 110.625 C-87.52240262 109.37776641 -86.7959395 108.1298705 -86.07055664 106.88134766 C-84.57716878 104.31425045 -83.07792769 101.75071923 -81.57373047 99.18994141 C-78.90554058 94.64362343 -76.27701802 90.07471455 -73.64892578 85.50512695 C-71.79971046 82.29026538 -69.94554692 79.07830794 -68.08984375 75.8671875 C-64.97435056 70.47552367 -61.86152318 65.08232906 -58.75024414 59.68823242 C-57.50633482 57.53191781 -56.26203538 55.3758282 -55.01733398 53.2199707 C-52.12497119 48.20965315 -49.2355574 43.1977161 -46.35803223 38.17886353 C-45.34951686 36.42021251 -44.3399523 34.66216791 -43.33007812 32.90429688 C-42.07149482 30.71277769 -40.81483013 28.52015496 -39.56054688 26.32617188 C-19.3843835 -8.77358944 -19.3843835 -8.77358944 0 0 Z " fill="#FD6C79" transform="translate(433.375,84.5625)"/>
<path d="M0 0 C0.82153832 -0.0055344 1.64307664 -0.01106879 2.48951006 -0.0167709 C5.24034473 -0.03037626 7.99027191 -0.01540903 10.74108887 -0.00050354 C12.71398809 -0.00428676 14.68688466 -0.00978682 16.65977478 -0.01687622 C22.01719435 -0.03084767 27.37429338 -0.01964908 32.73169518 -0.00316501 C38.33610669 0.01067665 43.94049944 0.00422642 49.54492188 0.0007019 C58.9568804 -0.00200091 68.36871145 0.0114816 77.78063965 0.03465271 C88.66486982 0.06126284 99.54888682 0.06300978 110.43313837 0.05126435 C120.89990627 0.04048818 131.366597 0.04667239 141.83335876 0.06081963 C146.28940147 0.06658081 150.74538773 0.06649569 155.20143127 0.06175423 C160.44800492 0.05698478 165.69434491 0.06708495 170.9408741 0.08870888 C172.86738866 0.09427733 174.79392566 0.09474151 176.72044182 0.08975601 C179.34831171 0.08380796 181.97546609 0.09629899 184.60327148 0.11352539 C185.74943019 0.10451032 185.74943019 0.10451032 186.91874361 0.09531313 C191.38739048 0.14865583 194.26498441 0.71676928 197.80163574 3.50120544 C199.80163574 6.50120544 199.80163574 6.50120544 199.73913574 9.93870544 C198.59066387 14.30289854 197.60981257 15.17150417 193.80163574 17.50120544 C190.91450685 17.89080353 188.41075458 18.05083383 185.52734375 18.02259827 C184.69763833 18.03024936 183.8679329 18.03790045 183.01308489 18.0457834 C180.23466129 18.06641085 177.45706684 18.05846627 174.67858887 18.05052185 C172.6859816 18.05921661 170.69338103 18.06958308 168.70079041 18.08149719 C163.28969104 18.10829218 157.87887091 18.10943315 152.46771812 18.10437059 C147.95207417 18.10223253 143.43648688 18.11199421 138.92085505 18.12158144 C128.26990687 18.14377619 117.61909977 18.14464358 106.96813965 18.1325531 C95.97471068 18.12046598 84.98179318 18.14511325 73.98845148 18.18769324 C64.55307322 18.22289704 55.11785798 18.23493262 45.68241644 18.22841775 C40.04554686 18.22478774 34.40904227 18.2301071 28.77223206 18.25784683 C23.47295088 18.28294973 18.1744688 18.27916803 12.87520027 18.25302505 C10.9293243 18.24828276 8.98339254 18.2538016 7.03758049 18.2702713 C4.38276266 18.29112383 1.73064712 18.27508201 -0.92407227 18.24964905 C-2.08190381 18.2717719 -2.08190381 18.2717719 -3.2631259 18.29434168 C-6.14997435 18.23606671 -8.48897853 18.05353993 -10.81433773 16.24299312 C-13.38951562 13.35612742 -14.18880914 11.77830377 -14.32336426 7.87620544 C-11.92249565 0.67359961 -6.92451971 -0.08704299 0 0 Z " fill="#010102" transform="translate(163.1983642578125,433.49879455566406)"/>
<path d="M0 0 C9.57 0 19.14 0 29 0 C29.99 1.98 30.98 3.96 32 6 C34.97 6.99 37.94 7.98 41 9 C41 32.1 41 55.2 41 79 C10 79 10 79 2 72 C-0.2749225 68.14526632 -0.24373507 64.71165982 -0.22705078 60.28198242 C-0.22734283 59.62776306 -0.22763489 58.9735437 -0.22793579 58.29949951 C-0.22654982 56.15135121 -0.21102371 54.00355596 -0.1953125 51.85546875 C-0.19157975 50.3604603 -0.18873402 48.8654494 -0.18673706 47.37043762 C-0.17912118 43.44622986 -0.15949041 39.52217145 -0.1373291 35.59802246 C-0.11321821 30.88398576 -0.10407994 26.16989896 -0.09242249 21.45581818 C-0.07306468 14.30377509 -0.0347281 7.15205935 0 0 Z " fill="#9BBBFE" transform="translate(17,398)"/>
<path d="M0 0 C5.34142682 2.1091788 10.56557522 4.27201909 15 8 C15.375 11.5625 15.375 11.5625 15 15 C17.95050711 19.83512422 21.84642431 21.86998167 26.75 24.3125 C27.44738281 24.67150391 28.14476562 25.03050781 28.86328125 25.40039062 C30.57025252 26.27725943 32.28442789 27.14008015 34 28 C32.50358425 33.28733566 30.07113987 37.5909789 27.25 42.25 C26.80261475 42.99781738 26.35522949 43.74563477 25.89428711 44.51611328 C25.00517222 46.00134477 24.11387281 47.48527107 23.22021484 48.96777344 C22.17214316 50.71330139 21.14101751 52.46898455 20.11328125 54.2265625 C19.34564453 55.53753906 19.34564453 55.53753906 18.5625 56.875 C18.13066406 57.61492187 17.69882812 58.35484375 17.25390625 59.1171875 C14.19086146 63.71652578 10.81470861 65.00196372 5.625 66.625 C4.965 66.8415625 4.305 67.058125 3.625 67.28125 C-2.30369939 69.19449562 -7.74105975 70.56899457 -14 70 C-18.99634433 66.63081762 -19.57649803 61.21337959 -20.8125 55.6875 C-21.04130859 54.76259766 -21.27011719 53.83769531 -21.50585938 52.88476562 C-23.41912861 44.65244202 -22.96793683 38.99474089 -18.61328125 31.54296875 C-18.27378952 30.95510086 -17.93429779 30.36723297 -17.58451843 29.7615509 C-16.50438966 27.89715747 -15.40879878 26.04242108 -14.3125 24.1875 C-13.59597635 22.95567602 -12.88047323 21.72325782 -12.16601562 20.49023438 C-8.17575647 13.62154127 -4.10773467 6.799043 0 0 Z " fill="#ECF5FD" transform="translate(360,170)"/>
<path d="M0 0 C2.45673551 4.44469464 2.8891309 7.99840471 2 13 C0.24830194 17.22650653 -2.02854 21.07901696 -4.375 25 C-5.01767822 26.10867432 -5.66035645 27.21734863 -6.32250977 28.35961914 C-8.19684561 31.5841697 -10.09522734 34.79336299 -12 38 C-12.87770686 39.49787565 -13.7542069 40.99645985 -14.62890625 42.49609375 C-16.17245195 45.13697883 -17.72914241 47.76952034 -19.29296875 50.3984375 C-21.47946299 54.0906216 -23.61272086 57.811484 -25.73828125 61.5390625 C-26.4069179 62.70910263 -27.0756195 63.87910565 -27.74438477 65.04907227 C-29.05120716 67.3355868 -30.35137287 69.62547973 -31.64819336 71.91772461 C-36.11881021 79.73610293 -40.62162496 86.62162496 -47 93 C-52.445 89.535 -52.445 89.535 -58 86 C-56.76540872 82.9135218 -55.68785459 80.26074518 -54.109375 77.41796875 C-53.73731934 76.74652832 -53.36526367 76.07508789 -52.98193359 75.38330078 C-52.57539551 74.65868652 -52.16885742 73.93407227 -51.75 73.1875 C-51.31381348 72.40616699 -50.87762695 71.62483398 -50.42822266 70.81982422 C-46.24663573 63.36796598 -41.94143083 55.98899731 -37.60986328 48.62353516 C-34.28941152 42.96723099 -31.02506277 37.28525505 -27.828125 31.55859375 C-26.77053437 29.67357559 -25.71233065 27.78890248 -24.65411377 25.90423584 C-23.97912085 24.69624632 -23.3080385 23.48606156 -22.64129639 22.27349854 C-10.0905246 -0.54543376 -10.0905246 -0.54543376 0 0 Z " fill="#FC8A93" transform="translate(419,84)"/>
<path d="M0 0 C9.3125 3.625 9.3125 3.625 11 7 C11.4799883 12.61820967 10.47275823 15.75518749 7.60546875 20.5625 C7.25744705 21.15748291 6.90942535 21.75246582 6.55085754 22.36547852 C5.44382248 24.25240576 4.3168528 26.12636143 3.1875 28 C2.07285674 29.87571558 0.96265485 31.75391892 -0.14372253 33.63452148 C-1.15137214 35.34312272 -2.1706915 37.044826 -3.19067383 38.74609375 C-7.16248491 45.58674385 -7.16248491 45.58674385 -8.00390625 53.26171875 C-7.94009766 53.98810547 -7.87628906 54.71449219 -7.81054688 55.46289062 C-7.72869141 56.19701172 -7.64683594 56.93113281 -7.5625 57.6875 C-6.62941747 66.60961971 -6.62941747 66.60961971 -9 70 C-11.9588568 70.32876187 -13.50694125 70.33867636 -15.99609375 68.62890625 C-19.00001585 64.68808837 -19.7433055 60.46762185 -20.8125 55.6875 C-21.04130859 54.76259766 -21.27011719 53.83769531 -21.50585938 52.88476562 C-23.41912861 44.65244202 -22.96793683 38.99474089 -18.61328125 31.54296875 C-18.27378952 30.95510086 -17.93429779 30.36723297 -17.58451843 29.7615509 C-16.50438966 27.89715747 -15.40879878 26.04242108 -14.3125 24.1875 C-13.59597635 22.95567602 -12.88047323 21.72325782 -12.16601562 20.49023438 C-8.17575647 13.62154127 -4.10773467 6.799043 0 0 Z " fill="#FCFCFC" transform="translate(360,170)"/>
<path d="M0 0 C4.8726693 2.44171287 7.88193337 6.37738923 9.89453125 11.38671875 C10.97149434 16.40379072 10.30854766 20.25594003 7.76953125 24.69921875 C4.66937539 29.12046375 1.02055242 31.67804503 -4.10546875 33.38671875 C-9.37422855 33.784361 -12.67188799 33.31099542 -17.10546875 30.38671875 C-21.74113808 25.80520443 -24.2233441 22.24267388 -24.41796875 15.57421875 C-24.36144883 10.72057065 -23.38111447 8.10501929 -20.10546875 4.38671875 C-14.0413827 -0.95545229 -7.95830581 -2.3180965 0 0 Z " fill="#020204" transform="translate(101.10546875,426.61328125)"/>
<path d="M0 0 C3.7229703 2.6592645 6.55543557 5.73587115 8.625 9.875 C9.18213132 15.83201945 9.14680186 20.82708399 5.625 25.875 C1.07124927 30.23076157 -2.49492315 32.55499146 -8.75 33.25 C-14.39510137 32.666024 -17.86316903 30.50941186 -21.6875 26.375 C-25.20283024 21.16710336 -26.3746561 17.15119139 -25.375 10.875 C-20.7677174 -0.37626094 -11.29292816 -3.76430939 0 0 Z " fill="#020204" transform="translate(426.375,427.125)"/>
</svg>
