<?xml version="1.0" encoding="UTF-8"?>
<svg version="1.1" xmlns="http://www.w3.org/2000/svg" width="512" height="512">
<path d="M0 0 C0.99868909 -0.00297112 1.99737819 -0.00594224 3.02633059 -0.0090034 C6.35908455 -0.01764635 9.69180239 -0.01919493 13.02456665 -0.02069092 C15.42015662 -0.02532233 17.81574585 -0.03034742 20.21133423 -0.03573608 C26.71186048 -0.04883371 33.21237985 -0.05533771 39.71291685 -0.05974674 C43.78023756 -0.06251761 47.84755591 -0.06675656 51.91487503 -0.07125092 C63.19913521 -0.08343966 74.48339352 -0.09373856 85.76766014 -0.09712601 C86.48888342 -0.09734557 87.2101067 -0.09756514 87.95318524 -0.09779136 C88.67603937 -0.09800964 89.39889351 -0.09822791 90.14365232 -0.09845281 C91.60818887 -0.09889626 93.07272542 -0.09934282 94.53726196 -0.09979248 C95.2637076 -0.10001391 95.99015323 -0.10023534 96.73861237 -0.10046348 C108.48858398 -0.10440477 120.23849332 -0.12184006 131.98844092 -0.145152 C144.08217627 -0.16895013 156.17588049 -0.18133175 168.26963961 -0.18249393 C175.04751456 -0.18340615 181.82530843 -0.18904286 188.60316086 -0.20731354 C194.98736375 -0.22388814 201.37141365 -0.2259044 207.75563049 -0.21717453 C210.08628883 -0.21640908 212.41695571 -0.22068117 214.74759293 -0.23063278 C258.07962913 -0.40465983 296.27158717 14.14096113 327.37026978 44.66778564 C335.82133285 53.25263113 342.72223089 62.77794547 348.81997681 73.14044189 C349.16657349 73.72519287 349.51317017 74.30994385 349.87026978 74.91241455 C362.01010239 95.68527045 368.98307225 119.22610484 368.9604187 143.32046509 C368.96487538 144.81849873 368.96487538 144.81849873 368.9694221 146.34679568 C368.97806505 149.67954963 368.97961363 153.01226748 368.98110962 156.34503174 C368.98574103 158.7406217 368.99076612 161.13621093 368.99615479 163.53179932 C369.00925242 170.03232557 369.01575642 176.53284494 369.02016544 183.03338194 C369.02293631 187.10070264 369.02717527 191.168021 369.03166962 195.23534012 C369.04385836 206.5196003 369.05415726 217.80385861 369.05754471 229.08812523 C369.05776427 229.80934851 369.05798384 230.53057179 369.05821006 231.27365033 C369.05842834 231.99650446 369.05864662 232.7193586 369.05887151 233.46411741 C369.05931496 234.92865396 369.05976152 236.3931905 369.06021118 237.85772705 C369.06043261 238.58417268 369.06065404 239.31061832 369.06088218 240.05907746 C369.06482347 251.80904907 369.08225876 263.55895841 369.1055707 275.308906 C369.12936883 287.40264135 369.14175045 299.49634558 369.14291263 311.5901047 C369.14382485 318.36797965 369.14946156 325.14577352 369.16773224 331.92362595 C369.18430684 338.30782883 369.1863231 344.69187874 369.17759323 351.07609558 C369.17682778 353.40675392 369.18109987 355.7374208 369.19105148 358.06805801 C369.36507853 401.40009422 354.81945758 439.59205226 324.29263306 470.69073486 C315.70778757 479.14179794 306.18247323 486.04269597 295.81997681 492.14044189 C295.23522583 492.48703857 294.65047485 492.83363525 294.04800415 493.19073486 C273.27514825 505.33056748 249.73431386 512.30353734 225.63995361 512.28088379 C224.64126452 512.28385491 223.64257542 512.28682603 222.61362302 512.28988719 C219.28086907 512.29853014 215.94815122 512.30007872 212.61538696 512.30157471 C210.219797 512.30620611 207.82420777 512.31123121 205.42861938 512.31661987 C198.92809313 512.3297175 192.42757376 512.3362215 185.92703676 512.34063053 C181.85971606 512.3434014 177.7923977 512.34764035 173.72507858 512.3521347 C162.4408184 512.36432345 151.15656009 512.37462235 139.87229347 512.3780098 C138.79045855 512.37833915 138.79045855 512.37833915 137.68676838 512.37867515 C136.96391424 512.37889343 136.2410601 512.3791117 135.49630129 512.3793366 C134.03176474 512.37978005 132.5672282 512.38022661 131.10269165 512.38067627 C130.37624602 512.3808977 129.64980038 512.38111913 128.90134124 512.38134727 C117.15136963 512.38528855 105.40146029 512.40272385 93.6515127 512.42603579 C81.55777735 512.44983392 69.46407312 512.46221554 57.370314 512.46337771 C50.59243905 512.46428994 43.81464518 512.46992664 37.03679276 512.48819733 C30.65258987 512.50477193 24.26853996 512.50678819 17.88432312 512.49805832 C15.55366478 512.49729287 13.2229979 512.50156496 10.89236069 512.51151657 C-32.43967552 512.68554362 -70.63163355 498.13992266 -101.73031616 467.61309814 C-110.18137924 459.02825266 -117.08227727 449.50293832 -123.18002319 439.14044189 C-123.52661987 438.55569092 -123.87321655 437.97093994 -124.23031616 437.36846924 C-139.15366328 411.83265263 -143.96888288 384.22270078 -143.82699585 354.93341064 C-143.83379502 352.5269607 -143.84271086 350.12051597 -143.85354614 347.71408081 C-143.87607264 341.2594098 -143.86761464 334.80514453 -143.85165071 328.35046768 C-143.84267249 324.30057544 -143.84447118 320.25073325 -143.84910202 316.20083618 C-143.84986819 315.52315191 -143.85063435 314.84546765 -143.85142373 314.14724749 C-143.85302277 312.7694531 -143.85464384 311.39165874 -143.85628669 310.0138644 C-143.87045789 297.17115175 -143.8542884 284.32861914 -143.82728486 271.48593605 C-143.80495393 260.5272569 -143.80883651 249.56884283 -143.83187866 238.61016846 C-143.85879081 225.80542442 -143.86908541 213.00083715 -143.85381734 200.19606876 C-143.85222502 198.82406174 -143.85065316 197.45205468 -143.84910202 196.08004761 C-143.84833064 195.40544076 -143.84755927 194.73083391 -143.84676451 194.03578442 C-143.84249339 189.33985864 -143.8498857 184.64406472 -143.86149979 179.94815063 C-143.87611257 173.59803788 -143.86562045 167.2484178 -143.8370285 160.89835739 C-143.83050645 158.58998806 -143.83215941 156.2815761 -143.84334183 153.97322464 C-144.02984188 111.50758545 -129.37532516 73.193066 -99.75082397 42.66778564 C-73.70742027 16.77431011 -36.88675524 -0.03468097 0 0 Z " fill="#1E88E5" transform="translate(143.18002319335938,-0.14044189453125)"/>
<path d="M0 0 C25.82227895 15.00049399 57.98235789 18.73586244 86.82421875 11.640625 C87.52063477 11.47433594 88.21705078 11.30804688 88.93457031 11.13671875 C103.2868319 7.61228889 115.75407035 1.13156116 128.4921875 -6.23046875 C136.56864724 -10.14017874 148.76653363 -9.76653027 157.25 -7.40625 C181.23402232 3.64863711 198.4419712 32.60277569 208.82421875 55.640625 C209.3553125 56.79175781 209.88640625 57.94289063 210.43359375 59.12890625 C219.17693147 79.38730987 222.05414288 100.16686459 222.17431641 122.01733398 C222.19085145 124.21568404 222.21810882 126.41398089 222.25634766 128.61206055 C222.53965457 145.02538493 222.24399373 157.10257115 210.29296875 169.51171875 C206.50143054 172.78132053 202.48103861 174.86377799 197.82421875 176.640625 C197.00582079 176.9843065 196.18742283 177.327988 195.34422493 177.68208408 C190.53800557 178.99087665 186.00696616 178.92660189 181.04708862 178.91477966 C179.96012038 178.92001634 178.87315214 178.92525302 177.75324547 178.93064839 C174.1100366 178.94565309 170.46696812 178.94635366 166.82373047 178.94702148 C164.21180484 178.95464273 161.59988145 178.96307017 158.98796082 178.97224426 C151.89062988 178.99506601 144.7933289 179.00301204 137.69596624 179.00807071 C133.26051356 179.01133145 128.82506952 179.01785627 124.38962173 179.0250721 C112.09833239 179.04463547 99.80705107 179.06104084 87.51574516 179.06394863 C86.33656106 179.06422999 86.33656106 179.06422999 85.13355506 179.06451702 C83.54002738 179.06488327 81.9464997 179.06524696 80.35297202 179.06560814 C79.5619893 179.06579095 78.77100658 179.06597376 77.95605469 179.06616211 C76.76812457 179.06643293 76.76812457 179.06643293 75.55619587 179.06670923 C62.73178688 179.07024875 49.90754603 179.09725836 37.08319531 179.13466 C23.90247379 179.17279186 10.72183559 179.19210647 -2.45894229 179.19240814 C-9.85374588 179.19299167 -17.24834894 179.20141549 -24.64310074 179.23040581 C-31.6018783 179.25756225 -38.5602535 179.25878306 -45.51906395 179.24275017 C-48.06832812 179.24093675 -50.61761516 179.2476165 -53.16683006 179.26356888 C-69.72117573 179.36081746 -82.41202963 179.29238782 -94.9765625 167.25390625 C-100.06486175 161.20759684 -104.2667503 153.25498779 -104.33691406 145.23950195 C-104.34652161 144.35039627 -104.35612915 143.46129059 -104.36602783 142.54524231 C-104.37027771 141.58285141 -104.37452759 140.62046051 -104.37890625 139.62890625 C-104.38460632 138.62788376 -104.3903064 137.62686127 -104.3961792 136.59550476 C-104.40563675 134.46789608 -104.41216617 132.3402727 -104.41601562 130.21264648 C-104.42560897 127.01062918 -104.45657718 123.80928538 -104.48828125 120.60742188 C-104.54922863 108.87996906 -103.92364503 98.06143383 -101.17578125 86.640625 C-100.98757812 85.76011475 -100.799375 84.87960449 -100.60546875 83.97241211 C-93.48785826 51.05693897 -73.43284275 15.03821177 -45.17578125 -4.359375 C-44.51835937 -4.813125 -43.8609375 -5.266875 -43.18359375 -5.734375 C-29.36133532 -13.47914237 -12.25774111 -7.62019698 0 0 Z " fill="#FEFEFE" transform="translate(197.17578125,267.359375)"/>
<path d="M0 0 C18.64786556 16.00107173 29.84810114 38.42314704 32.11132812 62.79492188 C33.54421896 86.31972464 26.36650614 110.52986224 11.12109375 128.71484375 C-5.1802969 147.1141525 -27.23380981 160.81279603 -52.38037109 162.39160156 C-77.58057402 163.56005048 -101.22345494 156.71608346 -120.375 139.75 C-121.9640427 138.25604962 -123.54788588 136.75653759 -125.125 135.25 C-125.73988281 134.70988281 -126.35476562 134.16976562 -126.98828125 133.61328125 C-142.33335018 119.6087011 -151.27341885 96.14319485 -152.5390625 75.765625 C-153.44635775 51.42706997 -146.32990804 30.2321273 -131.125 11.25 C-130.64675781 10.61964844 -130.16851562 9.98929688 -129.67578125 9.33984375 C-116.56782155 -7.14839209 -94.20358069 -18.89153786 -73.37451172 -21.53466797 C-45.86887266 -24.16761497 -21.64595198 -17.2512505 0 0 Z " fill="#FEFEFE" transform="translate(316.125,87.75)"/>
</svg>
