<?xml version="1.0" encoding="UTF-8"?>
<svg version="1.1" xmlns="http://www.w3.org/2000/svg" width="512" height="512">
<path d="M0 0 C3.43724842 2.96913831 6.58189576 6.1820819 9.734375 9.44921875 C10.61603333 10.34365189 11.49769165 11.23808502 12.40606689 12.15962219 C14.7255314 14.51392518 17.0368048 16.87582972 19.34295654 19.24316406 C22.59945238 22.58597053 25.862167 25.92244395 29.13677979 29.24751282 C30.87397403 31.01188123 32.60394463 32.78339946 34.32562256 34.56291199 C35.11374329 35.36417007 35.90186401 36.16542816 36.71386719 36.9909668 C37.39874207 37.69456833 38.08361694 38.39816986 38.78924561 39.12309265 C43.27495861 42.93141606 47.22941158 44.37311977 53.07446289 44.38476562 C54.25331558 44.39487671 55.43216827 44.40498779 56.64674377 44.41540527 C57.90929489 44.41238403 59.17184601 44.40936279 60.47265625 44.40625 C62.48219029 44.42281402 64.49172435 44.43939487 66.50125027 44.45691681 C70.02162587 44.48362083 73.54204151 44.49122759 77.0625 44.5 C81.9142483 44.51216783 86.76556708 44.53423479 91.61712456 44.58000183 C93.53824753 44.59333761 95.45946686 44.58924418 97.38063049 44.58459473 C113.4300173 44.71972196 127.06679812 48.57593615 138.93359375 59.7421875 C148.19097001 69.85705229 153.11992799 82.49389926 153.12597656 96.15380859 C153.12978333 97.34879974 153.13359009 98.54379089 153.13751221 99.7749939 C153.13853943 101.05323029 153.13956665 102.33146667 153.140625 103.6484375 C153.15257071 105.6754859 153.1679248 107.70249222 153.18333054 109.72951698 C153.22116061 114.70773261 153.25261719 119.68568614 153.25048828 124.6640625 C153.24969745 128.14024806 153.27321244 131.61555507 153.3123703 135.09151077 C153.32778833 137.04331821 153.31753124 138.99527474 153.30670166 140.94711304 C153.46572718 152.58475696 157.25987677 157.63696731 165.35874939 165.59603882 C166.16719803 166.37645538 166.97564667 167.15687195 167.80859375 167.9609375 C169.5424181 169.66656462 171.27613886 171.37229705 173.00976562 173.078125 C175.72318393 175.72947886 178.43991787 178.37735173 181.15942383 181.02246094 C183.80116928 183.59741463 186.43025026 186.18481563 189.05859375 188.7734375 C189.86501816 189.5498056 190.67144257 190.32617371 191.50230408 191.12606812 C202.61936481 202.09787434 208.33902051 214.36468607 208.5 230 C208.31593795 246.41194602 201.80391231 258.7190629 190.1852417 270.19099426 C189.35583069 270.99034897 188.52641968 271.78970367 187.671875 272.61328125 C186.80105286 273.47132858 185.93023071 274.32937592 185.03302002 275.21342468 C182.28155468 277.92305291 179.51721158 280.61896156 176.75 283.3125 C173.96950109 286.02483525 171.19226796 288.74017823 168.4241333 291.46513367 C166.70985359 293.15226249 164.98842746 294.83216939 163.25897217 296.5037384 C162.48096252 297.26861069 161.70295288 298.03348297 160.90136719 298.8215332 C160.21854675 299.48562698 159.53572632 300.14972076 158.83221436 300.8339386 C155.05164266 305.30336676 153.62681564 309.26183375 153.61523438 315.07446289 C153.60006775 316.84274193 153.60006775 316.84274193 153.58459473 318.64674377 C153.58761597 319.90929489 153.59063721 321.17184601 153.59375 322.47265625 C153.57718598 324.48219029 153.56060513 326.49172435 153.54308319 328.50125027 C153.51637917 332.02162587 153.50877241 335.54204151 153.5 339.0625 C153.48783217 343.9142483 153.46576521 348.76556708 153.41999817 353.61712456 C153.40666239 355.53824753 153.41075582 357.45946686 153.41540527 359.38063049 C153.28027804 375.4300173 149.42406385 389.06679812 138.2578125 400.93359375 C128.14294771 410.19097001 115.50610074 415.11992799 101.84619141 415.12597656 C100.05370468 415.13168671 100.05370468 415.13168671 98.2250061 415.13751221 C96.30765152 415.13905304 96.30765152 415.13905304 94.3515625 415.140625 C92.3245141 415.15257071 90.29750778 415.1679248 88.27048302 415.18333054 C83.29226739 415.22116061 78.31431386 415.25261719 73.3359375 415.25048828 C69.85975194 415.24969745 66.38444493 415.27321244 62.90848923 415.3123703 C60.95668179 415.32778833 59.00472526 415.31753124 57.05288696 415.30670166 C45.41524304 415.46572718 40.36303269 419.25987677 32.40396118 427.35874939 C31.23333633 428.57142235 31.23333633 428.57142235 30.0390625 429.80859375 C28.33343538 431.5424181 26.62770295 433.27613886 24.921875 435.00976562 C22.27052114 437.72318393 19.62264827 440.43991787 16.97753906 443.15942383 C14.40258537 445.80116928 11.81518437 448.43025026 9.2265625 451.05859375 C8.06201035 452.26823036 8.06201035 452.26823036 6.87393188 453.50230408 C-4.09859987 464.62009994 -16.36422941 470.33755044 -32 470.5 C-47.89940789 470.33481135 -60.09467219 464.4204248 -71.23016357 453.14607239 C-72.05655334 452.28962631 -72.88294312 451.43318024 -73.734375 450.55078125 C-74.61603333 449.65634811 -75.49769165 448.76191498 -76.40606689 447.84037781 C-78.7255314 445.48607482 -81.0368048 443.12417028 -83.34295654 440.75683594 C-86.59945238 437.41402947 -89.862167 434.07755605 -93.13677979 430.75248718 C-94.87397403 428.98811877 -96.60394463 427.21660054 -98.32562256 425.43708801 C-99.11374329 424.63582993 -99.90186401 423.83457184 -100.71386719 423.0090332 C-101.39874207 422.30543167 -102.08361694 421.60183014 -102.78924561 420.87690735 C-107.28114016 417.06333588 -111.23773711 415.62686125 -117.09033203 415.61523438 C-118.86345261 415.60006775 -118.86345261 415.60006775 -120.6723938 415.58459473 C-122.57092606 415.58912659 -122.57092606 415.58912659 -124.5078125 415.59375 C-126.52084558 415.57718702 -128.53387867 415.56060727 -130.54690361 415.54308319 C-134.07289483 415.51637744 -137.598926 415.50876907 -141.125 415.5 C-145.9875407 415.4878405 -150.84965208 415.46583284 -155.7120018 415.41999817 C-157.63926451 415.40663852 -159.56662359 415.41076016 -161.493927 415.41540527 C-177.03031895 415.28460541 -191.49927865 411.18705513 -202.96875 400.2578125 C-212.15254947 390.04966617 -217.11990886 377.5493038 -217.12597656 363.84619141 C-217.12978333 362.65120026 -217.13359009 361.45620911 -217.13751221 360.2250061 C-217.13853943 358.94676971 -217.13956665 357.66853333 -217.140625 356.3515625 C-217.15257071 354.3245141 -217.1679248 352.29750778 -217.18333054 350.27048302 C-217.22116061 345.29226739 -217.25261719 340.31431386 -217.25048828 335.3359375 C-217.24969745 331.85975194 -217.27321244 328.38444493 -217.3123703 324.90848923 C-217.32778833 322.95668179 -217.31753124 321.00472526 -217.30670166 319.05288696 C-217.46572718 307.41524304 -221.25987677 302.36303269 -229.35874939 294.40396118 C-230.16719803 293.62354462 -230.97564667 292.84312805 -231.80859375 292.0390625 C-233.5424181 290.33343538 -235.27613886 288.62770295 -237.00976562 286.921875 C-239.72318393 284.27052114 -242.43991787 281.62264827 -245.15942383 278.97753906 C-247.80116928 276.40258537 -250.43025026 273.81518437 -253.05859375 271.2265625 C-253.86501816 270.4501944 -254.67144257 269.67382629 -255.50230408 268.87393188 C-266.62009994 257.90140013 -272.33755044 245.63577059 -272.5 230 C-272.3361777 214.2321036 -266.52029635 202.00209191 -255.32418823 190.94795227 C-254.07703537 189.74588387 -254.07703537 189.74588387 -252.8046875 188.51953125 C-251.93482208 187.66244064 -251.06495667 186.80535004 -250.16873169 185.92228699 C-247.41366245 183.20912517 -244.64575773 180.50963156 -241.875 177.8125 C-239.09804962 175.10375626 -236.32437427 172.3920003 -233.55984497 169.670578 C-231.84666699 167.98450356 -230.12634764 166.30564497 -228.3979187 164.63520813 C-220.49725607 156.86741662 -217.56735451 152.52274288 -217.47129822 141.23995972 C-217.47948074 139.98256989 -217.48766327 138.72518005 -217.49609375 137.4296875 C-217.48169267 135.42232602 -217.46727524 133.41496452 -217.4519434 131.40760994 C-217.43504617 128.60498679 -217.4355181 125.80248245 -217.43664551 122.99981689 C-217.43860747 118.12112073 -217.43131278 113.24262704 -217.39674377 108.36404419 C-217.38012196 105.77398824 -217.37694615 103.18379709 -217.38975525 100.59371948 C-217.29756682 84.5532018 -213.41360291 70.92208465 -202.2578125 59.06640625 C-192.15783973 49.82265954 -179.50993041 44.85649278 -165.86206055 44.88989258 C-164.67029709 44.88931351 -163.47853363 44.88873444 -162.25065613 44.88813782 C-160.97555679 44.89024765 -159.70045746 44.89235748 -158.38671875 44.89453125 C-155.66729308 44.88364696 -152.94791197 44.86617027 -150.22851562 44.84960938 C-145.95599354 44.82533207 -141.68395839 44.80955492 -137.41137695 44.82495117 C-133.94158032 44.8366811 -130.47297707 44.81904316 -127.00336647 44.78250694 C-125.05766353 44.76983058 -123.11183734 44.78784247 -121.16618347 44.80659485 C-109.25983935 44.64463603 -103.5724763 39.96737318 -95.49443054 31.70606995 C-94.74732315 30.92779343 -94.00021576 30.14951691 -93.23046875 29.34765625 C-91.58294372 27.66706139 -89.93514885 25.98673101 -88.28710938 24.30664062 C-85.73545622 21.68686497 -83.18809841 19.06311899 -80.64624023 16.43383789 C-62.3418166 -2.4550521 -62.3418166 -2.4550521 -52 -7 C-51.20247314 -7.35690918 -50.40494629 -7.71381836 -49.58325195 -8.08154297 C-33.24953395 -14.79266629 -13.83065231 -9.4711802 0 0 Z M13.41235352 183.24707031 C12.68956711 183.96941864 11.9667807 184.69176697 11.22209167 185.43600464 C8.8505099 187.80966539 6.4897135 190.19375194 4.12890625 192.578125 C2.48046929 194.23216105 0.83136584 195.88553312 -0.81837463 197.53826904 C-5.14700533 201.87832371 -9.46654869 206.22731361 -13.78424072 210.57824707 C-18.19639464 215.02115442 -22.617112 219.45552303 -27.03710938 223.890625 C-35.69979313 232.58542975 -44.35289755 241.28970121 -53 250 C-54.10136584 249.06662366 -55.20118923 248.13142712 -56.30038452 247.19549561 C-56.9130184 246.67490948 -57.52565228 246.15432335 -58.15685081 245.61796188 C-61.052044 243.07648979 -63.72793805 240.33690169 -66.4140625 237.578125 C-67.59867164 236.3760195 -68.78357606 235.17420492 -69.96875 233.97265625 C-71.80639415 232.10395749 -73.64157012 230.23301366 -75.47167969 228.35693359 C-77.25821483 226.52804319 -79.05409027 224.70875856 -80.8515625 222.890625 C-81.39438873 222.32917786 -81.93721497 221.76773071 -82.49649048 221.18927002 C-86.80352255 216.85349367 -89.83378512 215.2096337 -95.875 214.625 C-100.35047204 214.76855288 -103.60250034 216.08417118 -107 219 C-109.8815301 222.35753507 -111.2345897 225.64074643 -111.4375 230.0625 C-110.72642162 236.4622054 -107.99167132 240.38308305 -103.51611328 244.87207031 C-102.61152374 245.78611633 -101.7069342 246.70016235 -100.77493286 247.64190674 C-99.79044059 248.62102958 -98.80555759 249.59975969 -97.8203125 250.578125 C-96.80480853 251.59565228 -95.78975005 252.61362434 -94.77511597 253.63201904 C-92.65325669 255.75828753 -90.52610128 257.87906991 -88.39501953 259.99609375 C-85.66898909 262.70501138 -82.95667917 265.42720571 -80.24818611 268.15364456 C-78.15691393 270.25577385 -76.05852849 272.35068519 -73.95794296 274.44350433 C-72.95504647 275.44440528 -71.95435795 276.44752382 -70.95596695 277.45291901 C-69.55881188 278.85772199 -68.15095099 280.25185267 -66.74267578 281.64550781 C-65.5471257 282.83747772 -65.5471257 282.83747772 -64.3274231 284.05352783 C-60.92049374 286.90281345 -58.06934131 287.87894249 -53.6875 288.375 C-46.23763001 287.6173861 -40.97527135 283.57514662 -35.87866211 278.34863281 C-35.32303085 277.79519196 -34.7673996 277.2417511 -34.19493103 276.67153931 C-32.37929441 274.85819468 -30.57829049 273.03105001 -28.77734375 271.203125 C-27.50597955 269.92682844 -26.23379403 268.65134955 -24.96083069 267.37664795 C-22.30135903 264.70955934 -19.64845679 262.03617221 -17.00073242 259.35742188 C-13.62474873 255.94192626 -10.23814341 252.53722812 -6.84720516 249.13658524 C-3.59123769 245.87058891 -0.34018826 242.59971603 2.91015625 239.328125 C3.52161058 238.71327492 4.13306492 238.09842484 4.76304817 237.46494293 C10.5230896 231.66632868 16.23673296 225.8855374 21.54862976 219.66781616 C23.803984 217.07611616 26.22619302 214.69857864 28.6796875 212.29296875 C29.70064483 211.28463074 30.72147472 210.27616368 31.7421875 209.26757812 C33.32042117 207.71432903 34.90025613 206.1627694 36.48242188 204.61352539 C38.03169703 203.09435396 39.57476897 201.56909669 41.1171875 200.04296875 C42.03097168 199.14602295 42.94475586 198.24907715 43.88623047 197.32495117 C47.45147955 193.40350661 47.34720665 189.57184716 47.2734375 184.50390625 C46.7918305 180.09376217 44.85074919 177.49934112 41.45703125 174.75 C30.26984595 167.37720969 21.38402042 175.14645528 13.41235352 183.24707031 Z " fill="#714EFF" transform="translate(288,26)"/>
</svg>
