<?xml version="1.0" encoding="UTF-8"?>
<svg version="1.1" xmlns="http://www.w3.org/2000/svg" width="512" height="512">
<path d="M0 0 C1.30087295 -0.00453111 2.60174591 -0.00906223 3.94203925 -0.01373065 C7.54211478 -0.0259363 11.14209721 -0.02570306 14.74218869 -0.02334189 C18.62917076 -0.02293311 22.51612322 -0.03397878 26.40309143 -0.04345703 C34.01456291 -0.06005479 41.6260034 -0.06556603 49.23749146 -0.06668179 C55.42621287 -0.06763287 61.61492409 -0.07174618 67.80364227 -0.07808304 C85.35923968 -0.09569235 102.91481266 -0.10492243 120.47041896 -0.10342209 C121.41642277 -0.10334218 122.36242658 -0.10326227 123.33709717 -0.10317993 C124.75784045 -0.10305729 124.75784045 -0.10305729 126.20728561 -0.10293217 C141.55421863 -0.10211943 156.90105347 -0.12125497 172.24795809 -0.14945666 C188.01530284 -0.17820176 203.78259973 -0.19199605 219.54997134 -0.19026911 C228.3984204 -0.18960576 237.24676653 -0.19507408 246.09519196 -0.21662521 C253.6295089 -0.23485844 261.16367628 -0.23916682 268.69800577 -0.22560637 C272.53942735 -0.2190874 276.38056215 -0.21892041 280.22195625 -0.23631287 C284.39338518 -0.25500472 288.56415343 -0.24246122 292.7355957 -0.22705078 C293.93999212 -0.23733791 295.14438853 -0.24762503 296.3852818 -0.25822389 C307.8922683 -0.16446264 317.06435047 3.19024411 326.12176514 10.26742554 C326.73793701 10.74566772 327.35410889 11.22390991 327.98895264 11.71664429 C335.0213797 17.92080772 340.66792299 28.78519978 341.3270874 38.20004272 C341.36374512 39.3102478 341.40040283 40.42045288 341.43817139 41.56430054 C341.48006592 42.76957397 341.52196045 43.97484741 341.56512451 45.21664429 C341.60444092 46.4709021 341.64375732 47.72515991 341.68426514 49.01742554 C341.72744873 50.2871521 341.77063232 51.55687866 341.81512451 52.86508179 C341.92116236 55.99908919 342.02322572 59.13317487 342.12176514 62.26742554 C343.15172607 61.46820679 344.18168701 60.66898804 345.24285889 59.84555054 C353.2418221 53.66746638 361.31467811 47.64584388 369.60198975 41.86019897 C375.00561407 38.07957572 380.32365094 34.19426312 385.62176514 30.26742554 C388.00188249 28.51125075 390.38320308 26.75672709 392.76531982 25.00326538 C394.33521839 23.84682332 395.90358263 22.68829545 397.47039795 21.52767944 C399.72063347 19.86633939 401.9819725 18.22134362 404.24676514 16.57992554 C405.23966553 15.84032593 405.23966553 15.84032593 406.25262451 15.08578491 C414.54341961 9.13277695 422.96903401 7.11193568 433.12176514 8.26742554 C443.61165652 10.7430399 451.89675079 16.50423569 458.12176514 25.26742554 C462.85287342 33.00216507 464.42723731 40.87592187 464.38246155 49.83087158 C464.38628709 50.6555289 464.39011264 51.48018622 464.39405411 52.32983315 C464.40431349 55.07325697 464.40040548 57.81646873 464.39642334 60.55990601 C464.40077373 62.53498527 464.40595797 64.51006285 464.41191101 66.48513794 C464.42527716 71.83642374 464.42588232 77.18763881 464.42334771 82.53893805 C464.42227637 87.01199348 464.42716556 91.4850347 464.43195313 95.95808709 C464.44304011 106.51384748 464.44349029 117.06957229 464.43743896 127.62533569 C464.43139932 138.50213104 464.44371187 149.37879702 464.46500903 160.25557029 C464.48264223 169.60613734 464.48862367 178.95666327 464.48537129 188.30724633 C464.48356101 193.8865569 464.48616916 199.46577518 464.50008583 205.04507065 C464.51268745 210.29331657 464.51069792 215.54136126 464.49767494 220.78960419 C464.49531469 222.71080469 464.49802399 224.63201945 464.50629807 226.55320358 C464.565302 241.32366335 463.6096567 254.15080127 453.01239014 265.53305054 C445.33342695 272.68243006 438.04129101 276.30991746 427.49676514 276.57992554 C426.55574951 276.61730835 425.61473389 276.65469116 424.64520264 276.69320679 C415.4638128 275.58370402 408.28598078 271.50391378 401.12176514 265.89242554 C399.46706906 264.63558349 397.81211368 263.37908276 396.15692139 262.12289429 C395.32305908 261.48271362 394.48919678 260.84253296 393.63006592 260.18295288 C389.64415516 257.1390113 385.60153159 254.17336726 381.55926514 251.20492554 C380.77865723 250.62927856 379.99804932 250.05363159 379.19378662 249.46054077 C372.97320254 244.87630928 366.71036788 240.35228396 360.43841553 235.8387146 C354.27184602 231.39386732 348.18249861 226.85528993 342.12176514 222.26742554 C342.10774658 223.4078833 342.10774658 223.4078833 342.09344482 224.57138062 C342.03918118 228.07484387 341.95564448 231.57705105 341.87176514 235.07992554 C341.85758545 236.27553101 341.84340576 237.47113647 341.82879639 238.70297241 C341.50589085 250.55360544 338.43722594 259.90505965 331.12176514 269.26742554 C330.64352295 269.88359741 330.16528076 270.49976929 329.67254639 271.13461304 C324.0445208 277.51398713 314.51032173 282.61306831 306.12176514 284.26742554 C304.31002497 284.35971793 302.49523859 284.3982704 300.68115234 284.40164661 C299.56938535 284.40610446 298.45761835 284.4105623 297.31216145 284.41515523 C296.09078574 284.41497087 294.86941004 284.41478651 293.61102295 284.41459656 C292.31341884 284.41827325 291.01581472 284.42194993 289.67888927 284.42573804 C286.07399044 284.43575024 282.46910826 284.43947358 278.86419749 284.44212735 C274.97715088 284.44603279 271.09011743 284.45561106 267.20307922 284.46434021 C257.81343396 284.48409931 248.42378762 284.49417078 239.03412676 284.503068 C234.61056988 284.50745239 230.18701419 284.51281886 225.76345825 284.51805687 C211.05486805 284.53506968 196.34627859 284.54956285 181.63768005 284.55680561 C177.82101439 284.55871546 174.00434874 284.5606358 170.18768311 284.56259155 C168.76478853 284.56331716 168.76478853 284.56331716 167.31314862 284.56405743 C151.95377224 284.57235397 136.59447384 284.59768428 121.2351315 284.63017223 C105.45997225 284.66326714 89.68485258 284.68125663 73.90965843 284.68444985 C65.05497783 284.68661285 56.20041089 284.69533055 47.34576416 284.72091103 C39.80299343 284.74265138 32.26036398 284.75065213 24.71756548 284.74094424 C20.87198457 284.73640898 17.02669494 284.73824023 13.18115425 284.75770569 C9.00335832 284.77866939 4.82620425 284.76832173 0.64837646 284.75517273 C-1.15691843 284.7716266 -1.15691843 284.7716266 -2.99868393 284.78841287 C-16.37403337 284.68708009 -25.95302257 280.72046426 -35.62823486 271.70492554 C-43.87679349 262.76898702 -48.19208126 253.6418959 -48.1456604 241.41972351 C-48.15019151 240.54031088 -48.15472263 239.66089824 -48.15939105 238.75483674 C-48.17203049 235.81407368 -48.17041495 232.87349593 -48.16876221 229.93270874 C-48.17474782 227.82161725 -48.18155345 225.71052795 -48.18911743 223.59944153 C-48.20678336 217.86782437 -48.21147313 212.13626693 -48.212749 206.40462518 C-48.21417107 202.82146793 -48.21844177 199.23832583 -48.22374344 195.65517235 C-48.24224719 183.14806531 -48.2504138 170.64100089 -48.24884033 158.13388062 C-48.24763953 146.48686142 -48.26872899 134.84002772 -48.30032766 123.19305545 C-48.32650894 113.18519322 -48.33720681 103.17739149 -48.33592951 93.16949528 C-48.33542034 87.19605851 -48.34107903 81.22278651 -48.36228561 75.24938393 C-48.38169848 69.62767318 -48.3817714 64.00628385 -48.36725235 58.38456154 C-48.36516681 56.32671131 -48.36984988 54.26884081 -48.38197327 52.21102524 C-48.46987215 36.25129763 -46.77988775 24.72077354 -35.87823486 12.26742554 C-25.37999961 2.46093447 -13.95251798 -0.03561618 0 0 Z M-13.87823486 38.26742554 C-16.10251691 42.85985144 -16.16453687 47.36660086 -16.13893127 52.38276672 C-16.1446696 53.5836125 -16.1446696 53.5836125 -16.15052384 54.80871779 C-16.16081547 57.48243975 -16.15686902 60.15594543 -16.15289307 62.8296814 C-16.15724164 64.75022072 -16.16242528 66.67075832 -16.16838074 68.59129333 C-16.18176577 73.80200523 -16.18234999 79.01264458 -16.17981744 84.22337031 C-16.17874747 88.57482727 -16.18363173 92.92626956 -16.18842286 97.27772337 C-16.19951618 107.5437518 -16.19995632 117.80974363 -16.19390869 128.07577515 C-16.18786714 138.66402689 -16.20018496 149.25214581 -16.22147876 159.84037489 C-16.2390946 168.9343815 -16.24509617 178.02834583 -16.24184102 187.12236887 C-16.24002811 192.5523846 -16.24266523 197.98230556 -16.25655556 203.41230583 C-16.26912906 208.5185237 -16.26719424 213.62453445 -16.25414467 218.73074913 C-16.25177837 220.60321879 -16.25451549 222.47570301 -16.26276779 224.34815598 C-16.27323235 226.90737761 -16.26513711 229.46590388 -16.25245667 232.02510071 C-16.25983095 232.76324397 -16.26720523 233.50138722 -16.27480298 234.26189846 C-16.2111998 240.37799415 -14.77996976 244.88406387 -10.95896816 249.67275906 C-6.00410669 252.23752229 -1.08359418 251.82036102 4.41349792 251.78208923 C6.30628254 251.79250753 6.30628254 251.79250753 8.23730522 251.80313629 C11.73764602 251.82178261 15.23756431 251.81545208 18.73792279 251.80498326 C22.51375536 251.79799678 26.28950064 251.81398498 30.06530762 251.82698059 C37.46151725 251.84863532 44.8575731 251.84848993 52.25380402 251.84035505 C58.26480458 251.83405792 64.27576025 251.83518943 70.28676033 251.84162712 C71.14193717 251.84252878 71.997114 251.84343043 72.87820529 251.84435941 C74.61543624 251.84621059 76.35266719 251.84807315 78.08989812 251.84994697 C94.38508965 251.86653064 110.68019463 251.8578015 126.97538096 251.84096139 C141.88612879 251.82626471 156.79667511 251.84089134 171.70739698 251.86973155 C187.01475423 251.89911863 202.32201846 251.9100998 217.6294027 251.90054935 C219.36058651 251.89952679 221.09177033 251.89853218 222.82295418 251.89756584 C223.67474504 251.89708945 224.5265359 251.89661306 225.40413861 251.89612224 C231.40768522 251.89395715 237.41114385 251.90376723 243.41467094 251.91833687 C250.73146577 251.93584573 258.04800368 251.93576383 265.36478835 251.91298521 C269.09829006 251.90182952 272.8313389 251.8987099 276.56482124 251.91728592 C280.61127114 251.93716012 284.65661412 251.91833633 288.70304871 251.89561462 C289.88446408 251.90745035 291.06587946 251.91928608 292.2830953 251.93148047 C299.03880532 251.93260189 299.03880532 251.93260189 304.83543491 248.85316372 C308.50247038 244.70590909 308.27228542 241.64505023 308.27566528 236.32266235 C308.28004754 235.49214222 308.28442979 234.66162208 308.28894484 233.80593467 C308.30236079 231.00696325 308.30851796 228.20802333 308.31463623 225.4090271 C308.32253499 223.40863908 308.33080379 221.4082525 308.3394165 219.40786743 C308.36566247 212.82460903 308.38094654 206.24134418 308.39520264 199.65805054 C308.40056123 197.39409124 308.40593873 195.13013199 308.41133499 192.86617279 C308.43296734 183.45050229 308.45170501 174.03483352 308.46295738 164.61914444 C308.47920231 151.11339607 308.51238942 137.60793515 308.56935823 124.10229516 C308.60802581 114.61264292 308.6275863 105.12306766 308.63287795 95.63333869 C308.63653571 89.96230983 308.64860227 84.29158738 308.68098068 78.62064362 C308.71100516 73.28541342 308.71739309 67.95067593 308.70559692 62.61537933 C308.70537572 60.65700954 308.71371933 58.69861726 308.73125076 56.74032593 C308.75388664 54.06632956 308.74567388 51.39412821 308.72976685 48.72012329 C308.74364893 47.94521113 308.75753102 47.17029896 308.77183378 46.37190461 C308.68653069 40.55165832 307.125499 38.18945428 303.12176514 34.26742554 C300.60518174 33.00913384 298.8844887 33.13743763 296.06666183 33.13041115 C294.9900107 33.12533661 293.91335956 33.12026206 292.80408263 33.11503375 C291.61169801 33.11453599 290.41931339 33.11403823 289.1907959 33.11352539 C287.3018562 33.10695201 287.3018562 33.10695201 285.3747561 33.10024583 C281.86777308 33.0882618 278.36080384 33.08262766 274.85380435 33.07806468 C271.07590246 33.07211552 267.2980171 33.06050398 263.52012634 33.04977417 C254.39071467 33.02523467 245.26129751 33.01062088 236.131863 32.9977141 C233.55427189 32.99400334 230.97668133 32.99003002 228.39909077 32.98596144 C212.40026065 32.96072645 196.40142971 32.93866846 180.40258408 32.92623329 C176.69553372 32.92330349 172.98848339 32.92034184 169.28143311 32.91732788 C168.36003801 32.91658183 167.43864291 32.91583578 166.48932675 32.91506712 C151.55900622 32.90241005 136.6288047 32.86918318 121.69853982 32.82752605 C106.3777386 32.7851289 91.05699833 32.76154084 75.73613858 32.75631273 C67.13086288 32.75289611 58.52577315 32.74111159 49.92055511 32.70820999 C42.59273898 32.68023877 35.26514691 32.6691972 27.93728152 32.68040545 C24.19770316 32.68559968 20.45859425 32.68265666 16.71908379 32.65793991 C12.6659514 32.63137361 8.61385665 32.64348153 4.56066895 32.65942383 C3.37720721 32.64554174 2.19374547 32.63165965 0.97442126 32.6173569 C-5.72938323 32.68255181 -9.49297519 32.96790769 -13.87823486 38.26742554 Z M427.12176514 41.26742554 C414.72388002 50.1809963 402.40130372 59.19168014 390.12176514 68.26742554 C379.99032249 75.75552399 369.85043326 83.2280016 359.60980225 90.5664978 C358.26215698 91.53475111 356.92509873 92.51794015 355.59999084 93.51681519 C353.12176514 95.26742554 353.12176514 95.26742554 350.12524414 96.9523468 C345.25675093 99.94910143 341.77655337 102.22666076 339.94975281 107.92021179 C339.30306739 112.37275977 339.31724757 116.82419328 339.35223389 121.31430054 C339.33140527 122.97426972 339.30777945 124.63420591 339.2815094 126.2940979 C339.24139398 129.76494243 339.24683124 133.23211332 339.28265381 136.70297241 C339.31495734 140.24301579 339.28043488 143.77163625 339.18011475 147.31039429 C337.64723718 167.495672 337.64723718 167.495672 344.7399292 185.34579468 C348.1543719 188.29641043 351.77588887 190.35171771 355.88272095 192.18666077 C359.7407461 194.04889184 363.06889568 196.65787069 366.49676514 199.20492554 C367.91255872 200.19705803 369.3289926 201.18827931 370.74676514 202.17758179 C377.82126028 207.14664844 384.74672608 212.32119952 391.69256592 217.46762085 C403.4330304 226.16618408 415.19601298 234.82407083 427.12176514 243.26742554 C430.88958489 240.10731865 431.57162338 238.08832503 432.12176514 233.26742554 C432.21341912 230.73208201 432.26120611 228.22489947 432.25547791 225.69030762 C432.25887624 224.57627479 432.25887624 224.57627479 432.26234323 223.43973625 C432.26865144 220.96187318 432.26785592 218.48406526 432.26702881 216.00619507 C432.27002226 214.22520884 432.27342522 212.44422326 432.27720642 210.66323853 C432.28603116 205.83262874 432.28838388 201.00203668 432.28902221 196.17141962 C432.28973352 193.15179288 432.29186937 190.13217064 432.29451942 187.11254501 C432.30376745 176.5735114 432.30785495 166.03449042 432.30706787 155.49545288 C432.30646706 145.67864448 432.31702088 135.86189102 432.33281153 126.04509652 C432.34589502 117.61009816 432.35125143 109.17511775 432.35061246 100.74010932 C432.35035773 95.70523068 432.35319515 90.67040089 432.36379051 85.63553238 C432.37348519 80.89952071 432.37354126 76.16360448 432.36627388 71.42758942 C432.36522978 69.69260646 432.36758055 67.95761752 432.37363434 66.22264481 C432.38138199 63.84782209 432.37669132 61.47332669 432.3690033 59.09851074 C432.37414686 58.4177536 432.37929042 57.73699646 432.38458985 57.03561032 C432.34954917 52.11182046 431.62479933 47.9296651 430.12176514 43.26742554 C429.13176514 42.60742554 428.14176514 41.94742554 427.12176514 41.26742554 Z " fill="#29B5D0" transform="translate(47.87823486328125,113.73257446289063)"/>
</svg>
