<?xml version="1.0" encoding="UTF-8"?>
<svg version="1.1" xmlns="http://www.w3.org/2000/svg" width="512" height="512">
<path d="M0 0 C1.98372143 -0.00599154 3.96744053 -0.01279852 5.95115662 -0.02035522 C11.31931586 -0.03796202 16.68741126 -0.04270845 22.05559659 -0.0439868 C25.41703971 -0.04541235 28.77846681 -0.04968967 32.13990593 -0.05498123 C43.88885394 -0.07346626 55.63775668 -0.08165405 67.38671875 -0.08007812 C78.30207537 -0.07887822 89.21723378 -0.0999549 100.13254029 -0.13156545 C109.53251458 -0.15780796 118.93242447 -0.16844204 128.33243507 -0.16716731 C133.93377183 -0.16665987 139.53493243 -0.17222099 145.13623238 -0.19352341 C150.41165381 -0.21303973 155.6867335 -0.21293955 160.96216774 -0.19849014 C162.88527177 -0.19641723 164.80839794 -0.201011 166.73146439 -0.21321106 C194.43751067 -0.37742582 218.41823948 7.96866694 238.59545898 27.45458984 C251.19593144 40.16006624 259.85553251 54.9949633 264.40795898 72.29052734 C264.58907227 72.96100098 264.77018555 73.63147461 264.95678711 74.32226562 C266.99043716 82.89553222 266.86301653 91.65286965 267.03295898 100.41552734 C267.07121906 102.05617125 267.11027519 103.6967968 267.15014648 105.33740234 C267.24526219 109.32162502 267.32960501 113.30594123 267.40795898 117.29052734 C267.91842773 116.35853516 268.42889648 115.42654297 268.95483398 114.46630859 C274.34485779 104.89690406 280.67309702 97.06831905 288.40795898 89.29052734 C290.08997541 87.57881973 291.771582 85.86670932 293.45288086 84.15429688 C298.31354346 79.21881967 303.20126753 74.31113554 308.09985352 69.41333008 C310.66205689 66.85122918 313.21725106 64.28225496 315.77083969 61.71157169 C317.76641536 59.70481957 319.76657841 57.70268751 321.768013 55.70178032 C323.16455104 54.30351633 324.55655815 52.90073158 325.94842529 51.49781799 C332.38246369 45.08675455 338.73397913 39.11786835 347.15795898 35.47802734 C348.06030273 35.07970703 348.96264648 34.68138672 349.89233398 34.27099609 C359.20750624 30.64039324 372.1321139 30.69276253 381.53295898 33.91552734 C394.13830851 39.50708115 403.3095321 48.36660803 408.40795898 61.29052734 C410.06086889 66.30281741 410.69885521 70.83812414 410.67538452 76.081604 C410.67991563 76.83528094 410.68444675 77.58895788 410.68911517 78.36547351 C410.70171035 80.87473462 410.70014197 83.38377731 410.69848633 85.89306641 C410.70447468 87.69889096 410.71128093 89.50471296 410.71884155 91.31053162 C410.73647865 96.20534143 410.741196 101.10008126 410.74247313 105.99491978 C410.7438967 109.05662573 410.74817025 112.11831401 410.75346756 115.18001556 C410.77196104 125.87164943 410.78013912 136.56323348 410.77856445 147.25488281 C410.7773636 157.2040728 410.79845676 167.15304566 410.83005178 177.10218072 C410.85624853 185.65784732 410.86693031 194.21344316 410.86565363 202.76914954 C410.86514495 207.87291334 410.87077598 212.97648415 410.89200974 218.08020782 C410.91144914 222.8836358 410.91147771 227.68668782 410.89697647 232.49012947 C410.89489426 234.24643316 410.89955398 236.00276073 410.91169739 237.75902367 C411.00974239 252.92957763 408.29149352 264.36968563 398.03295898 275.97802734 C385.95735542 286.61605906 374.49448503 290.15752396 358.53637695 289.46533203 C342.80218718 288.17309988 331.89748175 276.24042744 321.42749023 265.70849609 C320.20345406 264.48648646 318.97897334 263.26492198 317.7540741 262.04377747 C315.20191975 259.49601917 312.65520059 256.94298446 310.11230469 254.38598633 C306.87488232 251.13147403 303.62417321 247.89062077 300.36923695 244.65363598 C297.84225993 242.13757065 295.32255882 239.61431567 292.80490685 237.0889225 C291.60996441 235.89199842 290.412844 234.69724414 289.21338844 233.50484276 C280.52969586 224.86105558 273.29070538 216.11478072 267.40795898 205.29052734 C267.38608521 206.2772644 267.38608521 206.2772644 267.36376953 207.28393555 C266.60264899 238.21017258 262.70713481 265.42280527 241.40795898 289.29052734 C240.6822168 290.11037109 239.95647461 290.93021484 239.20874023 291.77490234 C223.14188247 308.87747491 199.76046127 319.869763 176.25177765 320.74945927 C171.87144741 320.8359963 167.49397328 320.82863892 163.11303711 320.80810547 C161.13813261 320.81354051 159.16323216 320.82067084 157.18833923 320.8293457 C151.87628724 320.84741777 146.56454965 320.84057881 141.2524929 320.82782936 C135.66176963 320.81761739 130.07107114 320.82711759 124.48034668 320.83337402 C115.09630561 320.84062675 105.71239096 320.83112532 96.32836914 320.81201172 C85.51906911 320.79024766 74.71007101 320.79730071 63.90077829 320.81931734 C54.57707867 320.83753928 45.2534693 320.83999659 35.9297576 320.82956266 C30.37996576 320.82336494 24.83031528 320.82238861 19.28053284 320.83570862 C14.05997834 320.84736595 8.83980858 320.83906309 3.61929512 320.81613159 C1.71716001 320.81089682 -0.18500817 320.81226701 -2.08712959 320.82118225 C-29.71627441 320.93862141 -53.66460244 312.55224064 -73.77954102 293.12646484 C-93.08252815 273.66261948 -101.90427561 250.31714249 -101.88256836 223.10473633 C-101.88856418 221.59391451 -101.89537212 220.08309573 -101.90292358 218.57228088 C-101.92048838 214.49333268 -101.92527505 210.41446855 -101.92655516 206.33548617 C-101.92798328 203.77808764 -101.93226542 201.22071003 -101.93754959 198.66331673 C-101.95602179 189.71539088 -101.96422416 180.76752436 -101.96264648 171.81958008 C-101.96144741 163.52171278 -101.98251101 155.22410656 -102.01413381 146.92630523 C-102.04042567 139.76834771 -102.05100834 132.61047475 -102.04973567 125.45246941 C-102.0492296 121.19250255 -102.05471271 116.93276776 -102.07609177 112.67284966 C-102.09569214 108.65810593 -102.09545273 104.64381037 -102.0810585 100.6290493 C-102.07899564 99.17036013 -102.08351705 97.71164126 -102.09577942 96.25300217 C-102.30032376 70.19672823 -92.51588727 46.83263575 -74.42797852 28.10302734 C-61.72250212 15.50255489 -46.88760506 6.84295382 -29.59204102 2.29052734 C-28.97837708 2.11817755 -28.36471315 1.94582775 -27.73245335 1.76825523 C-18.62863427 -0.43834273 -9.30324754 -0.00561498 0 0 Z " fill="#7876E9" transform="translate(101.592041015625,95.70947265625)"/>
</svg>
