<?xml version="1.0" encoding="UTF-8"?>
<svg version="1.1" xmlns="http://www.w3.org/2000/svg" width="512" height="512">
<path d="M0 0 C9.31690454 7.70920583 14.77576517 16.31480531 16.6875 28.25 C16.95120939 31.81392924 16.96229319 35.35979175 16.94819641 38.93232727 C16.95202196 39.97285616 16.95584751 41.01338504 16.95978898 42.08544511 C16.97006372 45.55351624 16.96613731 49.0214201 16.9621582 52.48950195 C16.96650775 54.98364413 16.97169171 57.47778497 16.97764587 59.97192383 C16.98963363 66.03271486 16.99219033 72.09344076 16.98984561 78.15423767 C16.98805873 83.083845 16.98982001 88.01343893 16.99407005 92.94304466 C16.99466524 93.64607769 16.99526043 94.34911073 16.99587366 95.07344779 C16.99708548 96.50192021 16.99829961 97.93039263 16.99951603 99.35886505 C17.01038009 112.74041716 17.00823458 126.12194404 17.00213119 139.50349756 C16.9969642 151.72628524 17.00821372 163.94899316 17.02722941 176.17176507 C17.04663528 188.74237342 17.05485892 201.31294409 17.05110615 213.88356751 C17.04919813 220.9328605 17.05164259 227.98208564 17.06582069 235.03136635 C17.07902374 241.66261224 17.0764372 248.29372536 17.06340981 254.92498016 C17.06104847 257.35329683 17.06376276 259.78162478 17.07203293 262.20992851 C17.17721555 295.50484674 17.17721555 295.50484674 5.5625 307.9375 C-3.47157782 316.54138364 -13.97379039 319.78011324 -26.24609375 319.48828125 C-36.96904265 318.65503299 -45.35782657 313.82306551 -54.3125 308.25 C-55.34842285 307.60562988 -55.34842285 307.60562988 -56.40527344 306.94824219 C-60.3096122 304.50912326 -64.19878775 302.04676015 -68.08203125 299.57421875 C-85.40487174 288.54700096 -102.89386118 277.78376534 -120.3984375 267.04833984 C-123.3125 265.25 -123.3125 265.25 -124.9706316 264.00158215 C-130.6255715 259.95654154 -135.19138324 259.5490912 -142.02026367 259.65405273 C-143.06368927 259.6499942 -144.10711487 259.64593567 -145.18215942 259.64175415 C-147.43722229 259.63625407 -149.69233638 259.64219682 -151.94734764 259.65841484 C-155.52664797 259.68392285 -159.10480141 259.6790057 -162.68415833 259.66651917 C-170.28956574 259.64580157 -177.8946162 259.66541645 -185.5 259.6875 C-194.30104826 259.7086644 -203.10172444 259.71303729 -211.90276527 259.68699837 C-215.41080418 259.68366004 -218.91811768 259.70478661 -222.42607117 259.72740173 C-239.03212088 259.75066563 -251.73051021 258.73708405 -264.0546875 246.5234375 C-273.33660727 236.41030103 -274.61270153 225.12827524 -274.60302734 211.88012695 C-274.60902138 210.54044728 -274.61582892 209.20077103 -274.62338257 207.86109924 C-274.64096396 204.24096215 -274.64573469 200.62091977 -274.64701414 197.0007441 C-274.64844113 194.73250818 -274.65272112 192.46429592 -274.65800858 190.1960659 C-274.6764851 182.26424013 -274.68468245 174.33248134 -274.68310547 166.40063477 C-274.68190574 159.03770517 -274.7029809 151.67506949 -274.7345928 144.3122142 C-274.76085586 137.96624081 -274.77146854 131.6203628 -274.77019465 125.27433556 C-274.76968782 121.49512036 -274.77521464 117.71616647 -274.79655075 113.937006 C-274.81610258 110.37699242 -274.81594402 106.81748481 -274.80151749 103.25745201 C-274.79847316 101.35036095 -274.81498779 99.4432689 -274.83239746 97.53625488 C-274.73381539 83.81695675 -271.26868255 73.2781842 -261.5859375 63.5078125 C-252.38233704 55.06067235 -241.98455974 52.89051441 -229.81103516 53.18505859 C-227.69211343 53.21749911 -225.57318611 53.24957648 -223.45425415 53.28134155 C-222.33910053 53.30148693 -221.22394691 53.32163231 -220.07500076 53.34238815 C-214.0946369 53.43889066 -208.11379323 53.46405379 -202.1328125 53.5 C-194.55533206 53.54744899 -186.9803484 53.61545353 -179.40429688 53.77441406 C-140.85711454 55.50744165 -140.85711454 55.50744165 -107.82090759 38.33232117 C-103.33575656 34.60903275 -98.29830868 31.74627578 -93.3125 28.75 C-91.34543361 27.52308757 -89.38031487 26.29304181 -87.41796875 25.05859375 C-77.78226912 19.03647787 -68.09944963 13.08975954 -58.40869141 7.15673828 C-56.23196381 5.81623658 -54.06302602 4.46699821 -51.89990234 3.10498047 C-51.32870163 2.74758286 -50.75750092 2.39018524 -50.16899109 2.0219574 C-48.57961827 1.02691714 -46.99319918 0.02716335 -45.40698242 -0.97290039 C-31.25202348 -9.10181133 -13.70249372 -9.62593609 0 0 Z M-28.40625 32.75 C-29.25815918 33.29906006 -30.11006836 33.84812012 -30.98779297 34.41381836 C-31.91994629 35.0197583 -32.85209961 35.62569824 -33.8125 36.25 C-42.21480268 41.65683802 -50.66744236 46.96817248 -59.1875 52.1875 C-67.81899033 57.47809961 -76.42291213 62.80915497 -85 68.1875 C-88.76911948 70.54442025 -92.54032993 72.89796599 -96.3125 75.25 C-97.08255371 75.73146484 -97.85260742 76.21292969 -98.64599609 76.70898438 C-118.91859465 89.34189774 -118.91859465 89.34189774 -129.95608521 89.39476013 C-131.34833313 89.40510788 -131.34833313 89.40510788 -132.76870728 89.41566467 C-133.77976532 89.41827805 -134.79082336 89.42089142 -135.83251953 89.42358398 C-137.43791595 89.4336145 -137.43791595 89.4336145 -139.07574463 89.44384766 C-141.3990986 89.45789362 -143.72246634 89.46978912 -146.04584122 89.47979546 C-149.71810187 89.49619553 -153.39025975 89.5194306 -157.06246948 89.54469299 C-167.5030202 89.61551462 -177.94361164 89.67573398 -188.38427734 89.72680664 C-194.76908351 89.75851794 -201.15376957 89.79976689 -207.53847885 89.84700203 C-209.97621385 89.86306216 -212.41397649 89.87536506 -214.85174942 89.88390923 C-218.25171437 89.89600234 -221.65139423 89.92012445 -225.05126953 89.94702148 C-226.06637604 89.94761063 -227.08148254 89.94819977 -228.12734985 89.94880676 C-229.51113831 89.96338425 -229.51113831 89.96338425 -230.92288208 89.97825623 C-231.72702105 89.98248816 -232.53116001 89.9867201 -233.35966682 89.99108028 C-235.54765724 90.07980208 -235.54765724 90.07980208 -237.3125 92.25 C-237.61687034 94.58544173 -237.61687034 94.58544173 -237.56646729 97.33642578 C-237.57210693 98.41329651 -237.57774658 99.49016724 -237.58355713 100.59967041 C-237.57950867 101.7862323 -237.57546021 102.97279419 -237.57128906 104.1953125 C-237.5747937 105.440849 -237.57829834 106.6863855 -237.58190918 107.96966553 C-237.58921857 111.39114463 -237.58748396 114.81238281 -237.58115101 118.23384857 C-237.57609738 121.80971101 -237.58078068 125.38556295 -237.58392334 128.96142578 C-237.58756485 134.96714126 -237.58275906 140.9728076 -237.57324219 146.97851562 C-237.56235726 153.92792512 -237.56588271 160.87721727 -237.576895 167.82662392 C-237.58596263 173.78674132 -237.58725573 179.74682335 -237.58201766 185.70694542 C-237.57889506 189.26951395 -237.57849652 192.83202727 -237.58509064 196.39459229 C-237.59192536 200.36467065 -237.58245988 204.33461693 -237.57128906 208.3046875 C-237.57533752 209.49124939 -237.57938599 210.67781128 -237.58355713 211.90032959 C-237.57791748 212.97720032 -237.57227783 214.05407104 -237.56646729 215.16357422 C-237.56571323 216.10304901 -237.56495918 217.0425238 -237.56418228 218.01046753 C-237.52544708 220.45286271 -237.52544708 220.45286271 -235.3125 222.25 C-233.29212774 222.55206529 -233.29212774 222.55206529 -230.93875122 222.5015564 C-229.55968346 222.50963066 -229.55968346 222.50963066 -228.15275574 222.51786804 C-227.14086685 222.51374405 -226.12897797 222.50962006 -225.08642578 222.50537109 C-224.02276291 222.50899155 -222.95910004 222.512612 -221.86320496 222.51634216 C-219.54583725 222.52325122 -217.22845321 222.52573879 -214.91107559 222.52439499 C-211.23616773 222.52343183 -207.56155409 222.53635035 -203.88668823 222.55337524 C-193.43522483 222.59969088 -182.98378896 222.62422634 -172.53222656 222.63085938 C-166.14313334 222.63589246 -159.75434304 222.6602429 -153.36535263 222.69618607 C-150.93587951 222.70595114 -148.50636451 222.70833411 -146.07687759 222.70301437 C-142.66176641 222.69589281 -139.24754668 222.71333458 -135.83251953 222.73583984 C-134.84087296 222.72766739 -133.84922638 222.71949493 -132.82752991 222.71107483 C-121.0691949 222.84785124 -111.67504611 227.09138573 -102.0625 233.5625 C-100.14532221 234.81761527 -98.22732346 236.07147723 -96.30859375 237.32421875 C-95.32616699 237.97052246 -94.34374023 238.61682617 -93.33154297 239.28271484 C-88.30955599 242.55516924 -83.21609545 245.71157712 -78.125 248.875 C-76.10646042 250.13361689 -74.08822684 251.39272468 -72.0703125 252.65234375 C-71.0999707 253.25804199 -70.12962891 253.86374023 -69.12988281 254.48779297 C-62.63068433 258.55288956 -56.15464297 262.65468815 -49.67724609 266.75439453 C-47.1258363 268.36805718 -44.5728498 269.97920316 -42.01953125 271.58984375 C-41.14852783 272.13938721 -40.27752441 272.68893066 -39.38012695 273.25512695 C-37.70824081 274.30989205 -36.03621042 275.36442856 -34.36401367 276.41870117 C-33.61482666 276.89154541 -32.86563965 277.36438965 -32.09375 277.8515625 C-31.43439453 278.26744629 -30.77503906 278.68333008 -30.09570312 279.11181641 C-28.48830189 280.1377891 -26.89915658 281.19222895 -25.3125 282.25 C-22.66617713 281.9378236 -22.66617713 281.9378236 -20.3125 281.25 C-20.26690377 249.70733628 -20.23149563 218.16468191 -20.21036934 186.62199296 C-20.20786784 182.90058314 -20.2052792 179.17917339 -20.20263672 175.45776367 C-20.2021121 174.71687814 -20.20158748 173.97599261 -20.20104696 173.212656 C-20.19233735 161.20633292 -20.17656432 149.20002894 -20.15819441 137.1937172 C-20.13951081 124.87995878 -20.12838654 112.56621038 -20.12432301 100.25243837 C-20.12157475 92.65029541 -20.11288541 85.04820642 -20.09666707 77.44608007 C-20.08487475 71.62300852 -20.08358475 65.79996488 -20.08628464 59.97688103 C-20.0857324 57.58349016 -20.08172757 55.19009734 -20.07408905 52.7967186 C-20.06420012 49.53967006 -20.06650894 46.28285611 -20.07199097 43.02580261 C-20.06616528 42.06958596 -20.0603396 41.11336931 -20.05433738 40.12817639 C-20.05831948 39.25832114 -20.06230158 38.38846589 -20.06640434 37.4922514 C-20.0656449 36.74002542 -20.06488546 35.98779945 -20.06410301 35.21277875 C-20.20504126 32.92818935 -20.20504126 32.92818935 -22.3125 30.25 C-25.00605488 30.25 -26.14885263 31.28278926 -28.40625 32.75 Z " fill="#B000FF" transform="translate(279.3125,99.75)"/>
<path d="M0 0 C3.375 1.5625 3.375 1.5625 6 4 C6.51304687 4.43957031 7.02609375 4.87914062 7.5546875 5.33203125 C31.08735213 26.75000943 45.91214689 65.486339 47.88720703 96.56640625 C49.97876385 141.6933291 39.77323227 184.0640692 10 219 C5.11510162 224.02745378 0.74576665 226.98890678 -6.3125 227.375 C-12.4949718 227.2204382 -17.03638683 224.96361317 -21.375 220.625 C-24.54799916 215.49938596 -25.52714344 211.0094352 -25 205 C-23.0520492 199.6081231 -20.4701743 195.7413015 -16.8125 191.375 C4.39946839 165.09487128 13.74779239 132.61497817 10.375 99 C7.29011137 73.0448958 -3.75830219 50.1929534 -20.8984375 30.69140625 C-25.27382737 25.08797944 -25.68908511 19.90196537 -25 13 C-23.19505572 7.47899398 -19.55377265 4.36869447 -15 1 C-10.57886478 -1.21056761 -4.81243125 -0.41182175 0 0 Z " fill="#AF00FF" transform="translate(458,143)"/>
<path d="M0 0 C18.48924439 15.66191527 27.81739045 42.35398818 30.625 65.6875 C33.08712799 97.18222059 24.70383142 127.17125504 4.109375 151.359375 C-0.67902336 156.49226245 -4.52147255 157.90593323 -11.625 158.1875 C-18.41625044 157.96164419 -21.60718085 156.21102246 -26.3125 151.375 C-29.80731808 146.00795794 -30.31115573 141.19784745 -29.7421875 134.99609375 C-28.16315724 129.6328358 -24.03227098 125.32847423 -20.625 121 C-8.5598377 104.880152 -4.71009374 85.26294905 -7.35986328 65.46582031 C-9.71594358 51.73523122 -15.86995132 39.71910647 -24.68603516 29.03637695 C-28.67681303 24.17875623 -30.56800991 20.19814072 -30.375 13.8046875 C-29.60635332 8.59710621 -27.08196691 4.30727162 -23.1875 0.8125 C-15.9352768 -4.11901178 -7.52759691 -5.09352365 0 0 Z " fill="#B000FF" transform="translate(418.0625,178.3125)"/>
<path d="M0 0 C11.69368465 8.05564943 16.90121262 19.79363176 20.40234375 33.1953125 C23.29714869 52.54915124 18.94641916 70.22577337 8.16796875 86.40625 C5.20044668 90.10195031 2.32596383 92.51659472 -2.1875 93.9375 C-8.65178785 94.56968242 -14.7502066 94.91600737 -20.1875 90.9375 C-24.75864136 86.36635864 -26.34490992 82.61965698 -26.5 76.1875 C-26.44789284 70.75532861 -25.27722847 67.35985896 -22.1875 62.9375 C-17.41818363 55.37144571 -15.95036746 48.87234615 -17.1875 39.9375 C-18.3438869 36.22229952 -20.11682604 33.2820673 -22.53125 30.25 C-26.40777085 25.38181103 -27.49187124 21.18201954 -27.1875 14.9375 C-26.20352936 8.64913588 -22.90756769 5.26157144 -18.125 1.28515625 C-12.90797024 -2.34362453 -5.81322423 -1.93774141 0 0 Z " fill="#AF00FF" transform="translate(370.1875,210.0625)"/>
</svg>
