<?xml version="1.0" encoding="UTF-8"?>
<svg version="1.1" xmlns="http://www.w3.org/2000/svg" width="512" height="512">
<path d="M0 0 C0.78177738 -0.00581376 1.56355476 -0.01162753 2.36902237 -0.01761746 C4.99266607 -0.03223318 7.61537655 -0.0183252 10.23901367 -0.00457001 C12.13732889 -0.0091783 14.03564053 -0.01553074 15.9339447 -0.02347898 C21.15362574 -0.04020519 26.37301494 -0.03191092 31.59269714 -0.01953411 C37.22059119 -0.01049944 42.84843436 -0.02444549 48.47631836 -0.0354538 C59.5026231 -0.0532605 70.52881906 -0.04938943 81.5551281 -0.03780323 C90.51470713 -0.02877766 99.47425562 -0.02754112 108.43383789 -0.0318985 C109.70795878 -0.03251143 110.98207968 -0.03312436 112.2948103 -0.03375587 C114.88298671 -0.03503474 117.47116312 -0.03633159 120.05933952 -0.03764623 C143.64856533 -0.04873288 167.23771817 -0.03722649 190.82693172 -0.01627585 C212.36406376 0.00270679 233.9011012 0.00100829 255.43823242 -0.01811981 C279.631778 -0.03953534 303.82525631 -0.04795965 328.01881409 -0.03567076 C330.59758503 -0.03439653 333.17635599 -0.03313905 335.75512695 -0.0318985 C337.02400348 -0.0312814 338.29288 -0.03066429 339.60020733 -0.03002849 C348.55127417 -0.02657165 357.50230749 -0.03241114 366.45336914 -0.04181671 C377.35850801 -0.05302346 388.26353167 -0.05002449 399.1686573 -0.02869374 C404.73493924 -0.01816555 410.30102896 -0.01409168 415.86730957 -0.02729034 C420.95988286 -0.03918332 426.05208521 -0.03270273 431.14462471 -0.01138014 C432.98975825 -0.00690094 434.83492293 -0.00920973 436.68003654 -0.01888329 C439.18346151 -0.03100445 441.68560722 -0.01861646 444.18896484 0 C444.90948658 -0.00936466 445.63000832 -0.01872933 446.37236404 -0.02837777 C451.39679443 0.04657179 454.20470063 1.38768473 458.09448242 4.50336456 C463.18249922 9.92218901 462.65714503 15.54649906 462.60241699 22.57367706 C462.61177694 24.41261536 462.61177694 24.41261536 462.62132597 26.28870392 C462.63451055 29.6843497 462.62977947 33.0791092 462.6173811 36.47470093 C462.6083276 40.13939701 462.62230179 43.80401587 462.63330078 47.46869659 C462.65108745 54.64486523 462.64724541 61.82086651 462.63565022 68.9970417 C462.62661673 74.82924142 462.62539152 80.66139423 462.62974548 86.49359894 C462.63035842 87.32366203 462.63097135 88.15372513 462.63160285 89.00894165 C462.63288175 90.69519807 462.63417861 92.38145448 462.63549322 94.06771088 C462.64689945 109.87981962 462.63378465 125.69183561 462.61229175 141.50392914 C462.59442072 155.07149573 462.59752482 168.63892544 462.6159668 182.20648956 C462.63737277 197.96200566 462.64580081 213.71744045 462.63351774 229.47296906 C462.63224355 231.15302275 462.63098606 232.83307646 462.62974548 234.51313019 C462.62881983 235.75305851 462.62881983 235.75305851 462.62787548 237.01803589 C462.62442175 242.84324342 462.6302514 248.66839939 462.6396637 254.49359894 C462.65088203 261.5925893 462.64784721 268.69140275 462.62654072 275.79037285 C462.61602795 279.41243349 462.61191205 283.03419917 462.62513733 286.65625763 C462.63925475 290.58202259 462.62239851 294.50730451 462.60241699 298.43305206 C462.61580132 300.15162415 462.61580132 300.15162415 462.62945604 301.90491486 C462.55139398 309.78719928 461.37996861 313.25062409 455.74291992 318.83148956 C450.52447686 322.00393512 443.60464172 321.18843302 437.71948242 321.25336456 C435.75688477 321.29783722 435.75688477 321.29783722 433.75463867 321.34320831 C430.53452516 321.41372175 427.31512811 321.46651362 424.09448242 321.50336456 C424.54105194 321.94549286 424.98762146 322.38762115 425.44772339 322.84314728 C430.09301634 327.44420638 434.73126471 332.05228003 439.36547852 336.66449738 C441.0961006 338.38505959 442.82851316 340.10382279 444.56274414 341.82074738 C447.05461533 344.28837025 449.53998411 346.76238287 452.02416992 349.23773956 C452.80130341 350.00455048 453.57843689 350.77136139 454.37911987 351.561409 C455.09971588 352.28185394 455.82031189 353.00229889 456.56274414 353.7445755 C457.19783905 354.37522919 457.83293396 355.00588287 458.48727417 355.65564728 C461.90329761 359.58285805 462.3889657 362.7255817 462.40698242 367.87836456 C462.42374023 368.97922394 462.44049805 370.08008331 462.45776367 371.21430206 C461.61366158 378.8566027 456.74384191 383.29679462 451.53979492 388.45648956 C450.8012326 389.19792206 450.06267029 389.93935455 449.30172729 390.7032547 C447.74365593 392.26336147 446.18181388 393.81971049 444.61645508 395.37250519 C442.2240728 397.74880504 439.84813523 400.14070494 437.47338867 402.53461456 C435.95481858 404.05120258 434.43531831 405.56685991 432.91479492 407.08148956 C432.20630402 407.79605316 431.49781311 408.51061676 430.76785278 409.2468338 C430.09720795 409.90802216 429.42656311 410.56921051 428.7355957 411.25043488 C428.15174103 411.83190277 427.56788635 412.41337067 426.96633911 413.0124588 C423.00224165 416.16980294 419.12217333 416.79669394 414.15698242 416.81586456 C413.15795898 416.83262238 412.15893555 416.84938019 411.12963867 416.86664581 C406.76469492 416.34420081 403.54838369 415.1325606 400.55244327 411.77540398 C398.83663151 409.49092088 397.20150424 407.16264546 395.57650757 404.81269073 C368.88467739 367.66614059 335.06968801 323.69918162 287.38824582 315.65913868 C268.97410054 312.8284979 250.35489639 312.39736699 231.75854492 312.44086456 C230.89261007 312.44188942 230.02667521 312.44291429 229.13449991 312.4439702 C206.78079642 312.49031148 184.49122532 313.41804192 162.17576575 314.65769863 C149.23956243 315.36873759 136.30908976 315.85043036 123.35766602 316.17865753 C122.4353644 316.20210271 121.51306279 316.22554789 120.56281264 316.24970353 C115.01248015 316.38921232 109.46199481 316.52173992 103.91145781 316.6528151 C95.84416578 316.84515667 87.77726387 317.05249072 79.71054077 317.26728058 C78.84377297 317.29024102 77.97700516 317.31320146 77.08397166 317.33685768 C65.16299726 317.65708661 53.25115294 318.09099618 41.33842054 318.63737929 C38.93232131 318.74766803 36.52612887 318.85566193 34.11990047 318.96309185 C27.43394087 319.26342933 20.74916901 319.57186162 14.06622193 319.93367702 C10.80136266 320.10566003 7.53531059 320.25191183 4.2694397 320.40326691 C3.1123502 320.47378234 1.95526071 320.54429777 0.7631079 320.61695004 C-3.95648594 320.8180398 -7.07890847 320.88447914 -11.41645241 318.88462067 C-15.9809303 314.51784435 -18.0831498 311.46289774 -18.40888214 305.09662628 C-18.4308786 302.87554327 -18.43075038 300.65417663 -18.41345215 298.43305206 C-18.41969211 297.2070932 -18.42593207 295.98113434 -18.43236113 294.71802521 C-18.4455457 291.32237942 -18.44081463 287.92761993 -18.42841625 284.5320282 C-18.41936275 280.86733212 -18.43333695 277.20271325 -18.44433594 273.53803253 C-18.46212261 266.3618639 -18.45828056 259.18586261 -18.44668537 252.00968742 C-18.43765189 246.17748771 -18.43642668 240.34533489 -18.44078064 234.51313019 C-18.44139357 233.68306709 -18.4420065 232.853004 -18.44263801 231.99778748 C-18.44391691 230.31153105 -18.44521376 228.62527464 -18.44652838 226.93901825 C-18.4579346 211.1269095 -18.44481981 195.31489352 -18.42332691 179.50279999 C-18.40545588 165.93523339 -18.40855997 152.36780369 -18.42700195 138.80023956 C-18.44840792 123.04472347 -18.45683596 107.28928868 -18.4445529 91.53376007 C-18.4432787 89.85370637 -18.44202122 88.17365266 -18.44078064 86.49359894 C-18.44016354 85.66698006 -18.43954644 84.84036118 -18.43891063 83.98869324 C-18.43545691 78.1634857 -18.44128655 72.33832974 -18.45069885 66.51313019 C-18.46191718 59.41413982 -18.45888237 52.31532637 -18.43757588 45.21635628 C-18.42706311 41.59429563 -18.4229472 37.97252996 -18.43617249 34.3504715 C-18.45028991 30.42470653 -18.43343367 26.49942461 -18.41345215 22.57367706 C-18.42237504 21.42796234 -18.43129792 20.28224762 -18.4404912 19.10181427 C-18.38107411 13.1021982 -18.20482424 9.0821993 -13.90551758 4.50336456 C-9.29888586 0.81349446 -5.76364081 -0.07491039 0 0 Z " fill="#E9EAEE" transform="translate(33.905517578125,47.49663543701172)"/>
<path d="M0 0 C0.78177738 -0.00581376 1.56355476 -0.01162753 2.36902237 -0.01761746 C4.99266607 -0.03223318 7.61537655 -0.0183252 10.23901367 -0.00457001 C12.13732889 -0.0091783 14.03564053 -0.01553074 15.9339447 -0.02347898 C21.15362574 -0.04020519 26.37301494 -0.03191092 31.59269714 -0.01953411 C37.22059119 -0.01049944 42.84843436 -0.02444549 48.47631836 -0.0354538 C59.5026231 -0.0532605 70.52881906 -0.04938943 81.5551281 -0.03780323 C90.51470713 -0.02877766 99.47425562 -0.02754112 108.43383789 -0.0318985 C109.70795878 -0.03251143 110.98207968 -0.03312436 112.2948103 -0.03375587 C114.88298671 -0.03503474 117.47116312 -0.03633159 120.05933952 -0.03764623 C143.64856533 -0.04873288 167.23771817 -0.03722649 190.82693172 -0.01627585 C212.36406376 0.00270679 233.9011012 0.00100829 255.43823242 -0.01811981 C279.631778 -0.03953534 303.82525631 -0.04795965 328.01881409 -0.03567076 C330.59758503 -0.03439653 333.17635599 -0.03313905 335.75512695 -0.0318985 C337.02400348 -0.0312814 338.29288 -0.03066429 339.60020733 -0.03002849 C348.55127417 -0.02657165 357.50230749 -0.03241114 366.45336914 -0.04181671 C377.35850801 -0.05302346 388.26353167 -0.05002449 399.1686573 -0.02869374 C404.73493924 -0.01816555 410.30102896 -0.01409168 415.86730957 -0.02729034 C420.95988286 -0.03918332 426.05208521 -0.03270273 431.14462471 -0.01138014 C432.98975825 -0.00690094 434.83492293 -0.00920973 436.68003654 -0.01888329 C439.18346151 -0.03100445 441.68560722 -0.01861646 444.18896484 0 C444.90948658 -0.00936466 445.63000832 -0.01872933 446.37236404 -0.02837777 C451.39679443 0.04657179 454.20470063 1.38768473 458.09448242 4.50336456 C463.18249922 9.92218901 462.65714503 15.54649906 462.60241699 22.57367706 C462.61177694 24.41261536 462.61177694 24.41261536 462.62132597 26.28870392 C462.63451055 29.6843497 462.62977947 33.0791092 462.6173811 36.47470093 C462.6083276 40.13939701 462.62230179 43.80401587 462.63330078 47.46869659 C462.65108745 54.64486523 462.64724541 61.82086651 462.63565022 68.9970417 C462.62661673 74.82924142 462.62539152 80.66139423 462.62974548 86.49359894 C462.63035842 87.32366203 462.63097135 88.15372513 462.63160285 89.00894165 C462.63288175 90.69519807 462.63417861 92.38145448 462.63549322 94.06771088 C462.64689945 109.87981962 462.63378465 125.69183561 462.61229175 141.50392914 C462.59442072 155.07149573 462.59752482 168.63892544 462.6159668 182.20648956 C462.63737277 197.96200566 462.64580081 213.71744045 462.63351774 229.47296906 C462.63224355 231.15302275 462.63098606 232.83307646 462.62974548 234.51313019 C462.62881983 235.75305851 462.62881983 235.75305851 462.62787548 237.01803589 C462.62442175 242.84324342 462.6302514 248.66839939 462.6396637 254.49359894 C462.65088203 261.5925893 462.64784721 268.69140275 462.62654072 275.79037285 C462.61602795 279.41243349 462.61191205 283.03419917 462.62513733 286.65625763 C462.63925475 290.58202259 462.62239851 294.50730451 462.60241699 298.43305206 C462.61580132 300.15162415 462.61580132 300.15162415 462.62945604 301.90491486 C462.55139398 309.78719928 461.37996861 313.25062409 455.74291992 318.83148956 C450.52447686 322.00393512 443.60464172 321.18843302 437.71948242 321.25336456 C435.75688477 321.29783722 435.75688477 321.29783722 433.75463867 321.34320831 C430.53452516 321.41372175 427.31512811 321.46651362 424.09448242 321.50336456 C424.54105194 321.94549286 424.98762146 322.38762115 425.44772339 322.84314728 C430.09301634 327.44420638 434.73126471 332.05228003 439.36547852 336.66449738 C441.0961006 338.38505959 442.82851316 340.10382279 444.56274414 341.82074738 C447.05461533 344.28837025 449.53998411 346.76238287 452.02416992 349.23773956 C452.80130341 350.00455048 453.57843689 350.77136139 454.37911987 351.561409 C455.09971588 352.28185394 455.82031189 353.00229889 456.56274414 353.7445755 C457.19783905 354.37522919 457.83293396 355.00588287 458.48727417 355.65564728 C461.90329761 359.58285805 462.3889657 362.7255817 462.40698242 367.87836456 C462.42374023 368.97922394 462.44049805 370.08008331 462.45776367 371.21430206 C461.61366158 378.8566027 456.74384191 383.29679462 451.53979492 388.45648956 C450.8012326 389.19792206 450.06267029 389.93935455 449.30172729 390.7032547 C447.74365593 392.26336147 446.18181388 393.81971049 444.61645508 395.37250519 C442.2240728 397.74880504 439.84813523 400.14070494 437.47338867 402.53461456 C435.95481858 404.05120258 434.43531831 405.56685991 432.91479492 407.08148956 C432.20630402 407.79605316 431.49781311 408.51061676 430.76785278 409.2468338 C430.09720795 409.90802216 429.42656311 410.56921051 428.7355957 411.25043488 C428.15174103 411.83190277 427.56788635 412.41337067 426.96633911 413.0124588 C423.00224165 416.16980294 419.12217333 416.79669394 414.15698242 416.81586456 C413.15795898 416.83262238 412.15893555 416.84938019 411.12963867 416.86664581 C406.76469492 416.34420081 403.54838369 415.1325606 400.55244327 411.77540398 C398.83663151 409.49092088 397.20150424 407.16264546 395.57650757 404.81269073 C368.88467739 367.66614059 335.06968801 323.69918162 287.38824582 315.65913868 C268.97410054 312.8284979 250.35489639 312.39736699 231.75854492 312.44086456 C230.89261007 312.44188942 230.02667521 312.44291429 229.13449991 312.4439702 C206.78079642 312.49031148 184.49122532 313.41804192 162.17576575 314.65769863 C149.23956243 315.36873759 136.30908976 315.85043036 123.35766602 316.17865753 C122.4353644 316.20210271 121.51306279 316.22554789 120.56281264 316.24970353 C115.01248015 316.38921232 109.46199481 316.52173992 103.91145781 316.6528151 C95.84416578 316.84515667 87.77726387 317.05249072 79.71054077 317.26728058 C78.84377297 317.29024102 77.97700516 317.31320146 77.08397166 317.33685768 C65.16299726 317.65708661 53.25115294 318.09099618 41.33842054 318.63737929 C38.93232131 318.74766803 36.52612887 318.85566193 34.11990047 318.96309185 C27.43394087 319.26342933 20.74916901 319.57186162 14.06622193 319.93367702 C10.80136266 320.10566003 7.53531059 320.25191183 4.2694397 320.40326691 C3.1123502 320.47378234 1.95526071 320.54429777 0.7631079 320.61695004 C-3.95648594 320.8180398 -7.07890847 320.88447914 -11.41645241 318.88462067 C-15.9809303 314.51784435 -18.0831498 311.46289774 -18.40888214 305.09662628 C-18.4308786 302.87554327 -18.43075038 300.65417663 -18.41345215 298.43305206 C-18.41969211 297.2070932 -18.42593207 295.98113434 -18.43236113 294.71802521 C-18.4455457 291.32237942 -18.44081463 287.92761993 -18.42841625 284.5320282 C-18.41936275 280.86733212 -18.43333695 277.20271325 -18.44433594 273.53803253 C-18.46212261 266.3618639 -18.45828056 259.18586261 -18.44668537 252.00968742 C-18.43765189 246.17748771 -18.43642668 240.34533489 -18.44078064 234.51313019 C-18.44139357 233.68306709 -18.4420065 232.853004 -18.44263801 231.99778748 C-18.44391691 230.31153105 -18.44521376 228.62527464 -18.44652838 226.93901825 C-18.4579346 211.1269095 -18.44481981 195.31489352 -18.42332691 179.50279999 C-18.40545588 165.93523339 -18.40855997 152.36780369 -18.42700195 138.80023956 C-18.44840792 123.04472347 -18.45683596 107.28928868 -18.4445529 91.53376007 C-18.4432787 89.85370637 -18.44202122 88.17365266 -18.44078064 86.49359894 C-18.44016354 85.66698006 -18.43954644 84.84036118 -18.43891063 83.98869324 C-18.43545691 78.1634857 -18.44128655 72.33832974 -18.45069885 66.51313019 C-18.46191718 59.41413982 -18.45888237 52.31532637 -18.43757588 45.21635628 C-18.42706311 41.59429563 -18.4229472 37.97252996 -18.43617249 34.3504715 C-18.45028991 30.42470653 -18.43343367 26.49942461 -18.41345215 22.57367706 C-18.42237504 21.42796234 -18.43129792 20.28224762 -18.4404912 19.10181427 C-18.38107411 13.1021982 -18.20482424 9.0821993 -13.90551758 4.50336456 C-9.29888586 0.81349446 -5.76364081 -0.07491039 0 0 Z M14.09448242 32.50336456 C14.09448242 116.98336456 14.09448242 201.46336456 14.09448242 288.50336456 C100.88448242 288.50336456 187.67448242 288.50336456 277.09448242 288.50336456 C272.24106074 282.78483395 272.24106074 282.78483395 267.00854492 277.67133331 C266.30600586 277.01713409 265.6034668 276.36293488 264.87963867 275.68891144 C263.43263307 274.35049667 261.96870874 273.03015742 260.48901367 271.72797394 C256.63713667 268.07976761 254.60318041 265.65321367 254.43041992 260.21820831 C254.58970494 256.41310811 255.42144877 254.58430563 258.09448242 251.87836456 C259.08448242 251.09461456 260.07448242 250.31086456 261.09448242 249.50336456 C259.56176695 245.85304731 257.37294365 243.56396705 254.55932617 240.80805206 C253.66793945 239.92762238 252.77655273 239.04719269 251.8581543 238.14008331 C250.92551758 237.22871613 249.99288086 236.31734894 249.03198242 235.37836456 C247.18476075 233.56546842 245.33959822 231.75047098 243.49682617 229.93305206 C242.67690186 229.13109406 241.85697754 228.32913605 241.01220703 227.50287628 C239.09448242 225.50336456 239.09448242 225.50336456 238.09448242 223.50336456 C239.41448242 222.84336456 240.73448242 222.18336456 242.09448242 221.50336456 C239.1962997 215.85672074 234.64854661 211.97970842 230.1003418 207.67523956 C225.56125781 203.27486309 222.86009207 199.72621621 222.65698242 193.19086456 C222.78761666 187.97420409 224.66722803 184.37607111 228.09448242 180.50336456 C232.32374843 177.35600381 236.4311749 176.91216789 241.57885742 177.09711456 C249.36758006 178.3549207 255.05276403 184.87250155 260.09448242 190.50336456 C260.77510742 191.51398956 261.45573242 192.52461456 262.15698242 193.56586456 C262.79635742 194.20523956 263.43573242 194.84461456 264.09448242 195.50336456 C265.71688843 195.16994049 265.71688843 195.16994049 267.37207031 194.82978058 C271.09448242 194.50336456 271.09448242 194.50336456 273.90869141 196.40937042 C274.79371338 197.33628693 275.67873535 198.26320343 276.59057617 199.21820831 C277.06898453 199.70793625 277.54739288 200.19766418 278.04029846 200.70223236 C279.55739596 202.26395815 281.04427371 203.85116903 282.53198242 205.44086456 C283.55810029 206.50712713 284.58607766 207.57160354 285.6159668 208.63422394 C288.13067742 211.23692575 290.61902603 213.86323665 293.09448242 216.50336456 C294.24074565 215.52470118 295.3864803 214.54541869 296.53198242 213.56586456 C297.17006836 213.02059113 297.8081543 212.47531769 298.46557617 211.91352081 C299.36439391 211.13540762 300.2538477 210.34399928 301.09448242 209.50336456 C305.33634347 208.76019357 309.3971951 208.4634971 313.16087723 210.76937103 C315.20115669 212.66424782 317.02367039 214.65057709 318.84692383 216.75531769 C319.55466446 217.52584976 320.26240509 218.29638184 320.99159241 219.09026337 C322.52489151 220.7617826 324.04722472 222.44341318 325.55965042 224.13384247 C327.98112859 226.82358499 330.44578797 229.4657003 332.92929077 232.0982132 C339.98685645 239.58115712 347.01855613 247.08152496 353.8737793 254.75092316 C358.08130191 259.45108364 362.38678592 264.04101564 366.76639938 268.58098602 C368.39683569 270.30889147 369.99052441 272.07241578 371.54045486 273.87288666 C377.44471925 280.70701005 381.87487047 283.37986279 390.09448242 288.50336456 C403.29448242 288.50336456 416.49448242 288.50336456 430.09448242 288.50336456 C430.09448242 204.02336456 430.09448242 119.54336456 430.09448242 32.50336456 C292.81448242 32.50336456 155.53448242 32.50336456 14.09448242 32.50336456 Z " fill="#4EA4F1" transform="translate(33.905517578125,47.49663543701172)"/>
<path d="M0 0 C0.71288681 -0.00058411 1.42577362 -0.00116821 2.16026306 -0.00177002 C4.49813886 0.00099925 6.83471243 0.03203349 9.17236328 0.06347656 C10.80045882 0.07094314 12.42856338 0.0766341 14.05667114 0.08062744 C18.32793278 0.09585113 22.59864455 0.13510414 26.86968994 0.17944336 C31.23352624 0.22046697 35.59745196 0.23865354 39.96142578 0.25878906 C48.51376057 0.30160215 57.06564965 0.36981314 65.61767578 0.45410156 C64.83908203 1.05996094 64.06048828 1.66582031 63.25830078 2.29003906 C59.59673508 5.29078965 55.9164139 8.7311771 55.37939453 13.62597656 C55.21168664 19.45161921 55.5393123 22.94643666 59.61767578 27.45410156 C61.57618922 28.8476592 63.56894691 30.19692703 65.61767578 31.45410156 C65.61767578 31.78410156 65.61767578 32.11410156 65.61767578 32.45410156 C48.78767578 32.45410156 31.95767578 32.45410156 14.61767578 32.45410156 C14.61767578 116.93410156 14.61767578 201.41410156 14.61767578 288.45410156 C61.45559767 288.80080155 61.45559767 288.80080155 108.29345703 288.97753906 C114.62109702 288.98885547 120.94873326 289.00129798 127.27636719 289.015625 C128.46582103 289.01824781 128.46582103 289.01824781 129.67930424 289.02092361 C142.44984352 289.05072247 155.21916042 289.14398385 167.98916398 289.26104648 C181.11337551 289.37993005 194.23656752 289.42978007 207.3613168 289.41672742 C215.44864824 289.41082514 223.53204953 289.4575364 231.61856665 289.57350253 C237.83974571 289.65692168 244.05747498 289.64386711 250.27895355 289.59644127 C252.81614674 289.59180452 255.3536217 289.61751749 257.89011765 289.67717552 C270.34725283 289.95326992 279.42866194 289.72542393 288.84266007 280.86562955 C292.31847178 277.22363501 295.56780688 273.45928927 298.61767578 269.45410156 C302.38833173 272.64149999 306.11469978 275.82323412 309.59458923 279.33094788 C310.29943954 280.038759 311.00428986 280.74657013 311.73049927 281.47583008 C312.85208939 282.60988281 312.85208939 282.60988281 313.99633789 283.7668457 C314.80380966 284.57899033 315.61128143 285.39113495 316.44322205 286.22789001 C318.18645144 287.98157515 319.9285823 289.73635282 321.6697216 291.49211311 C324.42917474 294.27368682 327.19266314 297.05119058 329.95741272 299.82749939 C337.81461986 307.71797968 345.66756075 315.61267165 353.51000977 323.51782227 C358.31587091 328.36201291 363.12968994 333.19818944 367.94793892 338.03005791 C369.77788277 339.86803835 371.60504921 341.7087885 373.42933464 343.55238533 C375.98253199 346.13214452 378.54496189 348.70239231 381.10961914 351.27075195 C382.22817291 352.40784103 382.22817291 352.40784103 383.36932373 353.56790161 C390.11829159 360.29132175 396.47190084 365.52737977 406.30517578 365.76660156 C422.01353896 365.54031062 432.34065629 350.89004404 442.61767578 340.45410156 C447.09003875 344.13137778 451.30942847 348.01260137 455.43017578 352.07910156 C456.36474609 352.99949219 457.29931641 353.91988281 458.26220703 354.86816406 C462.22589443 359.21967494 462.90958853 361.94114719 462.93017578 367.82910156 C462.94693359 368.92996094 462.96369141 370.03082031 462.98095703 371.16503906 C462.13685494 378.8073397 457.26703527 383.24753162 452.06298828 388.40722656 C451.32442596 389.14865906 450.58586365 389.89009155 449.82492065 390.6539917 C448.26684928 392.21409847 446.70500724 393.77044749 445.13964844 395.32324219 C442.74726616 397.69954204 440.37132859 400.09144194 437.99658203 402.48535156 C436.47801194 404.00193958 434.95851167 405.51759691 433.43798828 407.03222656 C432.72949738 407.74679016 432.02100647 408.46135376 431.29104614 409.1975708 C430.62040131 409.85875916 429.94975647 410.51994751 429.25878906 411.20117188 C428.67493439 411.78263977 428.09107971 412.36410767 427.48953247 412.9631958 C423.52543501 416.12053994 419.64536669 416.74743094 414.68017578 416.76660156 C413.68115234 416.78335937 412.68212891 416.80011719 411.65283203 416.81738281 C407.28788828 416.29493781 404.07157705 415.0832976 401.07563663 411.72614098 C399.35982487 409.44165787 397.7246976 407.11338246 396.09970093 404.76342773 C369.40787075 367.61687759 335.59288137 323.64991861 287.91143918 315.60987568 C269.4972939 312.7792349 250.87808975 312.34810399 232.28173828 312.39160156 C231.41580343 312.39262642 230.54986857 312.39365129 229.65769327 312.3947072 C207.30398978 312.44104848 185.01441868 313.36877892 162.69895911 314.60843563 C149.76275579 315.31947459 136.83228312 315.80116736 123.88085938 316.12939453 C122.95855776 316.15283971 122.03625615 316.17628489 121.086006 316.20044053 C115.53567351 316.33994932 109.98518817 316.47247692 104.43465117 316.6035521 C96.36735914 316.79589367 88.30045723 317.00322771 80.23373413 317.21801758 C79.36696633 317.24097802 78.50019852 317.26393846 77.60716502 317.28759468 C65.68619062 317.60782361 53.7743463 318.04173318 41.8616139 318.58811629 C39.45551467 318.69840503 37.04932223 318.80639893 34.64309382 318.91382885 C27.95713423 319.21416633 21.27236237 319.52259862 14.58941529 319.88441402 C11.32455602 320.05639703 8.05850395 320.20264883 4.79263306 320.35400391 C3.63554356 320.42451934 2.47845407 320.49503477 1.28630126 320.56768703 C-3.43329258 320.7687768 -6.55571511 320.83521614 -10.89325905 318.83535767 C-15.45773694 314.46858135 -17.55995644 311.41363474 -17.88568878 305.04736328 C-17.90768524 302.82628027 -17.90755702 300.60491363 -17.89025879 298.38378906 C-17.89649875 297.1578302 -17.90273871 295.93187134 -17.90916777 294.66876221 C-17.92235234 291.27311642 -17.91762127 287.87835693 -17.90522289 284.4827652 C-17.89616939 280.81806912 -17.91014359 277.15345025 -17.92114258 273.48876953 C-17.93892925 266.3126009 -17.9350872 259.13659961 -17.92349201 251.96042442 C-17.91445853 246.12822471 -17.91323332 240.29607189 -17.91758728 234.46386719 C-17.91820021 233.63380409 -17.91881314 232.803741 -17.91944465 231.94852448 C-17.92072355 230.26226805 -17.9220204 228.57601164 -17.92333502 226.88975525 C-17.93474124 211.0776465 -17.92162645 195.26563052 -17.90013355 179.45353699 C-17.88226252 165.88597039 -17.88536661 152.31854069 -17.90380859 138.75097656 C-17.92521456 122.99546047 -17.9336426 107.24002567 -17.92135954 91.48449707 C-17.92008534 89.80444337 -17.91882786 88.12438966 -17.91758728 86.44433594 C-17.91697018 85.61771706 -17.91635308 84.79109818 -17.91571727 83.93943024 C-17.91226355 78.1142227 -17.9180932 72.28906674 -17.92750549 66.46386719 C-17.93872382 59.36487682 -17.93568901 52.26606337 -17.91438252 45.16709328 C-17.90386975 41.54503263 -17.89975385 37.92326696 -17.91297913 34.3012085 C-17.92709655 30.37544353 -17.91024031 26.45016161 -17.89025879 22.52441406 C-17.89918168 21.37869934 -17.90810456 20.23298462 -17.91729784 19.05255127 C-17.85609459 12.87257916 -17.56854708 9.12825604 -13.38232422 4.45410156 C-8.89634939 0.67914125 -5.80548079 -0.04017634 0 0 Z " fill="#418BE9" transform="translate(33.38232421875,47.5458984375)"/>
<path d="M0 0 C5.72909273 3.28681017 10.64660162 8.17781374 14.8984375 13.1875 C14.8984375 13.8475 14.8984375 14.5075 14.8984375 15.1875 C15.8884375 15.5175 16.8784375 15.8475 17.8984375 16.1875 C17.8984375 16.8475 17.8984375 17.5075 17.8984375 18.1875 C18.4759375 17.836875 19.0534375 17.48625 19.6484375 17.125 C22.41648242 15.97164795 23.13151633 16.10182884 25.8984375 17.1875 C28.28027344 19.22875977 28.28027344 19.22875977 30.8828125 21.87890625 C31.34326965 22.34360825 31.80372681 22.80831024 32.27813721 23.28709412 C33.74211561 24.76781819 35.19529791 26.25864519 36.6484375 27.75 C37.64123199 28.75784664 38.6347142 29.76501633 39.62890625 30.77148438 C42.06010223 33.23569461 44.48172618 35.70907329 46.8984375 38.1875 C48.04470072 37.20883662 49.19043538 36.22955413 50.3359375 35.25 C50.97402344 34.70472656 51.61210937 34.15945313 52.26953125 33.59765625 C53.16834899 32.81954305 54.05780278 32.02813472 54.8984375 31.1875 C59.13911708 30.44571153 63.20038301 30.14950886 66.96483231 32.45065117 C69.00492142 34.34111624 70.82746719 36.32313731 72.65087891 38.42358398 C73.35861954 39.19250977 74.06636017 39.96143555 74.79554749 40.75366211 C76.32886959 42.42186501 77.85120208 44.10022163 79.3636055 45.78741264 C81.78544313 48.47289528 84.25007571 51.11119849 86.73324585 53.74000549 C93.78972571 61.21269723 100.81900086 68.70441387 107.67773438 76.35961914 C111.88739152 81.05112801 116.1929395 85.63511454 120.57035446 90.17024422 C122.19985495 91.89534084 123.79351971 93.65519357 125.34440994 95.45129204 C131.2426284 102.25843916 135.75154201 105.02982824 143.8984375 110.1875 C163.6984375 110.6825 163.6984375 110.6825 183.8984375 111.1875 C183.8984375 80.8275 183.8984375 50.4675 183.8984375 19.1875 C184.8884375 20.6725 184.8884375 20.6725 185.8984375 22.1875 C190.46359182 28.14826323 190.46359182 28.14826323 197.265625 30.5234375 C203.01446693 30.61298332 206.40161387 30.1359305 210.8984375 26.1875 C212.65266522 24.21079393 212.65266522 24.21079393 213.8984375 22.1875 C214.8884375 20.7025 214.8884375 20.7025 215.8984375 19.1875 C215.99194848 33.9475643 216.06244974 48.70758929 216.10568619 63.46788979 C216.12629677 70.32163022 216.15438823 77.17518642 216.20019531 84.02880859 C216.24437674 90.6423641 216.26757258 97.25577846 216.27794647 103.86948776 C216.28533981 106.39328398 216.29977712 108.91706967 216.32135773 111.44078445 C216.35037516 114.97458829 216.35439403 118.50760019 216.35253906 122.04150391 C216.36692017 123.08591644 216.38130127 124.13032898 216.39611816 125.20639038 C216.35305443 132.78324092 214.97246688 136.14410879 209.546875 141.515625 C204.32843194 144.68807056 197.4085968 143.87256845 191.5234375 143.9375 C190.21503906 143.96714844 188.90664063 143.99679687 187.55859375 144.02734375 C184.33887102 144.09784863 181.11865113 144.14496085 177.8984375 144.1875 C183.8384375 150.1275 189.7784375 156.0675 195.8984375 162.1875 C193.33626584 167.31184333 189.80293557 170.61263415 185.7734375 174.625 C185.03867187 175.37587891 184.30390625 176.12675781 183.546875 176.90039062 C176.67072894 183.78258963 170.26480364 189.25541171 160.2109375 189.5 C145.77759447 189.29207669 136.6975079 177.14650117 127.14404297 167.54663086 C126.33303635 166.73577026 125.52202972 165.92490967 124.68644714 165.08947754 C122.04379177 162.44613331 119.40468208 159.79928 116.765625 157.15234375 C114.91925626 155.30410717 113.07266457 153.45609331 111.2258606 151.60829163 C106.8857203 147.26506335 102.54813177 142.91929614 98.2114917 138.57257324 C93.26777268 133.61761371 88.32115853 128.66554863 83.37431884 123.71370494 C73.2125045 113.54148367 63.05426684 103.36569645 52.8984375 93.1875 C51.79608926 94.11788509 50.69583581 95.05075239 49.59643555 95.98461914 C48.98350143 96.50383438 48.37056732 97.02304962 47.73905945 97.55799866 C45.98101599 99.11439332 44.34775543 100.73264461 42.73046875 102.43359375 C42.22966797 102.96017578 41.72886719 103.48675781 41.21289062 104.02929688 C40.19241267 105.11347176 39.17962223 106.20492353 38.17382812 107.30273438 C36.66796875 108.87109375 36.66796875 108.87109375 33.8984375 111.1875 C28.21267835 110.9711572 24.01834149 105.0238682 20.19726562 101.26196289 C18.6611511 99.76241099 17.09401848 98.30118475 15.5234375 96.83789062 C7.23301719 88.85736116 7.23301719 88.85736116 7.0390625 82.69140625 C7.33001589 79.03451412 8.35202203 77.18007203 10.8984375 74.5625 C11.8884375 73.77875 12.8784375 72.995 13.8984375 72.1875 C12.36435841 68.52269726 10.16158674 66.24619092 7.328125 63.4921875 C6.43222656 62.61175781 5.53632813 61.73132813 4.61328125 60.82421875 C3.67613281 59.91285156 2.73898437 59.00148438 1.7734375 58.0625 C-0.08783514 56.25201243 -1.94485451 54.43713837 -3.796875 52.6171875 C-5.0346167 51.41425049 -5.0346167 51.41425049 -6.29736328 50.18701172 C-8.1015625 48.1875 -8.1015625 48.1875 -8.1015625 46.1875 C-6.6015625 44.5625 -6.6015625 44.5625 -5.1015625 43.1875 C-9.76748093 37.65637816 -14.71241535 32.56097946 -19.96484375 27.58203125 C-23.78800164 23.29757825 -24.62586078 19.12993539 -24.4765625 13.53125 C-23.69967782 8.67572074 -21.17377013 5.05459063 -17.5625 1.80078125 C-12.31603729 -1.74244593 -5.89202523 -2.27795771 0 0 Z " fill="#5597EB" transform="translate(280.1015625,224.8125)"/>
<path d="M0 0 C5.72909273 3.28681017 10.64660162 8.17781374 14.8984375 13.1875 C14.8984375 13.8475 14.8984375 14.5075 14.8984375 15.1875 C15.8884375 15.5175 16.8784375 15.8475 17.8984375 16.1875 C17.8984375 16.8475 17.8984375 17.5075 17.8984375 18.1875 C18.4759375 17.836875 19.0534375 17.48625 19.6484375 17.125 C22.41648242 15.97164795 23.13151633 16.10182884 25.8984375 17.1875 C28.28027344 19.22875977 28.28027344 19.22875977 30.8828125 21.87890625 C31.34326965 22.34360825 31.80372681 22.80831024 32.27813721 23.28709412 C33.74211561 24.76781819 35.19529791 26.25864519 36.6484375 27.75 C37.64123199 28.75784664 38.6347142 29.76501633 39.62890625 30.77148438 C42.06010223 33.23569461 44.48172618 35.70907329 46.8984375 38.1875 C48.04470072 37.20883662 49.19043538 36.22955413 50.3359375 35.25 C50.97402344 34.70472656 51.61210937 34.15945313 52.26953125 33.59765625 C53.16834899 32.81954305 54.05780278 32.02813472 54.8984375 31.1875 C58.45735811 30.1833389 61.32507418 30.24769493 64.8984375 31.1875 C69.65058946 34.6749298 73.52981241 38.87424017 77.5234375 43.1875 C78.6317442 44.34602229 79.74240324 45.50229904 80.85546875 46.65625 C83.56434304 49.47477129 86.2393415 52.32200175 88.8984375 55.1875 C88.2175708 55.8676416 87.5367041 56.5477832 86.83520508 57.24853516 C84.15568725 59.92799424 81.48293723 62.61414076 78.81071472 65.3008728 C76.11436352 68.01071063 73.41526786 70.71780822 70.71606445 73.42480469 C69.30044591 74.84545294 67.88572606 76.2669973 66.47192383 77.68945312 C64.41208319 79.76153614 62.34892962 81.83027229 60.28515625 83.8984375 C59.66404465 84.52471039 59.04293304 85.15098328 58.40299988 85.79623413 C54.64755959 89.55214412 50.77646996 93.11220089 46.74275208 96.56803894 C43.6548691 99.27945613 40.78102237 102.1987396 37.8984375 105.125 C37.31449219 105.71345703 36.73054688 106.30191406 36.12890625 106.90820312 C34.71638945 108.33229793 33.3070594 109.7595525 31.8984375 111.1875 C26.44486456 106.58129496 21.13365151 101.85756217 15.9609375 96.9375 C15.18169922 96.23753906 14.40246094 95.53757812 13.59960938 94.81640625 C9.66911446 91.03403691 7.3860697 88.4664872 7.20703125 82.8671875 C7.3848729 79.08455969 8.2451764 77.25476227 10.8984375 74.5625 C11.8884375 73.77875 12.8784375 72.995 13.8984375 72.1875 C12.36435841 68.52269726 10.16158674 66.24619092 7.328125 63.4921875 C6.43222656 62.61175781 5.53632813 61.73132813 4.61328125 60.82421875 C3.67613281 59.91285156 2.73898437 59.00148438 1.7734375 58.0625 C-0.08783514 56.25201243 -1.94485451 54.43713837 -3.796875 52.6171875 C-5.0346167 51.41425049 -5.0346167 51.41425049 -6.29736328 50.18701172 C-8.1015625 48.1875 -8.1015625 48.1875 -8.1015625 46.1875 C-6.6015625 44.5625 -6.6015625 44.5625 -5.1015625 43.1875 C-9.76748093 37.65637816 -14.71241535 32.56097946 -19.96484375 27.58203125 C-23.78800164 23.29757825 -24.62586078 19.12993539 -24.4765625 13.53125 C-23.69967782 8.67572074 -21.17377013 5.05459063 -17.5625 1.80078125 C-12.31603729 -1.74244593 -5.89202523 -2.27795771 0 0 Z " fill="#B3B4B8" transform="translate(280.1015625,224.8125)"/>
<path d="M0 0 C4.64727049 2.32363525 8.89447367 5.68465433 10.59669113 10.78940773 C11.09419714 13.51630769 11.1325331 16.09629449 11.14044189 18.86947632 C11.14615204 20.06952805 11.15186218 21.26957977 11.15774536 22.5059967 C11.15886322 23.81934494 11.15998108 25.13269318 11.16113281 26.48583984 C11.16576307 27.88554515 11.17078801 29.2852492 11.17617798 30.68495178 C11.1892825 34.48458291 11.19574293 38.28419638 11.20018864 42.08384657 C11.20312203 44.45853506 11.20722731 46.83321875 11.21169281 49.20790482 C11.22536156 56.64029205 11.23503171 64.07266829 11.2388947 71.50506723 C11.24337644 80.08029333 11.26093225 88.65536011 11.2898953 97.23053777 C11.31151661 103.86250776 11.32159919 110.49443293 11.32293582 117.12643778 C11.32398337 121.08597545 11.3298807 125.04536322 11.34775543 129.00486374 C11.36424435 132.72969581 11.36638777 136.45426543 11.35761642 140.17912102 C11.35648007 142.19374882 11.3701904 144.20836794 11.3843689 146.22294617 C11.37879974 147.42863754 11.37323059 148.63432892 11.36749268 149.8765564 C11.36895924 150.92036154 11.3704258 151.96416668 11.3719368 153.03960228 C10.84960448 157.19705968 9.33404924 160.570904 6.46484375 163.64453125 C0.772356 167.99761012 -2.87222635 168.789538 -10 168 C-15.31565158 165.34217421 -19.10236008 161.69291975 -21 156 C-21.09730415 154.08773743 -21.13497933 152.17223613 -21.14044189 150.25750732 C-21.14615204 149.06027542 -21.15186218 147.86304352 -21.15774536 146.62953186 C-21.15886322 145.31415939 -21.15998108 143.99878693 -21.16113281 142.64355469 C-21.1657617 141.2456194 -21.17078646 139.84768537 -21.17617798 138.44975281 C-21.18929868 134.64999533 -21.19574649 130.85025553 -21.20018864 127.05047894 C-21.20312038 124.67562052 -21.20722542 122.30076693 -21.21169281 119.92591095 C-21.22536793 112.49298428 -21.23503407 105.06006864 -21.2388947 97.62713027 C-21.24337325 89.05190406 -21.26091157 80.47683742 -21.2898953 71.90165973 C-21.31152864 65.27054352 -21.32159989 58.63947216 -21.32293582 52.00832105 C-21.32398282 48.04929549 -21.32986806 44.09041993 -21.34775543 40.13143158 C-21.3642644 36.40496817 -21.36637805 32.67876705 -21.35761642 28.95228004 C-21.35648194 26.93902807 -21.37017815 24.92578468 -21.3843689 22.9125824 C-21.32381376 9.77206346 -21.32381376 9.77206346 -16.46484375 4.2578125 C-10.75118355 0.02005941 -7.08375536 -0.78466213 0 0 Z " fill="#71B6F4" transform="translate(485,88)"/>
<path d="M0 0 C7.3445386 4.78405725 11.61370889 11.6590696 14 20 C14.24050903 23.41696167 14.24050903 23.41696167 14.22705078 27.19873047 C14.22734283 27.89211014 14.22763489 28.58548981 14.22793579 29.29988098 C14.22655185 31.57244757 14.21103539 33.84467879 14.1953125 36.1171875 C14.19157903 37.7004478 14.18873364 39.28371043 14.18673706 40.86697388 C14.17912688 45.01967833 14.15950106 49.1722413 14.1373291 53.32489014 C14.11681414 57.56813646 14.10772329 61.8114058 14.09765625 66.0546875 C14.07625251 74.3698636 14.04109189 82.68489786 14 91 C8.72 91 3.44 91 -2 91 C-2 80.44 -2 69.88 -2 59 C-12.56 59 -23.12 59 -34 59 C-34 69.56 -34 80.12 -34 91 C-39.28 91 -44.56 91 -50 91 C-50.09063106 81.89820178 -50.16390537 72.79670682 -50.20724869 63.69455814 C-50.22805895 59.46734313 -50.25625522 55.24045479 -50.30175781 51.01342773 C-50.34545165 46.92852538 -50.36918637 42.84393581 -50.37950897 38.75881767 C-50.38685839 37.20598876 -50.40120955 35.65317556 -50.42292023 34.10048103 C-50.53583094 25.68513904 -50.51425552 18.37344296 -46 11 C-45.31357422 9.80310547 -45.31357422 9.80310547 -44.61328125 8.58203125 C-33.55158608 -6.46586037 -15.99845014 -8.90368958 0 0 Z " fill="#428CEA" transform="translate(122,109)"/>
<path d="M0 0 C0.66 0.99 1.32 1.98 2 3 C6.56515432 8.96076323 6.56515432 8.96076323 13.3671875 11.3359375 C19.11602943 11.42548332 22.50317637 10.9484305 27 7 C28.75422772 5.02329393 28.75422772 5.02329393 30 3 C30.66 2.01 31.32 1.02 32 0 C32.09351098 14.7600643 32.16401224 29.52008929 32.20724869 44.28038979 C32.22785927 51.13413022 32.25595073 57.98768642 32.30175781 64.84130859 C32.34593924 71.4548641 32.36913508 78.06827846 32.37950897 84.68198776 C32.38690231 87.20578398 32.40133962 89.72956967 32.42292023 92.25328445 C32.45193766 95.78708829 32.45595653 99.32010019 32.45410156 102.85400391 C32.46848267 103.89841644 32.48286377 104.94282898 32.49768066 106.01889038 C32.46360338 112.01462057 32.00001974 115.43838553 28 120 C22.0080711 124.96429622 16.61888658 124.71237681 9.11450195 124.6862793 C7.06903564 124.68749611 5.03070176 124.74734418 2.98632812 124.81054688 C-6.62933383 124.84381906 -6.62933383 124.84381906 -10.32470703 122.56884766 C-12.08761509 120.81071066 -13.54089935 119.01369822 -15 117 C-15.80308594 116.19691406 -16.60617187 115.39382813 -17.43359375 114.56640625 C-24.95572917 107.04427083 -32.47786458 99.52213542 -40 92 C-26.8 92 -13.6 92 0 92 C0 61.64 0 31.28 0 0 Z " fill="#428CE9" transform="translate(464,244)"/>
<path d="M0 0 C0 5.28 0 10.56 0 16 C-1.7634375 16.37125 -1.7634375 16.37125 -3.5625 16.75 C-11.23705213 18.71262797 -16.59458706 22.43961726 -21 29 C-23.87773817 35.05113438 -24.17586528 41.33591979 -22.125 47.7265625 C-19.12585263 54.25760051 -15.15971363 59.0388952 -8.60546875 62.12890625 C-2.17972988 64.27724173 4.19069061 63.74872365 10.3125 60.9375 C15.99137715 57.73241035 19.87277856 54.10182962 22.1171875 47.92578125 C23.36323796 43.20482949 23.45713735 38.42002534 23.625 33.5625 C23.66367188 32.64017578 23.70234375 31.71785156 23.7421875 30.76757812 C23.83568217 28.51201932 23.91889361 26.25603824 24 24 C29.28 24 34.56 24 40 24 C40.05607422 26.1346875 40.05607422 26.1346875 40.11328125 28.3125 C40.1789793 30.20835801 40.24542529 32.1041902 40.3125 34 C40.33505859 34.93457031 40.35761719 35.86914062 40.38085938 36.83203125 C40.72031106 45.65777496 42.45830072 52.60367182 49 59 C54.07939963 62.34705702 57.77651352 63.1109305 64 64 C64 69.28 64 74.56 64 80 C54.35940564 80.70886723 46.72125922 78.69543588 39.015625 72.6640625 C36.60381185 70.50433151 34.27120441 68.30637793 32 66 C31.5153125 66.37511719 31.030625 66.75023437 30.53125 67.13671875 C28.3728807 68.7845507 26.19217846 70.39744195 24 72 C23.06414062 72.69609375 23.06414062 72.69609375 22.109375 73.40625 C13.3558158 79.43811432 2.4550918 81.23245453 -8 80 C-19.40683848 77.29717482 -28.27071689 70.51282453 -35 61 C-40.82753937 50.62895536 -41.94172312 39.08277088 -39.18359375 27.6015625 C-35.21076759 16.83201981 -27.11416987 8.31125385 -17 3 C-10.85817799 0.23880481 -7.06222327 0 0 0 Z " fill="#448DEA" transform="translate(192,128)"/>
<path d="M0 0 C5.72909273 3.28681017 10.64660162 8.17781374 14.8984375 13.1875 C14.8984375 13.8475 14.8984375 14.5075 14.8984375 15.1875 C15.8884375 15.5175 16.8784375 15.8475 17.8984375 16.1875 C17.8984375 16.8475 17.8984375 17.5075 17.8984375 18.1875 C18.4759375 17.836875 19.0534375 17.48625 19.6484375 17.125 C22.41648242 15.97164795 23.13151633 16.10182884 25.8984375 17.1875 C28.28027344 19.22875977 28.28027344 19.22875977 30.8828125 21.87890625 C31.34326965 22.34360825 31.80372681 22.80831024 32.27813721 23.28709412 C33.74211561 24.76781819 35.19529791 26.25864519 36.6484375 27.75 C37.64123199 28.75784664 38.6347142 29.76501633 39.62890625 30.77148438 C42.06010223 33.23569461 44.48172618 35.70907329 46.8984375 38.1875 C45.60123826 41.04529017 44.2347549 43.09758536 42.00927734 45.30371094 C41.4288266 45.88401062 40.84837585 46.4643103 40.25033569 47.06219482 C39.62631866 47.67588928 39.00230164 48.28958374 38.359375 48.921875 C37.71851959 49.55990051 37.07766418 50.19792603 36.41738892 50.85528564 C34.37405929 52.88744069 32.32387768 54.91252218 30.2734375 56.9375 C28.8849589 58.3159453 27.4969326 59.69484636 26.109375 61.07421875 C22.71095053 64.45061894 19.30636496 67.82069288 15.8984375 71.1875 C10.34257217 66.49073704 5.10787161 61.58002372 -0.0390625 56.4375 C-0.81830078 55.67050781 -1.59753906 54.90351563 -2.40039062 54.11328125 C-3.13580078 53.37980469 -3.87121094 52.64632812 -4.62890625 51.890625 C-5.29656006 51.22708008 -5.96421387 50.56353516 -6.65209961 49.87988281 C-8.1015625 48.1875 -8.1015625 48.1875 -8.1015625 46.1875 C-6.6015625 44.5625 -6.6015625 44.5625 -5.1015625 43.1875 C-9.76748093 37.65637816 -14.71241535 32.56097946 -19.96484375 27.58203125 C-23.78800164 23.29757825 -24.62586078 19.12993539 -24.4765625 13.53125 C-23.69967782 8.67572074 -21.17377013 5.05459063 -17.5625 1.80078125 C-12.31603729 -1.74244593 -5.89202523 -2.27795771 0 0 Z " fill="#BFC0C2" transform="translate(280.1015625,224.8125)"/>
<path d="M0 0 C5.58641971 4.65349688 10.75769141 9.61165411 15.890625 14.7578125 C17.13027008 15.99602249 17.13027008 15.99602249 18.3949585 17.25924683 C20.13074546 18.99435666 21.86528375 20.73071646 23.59863281 22.46826172 C26.25212811 25.12713242 28.91094266 27.78060012 31.5703125 30.43359375 C33.26073757 32.12467928 34.95085259 33.81607481 36.640625 35.5078125 C37.43438538 36.29954865 38.22814575 37.09128479 39.04595947 37.90701294 C40.15291168 39.01869339 40.15291168 39.01869339 41.28222656 40.15283203 C41.92951721 40.80091827 42.57680786 41.44900452 43.24371338 42.11672974 C47.48314051 46.6626774 48.59463613 49.31562982 48.4296875 55.51953125 C47.73257257 59.54378559 45.96066221 61.25081366 43 64 C39.40911565 65.79544218 35.9036544 65.6863889 32 65 C30.1000824 63.74017334 30.1000824 63.74017334 28.27514648 62.03808594 C27.58516571 61.39995972 26.89518494 60.7618335 26.18429565 60.10437012 C25.46347809 59.40992798 24.74266052 58.71548584 24 58 C23.27297882 57.30136841 22.54595764 56.60273682 21.79690552 55.88293457 C19.42124858 53.56928796 17.06912258 51.23386224 14.72265625 48.890625 C13.4447245 47.61768585 13.4447245 47.61768585 12.14097595 46.31903076 C10.35561712 44.53870324 8.57158252 42.75704684 6.78881836 40.97412109 C4.05147079 38.23897968 1.3061994 35.51195766 -1.43945312 32.78515625 C-3.17757179 31.04996831 -4.91521904 29.314308 -6.65234375 27.578125 C-7.47516342 26.76249084 -8.29798309 25.94685669 -9.14573669 25.10650635 C-10.27810509 23.96952301 -10.27810509 23.96952301 -11.43334961 22.80957031 C-12.09983017 22.14451477 -12.76631073 21.47945923 -13.45298767 20.79425049 C-15.65242779 18.24330346 -15.99206275 16.05896245 -16.4375 12.75 C-15.8560227 7.76590888 -13.62718402 5.32648483 -10 2 C-7.06156148 0.53078074 -4.24602179 1 -1 1 C-0.67 0.67 -0.34 0.34 0 0 Z " fill="#77ACEF" transform="translate(379,291)"/>
<path d="M0 0 C0.99 1.485 0.99 1.485 2 3 C6.56515432 8.96076323 6.56515432 8.96076323 13.3671875 11.3359375 C19.11602943 11.42548332 22.50317637 10.9484305 27 7 C28.75422772 5.02329393 28.75422772 5.02329393 30 3 C30.66 2.01 31.32 1.02 32 0 C32.07620909 7.70460661 32.12866692 15.4091156 32.16479492 23.11401367 C32.17985979 25.73384229 32.20031554 28.35364578 32.22631836 30.97338867 C32.26280162 34.74404105 32.27974988 38.51435926 32.29296875 42.28515625 C32.30845261 43.45208511 32.32393646 44.61901398 32.33988953 45.82130432 C32.34129911 52.66797187 32.19384722 58.37543038 27.46484375 63.7421875 C21.75118355 67.97994059 18.08375536 68.78466213 11 68 C6.01330993 65.50665497 2.50324526 62.00649051 0 57 C-0.0909215 55.1820546 -0.11753467 53.36074055 -0.11352539 51.54052734 C-0.11344986 50.39949554 -0.11337433 49.25846375 -0.11329651 48.08285522 C-0.10813522 46.84637238 -0.10297394 45.60988953 -0.09765625 44.3359375 C-0.0962413 43.07359283 -0.09482635 41.81124817 -0.09336853 40.51065063 C-0.08871078 37.15361701 -0.07972408 33.796651 -0.06866455 30.43963623 C-0.0584377 27.01445094 -0.05386818 23.58925866 -0.04882812 20.1640625 C-0.03778238 13.44268957 -0.02103194 6.72134869 0 0 Z " fill="#4EA4F1" transform="translate(464,244)"/>
<path d="M0 0 C5.72909273 3.28681017 10.64660162 8.17781374 14.8984375 13.1875 C14.8984375 13.8475 14.8984375 14.5075 14.8984375 15.1875 C15.8884375 15.5175 16.8784375 15.8475 17.8984375 16.1875 C18.88061523 17.92480469 18.88061523 17.92480469 18.8984375 20.1875 C16.99243164 22.66113281 16.99243164 22.66113281 14.18359375 25.390625 C13.69386581 25.8732782 13.20413788 26.3559314 12.6995697 26.85321045 C11.13135523 28.39341635 9.5466672 29.91535304 7.9609375 31.4375 C6.89535337 32.47800966 5.83088504 33.51966334 4.76757812 34.5625 C2.15735239 37.11757226 -0.46793102 39.65653497 -3.1015625 42.1875 C-7.90473878 40.03961471 -11.05831311 36.56081763 -14.7265625 32.875 C-15.7475 31.87823242 -15.7475 31.87823242 -16.7890625 30.86132812 C-21.38829108 26.26664423 -24.33021818 22.59487319 -24.5390625 15.875 C-24.39940719 10.63792595 -22.5534891 7.06872711 -19.1015625 3.1875 C-13.80526243 -1.58454702 -6.63127129 -2.56376288 0 0 Z " fill="#50A5F1" transform="translate(280.1015625,224.8125)"/>
<path d="M0 0 C10.44979244 -2.18404022 23.61125504 -4.46311017 33.25915527 1.36462402 C44.23244135 9.46326015 53.54285247 20.36738044 62 31 C62 31.33 62 31.66 62 32 C51.55020756 34.18404022 38.38874496 36.46311017 28.74084473 30.63537598 C17.76755865 22.53673985 8.45714753 11.63261956 0 1 C0 0.67 0 0.34 0 0 Z " fill="#3A7BCD" transform="translate(281,336)"/>
<path d="M0 0 C5.67476113 1.96434039 9.31400331 5.62800662 12 11 C12.08400529 12.59447464 12.10727467 14.19240545 12.09765625 15.7890625 C12.09515869 16.63678223 12.09266113 17.48450195 12.09008789 18.35791016 C12.08098389 19.4360498 12.07187988 20.51418945 12.0625 21.625 C12.041875 25.04875 12.02125 28.4725 12 32 C1.44 32 -9.12 32 -20 32 C-20.12375 26.988125 -20.12375 26.988125 -20.25 21.875 C-20.30462402 20.31241455 -20.30462402 20.31241455 -20.36035156 18.71826172 C-20.42915293 12.94893426 -19.94667903 9.52791721 -16 5 C-10.58420856 0.22894564 -7.09115125 -0.64682799 0 0 Z " fill="#E8EAEE" transform="translate(108,120)"/>
<path d="M0 0 C3.04386505 1.61400673 5.47176412 3.67601025 8 6 C8.94875 6.825 9.8975 7.65 10.875 8.5 C14.22867418 12.44549903 15.2545402 15.95142775 14.9375 21.0625 C14.26475644 25.29348963 12.37618147 27.34728599 9 30 C5.2350613 31.25497957 2.96991382 31.52064444 -1 31 C-4.05137157 29.03369376 -6.47579493 26.59322631 -9 24 C-9.680625 23.36320312 -10.36125 22.72640625 -11.0625 22.0703125 C-14.39259565 18.72678905 -16.45905436 16.19176663 -16.75 11.375 C-16.36698965 6.56239164 -14.43675022 4.27309545 -11 1 C-7.46562765 -0.76718618 -3.84908463 -0.65176193 0 0 Z " fill="#76ABEF" transform="translate(444,357)"/>
<path d="M0 0 C0.66 0 1.32 0 2 0 C3.515625 1.57421875 3.515625 1.57421875 5.25 3.6875 C11.19286894 10.96629688 11.19286894 10.96629688 19.875 13.75 C25.9833682 13.46482016 28.91266156 10.16765732 33 6 C35.05859375 4.234375 35.05859375 4.234375 37 3 C39.6875 3.5625 39.6875 3.5625 42 5 C42.93920898 6.76464844 42.93920898 6.76464844 43 9 C41.09399414 11.47363281 41.09399414 11.47363281 38.28515625 14.203125 C37.55056435 14.9271048 37.55056435 14.9271048 36.8011322 15.66571045 C35.23291773 17.20591635 33.6482297 18.72785304 32.0625 20.25 C30.99691587 21.29050966 29.93244754 22.33216334 28.86914062 23.375 C26.25891489 25.93007226 23.63363148 28.46903497 21 31 C16.19682372 28.85211471 13.04324939 25.37331763 9.375 21.6875 C8.3540625 20.69073242 8.3540625 20.69073242 7.3125 19.67382812 C3.23381435 15.5991728 0.27850406 12.50358102 -0.1953125 6.54296875 C-0.17210937 5.76566406 -0.14890625 4.98835937 -0.125 4.1875 C-0.10695312 3.39730469 -0.08890625 2.60710937 -0.0703125 1.79296875 C-0.03550781 0.90544922 -0.03550781 0.90544922 0 0 Z " fill="#438DEA" transform="translate(256,236)"/>
</svg>
